<?xml version="1.0" encoding="utf-8"?>
<!-- Generator: Adobe Illustrator 16.0.0, SVG Export Plug-In . SVG Version: 6.00 Build 0)  -->
<!DOCTYPE svg PUBLIC "-//W3C//DTD SVG 1.1//EN" "http://www.w3.org/Graphics/SVG/1.1/DTD/svg11.dtd">
<svg version="1.1" id="Layer_1" xmlns="http://www.w3.org/2000/svg" xmlns:xlink="http://www.w3.org/1999/xlink" x="0px" y="0px"
	  viewBox="0 0 305 225" enable-background="new 0 0 305 225" xml:space="preserve">
<g>
	<path fill="#FFFFFF" d="M153.18,2.008H90.303v2.698c5.604,3.319,8.093,7.262,8.093,23.034v93.796
		c0,15.77-2.488,19.715-8.093,23.035v2.697h58.935c1.547,0,3.071-0.029,4.574-0.081c0.562-5.965,1.194-14.597,1.6-23.227
		l0.225-6.046c-0.032-0.339-0.193-0.58-0.572-0.182c-5.108,5.373-5.374,4.541-7.486,3.924c-2.367-0.69-9.499-3.287-10.559-4.024
		c-0.95-0.657-0.676-1.005,0.405-1.465c5.385-2.267,16.812-7.359,18.413-8.031c0.111-0.046,0.186-0.157,0.188-0.273l0.132-3.43
		c0.011-0.221-0.209-0.381-0.416-0.302c-2.786,1.04-16.999,6.905-19.085,7.677c-2.297,0.853-3.602,0.742-5.425-0.523
		c-1.399-0.966-6.01-6.39-6.773-7.68c-0.285-0.483-0.594-0.956,0.32-1.147c0.866-0.187,28.511-5.798,31.458-6.349
		c0.142-0.028,0.244-0.149,0.252-0.291l0.135-3.362c0.008-0.196-0.163-0.35-0.356-0.32c-3.158,0.494-24.633,4.283-27.021,4.674
		c-2.572,0.423-3.134-0.562-4.023-1.685c-0.889-1.123-3.877-7.634-4.208-8.25c-0.607-1.123-0.66-1.613,0.413-1.685
		c8.995-0.579,32.398-1.958,35.303-2.14c0.156-0.011,0.281-0.139,0.288-0.295l0.117-3.143c0.008-0.181-0.14-0.326-0.32-0.322
		c-3.014,0.1-27.185,0.838-28.795,0.785c-1.636-0.057-2.339-0.235-3.228-2.107c-0.8-1.682-1.816-8.893-1.909-9.686
		c-0.07-0.601-0.138-1.08,0.896-0.889c8.222,1.521,30.351,3.978,33.328,4.347c0.179,0.022,0.338-0.116,0.344-0.298l0.114-2.894
		c0.005-0.156-0.106-0.295-0.263-0.32c-2.534-0.395-22.774-3.433-25.015-3.842c-2.405-0.44-2.832-0.896-3.394-2.647
		c-0.387-1.209-0.8-7.133-0.807-7.766c-0.011-0.662-0.063-1.049,0.831-0.786c13.666,3.994,26.276,7.184,28.568,7.756
		c0.193,0.05,0.377-0.093,0.385-0.288l0.106-2.794c0.007-0.146-0.085-0.273-0.229-0.313c-2.179-0.583-18.669-5.012-20.048-5.474
		c-1.564-0.522-2.883-1.255-3.182-3.078c-0.298-1.841-0.334-5.789-0.28-6.664c0.057-0.892,0.167-1.127,0.905-0.764
		c6.203,3.063,20.163,8.288,22.7,9.233c0.199,0.071,0.41-0.071,0.421-0.281l0.103-2.7c0.007-0.132-0.071-0.249-0.192-0.299
		c-1.688-0.693-13.537-5.541-15.496-6.391c-1.901-0.828-2.267-1.492-2.456-3.234c-0.099-0.949-0.134-3.554,0.093-5.125
		c0.146-0.991,0.075-1.233,1.578-0.342c3.011,1.792,13.972,7.5,16.292,8.705c0.203,0.105,0.444-0.035,0.452-0.263l0.102-2.663
		c0.005-0.117-0.056-0.227-0.162-0.284c-1.181-0.633-8.193-4.39-9.838-5.288c-2.132-1.17-2.736-2.073-2.783-3.075
		c-0.089-1.858,0.1-4.037,0.209-4.822c0.192-1.383,0.506-1.568,1.416-0.843c3.948,3.153,9.357,6.696,10.946,7.727
		c0.203,0.128,0.469-0.01,0.479-0.249l0.092-2.381c0.005-0.1-0.039-0.191-0.116-0.252c-0.924-0.739-6.777-4.99-6.777-4.99
		s-0.769-0.7-0.761-1.429c0.011-1.305,0.454-3.924,0.618-4.386c0.209-0.587,0.338-0.906,0.978-0.271
		c2.864,2.864,4.666,4.348,5.839,5.313c0.326,0.271,0.452,0.323,0.452,0.046c0-2.726-1.241-8.132,1.452-9.621
		c0.043-0.021,0.093-0.035,0.144-0.035c0.049,0,0.1,0.014,0.146,0.035c2.693,1.489,1.453,6.896,1.453,9.621
		c0,0.277,0.12,0.225,0.448-0.046c1.176-0.966,2.979-2.449,5.844-5.313c0.636-0.636,0.768-0.316,0.973,0.271
		c0.167,0.462,0.611,3.081,0.622,4.386c0.003,0.729-0.761,1.429-0.761,1.429s-5.857,4.251-6.781,4.99
		c-0.074,0.061-0.117,0.152-0.112,0.252l0.091,2.381c0.008,0.239,0.273,0.377,0.477,0.249c1.589-1.03,6.999-4.573,10.95-7.727
		c0.911-0.726,1.219-0.54,1.411,0.843c0.109,0.785,0.299,2.964,0.213,4.822c-0.046,1.002-0.649,1.905-2.786,3.075
		c-1.642,0.898-8.654,4.655-9.838,5.288c-0.104,0.058-0.167,0.167-0.164,0.284l0.104,2.663c0.012,0.228,0.253,0.368,0.455,0.263
		c2.317-1.205,13.278-6.913,16.292-8.705c1.504-0.892,1.433-0.649,1.575,0.342c0.228,1.571,0.195,4.176,0.093,5.125
		c-0.186,1.742-0.552,2.406-2.456,3.234c-1.959,0.85-13.808,5.697-15.496,6.391c-0.122,0.05-0.196,0.167-0.193,0.299l0.106,2.7
		c0.008,0.21,0.219,0.353,0.417,0.281c2.538-0.945,16.502-6.17,22.704-9.233c0.735-0.363,0.85-0.128,0.902,0.764
		c0.058,0.875,0.021,4.823-0.28,6.664c-0.295,1.823-1.613,2.556-3.182,3.078c-1.374,0.462-17.866,4.891-20.049,5.474
		c-0.138,0.039-0.23,0.167-0.228,0.313l0.109,2.794c0.008,0.195,0.192,0.338,0.386,0.288c2.288-0.572,14.898-3.762,28.563-7.756
		c0.9-0.263,0.843,0.124,0.836,0.786c-0.007,0.633-0.423,6.557-0.807,7.766c-0.562,1.752-0.991,2.207-3.398,2.647
		c-2.239,0.409-22.479,3.447-25.015,3.842c-0.155,0.025-0.267,0.164-0.259,0.32l0.11,2.894c0.011,0.182,0.167,0.32,0.348,0.298
		c2.979-0.369,25.107-2.825,33.324-4.347c1.038-0.191,0.967,0.288,0.898,0.889c-0.096,0.793-1.107,8.004-1.907,9.686
		c-0.888,1.872-1.592,2.051-3.23,2.107c-1.607,0.053-25.779-0.686-28.797-0.785c-0.177-0.004-0.323,0.142-0.316,0.322l0.115,3.143
		c0.006,0.156,0.131,0.284,0.291,0.295c2.9,0.182,26.305,1.561,35.299,2.14c1.077,0.071,1.024,0.562,0.417,1.685
		c-0.335,0.616-3.32,7.127-4.209,8.25c-0.888,1.123-1.449,2.107-4.021,1.685c-2.394-0.391-23.869-4.18-27.028-4.674
		c-0.191-0.029-0.361,0.124-0.354,0.32l0.138,3.362c0.003,0.142,0.106,0.263,0.249,0.291c2.945,0.551,30.595,6.162,31.461,6.349
		c0.914,0.191,0.605,0.664,0.317,1.147c-0.762,1.29-5.371,6.714-6.771,7.68c-1.827,1.266-3.127,1.376-5.424,0.523
		c-2.086-0.771-16.299-6.637-19.085-7.677c-0.211-0.079-0.427,0.081-0.421,0.302l0.136,3.43c0.004,0.116,0.079,0.228,0.189,0.273
		c1.598,0.672,13.024,5.765,18.413,8.031c1.081,0.46,1.351,0.808,0.405,1.465c-1.063,0.737-8.196,3.334-10.561,4.024
		c-2.113,0.617-2.376,1.449-7.484-3.924c-0.379-0.398-0.54-0.157-0.572,0.182l0.221,6.046c0.381,8.011,0.953,16.024,1.478,21.903
		c42.082-6.625,64.321-36.128,64.321-74.755C232.242,31.476,205.266,2.008,153.18,2.008"/>
	<path fill="#FFFFFF" d="M276.834,193.295v-0.551h-7.996v0.551c1.143,0.676,1.649,1.479,1.649,4.693v19.122
		c0,3.216-0.507,4.02-1.649,4.698v0.549h7.996v-0.549c-1.144-0.679-1.649-1.482-1.649-4.698v-8.249h16.964v8.249
		c0,3.216-0.508,4.02-1.649,4.698v0.549h7.995v-0.549c-1.142-0.679-1.649-1.482-1.649-4.698v-19.122
		c0-3.215,0.508-4.018,1.649-4.693v-0.551h-7.995v0.551c1.142,0.676,1.649,1.479,1.649,4.693v7.616h-16.964v-7.616
		C275.185,194.773,275.69,193.971,276.834,193.295 M254.836,221.809c-1.269-0.72-1.863-1.567-1.863-4.909V195.96h3.598
		c4.61,0,5.499,0.676,6.727,2.198l0.549-0.17l-0.89-5.625c-1.732,0.21-4.018,0.381-6.894,0.381h-10.873
		c-2.877,0-5.161-0.171-6.896-0.381l-0.887,5.625l0.549,0.17c1.228-1.522,2.117-2.198,6.726-2.198h3.599v20.939
		c0,3.342-0.593,4.189-1.863,4.909v0.549h8.42V221.809z M225.477,193.295c1.228,0.719,1.859,1.563,1.859,4.907v12.648
		c0,5.415-2.917,8.419-8.036,8.419c-5.332,0-8.206-2.919-8.206-8.123v-13.158c0-3.215,0.506-4.018,1.649-4.693v-0.551h-7.997v0.551
		c1.144,0.676,1.652,1.479,1.652,4.693v13.455c0,7.275,4.525,11.549,12.267,11.549c7.7,0,12.27-4.314,12.27-12.142v-12.648
		c0-3.344,0.633-4.188,1.86-4.907v-0.551h-7.318V193.295z M184.313,192.067c-9.476,0-15.653,7.318-15.653,15.694
		c0,7.953,5.669,15.23,15.695,15.23c9.478,0,15.653-7.317,15.653-15.695C200.009,199.344,194.339,192.067,184.313,192.067
		 M184.736,219.734c-6.26,0-11.083-5.457-11.083-12.903c0-7.106,4.104-11.509,10.28-11.509c6.261,0,11.083,5.459,11.083,12.904
		C195.017,215.336,190.915,219.734,184.736,219.734 M134.774,221.809c-1.312-0.551-1.862-1.567-1.438-4.823l1.945-14.723
		l9.646,19.713h1.778l9.771-19.756l1.819,14.934c0.382,3.173-0.04,4.104-1.269,4.655v0.549h8.039v-0.549
		c-1.101-0.593-1.566-1.482-1.99-4.485l-3.383-24.918h-2.157l-11.042,22.804l-11.042-22.804h-2.156l-3.512,24.748
		c-0.423,3.088-1.059,4.02-2.285,4.655v0.549h7.276V221.809z M116.541,221.809c-1.269-0.72-1.861-1.567-1.861-4.909V195.96h3.596
		c4.61,0,5.5,0.676,6.727,2.198l0.55-0.17l-0.889-5.625c-1.733,0.21-4.019,0.381-6.895,0.381h-10.872
		c-2.878,0-5.161-0.171-6.896-0.381l-0.888,5.625l0.55,0.17c1.227-1.522,2.114-2.198,6.725-2.198h3.599v20.939
		c0,3.342-0.594,4.189-1.863,4.909v0.549h8.419V221.809z M79.523,221.809c-0.932-0.466-1.65-1.482-1.65-4.698v-21.277h3.852
		c4.694,0,7.063,1.818,7.063,5.754c0,3.596-2.242,5.837-6.515,5.837h-2.792v0.424l1.311,2.666h1.27c1.396,0,1.819,0.464,3.892,3.255
		l5.288,7.107c0.847,1.144,1.438,1.481,2.539,1.481h5.204v-0.549c-1.101-0.424-1.946-1.06-3.978-3.682l-3.639-4.654
		c-1.946-2.453-3.003-3.679-4.272-4.188c4.357-1.144,6.601-4.229,6.601-7.953c0-5.457-3.639-8.588-11.508-8.588h-10.66v0.551
		c0.93,0.465,1.649,1.479,1.649,4.693v19.122c0,3.216-0.72,4.232-1.649,4.698v0.549h7.995V221.809z M63.914,217.788l-11.465-25.383
		h-1.733L39.25,217.788c-1.142,2.497-1.734,3.428-3.004,4.021v0.549h7.616v-0.549c-1.523-0.593-2.032-1.523-0.679-4.611l1.565-3.598
		h12.185l1.565,3.598c1.354,3.088,0.888,4.019-0.466,4.611v0.549h8.673v-0.549C65.606,221.216,65.057,220.285,63.914,217.788
		 M46.104,210.554l4.738-10.829l4.737,10.829H46.104z M19.326,192.744H6.506v0.551c1.142,0.676,1.65,1.479,1.65,4.693v19.122
		c0,3.216-0.509,4.02-1.65,4.698v0.549h12.015c11.168,0,16.922-6.6,16.922-15.612C35.442,198.624,29.858,192.744,19.326,192.744
		 M18.183,219.143h-5.374V195.96h5.754c7.7,0,11.93,3.891,11.93,11.928C30.492,214.868,26.643,219.143,18.183,219.143"/>
</g>
</svg>
