<?xml version="1.0" standalone="no"?>
<!DOCTYPE svg PUBLIC "-//W3C//DTD SVG 1.1//EN" "http://www.w3.org/Graphics/SVG/1.1/DTD/svg11.dtd" >
<svg>
<metadata>
Created by FontForge 20120731 at Thu Apr 25 01:00:50 2019
 By www-data
(c) 2014 Klim Type Foundry. All Rights Reserved.
</metadata>
<defs>
<font id="National2-Light" horiz-adv-x="614" >
  <font-face 
    font-family="National 2"
    font-weight="350"
    font-stretch="normal"
    units-per-em="1000"
    panose-1="2 11 3 4 3 5 2 2 2 3"
    ascent="762"
    descent="-238"
    x-height="500"
    cap-height="668"
    bbox="-110 -212 1109 913"
    underline-thickness="43"
    underline-position="-74"
    stemh="45"
    stemv="59"
    unicode-range="U+0020-FB02"
  />
<missing-glyph horiz-adv-x="908" 
d="M120 349v288l288 -288h-85l-133 131v-131h-70zM439 668v-288l-288 288h85l133 -131v131h70zM469 668h288l-288 -288v85l131 133h-131v70zM788 349h-288l288 288v-85l-131 -133h131v-70zM788 319v-288l-288 288h85l133 -131v131h70zM469 0v288l288 -288h-85l-133 131v-131
h-70zM439 0h-288l288 288v-85l-131 -133h131v-70zM120 319h288l-288 -288v85l131 133h-131v70z" />
    <glyph glyph-name="f_b" unicode="fb" horiz-adv-x="872" 
d="M819 253c0 -156 -84 -263 -213 -263c-81 0 -143 49 -159 116l-6 -106h-47v636c-22 28 -59 49 -110 49c-77 0 -118 -51 -118 -139v-46h126v-45h-126v-455h-58v455h-73v45h73v48c0 110 68 184 174 184c53 0 97 -21 124 -47l15 46h31v-333c19 67 85 112 161 112
c131 0 206 -105 206 -257zM452 284v-74c0 -122 75 -173 146 -173c92 0 162 73 162 216c0 138 -63 210 -158 210c-73 0 -150 -55 -150 -179z" />
    <glyph glyph-name="f_f_b" unicode="ffb" horiz-adv-x="1162" 
d="M1109 253c0 -156 -84 -263 -213 -263c-81 0 -143 49 -159 116l-6 -106h-47v636c-22 28 -59 49 -110 49c-77 0 -118 -51 -118 -139v-46h126v-45h-126v-455h-58v455h-232v-455h-58v455h-73v45h73v51c0 105 66 170 156 170c33 0 63 -8 85 -23l-16 -47c-20 14 -41 21 -68 21
c-61 0 -99 -46 -99 -124v-48h232v48c0 110 68 184 174 184c53 0 97 -21 124 -47l15 46h31v-333c19 67 85 112 161 112c131 0 206 -105 206 -257zM742 284v-74c0 -122 75 -173 146 -173c92 0 162 73 162 216c0 138 -63 210 -158 210c-73 0 -150 -55 -150 -179z" />
    <glyph glyph-name="f_f" unicode="ff" horiz-adv-x="599" 
d="M166 0h-58v455h-73v45h73v51c0 105 66 170 156 170c33 0 63 -8 85 -23l-16 -47c-20 14 -41 21 -68 21c-61 0 -99 -46 -99 -124v-48h236v62c0 105 67 170 156 170c36 0 66 -9 92 -25l-16 -48c-23 17 -44 25 -75 25c-61 0 -99 -47 -99 -125v-59h128v-45h-128v-455h-58v455
h-236v-455z" />
    <glyph glyph-name="f_h" unicode="fh" horiz-adv-x="860" 
d="M166 455v-455h-58v455h-73v45h73v48c0 110 68 184 174 184c53 0 97 -21 124 -47l15 46h31v-333c26 67 87 112 167 112c90 0 154 -54 154 -161v-349h-58v336c0 78 -39 123 -112 123c-81 0 -151 -56 -151 -175v-284h-58v636c-22 28 -59 49 -110 49
c-77 0 -118 -51 -118 -139v-46h126v-45h-126z" />
    <glyph glyph-name="f_f_h" unicode="ffh" horiz-adv-x="1150" 
d="M166 0h-58v455h-73v45h73v51c0 105 66 170 156 170c33 0 63 -8 85 -23l-16 -47c-20 14 -41 21 -68 21c-61 0 -99 -46 -99 -124v-48h232v48c0 110 68 184 174 184c53 0 97 -21 124 -47l15 46h31v-333c26 67 87 112 167 112c90 0 154 -54 154 -161v-349h-58v336
c0 78 -39 123 -112 123c-81 0 -151 -56 -151 -175v-284h-58v636c-22 28 -59 49 -110 49c-77 0 -118 -51 -118 -139v-46h126v-45h-126v-455h-58v455h-232v-455z" />
    <glyph glyph-name="fi" unicode="fi" horiz-adv-x="551" 
d="M166 0h-58v455h-73v45h73v37c0 122 76 195 184 195c56 0 108 -18 142 -54l-28 -44c-30 37 -73 51 -114 51c-83 0 -126 -53 -126 -151v-34h294v-500h-58v455h-236v-455z" />
    <glyph glyph-name="f_idieresis" unicode="f&#xef;" horiz-adv-x="551" 
d="M561 642c0 -24 -17 -42 -43 -42c-23 0 -41 18 -41 42s18 43 41 43c26 0 43 -19 43 -43zM166 0h-58v455h-73v45h73v62c0 105 66 170 156 170c36 0 66 -9 92 -25l-17 -48c-22 17 -44 25 -74 25c-61 0 -99 -47 -99 -125v-59h294v-500h-58v455h-236v-455z" />
    <glyph glyph-name="f_f_i" unicode="ffi" horiz-adv-x="845" 
d="M166 0h-58v455h-73v45h73v51c0 105 66 170 156 170c33 0 63 -8 85 -23l-16 -47c-20 14 -41 21 -68 21c-61 0 -99 -46 -99 -124v-48h236v37c0 122 76 195 184 195c56 0 108 -18 142 -54l-28 -44c-30 37 -73 51 -114 51c-83 0 -126 -53 -126 -151v-34h294v-500h-58v455
h-236v-455h-58v455h-236v-455z" />
    <glyph glyph-name="f_f_idieresis" unicode="ff&#xef;" horiz-adv-x="845" 
d="M855 642c0 -24 -17 -42 -43 -42c-23 0 -41 18 -41 42s18 43 41 43c26 0 43 -19 43 -43zM166 0h-58v455h-73v45h73v51c0 105 66 170 156 170c33 0 63 -8 85 -23l-16 -47c-20 14 -41 21 -68 21c-61 0 -99 -46 -99 -124v-48h236v62c0 105 66 170 156 170c36 0 66 -9 92 -25
l-17 -48c-22 17 -44 25 -74 25c-61 0 -99 -47 -99 -125v-59h294v-500h-58v455h-236v-455h-58v455h-236v-455z" />
    <glyph glyph-name="f_j" unicode="fj" horiz-adv-x="551" 
d="M460 -40c0 -126 -74 -188 -190 -162l8 50c79 -22 124 11 124 117v490h-236v-455h-58v455h-73v45h73v37c0 122 76 195 184 195c56 0 108 -18 142 -54l-28 -44c-30 37 -73 51 -114 51c-83 0 -126 -53 -126 -151v-34h294v-540z" />
    <glyph glyph-name="f_f_j" unicode="ffj" horiz-adv-x="845" 
d="M754 -40c0 -126 -74 -188 -190 -162l8 50c79 -22 124 11 124 117v490h-236v-455h-58v455h-236v-455h-58v455h-73v45h73v51c0 105 66 170 156 170c33 0 63 -8 85 -23l-16 -47c-20 14 -41 21 -68 21c-61 0 -99 -46 -99 -124v-48h236v37c0 122 76 195 184 195
c56 0 108 -18 142 -54l-28 -44c-30 37 -73 51 -114 51c-83 0 -126 -53 -126 -151v-34h294v-540z" />
    <glyph glyph-name="f_k" unicode="fk" horiz-adv-x="812" 
d="M166 455v-455h-58v455h-73v45h73v48c0 110 68 184 174 184c53 0 97 -21 124 -47l15 46h31v-442h50l200 211h69l-220 -231l240 -269h-74l-215 241h-50v-241h-58v636c-22 28 -59 49 -110 49c-77 0 -118 -51 -118 -139v-46h126v-45h-126z" />
    <glyph glyph-name="f_f_k" unicode="ffk" horiz-adv-x="1102" 
d="M166 0h-58v455h-73v45h73v51c0 105 66 170 156 170c33 0 63 -8 85 -23l-16 -47c-20 14 -41 21 -68 21c-61 0 -99 -46 -99 -124v-48h232v48c0 110 68 184 174 184c53 0 97 -21 124 -47l15 46h31v-442h50l200 211h69l-220 -231l240 -269h-74l-215 241h-50v-241h-58v636
c-22 28 -59 49 -110 49c-77 0 -118 -51 -118 -139v-46h126v-45h-126v-455h-58v455h-232v-455z" />
    <glyph glyph-name="fl" unicode="fl" horiz-adv-x="578" 
d="M487 -9c-58 0 -93 30 -93 96v549c-22 28 -59 49 -110 49c-77 0 -118 -51 -118 -139v-46h126v-45h-126v-455h-58v455h-73v45h73v48c0 110 68 184 174 184c53 0 97 -21 124 -47l15 46h31v-638c0 -39 18 -54 48 -54c14 0 27 4 39 12l6 -46c-15 -9 -38 -14 -58 -14z" />
    <glyph glyph-name="f_f_l" unicode="ffl" horiz-adv-x="873" 
d="M839 5c-15 -9 -38 -14 -58 -14c-58 0 -93 30 -93 96v549c-22 28 -59 49 -110 49c-77 0 -118 -51 -118 -139v-46h126v-45h-126v-455h-58v455h-236v-455h-58v455h-73v45h73v51c0 105 66 170 156 170c33 0 63 -8 85 -23l-16 -47c-20 14 -41 21 -68 21
c-61 0 -99 -46 -99 -124v-48h236v48c0 110 68 184 174 184c53 0 97 -21 124 -47l15 46h31v-638c0 -39 18 -54 48 -54c14 0 27 4 39 12z" />
    <glyph glyph-name=".notdef" horiz-adv-x="908" 
d="M120 349v288l288 -288h-85l-133 131v-131h-70zM439 668v-288l-288 288h85l133 -131v131h70zM469 668h288l-288 -288v85l131 133h-131v70zM788 349h-288l288 288v-85l-131 -133h131v-70zM788 319v-288l-288 288h85l133 -131v131h70zM469 0v288l288 -288h-85l-133 131v-131
h-70zM439 0h-288l288 288v-85l-131 -133h131v-70zM120 319h288l-288 -288v85l131 133h-131v70z" />
    <glyph glyph-name="uni00A0" unicode="&#xa0;" horiz-adv-x="236" 
 />
    <glyph glyph-name="space" unicode=" " horiz-adv-x="236" 
 />
    <glyph glyph-name="A" unicode="A" horiz-adv-x="635" 
d="M316 601l-128 -341h257l-127 341h-2zM542 0l-78 209h-295l-78 -209h-59l253 668h65l253 -668h-61z" />
    <glyph glyph-name="B" unicode="B" horiz-adv-x="600" 
d="M398 344v-3c84 -7 152 -59 152 -157c0 -114 -71 -184 -228 -184h-223v668h215c141 0 211 -59 211 -172c0 -87 -54 -140 -127 -152zM158 617v-253h156c90 0 150 37 150 126s-55 127 -154 127h-152zM158 314v-265h161c110 0 171 43 171 134c0 85 -59 131 -169 131h-163z
" />
    <glyph glyph-name="C" unicode="C" horiz-adv-x="617" 
d="M53 334c0 222 122 344 286 344c115 0 192 -52 232 -157l-51 -28c-28 87 -91 134 -181 134c-139 0 -223 -113 -223 -293s84 -293 223 -293c90 0 153 48 181 134l51 -28c-40 -105 -117 -157 -232 -157c-164 0 -286 122 -286 344z" />
    <glyph glyph-name="D" unicode="D" horiz-adv-x="673" 
d="M99 0v668h193c188 0 328 -97 328 -330c0 -236 -146 -338 -328 -338h-193zM158 617v-566h133c151 0 267 86 267 287c0 198 -111 279 -267 279h-133z" />
    <glyph glyph-name="E" unicode="E" horiz-adv-x="575" 
d="M509 52v-52h-410v668h410v-52h-352v-251h316v-53h-316v-260h352z" />
    <glyph glyph-name="F" unicode="F" horiz-adv-x="546" 
d="M158 0h-59v668h396v-52h-337v-255h302v-52h-302v-309z" />
    <glyph glyph-name="G" unicode="G" horiz-adv-x="671" 
d="M354 330h241v-330h-48l-10 119c-22 -78 -100 -129 -196 -129c-169 0 -288 122 -288 343c0 222 125 345 295 345c120 0 200 -53 241 -157l-53 -29c-28 87 -94 135 -188 135c-145 0 -232 -113 -232 -293c0 -176 82 -293 231 -293c104 0 189 62 189 193v45h-182v51z" />
    <glyph glyph-name="H" unicode="H" horiz-adv-x="708" 
d="M158 0h-59v668h59v-305h392v305h59v-668h-59v311h-392v-311z" />
    <glyph glyph-name="I" unicode="I" horiz-adv-x="257" 
d="M99 668h59v-668h-59v668z" />
    <glyph glyph-name="J" unicode="J" horiz-adv-x="534" 
d="M389 215v453h60v-459c0 -153 -92 -219 -211 -219c-114 0 -193 77 -201 179l52 26c8 -93 64 -155 150 -155c92 0 150 53 150 175z" />
    <glyph glyph-name="K" unicode="K" 
d="M589 0h-75l-286 310h-70v-310h-59v668h59v-305h71l272 305h71l-293 -328z" />
    <glyph glyph-name="L" unicode="L" horiz-adv-x="546" 
d="M99 668h59v-616h350v-52h-409v668z" />
    <glyph glyph-name="M" unicode="M" horiz-adv-x="799" 
d="M641 580l-219 -416h-45l-219 416h-2l1 -123v-457h-58v668h72l230 -438h2l228 438h70v-668h-59v457l1 123h-2z" />
    <glyph glyph-name="N" unicode="N" horiz-adv-x="702" 
d="M545 99v569h58v-668h-58l-386 572h-2v-572h-58v668h62l381 -569h3z" />
    <glyph glyph-name="O" unicode="O" horiz-adv-x="686" 
d="M343 678c173 0 289 -130 289 -344s-116 -344 -289 -344c-174 0 -290 130 -290 344s116 344 290 344zM343 627c-145 0 -227 -119 -227 -293s82 -293 227 -293s226 119 226 293s-81 293 -226 293z" />
    <glyph glyph-name="P" unicode="P" horiz-adv-x="588" 
d="M315 261h-157v-261h-59v668h216c155 0 232 -77 232 -202c0 -130 -81 -205 -232 -205zM485 466c0 94 -48 152 -175 152h-152v-307h152c123 0 175 55 175 155z" />
    <glyph glyph-name="Q" unicode="Q" horiz-adv-x="686" 
d="M528 -157c-137 -11 -202 56 -217 149c-156 15 -258 142 -258 342c0 214 116 344 290 344c173 0 289 -130 289 -344c0 -203 -104 -330 -262 -343c17 -74 74 -104 169 -96zM343 627c-145 0 -227 -119 -227 -293s82 -293 227 -293s226 119 226 293s-81 293 -226 293z" />
    <glyph glyph-name="R" unicode="R" horiz-adv-x="643" 
d="M499 482c0 87 -50 135 -157 135h-184v-273h183c105 0 158 48 158 138zM597 0h-66c-15 18 -23 36 -31 66l-28 119c-19 79 -62 108 -151 108h-163v-293h-59v668h245c150 0 219 -68 219 -184c0 -105 -76 -164 -158 -168v-2c66 -7 106 -39 123 -111l32 -131
c7 -29 20 -52 37 -72z" />
    <glyph glyph-name="S" unicode="S" horiz-adv-x="561" 
d="M280 -10c-133 0 -228 70 -247 190l55 17c15 -100 91 -158 192 -158c94 0 167 47 167 135c0 199 -385 78 -385 322c0 114 99 182 214 182c121 0 206 -55 223 -177l-55 -13c-14 90 -73 141 -168 141c-87 0 -156 -49 -156 -131c0 -192 385 -68 385 -323
c0 -117 -98 -185 -225 -185z" />
    <glyph glyph-name="T" unicode="T" horiz-adv-x="610" 
d="M335 0h-60v616h-245v52h549v-52h-244v-616z" />
    <glyph glyph-name="U" unicode="U" horiz-adv-x="663" 
d="M331 41c110 0 188 62 188 206v421h60v-427c0 -172 -108 -251 -248 -251c-137 0 -246 80 -246 251v427h60v-421c0 -144 77 -206 186 -206z" />
    <glyph glyph-name="V" unicode="V" horiz-adv-x="624" 
d="M314 63l218 605h60l-246 -668h-69l-245 668h63l217 -605h2z" />
    <glyph glyph-name="W" unicode="W" horiz-adv-x="860" 
d="M399 668h63l152 -592h3l152 592h58l-177 -668h-65l-154 584h-2l-154 -584h-65l-178 668h60l152 -592h3z" />
    <glyph glyph-name="X" unicode="X" horiz-adv-x="593" 
d="M494 0l-198 295h-2l-199 -295h-66l233 343l-217 325h68l183 -277h2l184 277h66l-218 -323l233 -345h-69z" />
    <glyph glyph-name="Y" unicode="Y" horiz-adv-x="602" 
d="M301 324h3l202 344h64l-239 -401v-267h-60v267l-239 401h67z" />
    <glyph glyph-name="Z" unicode="Z" horiz-adv-x="589" 
d="M127 52h407v-52h-478v45l400 571h-392v52h463v-45z" />
    <glyph glyph-name="Aacute" unicode="&#xc1;" horiz-adv-x="635" 
d="M329 731h-39l89 149h83zM316 601l-128 -341h257l-127 341h-2zM542 0l-78 209h-295l-78 -209h-59l253 668h65l253 -668h-61z" />
    <glyph glyph-name="Abreve" unicode="&#x102;" horiz-adv-x="635" 
d="M317 776c58 0 97 39 99 101h43c0 -90 -59 -148 -142 -148s-142 58 -142 148h43c2 -62 41 -101 99 -101zM316 601l-128 -341h257l-127 341h-2zM542 0l-78 209h-295l-78 -209h-59l253 668h65l253 -668h-61z" />
    <glyph glyph-name="Acircumflex" unicode="&#xc2;" horiz-adv-x="635" 
d="M285 881h65l125 -150h-47l-110 106l-111 -106h-47zM316 601l-128 -341h257l-127 341h-2zM542 0l-78 209h-295l-78 -209h-59l253 668h65l253 -668h-61z" />
    <glyph glyph-name="Adieresis" unicode="&#xc4;" horiz-adv-x="635" 
d="M270 785c0 -24 -18 -43 -42 -43c-26 0 -44 19 -44 43s18 43 44 43c24 0 42 -19 42 -43zM450 785c0 -24 -18 -43 -44 -43c-24 0 -41 19 -41 43s17 43 41 43c26 0 44 -19 44 -43zM316 601l-128 -341h257l-127 341h-2zM542 0l-78 209h-295l-78 -209h-59l253 668h65l253 -668
h-61z" />
    <glyph glyph-name="Agrave" unicode="&#xc0;" horiz-adv-x="635" 
d="M343 731h-39l-133 149h83zM316 601l-128 -341h257l-127 341h-2zM542 0l-78 209h-295l-78 -209h-59l253 668h65l253 -668h-61z" />
    <glyph glyph-name="Amacron" unicode="&#x100;" horiz-adv-x="635" 
d="M461 752h-287v47h287v-47zM316 601l-128 -341h257l-127 341h-2zM542 0l-78 209h-295l-78 -209h-59l253 668h65l253 -668h-61z" />
    <glyph glyph-name="Aogonek" unicode="&#x104;" horiz-adv-x="635" 
d="M592 -192c-14 -10 -32 -16 -53 -16c-35 0 -69 23 -69 72c0 46 27 94 68 147l-74 198h-295l-78 -209h-59l253 668h65l253 -668h-30c-38 -53 -57 -93 -57 -127c0 -24 11 -38 29 -38c11 0 22 3 32 13zM316 601l-128 -341h257l-127 341h-2z" />
    <glyph glyph-name="Aring" unicode="&#xc5;" horiz-adv-x="635" 
d="M255 743c0 -36 27 -64 62 -64s62 28 62 64c0 37 -27 65 -62 65s-62 -28 -62 -65zM316 601l-128 -341h257l-127 341h-2zM169 209l-78 -209h-59l247 651c-36 15 -62 51 -62 92c0 56 46 101 100 101s100 -45 100 -101c0 -41 -25 -76 -61 -92l247 -651h-61l-78 209h-295z" />
    <glyph glyph-name="Atilde" unicode="&#xc3;" horiz-adv-x="635" 
d="M437 862h47c-5 -76 -43 -129 -101 -129c-56 0 -92 76 -133 76c-34 0 -49 -31 -52 -77h-46c5 76 43 129 100 129s92 -77 134 -77c33 0 49 32 51 78zM316 601l-128 -341h257l-127 341h-2zM542 0l-78 209h-295l-78 -209h-59l253 668h65l253 -668h-61z" />
    <glyph glyph-name="AE" unicode="&#xc6;" horiz-adv-x="984" 
d="M505 624l-227 -346h229v346h-2zM507 0v227h-262l-149 -227h-64l441 668h445v-52h-352v-251h316v-53h-316v-260h352v-52h-411z" />
    <glyph glyph-name="AEacute" unicode="&#x1fc;" horiz-adv-x="984" 
d="M701 731h-39l89 149h83zM505 624l-227 -346h229v346h-2zM507 0v227h-262l-149 -227h-64l441 668h445v-52h-352v-251h316v-53h-316v-260h352v-52h-411z" />
    <glyph glyph-name="Cacute" unicode="&#x106;" horiz-adv-x="617" 
d="M354 731h-39l89 149h83zM53 334c0 222 122 344 286 344c115 0 192 -52 232 -157l-51 -28c-28 87 -91 134 -181 134c-139 0 -223 -113 -223 -293s84 -293 223 -293c90 0 153 48 181 134l51 -28c-40 -105 -117 -157 -232 -157c-164 0 -286 122 -286 344z" />
    <glyph glyph-name="Ccaron" unicode="&#x10c;" horiz-adv-x="617" 
d="M375 731h-65l-125 150h47l111 -106l110 106h47zM53 334c0 222 122 344 286 344c115 0 192 -52 232 -157l-51 -28c-28 87 -91 134 -181 134c-139 0 -223 -113 -223 -293s84 -293 223 -293c90 0 153 48 181 134l51 -28c-40 -105 -117 -157 -232 -157
c-164 0 -286 122 -286 344z" />
    <glyph glyph-name="Ccedilla" unicode="&#xc7;" horiz-adv-x="617" 
d="M312 -208c-45 0 -80 19 -99 43l24 33c20 -24 43 -37 75 -37s57 13 57 42c0 34 -35 50 -93 52l23 68c-144 18 -246 138 -246 341c0 222 122 344 286 344c115 0 192 -52 232 -157l-51 -28c-28 87 -91 134 -181 134c-139 0 -223 -113 -223 -293s84 -293 223 -293
c90 0 153 48 181 134l51 -28c-40 -105 -117 -157 -232 -157h-11l-11 -33c55 -5 97 -33 97 -82c0 -57 -49 -83 -102 -83z" />
    <glyph glyph-name="Ccircumflex" unicode="&#x108;" horiz-adv-x="617" 
d="M310 881h65l125 -150h-47l-110 106l-111 -106h-47zM53 334c0 222 122 344 286 344c115 0 192 -52 232 -157l-51 -28c-28 87 -91 134 -181 134c-139 0 -223 -113 -223 -293s84 -293 223 -293c90 0 153 48 181 134l51 -28c-40 -105 -117 -157 -232 -157
c-164 0 -286 122 -286 344z" />
    <glyph glyph-name="Cdotaccent" unicode="&#x10a;" horiz-adv-x="617" 
d="M389 787c0 -26 -19 -46 -46 -46c-26 0 -45 20 -45 46s19 46 45 46c27 0 46 -20 46 -46zM53 334c0 222 122 344 286 344c115 0 192 -52 232 -157l-51 -28c-28 87 -91 134 -181 134c-139 0 -223 -113 -223 -293s84 -293 223 -293c90 0 153 48 181 134l51 -28
c-40 -105 -117 -157 -232 -157c-164 0 -286 122 -286 344z" />
    <glyph glyph-name="Dcaron" unicode="&#x10e;" horiz-adv-x="673" 
d="M355 731h-65l-125 150h47l111 -106l110 106h47zM99 0v668h193c188 0 328 -97 328 -330c0 -236 -146 -338 -328 -338h-193zM158 617v-566h133c151 0 267 86 267 287c0 198 -111 279 -267 279h-133z" />
    <glyph glyph-name="Dcroat" unicode="&#x110;" horiz-adv-x="687" 
d="M306 0h-193v311h-80v52h80v305h193c188 0 328 -97 328 -330c0 -236 -146 -338 -328 -338zM172 51h133c151 0 267 86 267 287c0 198 -111 279 -267 279h-133v-254h164v-52h-164v-260z" />
    <glyph glyph-name="Eacute" unicode="&#xc9;" horiz-adv-x="575" 
d="M318 731h-39l89 149h83zM509 52v-52h-410v668h410v-52h-352v-251h316v-53h-316v-260h352z" />
    <glyph glyph-name="Ebreve" unicode="&#x114;" horiz-adv-x="575" 
d="M307 776c58 0 97 39 99 101h43c0 -90 -59 -148 -142 -148s-142 58 -142 148h43c2 -62 41 -101 99 -101zM509 52v-52h-410v668h410v-52h-352v-251h316v-53h-316v-260h352z" />
    <glyph glyph-name="Ecaron" unicode="&#x11a;" horiz-adv-x="575" 
d="M339 731h-65l-125 150h47l111 -106l110 106h47zM509 52v-52h-410v668h410v-52h-352v-251h316v-53h-316v-260h352z" />
    <glyph glyph-name="Ecircumflex" unicode="&#xca;" horiz-adv-x="575" 
d="M274 881h65l125 -150h-47l-110 106l-111 -106h-47zM509 52v-52h-410v668h410v-52h-352v-251h316v-53h-316v-260h352z" />
    <glyph glyph-name="Edieresis" unicode="&#xcb;" horiz-adv-x="575" 
d="M260 785c0 -24 -18 -43 -42 -43c-26 0 -44 19 -44 43s18 43 44 43c24 0 42 -19 42 -43zM440 785c0 -24 -18 -43 -44 -43c-24 0 -41 19 -41 43s17 43 41 43c26 0 44 -19 44 -43zM509 52v-52h-410v668h410v-52h-352v-251h316v-53h-316v-260h352z" />
    <glyph glyph-name="Edotaccent" unicode="&#x116;" horiz-adv-x="575" 
d="M352 787c0 -26 -19 -46 -46 -46c-26 0 -45 20 -45 46s19 46 45 46c27 0 46 -20 46 -46zM509 52v-52h-410v668h410v-52h-352v-251h316v-53h-316v-260h352z" />
    <glyph glyph-name="Egrave" unicode="&#xc8;" horiz-adv-x="575" 
d="M333 731h-39l-133 149h83zM509 52v-52h-410v668h410v-52h-352v-251h316v-53h-316v-260h352z" />
    <glyph glyph-name="Emacron" unicode="&#x112;" horiz-adv-x="575" 
d="M450 752h-287v47h287v-47zM509 52v-52h-410v668h410v-52h-352v-251h316v-53h-316v-260h352z" />
    <glyph glyph-name="Eogonek" unicode="&#x118;" horiz-adv-x="575" 
d="M465 -192c-14 -10 -32 -16 -53 -16c-35 0 -69 23 -69 72c0 43 24 87 60 136h-304v668h410v-52h-352v-251h316v-53h-316v-260h352v-52h-63c-38 -53 -57 -93 -57 -127c0 -24 11 -38 29 -38c11 0 22 3 32 13z" />
    <glyph glyph-name="Eth" unicode="&#xd0;" horiz-adv-x="687" 
d="M306 0h-193v311h-80v52h80v305h193c188 0 328 -97 328 -330c0 -236 -146 -338 -328 -338zM172 51h133c151 0 267 86 267 287c0 198 -111 279 -267 279h-133v-254h164v-52h-164v-260z" />
    <glyph glyph-name="Gbreve" unicode="&#x11e;" horiz-adv-x="671" 
d="M349 776c58 0 97 39 99 101h43c0 -90 -59 -148 -142 -148s-142 58 -142 148h43c2 -62 41 -101 99 -101zM354 330h241v-330h-48l-10 119c-22 -78 -100 -129 -196 -129c-169 0 -288 122 -288 343c0 222 125 345 295 345c120 0 200 -53 241 -157l-53 -29
c-28 87 -94 135 -188 135c-145 0 -232 -113 -232 -293c0 -176 82 -293 231 -293c104 0 189 62 189 193v45h-182v51z" />
    <glyph glyph-name="Gcircumflex" unicode="&#x11c;" horiz-adv-x="671" 
d="M316 881h65l125 -150h-47l-110 106l-111 -106h-47zM354 330h241v-330h-48l-10 119c-22 -78 -100 -129 -196 -129c-169 0 -288 122 -288 343c0 222 125 345 295 345c120 0 200 -53 241 -157l-53 -29c-28 87 -94 135 -188 135c-145 0 -232 -113 -232 -293
c0 -176 82 -293 231 -293c104 0 189 62 189 193v45h-182v51z" />
    <glyph glyph-name="uni0122" unicode="&#x122;" horiz-adv-x="671" 
d="M354 330h241v-330h-48l-10 119c-22 -78 -100 -129 -196 -129c-169 0 -288 122 -288 343c0 222 125 345 295 345c120 0 200 -53 241 -157l-53 -29c-28 87 -94 135 -188 135c-145 0 -232 -113 -232 -293c0 -176 82 -293 231 -293c104 0 189 62 189 193v45h-182v51z
M395 -117c0 -48 -37 -95 -105 -95v30c39 1 63 22 63 50c0 3 0 5 -1 7c-4 -2 -9 -5 -15 -5c-22 0 -37 16 -37 37c0 23 20 38 43 38c27 0 52 -22 52 -62z" />
    <glyph glyph-name="Gdotaccent" unicode="&#x120;" horiz-adv-x="671" 
d="M394 787c0 -26 -19 -46 -46 -46c-26 0 -45 20 -45 46s19 46 45 46c27 0 46 -20 46 -46zM354 330h241v-330h-48l-10 119c-22 -78 -100 -129 -196 -129c-169 0 -288 122 -288 343c0 222 125 345 295 345c120 0 200 -53 241 -157l-53 -29c-28 87 -94 135 -188 135
c-145 0 -232 -113 -232 -293c0 -176 82 -293 231 -293c104 0 189 62 189 193v45h-182v51z" />
    <glyph glyph-name="Hbar" unicode="&#x126;" horiz-adv-x="724" 
d="M166 326h392v147h-392v-147zM166 274v-274h-59v473h-80v52h80v143h59v-143h392v143h60v-143h80v-52h-80v-473h-60v274h-392z" />
    <glyph glyph-name="Hcircumflex" unicode="&#x124;" horiz-adv-x="708" 
d="M321 881h65l125 -150h-47l-110 106l-111 -106h-47zM158 0h-59v668h59v-305h392v305h59v-668h-59v311h-392v-311z" />
    <glyph glyph-name="Iacute" unicode="&#xcd;" horiz-adv-x="257" 
d="M139 731h-39l89 149h83zM99 668h59v-668h-59v668z" />
    <glyph glyph-name="Ibreve" unicode="&#x12c;" horiz-adv-x="257" 
d="M128 776c58 0 97 39 99 101h43c0 -90 -59 -148 -142 -148s-142 58 -142 148h43c2 -62 41 -101 99 -101zM99 668h59v-668h-59v668z" />
    <glyph glyph-name="Icircumflex" unicode="&#xce;" horiz-adv-x="257" 
d="M96 881h65l125 -150h-47l-110 106l-111 -106h-47zM99 668h59v-668h-59v668z" />
    <glyph glyph-name="Idieresis" unicode="&#xcf;" horiz-adv-x="257" 
d="M81 785c0 -24 -18 -43 -42 -43c-26 0 -44 19 -44 43s18 43 44 43c24 0 42 -19 42 -43zM261 785c0 -24 -18 -43 -44 -43c-24 0 -41 19 -41 43s17 43 41 43c26 0 44 -19 44 -43zM99 668h59v-668h-59v668z" />
    <glyph glyph-name="Idotaccent" unicode="&#x130;" horiz-adv-x="257" 
d="M174 787c0 -26 -19 -46 -46 -46c-26 0 -45 20 -45 46s19 46 45 46c27 0 46 -20 46 -46zM99 668h59v-668h-59v668z" />
    <glyph glyph-name="Igrave" unicode="&#xcc;" horiz-adv-x="257" 
d="M154 731h-39l-133 149h83zM99 668h59v-668h-59v668z" />
    <glyph glyph-name="Imacron" unicode="&#x12a;" horiz-adv-x="257" 
d="M272 752h-287v47h287v-47zM99 668h59v-668h-59v668z" />
    <glyph glyph-name="Iogonek" unicode="&#x12e;" horiz-adv-x="257" 
d="M171 -192c-15 -10 -33 -16 -53 -16c-35 0 -69 23 -69 72c0 42 23 86 60 136h-10v668h59v-668c-42 -44 -64 -89 -64 -127c0 -24 12 -38 30 -38c11 0 21 3 32 13z" />
    <glyph glyph-name="Itilde" unicode="&#x128;" horiz-adv-x="257" 
d="M247 862h47c-5 -76 -43 -129 -101 -129c-56 0 -92 76 -133 76c-34 0 -49 -31 -52 -77h-46c5 76 43 129 100 129s92 -77 134 -77c33 0 49 32 51 78zM99 668h59v-668h-59v668z" />
    <glyph glyph-name="Jcircumflex" unicode="&#x134;" horiz-adv-x="534" 
d="M387 881h65l125 -150h-47l-110 106l-111 -106h-47zM389 215v453h60v-459c0 -153 -92 -219 -211 -219c-114 0 -193 77 -201 179l52 26c8 -93 64 -155 150 -155c92 0 150 53 150 175z" />
    <glyph glyph-name="uni0136" unicode="&#x136;" 
d="M589 0h-75l-286 310h-70v-310h-59v668h59v-305h71l272 305h71l-293 -328zM350 -117c0 -48 -37 -95 -105 -95v30c39 1 63 22 63 50c0 3 0 5 -1 7c-4 -2 -9 -5 -15 -5c-22 0 -37 16 -37 37c0 23 20 38 43 38c27 0 52 -22 52 -62z" />
    <glyph glyph-name="Lacute" unicode="&#x139;" horiz-adv-x="546" 
d="M152 731h-39l89 149h83zM99 668h59v-616h350v-52h-409v668z" />
    <glyph glyph-name="Lcaron" unicode="&#x13d;" horiz-adv-x="546" 
d="M376 481h-37l23 187h62zM99 668h59v-616h350v-52h-409v668z" />
    <glyph glyph-name="uni013B" unicode="&#x13b;" horiz-adv-x="546" 
d="M99 668h59v-616h350v-52h-409v668zM355 -117c0 -48 -37 -95 -105 -95v30c39 1 63 22 63 50c0 3 0 5 -1 7c-4 -2 -9 -5 -15 -5c-22 0 -37 16 -37 37c0 23 20 38 43 38c27 0 52 -22 52 -62z" />
    <glyph glyph-name="Ldot" unicode="&#x13f;" horiz-adv-x="546" 
d="M99 668h59v-616h350v-52h-409v668zM460 365c0 -26 -19 -45 -45 -45c-25 0 -44 19 -44 45c0 25 19 45 44 45c26 0 45 -20 45 -45z" />
    <glyph glyph-name="Lslash" unicode="&#x141;" horiz-adv-x="556" 
d="M522 0h-409v266l-80 -51v55l80 51v347h59v-314l156 101v-55l-156 -101v-247h350v-52z" />
    <glyph glyph-name="Nacute" unicode="&#x143;" horiz-adv-x="702" 
d="M362 731h-39l89 149h83zM545 99v569h58v-668h-58l-386 572h-2v-572h-58v668h62l381 -569h3z" />
    <glyph glyph-name="Ncaron" unicode="&#x147;" horiz-adv-x="702" 
d="M383 731h-65l-125 150h47l111 -106l110 106h47zM545 99v569h58v-668h-58l-386 572h-2v-572h-58v668h62l381 -569h3z" />
    <glyph glyph-name="uni0145" unicode="&#x145;" horiz-adv-x="702" 
d="M545 99v569h58v-668h-58l-386 572h-2v-572h-58v668h62l381 -569h3zM404 -117c0 -48 -37 -95 -105 -95v30c39 1 63 22 63 50c0 3 0 5 -1 7c-4 -2 -9 -5 -15 -5c-22 0 -37 16 -37 37c0 23 20 38 43 38c27 0 52 -22 52 -62z" />
    <glyph glyph-name="Ntilde" unicode="&#xd1;" horiz-adv-x="702" 
d="M470 862h47c-5 -76 -43 -129 -101 -129c-56 0 -92 76 -133 76c-34 0 -49 -31 -52 -77h-46c5 76 43 129 100 129s92 -77 134 -77c33 0 49 32 51 78zM545 99v569h58v-668h-58l-386 572h-2v-572h-58v668h62l381 -569h3z" />
    <glyph glyph-name="Eng" unicode="&#x14a;" horiz-adv-x="702" 
d="M603 -40c0 -126 -74 -188 -190 -162l8 50c79 -22 124 11 124 117v37l-386 570h-2v-572h-58v668h62l381 -569h3v569h58v-708z" />
    <glyph glyph-name="Oacute" unicode="&#xd3;" horiz-adv-x="686" 
d="M354 731h-39l89 149h83zM343 678c173 0 289 -130 289 -344s-116 -344 -289 -344c-174 0 -290 130 -290 344s116 344 290 344zM343 627c-145 0 -227 -119 -227 -293s82 -293 227 -293s226 119 226 293s-81 293 -226 293z" />
    <glyph glyph-name="Obreve" unicode="&#x14e;" horiz-adv-x="686" 
d="M343 776c58 0 97 39 99 101h43c0 -90 -59 -148 -142 -148s-142 58 -142 148h43c2 -62 41 -101 99 -101zM343 678c173 0 289 -130 289 -344s-116 -344 -289 -344c-174 0 -290 130 -290 344s116 344 290 344zM343 627c-145 0 -227 -119 -227 -293s82 -293 227 -293
s226 119 226 293s-81 293 -226 293z" />
    <glyph glyph-name="Ocircumflex" unicode="&#xd4;" horiz-adv-x="686" 
d="M310 881h65l125 -150h-47l-110 106l-111 -106h-47zM343 678c173 0 289 -130 289 -344s-116 -344 -289 -344c-174 0 -290 130 -290 344s116 344 290 344zM343 627c-145 0 -227 -119 -227 -293s82 -293 227 -293s226 119 226 293s-81 293 -226 293z" />
    <glyph glyph-name="Odieresis" unicode="&#xd6;" horiz-adv-x="686" 
d="M296 785c0 -24 -18 -43 -42 -43c-26 0 -44 19 -44 43s18 43 44 43c24 0 42 -19 42 -43zM476 785c0 -24 -18 -43 -44 -43c-24 0 -41 19 -41 43s17 43 41 43c26 0 44 -19 44 -43zM343 678c173 0 289 -130 289 -344s-116 -344 -289 -344c-174 0 -290 130 -290 344
s116 344 290 344zM343 627c-145 0 -227 -119 -227 -293s82 -293 227 -293s226 119 226 293s-81 293 -226 293z" />
    <glyph glyph-name="Ograve" unicode="&#xd2;" horiz-adv-x="686" 
d="M369 731h-39l-133 149h83zM343 678c173 0 289 -130 289 -344s-116 -344 -289 -344c-174 0 -290 130 -290 344s116 344 290 344zM343 627c-145 0 -227 -119 -227 -293s82 -293 227 -293s226 119 226 293s-81 293 -226 293z" />
    <glyph glyph-name="Ohungarumlaut" unicode="&#x150;" horiz-adv-x="686" 
d="M237 731l89 149h73l-123 -149h-39zM387 731l89 149h73l-123 -149h-39zM343 678c173 0 289 -130 289 -344s-116 -344 -289 -344c-174 0 -290 130 -290 344s116 344 290 344zM343 627c-145 0 -227 -119 -227 -293s82 -293 227 -293s226 119 226 293s-81 293 -226 293z" />
    <glyph glyph-name="Omacron" unicode="&#x14c;" horiz-adv-x="686" 
d="M486 752h-287v47h287v-47zM343 678c173 0 289 -130 289 -344s-116 -344 -289 -344c-174 0 -290 130 -290 344s116 344 290 344zM343 627c-145 0 -227 -119 -227 -293s82 -293 227 -293s226 119 226 293s-81 293 -226 293z" />
    <glyph glyph-name="Oslash" unicode="&#xd8;" horiz-adv-x="686" 
d="M116 334c0 -82 18 -152 53 -203l326 433c-38 40 -89 63 -152 63c-145 0 -227 -119 -227 -293zM343 41c145 0 226 119 226 293c0 77 -16 144 -46 194l-325 -431c36 -36 85 -56 145 -56zM343 -10c-71 0 -132 22 -180 61l-71 -94l-36 25l76 101c-50 59 -79 145 -79 251
c0 214 116 344 290 344c74 0 138 -24 186 -68l64 85l37 -25l-70 -93c46 -59 72 -141 72 -243c0 -214 -116 -344 -289 -344z" />
    <glyph glyph-name="Oslashacute" unicode="&#x1fe;" horiz-adv-x="686" 
d="M354 731h-39l89 149h83zM116 334c0 -82 18 -152 53 -203l326 433c-38 40 -89 63 -152 63c-145 0 -227 -119 -227 -293zM343 41c145 0 226 119 226 293c0 77 -16 144 -46 194l-325 -431c36 -36 85 -56 145 -56zM343 -10c-71 0 -132 22 -180 61l-71 -94l-36 25l76 101
c-50 59 -79 145 -79 251c0 214 116 344 290 344c74 0 138 -24 186 -68l64 85l37 -25l-70 -93c46 -59 72 -141 72 -243c0 -214 -116 -344 -289 -344z" />
    <glyph glyph-name="Otilde" unicode="&#xd5;" horiz-adv-x="686" 
d="M462 862h47c-5 -76 -43 -129 -101 -129c-56 0 -92 76 -133 76c-34 0 -49 -31 -52 -77h-46c5 76 43 129 100 129s92 -77 134 -77c33 0 49 32 51 78zM343 678c173 0 289 -130 289 -344s-116 -344 -289 -344c-174 0 -290 130 -290 344s116 344 290 344zM343 627
c-145 0 -227 -119 -227 -293s82 -293 227 -293s226 119 226 293s-81 293 -226 293z" />
    <glyph glyph-name="OE" unicode="&#x152;" horiz-adv-x="993" 
d="M381 0c-188 0 -328 97 -328 330c0 236 146 338 328 338h545v-52h-352v-251h316v-53h-316v-260h352v-52h-545zM515 51v566h-133c-152 0 -267 -86 -267 -287c0 -198 111 -279 267 -279h133z" />
    <glyph glyph-name="Racute" unicode="&#x154;" horiz-adv-x="643" 
d="M317 731h-39l89 149h83zM499 482c0 87 -50 135 -157 135h-184v-273h183c105 0 158 48 158 138zM597 0h-66c-15 18 -23 36 -31 66l-28 119c-19 79 -62 108 -151 108h-163v-293h-59v668h245c150 0 219 -68 219 -184c0 -105 -76 -164 -158 -168v-2c66 -7 106 -39 123 -111
l32 -131c7 -29 20 -52 37 -72z" />
    <glyph glyph-name="Rcaron" unicode="&#x158;" horiz-adv-x="643" 
d="M338 731h-65l-125 150h47l111 -106l110 106h47zM499 482c0 87 -50 135 -157 135h-184v-273h183c105 0 158 48 158 138zM597 0h-66c-15 18 -23 36 -31 66l-28 119c-19 79 -62 108 -151 108h-163v-293h-59v668h245c150 0 219 -68 219 -184c0 -105 -76 -164 -158 -168v-2
c66 -7 106 -39 123 -111l32 -131c7 -29 20 -52 37 -72z" />
    <glyph glyph-name="uni0156" unicode="&#x156;" horiz-adv-x="643" 
d="M499 482c0 87 -50 135 -157 135h-184v-273h183c105 0 158 48 158 138zM597 0h-66c-15 18 -23 36 -31 66l-28 119c-19 79 -62 108 -151 108h-163v-293h-59v668h245c150 0 219 -68 219 -184c0 -105 -76 -164 -158 -168v-2c66 -7 106 -39 123 -111l32 -131
c7 -29 20 -52 37 -72zM359 -117c0 -48 -37 -95 -105 -95v30c39 1 63 22 63 50c0 3 0 5 -1 7c-4 -2 -9 -5 -15 -5c-22 0 -37 16 -37 37c0 23 20 38 43 38c27 0 52 -22 52 -62z" />
    <glyph glyph-name="Sacute" unicode="&#x15a;" horiz-adv-x="561" 
d="M300 731h-39l89 149h83zM280 -10c-133 0 -228 70 -247 190l55 17c15 -100 91 -158 192 -158c94 0 167 47 167 135c0 199 -385 78 -385 322c0 114 99 182 214 182c121 0 206 -55 223 -177l-55 -13c-14 90 -73 141 -168 141c-87 0 -156 -49 -156 -131
c0 -192 385 -68 385 -323c0 -117 -98 -185 -225 -185z" />
    <glyph glyph-name="Scaron" unicode="&#x160;" horiz-adv-x="561" 
d="M320 731h-65l-125 150h47l111 -106l110 106h47zM280 -10c-133 0 -228 70 -247 190l55 17c15 -100 91 -158 192 -158c94 0 167 47 167 135c0 199 -385 78 -385 322c0 114 99 182 214 182c121 0 206 -55 223 -177l-55 -13c-14 90 -73 141 -168 141
c-87 0 -156 -49 -156 -131c0 -192 385 -68 385 -323c0 -117 -98 -185 -225 -185z" />
    <glyph glyph-name="uni015E" unicode="&#x15e;" horiz-adv-x="561" 
d="M261 -208c-45 0 -80 19 -99 43l24 33c20 -24 43 -37 75 -37s57 13 57 42c0 34 -35 50 -93 52l22 66c-115 11 -197 79 -214 189l55 17c15 -100 91 -158 192 -158c94 0 167 47 167 135c0 199 -385 78 -385 322c0 114 99 182 214 182c121 0 206 -55 223 -177l-55 -13
c-14 90 -73 141 -168 141c-87 0 -156 -49 -156 -131c0 -192 385 -68 385 -323c0 -117 -98 -185 -225 -185h-3l-11 -33c55 -5 97 -33 97 -82c0 -57 -49 -83 -102 -83z" />
    <glyph glyph-name="Scircumflex" unicode="&#x15c;" horiz-adv-x="561" 
d="M256 881h65l125 -150h-47l-110 106l-111 -106h-47zM280 -10c-133 0 -228 70 -247 190l55 17c15 -100 91 -158 192 -158c94 0 167 47 167 135c0 199 -385 78 -385 322c0 114 99 182 214 182c121 0 206 -55 223 -177l-55 -13c-14 90 -73 141 -168 141
c-87 0 -156 -49 -156 -131c0 -192 385 -68 385 -323c0 -117 -98 -185 -225 -185z" />
    <glyph glyph-name="uni0218" unicode="&#x218;" horiz-adv-x="561" 
d="M280 -10c-133 0 -228 70 -247 190l55 17c15 -100 91 -158 192 -158c94 0 167 47 167 135c0 199 -385 78 -385 322c0 114 99 182 214 182c121 0 206 -55 223 -177l-55 -13c-14 90 -73 141 -168 141c-87 0 -156 -49 -156 -131c0 -192 385 -68 385 -323
c0 -117 -98 -185 -225 -185zM335 -117c0 -48 -37 -95 -105 -95v30c39 1 63 22 63 50c0 3 0 5 -1 7c-4 -2 -9 -5 -15 -5c-22 0 -37 16 -37 37c0 23 20 38 43 38c27 0 52 -22 52 -62z" />
    <glyph glyph-name="Tbar" unicode="&#x166;" horiz-adv-x="610" 
d="M465 311h-130v-311h-60v311h-130v52h130v253h-245v52h549v-52h-244v-253h130v-52z" />
    <glyph glyph-name="Tcaron" unicode="&#x164;" horiz-adv-x="610" 
d="M337 731h-65l-125 150h47l111 -106l110 106h47zM335 0h-60v616h-245v52h549v-52h-244v-616z" />
    <glyph glyph-name="Tcommaaccent" unicode="&#x162;" horiz-adv-x="610" 
d="M300 -208c-45 0 -80 19 -99 43l24 33c20 -24 43 -37 75 -37s57 13 57 42c0 34 -35 50 -93 52l25 75h-14v616h-245v52h549v-52h-244v-616h-16l-14 -43c55 -5 97 -33 97 -82c0 -57 -49 -83 -102 -83z" />
    <glyph glyph-name="uni021A" unicode="&#x21a;" horiz-adv-x="610" 
d="M335 0h-60v616h-245v52h549v-52h-244v-616zM360 -117c0 -48 -37 -95 -105 -95v30c39 1 63 22 63 50c0 3 0 5 -1 7c-4 -2 -9 -5 -15 -5c-22 0 -37 16 -37 37c0 23 20 38 43 38c27 0 52 -22 52 -62z" />
    <glyph glyph-name="Thorn" unicode="&#xde;" horiz-adv-x="588" 
d="M158 0h-59v668h59v-114h157c155 0 232 -77 232 -202c0 -130 -81 -205 -232 -205h-157v-147zM485 352c0 94 -48 152 -175 152h-152v-307h152c123 0 175 56 175 155z" />
    <glyph glyph-name="Uacute" unicode="&#xda;" horiz-adv-x="663" 
d="M343 731h-39l89 149h83zM331 41c110 0 188 62 188 206v421h60v-427c0 -172 -108 -251 -248 -251c-137 0 -246 80 -246 251v427h60v-421c0 -144 77 -206 186 -206z" />
    <glyph glyph-name="Ubreve" unicode="&#x16c;" horiz-adv-x="663" 
d="M331 776c58 0 97 39 99 101h43c0 -90 -59 -148 -142 -148s-142 58 -142 148h43c2 -62 41 -101 99 -101zM331 41c110 0 188 62 188 206v421h60v-427c0 -172 -108 -251 -248 -251c-137 0 -246 80 -246 251v427h60v-421c0 -144 77 -206 186 -206z" />
    <glyph glyph-name="Ucircumflex" unicode="&#xdb;" horiz-adv-x="663" 
d="M299 881h65l125 -150h-47l-110 106l-111 -106h-47zM331 41c110 0 188 62 188 206v421h60v-427c0 -172 -108 -251 -248 -251c-137 0 -246 80 -246 251v427h60v-421c0 -144 77 -206 186 -206z" />
    <glyph glyph-name="Udieresis" unicode="&#xdc;" horiz-adv-x="663" 
d="M284 785c0 -24 -18 -43 -42 -43c-26 0 -44 19 -44 43s18 43 44 43c24 0 42 -19 42 -43zM464 785c0 -24 -18 -43 -44 -43c-24 0 -41 19 -41 43s17 43 41 43c26 0 44 -19 44 -43zM331 41c110 0 188 62 188 206v421h60v-427c0 -172 -108 -251 -248 -251
c-137 0 -246 80 -246 251v427h60v-421c0 -144 77 -206 186 -206z" />
    <glyph glyph-name="Ugrave" unicode="&#xd9;" horiz-adv-x="663" 
d="M357 731h-39l-133 149h83zM331 41c110 0 188 62 188 206v421h60v-427c0 -172 -108 -251 -248 -251c-137 0 -246 80 -246 251v427h60v-421c0 -144 77 -206 186 -206z" />
    <glyph glyph-name="Uhungarumlaut" unicode="&#x170;" horiz-adv-x="663" 
d="M226 731l89 149h73l-123 -149h-39zM376 731l89 149h73l-123 -149h-39zM331 41c110 0 188 62 188 206v421h60v-427c0 -172 -108 -251 -248 -251c-137 0 -246 80 -246 251v427h60v-421c0 -144 77 -206 186 -206z" />
    <glyph glyph-name="Umacron" unicode="&#x16a;" horiz-adv-x="663" 
d="M475 752h-287v47h287v-47zM331 41c110 0 188 62 188 206v421h60v-427c0 -172 -108 -251 -248 -251c-137 0 -246 80 -246 251v427h60v-421c0 -144 77 -206 186 -206z" />
    <glyph glyph-name="Uogonek" unicode="&#x172;" horiz-adv-x="663" 
d="M408 -208c-35 0 -69 23 -69 72c0 43 23 91 59 134c-20 -5 -44 -8 -67 -8c-137 0 -246 80 -246 251v427h60v-421c0 -144 77 -206 186 -206c110 0 188 62 188 206v421h60v-427c0 -124 -59 -178 -117 -227c-51 -43 -77 -98 -77 -141c0 -24 11 -38 29 -38c11 0 22 3 33 13
l14 -40c-14 -10 -32 -16 -53 -16z" />
    <glyph glyph-name="Uring" unicode="&#x16e;" horiz-adv-x="663" 
d="M231 812c0 56 46 101 100 101s100 -45 100 -101c0 -55 -46 -100 -100 -100s-100 45 -100 100zM269 812c0 -36 27 -64 62 -64s62 28 62 64c0 37 -27 65 -62 65s-62 -28 -62 -65zM331 41c110 0 188 62 188 206v421h60v-427c0 -172 -108 -251 -248 -251
c-137 0 -246 80 -246 251v427h60v-421c0 -144 77 -206 186 -206z" />
    <glyph glyph-name="Utilde" unicode="&#x168;" horiz-adv-x="663" 
d="M451 862h47c-5 -76 -43 -129 -101 -129c-56 0 -92 76 -133 76c-34 0 -49 -31 -52 -77h-46c5 76 43 129 100 129s92 -77 134 -77c33 0 49 32 51 78zM331 41c110 0 188 62 188 206v421h60v-427c0 -172 -108 -251 -248 -251c-137 0 -246 80 -246 251v427h60v-421
c0 -144 77 -206 186 -206z" />
    <glyph glyph-name="Wacute" unicode="&#x1e82;" horiz-adv-x="860" 
d="M441 731h-39l89 149h83zM399 668h63l152 -592h3l152 592h58l-177 -668h-65l-154 584h-2l-154 -584h-65l-178 668h60l152 -592h3z" />
    <glyph glyph-name="Wcircumflex" unicode="&#x174;" horiz-adv-x="860" 
d="M397 881h65l125 -150h-47l-110 106l-111 -106h-47zM399 668h63l152 -592h3l152 592h58l-177 -668h-65l-154 584h-2l-154 -584h-65l-178 668h60l152 -592h3z" />
    <glyph glyph-name="Wgrave" unicode="&#x1e80;" horiz-adv-x="860" 
d="M456 731h-39l-133 149h83zM399 668h63l152 -592h3l152 592h58l-177 -668h-65l-154 584h-2l-154 -584h-65l-178 668h60l152 -592h3z" />
    <glyph glyph-name="Wdieresis" unicode="&#x1e84;" horiz-adv-x="860" 
d="M383 785c0 -24 -18 -43 -42 -43c-26 0 -44 19 -44 43s18 43 44 43c24 0 42 -19 42 -43zM563 785c0 -24 -18 -43 -44 -43c-24 0 -41 19 -41 43s17 43 41 43c26 0 44 -19 44 -43zM399 668h63l152 -592h3l152 592h58l-177 -668h-65l-154 584h-2l-154 -584h-65l-178 668h60
l152 -592h3z" />
    <glyph glyph-name="Yacute" unicode="&#xdd;" horiz-adv-x="602" 
d="M312 731h-39l89 149h83zM301 324h3l202 344h64l-239 -401v-267h-60v267l-239 401h67z" />
    <glyph glyph-name="Ycircumflex" unicode="&#x176;" horiz-adv-x="602" 
d="M268 881h65l125 -150h-47l-110 106l-111 -106h-47zM301 324h3l202 344h64l-239 -401v-267h-60v267l-239 401h67z" />
    <glyph glyph-name="Ydieresis" unicode="&#x178;" horiz-adv-x="602" 
d="M254 785c0 -24 -18 -43 -42 -43c-26 0 -44 19 -44 43s18 43 44 43c24 0 42 -19 42 -43zM434 785c0 -24 -18 -43 -44 -43c-24 0 -41 19 -41 43s17 43 41 43c26 0 44 -19 44 -43zM301 324h3l202 344h64l-239 -401v-267h-60v267l-239 401h67z" />
    <glyph glyph-name="Ygrave" unicode="&#x1ef2;" horiz-adv-x="602" 
d="M327 731h-39l-133 149h83zM301 324h3l202 344h64l-239 -401v-267h-60v267l-239 401h67z" />
    <glyph glyph-name="Zacute" unicode="&#x179;" horiz-adv-x="589" 
d="M306 731h-39l89 149h83zM127 52h407v-52h-478v45l400 571h-392v52h463v-45z" />
    <glyph glyph-name="Zcaron" unicode="&#x17d;" horiz-adv-x="589" 
d="M327 731h-65l-125 150h47l111 -106l110 106h47zM127 52h407v-52h-478v45l400 571h-392v52h463v-45z" />
    <glyph glyph-name="Zdotaccent" unicode="&#x17b;" horiz-adv-x="589" 
d="M340 787c0 -26 -19 -46 -46 -46c-26 0 -45 20 -45 46s19 46 45 46c27 0 46 -20 46 -46zM127 52h407v-52h-478v45l400 571h-392v52h463v-45z" />
    <glyph glyph-name="a" unicode="a" horiz-adv-x="507" 
d="M355 187v52c-19 3 -42 5 -65 5c-115 0 -184 -35 -184 -112c0 -58 41 -95 109 -95c71 0 140 45 140 150zM410 355v-261c0 -38 14 -55 41 -55c10 0 21 4 29 10l4 -45c-11 -7 -30 -11 -45 -11c-37 0 -63 17 -74 50c-5 13 -7 30 -9 45c-20 -62 -86 -97 -152 -97
c-90 0 -155 51 -155 139c0 100 84 158 241 158c18 0 42 -2 65 -5v65c0 78 -42 114 -114 114c-68 0 -111 -34 -115 -103l-57 10c10 95 86 141 175 141c100 0 166 -47 166 -155z" />
    <glyph glyph-name="b" unicode="b" horiz-adv-x="569" 
d="M149 722v-324c19 67 85 112 160 112c132 0 207 -105 207 -257c0 -156 -84 -263 -214 -263c-80 0 -142 49 -158 116l-7 -106h-46v722h58zM149 284v-74c0 -122 75 -173 146 -173c92 0 162 73 162 216c0 138 -63 210 -158 210c-73 0 -150 -55 -150 -179z" />
    <glyph glyph-name="c" unicode="c" horiz-adv-x="492" 
d="M53 250c0 163 83 260 214 260c104 0 170 -61 180 -158l-53 -10c-6 70 -49 121 -127 121c-101 0 -156 -85 -156 -213s55 -213 158 -213c76 0 119 50 125 122l54 -9c-13 -102 -77 -160 -179 -160c-133 0 -216 97 -216 260z" />
    <glyph glyph-name="d" unicode="d" horiz-adv-x="569" 
d="M420 215v85c0 114 -80 163 -148 163c-89 0 -161 -71 -161 -220c0 -132 63 -206 157 -206c74 0 152 53 152 178zM431 0l-7 110c-22 -78 -91 -120 -168 -120c-113 0 -203 87 -203 252c0 168 84 268 211 268c85 0 138 -49 155 -99v311h58v-722h-46z" />
    <glyph glyph-name="e" unicode="e" horiz-adv-x="507" 
d="M269 37c68 0 116 33 132 102l51 -14c-22 -94 -95 -135 -183 -135c-132 0 -216 90 -216 260c0 162 86 260 216 260c121 0 186 -87 186 -200c0 -26 -3 -47 -7 -63h-339c1 -132 60 -210 160 -210zM111 291h286c1 9 1 20 1 30c0 80 -45 144 -131 144
c-90 0 -147 -68 -156 -174z" />
    <glyph glyph-name="f" unicode="f" horiz-adv-x="305" 
d="M108 455h-73v45h73v62c0 105 66 170 156 170c36 0 66 -9 92 -25l-17 -48c-22 17 -44 25 -74 25c-61 0 -99 -47 -99 -125v-59h127v-45h-127v-455h-58v455z" />
    <glyph glyph-name="g" unicode="g" horiz-adv-x="509" 
d="M119 344c0 -76 50 -122 128 -122c79 0 130 46 130 122s-51 122 -130 122c-78 0 -128 -46 -128 -122zM489 -44c0 -121 -126 -164 -249 -164c-110 0 -219 41 -219 144c0 63 53 107 121 114c-37 10 -56 37 -56 71c0 39 28 66 61 78c-53 28 -85 79 -85 145
c0 102 75 166 185 166c61 0 111 -19 143 -53c28 16 42 50 46 90l54 -18c-6 -54 -39 -89 -78 -101c14 -24 21 -52 21 -84c0 -101 -75 -167 -186 -167c-25 0 -49 4 -70 10c-27 -12 -41 -30 -41 -56c0 -29 20 -45 62 -45h127c98 0 164 -44 164 -130zM77 -60
c0 -72 79 -103 162 -103c102 0 195 32 195 114c0 52 -37 82 -114 82h-122c-66 0 -121 -31 -121 -93z" />
    <glyph glyph-name="g.1" horiz-adv-x="570" 
d="M421 225v79c0 109 -80 159 -148 159c-89 0 -162 -68 -162 -212c0 -129 64 -198 158 -198c74 0 152 52 152 172zM479 -3c0 -129 -91 -205 -215 -205c-107 0 -188 47 -204 146l55 14c10 -72 65 -112 147 -112c93 0 159 49 159 165v113c-26 -76 -91 -114 -164 -114
c-112 0 -204 84 -204 246c0 164 85 260 213 260c84 0 143 -49 162 -107l7 97h44v-503z" />
    <glyph glyph-name="h" unicode="h" horiz-adv-x="556" 
d="M149 722v-324c26 67 87 112 167 112c90 0 154 -54 154 -161v-349h-58v336c0 78 -39 123 -112 123c-81 0 -151 -56 -151 -175v-284h-58v722h58z" />
    <glyph glyph-name="i" unicode="i" horiz-adv-x="240" 
d="M165 649c0 -26 -19 -45 -45 -45c-25 0 -44 19 -44 45c0 25 19 45 44 45c26 0 45 -20 45 -45zM91 500h58v-500h-58v500z" />
    <glyph glyph-name="j" unicode="j" horiz-adv-x="240" 
d="M165 649c0 -26 -19 -45 -45 -45c-25 0 -44 19 -44 45c0 25 19 45 44 45c26 0 45 -20 45 -45zM91 500h58v-540c0 -126 -73 -188 -189 -162l7 50c79 -22 124 11 124 117v535z" />
    <glyph glyph-name="k" unicode="k" horiz-adv-x="501" 
d="M248 269l239 -269h-73l-215 241h-50v-241h-58v722h58v-433h50l199 211h70z" />
    <glyph glyph-name="l" unicode="l" horiz-adv-x="266" 
d="M226 51l7 -46c-15 -9 -38 -14 -59 -14c-58 0 -92 30 -92 96v635h58v-629c0 -39 18 -54 48 -54c13 0 27 4 38 12z" />
    <glyph glyph-name="m" unicode="m" horiz-adv-x="842" 
d="M445 391c24 71 80 119 160 119c90 0 151 -51 151 -158v-352h-58v337c0 77 -33 122 -108 122s-138 -57 -138 -174v-285h-58v337c0 77 -33 122 -107 122c-77 0 -138 -57 -138 -175v-284h-58v500h44l8 -111c20 74 80 121 159 121c76 0 129 -40 143 -119z" />
    <glyph glyph-name="n" unicode="n" horiz-adv-x="556" 
d="M135 500l8 -113c23 73 87 123 173 123c90 0 154 -54 154 -161v-349h-58v336c0 78 -39 123 -112 123c-81 0 -151 -56 -151 -175v-284h-58v500h44z" />
    <glyph glyph-name="o" unicode="o" horiz-adv-x="538" 
d="M485 250c0 -166 -87 -260 -216 -260s-216 94 -216 260s87 260 216 260s216 -94 216 -260zM426 250c0 138 -58 214 -157 214s-158 -76 -158 -214c0 -137 59 -214 158 -214s157 77 157 214z" />
    <glyph glyph-name="p" unicode="p" horiz-adv-x="569" 
d="M149 284v-83c0 -113 75 -164 146 -164c92 0 162 73 162 216c0 137 -63 210 -158 210c-73 0 -150 -55 -150 -179zM135 500l8 -110c17 65 84 120 166 120c132 0 207 -105 207 -257c0 -156 -84 -263 -214 -263c-80 0 -135 47 -153 99v-287h-58v698h44z" />
    <glyph glyph-name="q" unicode="q" horiz-adv-x="569" 
d="M419 -198v303c-26 -78 -90 -115 -163 -115c-113 0 -203 87 -203 252c0 168 84 268 211 268c85 0 144 -50 163 -109l7 99h43v-698h-58zM420 215v85c0 113 -80 163 -148 163c-89 0 -161 -71 -161 -220c0 -132 63 -206 157 -206c74 0 152 53 152 178z" />
    <glyph glyph-name="r" unicode="r" horiz-adv-x="360" 
d="M334 506l-4 -61c-11 4 -25 5 -40 5c-85 0 -141 -80 -141 -195v-255h-58v500h46l9 -136c17 93 89 161 188 142z" />
    <glyph glyph-name="s" unicode="s" horiz-adv-x="456" 
d="M38 126l53 15c12 -67 67 -106 139 -106c74 0 125 33 125 95c0 148 -295 45 -295 238c0 89 74 142 168 142c102 0 163 -45 175 -136l-54 -8c-10 63 -48 99 -121 99c-66 0 -113 -34 -113 -93c0 -145 295 -39 295 -239c0 -90 -77 -143 -180 -143c-100 0 -176 48 -192 136z
" />
    <glyph glyph-name="t" unicode="t" horiz-adv-x="363" 
d="M319 71l13 -45c-28 -23 -64 -36 -103 -36c-83 0 -131 43 -131 130v335h-72v45h72v106l58 10v-116h150v-45h-150v-330c0 -62 32 -86 77 -86c35 0 58 10 86 32z" />
    <glyph glyph-name="u" unicode="u" horiz-adv-x="549" 
d="M412 0l-8 110c-21 -75 -82 -120 -164 -120c-85 0 -154 49 -154 160v350h58v-341c0 -79 41 -121 110 -121c82 0 145 59 145 178v284h59v-500h-46z" />
    <glyph glyph-name="v" unicode="v" horiz-adv-x="486" 
d="M243 63h2l156 437h58l-186 -500h-61l-185 500h61z" />
    <glyph glyph-name="w" unicode="w" horiz-adv-x="693" 
d="M320 500h54l117 -431h2l117 431h57l-144 -500h-59l-116 424h-3l-116 -424h-59l-143 500h57l117 -431h2z" />
    <glyph glyph-name="x" unicode="x" horiz-adv-x="481" 
d="M386 0l-147 213h-2l-146 -213h-61l179 256l-169 244h64l138 -202h2l137 202h60l-169 -243l178 -257h-64z" />
    <glyph glyph-name="y" unicode="y" horiz-adv-x="486" 
d="M244 56l157 444h58l-190 -520c-50 -137 -93 -188 -170 -188c-27 0 -53 8 -70 23l12 48c20 -15 35 -22 57 -22c54 0 78 36 117 142l-188 517h61l154 -444h2z" />
    <glyph glyph-name="z" unicode="z" horiz-adv-x="461" 
d="M405 465l-289 -418h298v-47h-367v35l287 418h-280v47h351v-35z" />
    <glyph glyph-name="aacute" unicode="&#xe1;" horiz-adv-x="507" 
d="M263 574h-44l76 155h80zM355 187v52c-19 3 -42 5 -65 5c-115 0 -184 -35 -184 -112c0 -58 41 -95 109 -95c71 0 140 45 140 150zM410 355v-261c0 -38 14 -55 41 -55c10 0 21 4 29 10l4 -45c-11 -7 -30 -11 -45 -11c-37 0 -63 17 -74 50c-5 13 -7 30 -9 45
c-20 -62 -86 -97 -152 -97c-90 0 -155 51 -155 139c0 100 84 158 241 158c18 0 42 -2 65 -5v65c0 78 -42 114 -114 114c-68 0 -111 -34 -115 -103l-57 10c10 95 86 141 175 141c100 0 166 -47 166 -155z" />
    <glyph glyph-name="abreve" unicode="&#x103;" horiz-adv-x="507" 
d="M248 629c58 0 86 39 89 100h42c0 -89 -49 -145 -131 -145s-131 56 -131 145h42c3 -61 31 -100 89 -100zM355 187v52c-19 3 -42 5 -65 5c-115 0 -184 -35 -184 -112c0 -58 41 -95 109 -95c71 0 140 45 140 150zM410 355v-261c0 -38 14 -55 41 -55c10 0 21 4 29 10l4 -45
c-11 -7 -30 -11 -45 -11c-37 0 -63 17 -74 50c-5 13 -7 30 -9 45c-20 -62 -86 -97 -152 -97c-90 0 -155 51 -155 139c0 100 84 158 241 158c18 0 42 -2 65 -5v65c0 78 -42 114 -114 114c-68 0 -111 -34 -115 -103l-57 10c10 95 86 141 175 141c100 0 166 -47 166 -155z" />
    <glyph glyph-name="acircumflex" unicode="&#xe2;" horiz-adv-x="507" 
d="M216 729h66l110 -156h-46l-97 117l-98 -117h-46zM355 187v52c-19 3 -42 5 -65 5c-115 0 -184 -35 -184 -112c0 -58 41 -95 109 -95c71 0 140 45 140 150zM410 355v-261c0 -38 14 -55 41 -55c10 0 21 4 29 10l4 -45c-11 -7 -30 -11 -45 -11c-37 0 -63 17 -74 50
c-5 13 -7 30 -9 45c-20 -62 -86 -97 -152 -97c-90 0 -155 51 -155 139c0 100 84 158 241 158c18 0 42 -2 65 -5v65c0 78 -42 114 -114 114c-68 0 -111 -34 -115 -103l-57 10c10 95 86 141 175 141c100 0 166 -47 166 -155z" />
    <glyph glyph-name="adieresis" unicode="&#xe4;" horiz-adv-x="507" 
d="M202 647c0 -24 -18 -43 -42 -43c-26 0 -43 19 -43 43s17 43 43 43c24 0 42 -19 42 -43zM379 647c0 -24 -17 -43 -43 -43c-24 0 -42 19 -42 43s18 43 42 43c26 0 43 -19 43 -43zM355 187v52c-19 3 -42 5 -65 5c-115 0 -184 -35 -184 -112c0 -58 41 -95 109 -95
c71 0 140 45 140 150zM410 355v-261c0 -38 14 -55 41 -55c10 0 21 4 29 10l4 -45c-11 -7 -30 -11 -45 -11c-37 0 -63 17 -74 50c-5 13 -7 30 -9 45c-20 -62 -86 -97 -152 -97c-90 0 -155 51 -155 139c0 100 84 158 241 158c18 0 42 -2 65 -5v65c0 78 -42 114 -114 114
c-68 0 -111 -34 -115 -103l-57 10c10 95 86 141 175 141c100 0 166 -47 166 -155z" />
    <glyph glyph-name="agrave" unicode="&#xe0;" horiz-adv-x="507" 
d="M278 574h-44l-112 155h80zM355 187v52c-19 3 -42 5 -65 5c-115 0 -184 -35 -184 -112c0 -58 41 -95 109 -95c71 0 140 45 140 150zM410 355v-261c0 -38 14 -55 41 -55c10 0 21 4 29 10l4 -45c-11 -7 -30 -11 -45 -11c-37 0 -63 17 -74 50c-5 13 -7 30 -9 45
c-20 -62 -86 -97 -152 -97c-90 0 -155 51 -155 139c0 100 84 158 241 158c18 0 42 -2 65 -5v65c0 78 -42 114 -114 114c-68 0 -111 -34 -115 -103l-57 10c10 95 86 141 175 141c100 0 166 -47 166 -155z" />
    <glyph glyph-name="amacron" unicode="&#x101;" horiz-adv-x="507" 
d="M378 620h-259v46h259v-46zM355 187v52c-19 3 -42 5 -65 5c-115 0 -184 -35 -184 -112c0 -58 41 -95 109 -95c71 0 140 45 140 150zM410 355v-261c0 -38 14 -55 41 -55c10 0 21 4 29 10l4 -45c-11 -7 -30 -11 -45 -11c-37 0 -63 17 -74 50c-5 13 -7 30 -9 45
c-20 -62 -86 -97 -152 -97c-90 0 -155 51 -155 139c0 100 84 158 241 158c18 0 42 -2 65 -5v65c0 78 -42 114 -114 114c-68 0 -111 -34 -115 -103l-57 10c10 95 86 141 175 141c100 0 166 -47 166 -155z" />
    <glyph glyph-name="aogonek" unicode="&#x105;" horiz-adv-x="507" 
d="M423 -208c-36 0 -70 23 -70 72c0 44 30 89 75 132c-32 2 -55 19 -63 47c-5 13 -7 30 -9 45c-20 -62 -86 -97 -152 -97c-90 0 -155 51 -155 139c0 100 84 158 241 158c18 0 42 -2 65 -5v65c0 78 -42 114 -114 114c-68 0 -111 -34 -115 -103l-57 10c10 95 86 141 175 141
c100 0 166 -47 166 -155v-261c0 -38 14 -55 41 -55c10 0 21 4 29 10l4 -45c-55 -45 -85 -89 -85 -131c0 -24 11 -38 30 -38c11 0 21 3 32 13l14 -40c-14 -10 -32 -16 -52 -16zM355 187v52c-19 3 -42 5 -65 5c-115 0 -184 -35 -184 -112c0 -58 41 -95 109 -95
c71 0 140 45 140 150z" />
    <glyph glyph-name="aring" unicode="&#xe5;" horiz-adv-x="507" 
d="M248 571c-52 0 -95 42 -95 95s43 95 95 95s95 -42 95 -95s-43 -95 -95 -95zM248 728c-33 0 -60 -28 -60 -62s27 -62 60 -62s60 28 60 62s-27 62 -60 62zM355 187v52c-19 3 -42 5 -65 5c-115 0 -184 -35 -184 -112c0 -58 41 -95 109 -95c71 0 140 45 140 150zM410 355
v-261c0 -38 14 -55 41 -55c10 0 21 4 29 10l4 -45c-11 -7 -30 -11 -45 -11c-37 0 -63 17 -74 50c-5 13 -7 30 -9 45c-20 -62 -86 -97 -152 -97c-90 0 -155 51 -155 139c0 100 84 158 241 158c18 0 42 -2 65 -5v65c0 78 -42 114 -114 114c-68 0 -111 -34 -115 -103l-57 10
c10 95 86 141 175 141c100 0 166 -47 166 -155z" />
    <glyph glyph-name="atilde" unicode="&#xe3;" horiz-adv-x="507" 
d="M358 719h45c-5 -75 -42 -125 -97 -125s-78 74 -118 74c-32 0 -48 -30 -51 -75h-44c5 75 42 124 97 124s77 -74 118 -74c32 0 48 30 50 76zM355 187v52c-19 3 -42 5 -65 5c-115 0 -184 -35 -184 -112c0 -58 41 -95 109 -95c71 0 140 45 140 150zM410 355v-261
c0 -38 14 -55 41 -55c10 0 21 4 29 10l4 -45c-11 -7 -30 -11 -45 -11c-37 0 -63 17 -74 50c-5 13 -7 30 -9 45c-20 -62 -86 -97 -152 -97c-90 0 -155 51 -155 139c0 100 84 158 241 158c18 0 42 -2 65 -5v65c0 78 -42 114 -114 114c-68 0 -111 -34 -115 -103l-57 10
c10 95 86 141 175 141c100 0 166 -47 166 -155z" />
    <glyph glyph-name="ae" unicode="&#xe6;" horiz-adv-x="799" 
d="M562 -10c-87 0 -152 39 -187 114c-23 -58 -82 -114 -171 -114c-90 0 -155 52 -155 140c0 100 84 161 241 161h59c2 20 6 40 11 57c-2 76 -48 114 -118 114c-67 0 -112 -34 -116 -103l-57 10c10 95 87 141 176 141c70 0 126 -27 151 -85c38 55 96 85 165 85
c122 0 187 -87 187 -200c0 -26 -4 -47 -8 -63h-338c1 -133 61 -210 160 -210c67 0 115 33 132 102l50 -14c-21 -94 -94 -135 -182 -135zM560 465c-90 0 -147 -68 -157 -174h286c1 9 1 20 1 30c0 80 -45 144 -130 144zM215 37c64 0 126 44 141 124c-6 25 -9 54 -9 86h-57
c-115 0 -184 -38 -184 -115c0 -58 41 -95 109 -95z" />
    <glyph glyph-name="aeacute" unicode="&#x1fd;" horiz-adv-x="799" 
d="M417 574h-44l76 155h80zM562 -10c-87 0 -152 39 -187 114c-23 -58 -82 -114 -171 -114c-90 0 -155 52 -155 140c0 100 84 161 241 161h59c2 20 6 40 11 57c-2 76 -48 114 -118 114c-67 0 -112 -34 -116 -103l-57 10c10 95 87 141 176 141c70 0 126 -27 151 -85
c38 55 96 85 165 85c122 0 187 -87 187 -200c0 -26 -4 -47 -8 -63h-338c1 -133 61 -210 160 -210c67 0 115 33 132 102l50 -14c-21 -94 -94 -135 -182 -135zM560 465c-90 0 -147 -68 -157 -174h286c1 9 1 20 1 30c0 80 -45 144 -130 144zM215 37c64 0 126 44 141 124
c-6 25 -9 54 -9 86h-57c-115 0 -184 -38 -184 -115c0 -58 41 -95 109 -95z" />
    <glyph glyph-name="cacute" unicode="&#x107;" horiz-adv-x="492" 
d="M285 574h-44l76 155h80zM53 250c0 163 83 260 214 260c104 0 170 -61 180 -158l-53 -10c-6 70 -49 121 -127 121c-101 0 -156 -85 -156 -213s55 -213 158 -213c76 0 119 50 125 122l54 -9c-13 -102 -77 -160 -179 -160c-133 0 -216 97 -216 260z" />
    <glyph glyph-name="ccaron" unicode="&#x10d;" horiz-adv-x="492" 
d="M304 573h-66l-111 156h46l98 -117l97 117h46zM53 250c0 163 83 260 214 260c104 0 170 -61 180 -158l-53 -10c-6 70 -49 121 -127 121c-101 0 -156 -85 -156 -213s55 -213 158 -213c76 0 119 50 125 122l54 -9c-13 -102 -77 -160 -179 -160c-133 0 -216 97 -216 260z" />
    <glyph glyph-name="ccedilla" unicode="&#xe7;" horiz-adv-x="492" 
d="M240 -208c-45 0 -80 19 -99 43l24 33c20 -24 43 -37 75 -37s57 13 57 42c0 34 -35 50 -93 52l23 68c-108 19 -174 112 -174 257c0 163 83 260 214 260c104 0 170 -61 180 -158l-53 -10c-6 70 -49 121 -127 121c-101 0 -156 -85 -156 -213s55 -213 158 -213
c76 0 119 50 125 122l54 -9c-13 -102 -77 -160 -179 -160h-13l-11 -33c55 -5 97 -33 97 -82c0 -57 -49 -83 -102 -83z" />
    <glyph glyph-name="ccircumflex" unicode="&#x109;" horiz-adv-x="492" 
d="M238 729h66l110 -156h-46l-97 117l-98 -117h-46zM53 250c0 163 83 260 214 260c104 0 170 -61 180 -158l-53 -10c-6 70 -49 121 -127 121c-101 0 -156 -85 -156 -213s55 -213 158 -213c76 0 119 50 125 122l54 -9c-13 -102 -77 -160 -179 -160c-133 0 -216 97 -216 260z
" />
    <glyph glyph-name="cdotaccent" unicode="&#x10b;" horiz-adv-x="492" 
d="M316 649c0 -26 -19 -45 -45 -45c-25 0 -44 19 -44 45c0 25 19 45 44 45c26 0 45 -20 45 -45zM53 250c0 163 83 260 214 260c104 0 170 -61 180 -158l-53 -10c-6 70 -49 121 -127 121c-101 0 -156 -85 -156 -213s55 -213 158 -213c76 0 119 50 125 122l54 -9
c-13 -102 -77 -160 -179 -160c-133 0 -216 97 -216 260z" />
    <glyph glyph-name="dcaron" unicode="&#x10f;" horiz-adv-x="617" 
d="M601 535h-37l23 187h62zM420 215v85c0 114 -80 163 -148 163c-89 0 -161 -71 -161 -220c0 -132 63 -206 157 -206c74 0 152 53 152 178zM431 0l-7 110c-22 -78 -91 -120 -168 -120c-113 0 -203 87 -203 252c0 168 84 268 211 268c85 0 138 -49 155 -99v311h58v-722h-46z
" />
    <glyph glyph-name="dcroat" unicode="&#x111;" horiz-adv-x="569" 
d="M420 215v85c0 114 -80 163 -148 163c-89 0 -161 -71 -161 -220c0 -132 63 -206 157 -206c74 0 152 53 152 178zM424 110c-22 -78 -91 -120 -168 -120c-113 0 -203 87 -203 252c0 168 84 268 211 268c85 0 138 -49 155 -99v177h-148v42h148v92h58v-92h76v-42h-76v-588h-46
z" />
    <glyph glyph-name="eacute" unicode="&#xe9;" horiz-adv-x="507" 
d="M281 574h-44l76 155h80zM269 37c68 0 116 33 132 102l51 -14c-22 -94 -95 -135 -183 -135c-132 0 -216 90 -216 260c0 162 86 260 216 260c121 0 186 -87 186 -200c0 -26 -3 -47 -7 -63h-339c1 -132 60 -210 160 -210zM111 291h286c1 9 1 20 1 30c0 80 -45 144 -131 144
c-90 0 -147 -68 -156 -174z" />
    <glyph glyph-name="ebreve" unicode="&#x115;" horiz-adv-x="507" 
d="M268 629c58 0 86 39 89 100h42c0 -89 -49 -145 -131 -145s-131 56 -131 145h42c3 -61 31 -100 89 -100zM269 37c68 0 116 33 132 102l51 -14c-22 -94 -95 -135 -183 -135c-132 0 -216 90 -216 260c0 162 86 260 216 260c121 0 186 -87 186 -200c0 -26 -3 -47 -7 -63h-339
c1 -132 60 -210 160 -210zM111 291h286c1 9 1 20 1 30c0 80 -45 144 -131 144c-90 0 -147 -68 -156 -174z" />
    <glyph glyph-name="ecaron" unicode="&#x11b;" horiz-adv-x="507" 
d="M302 573h-66l-111 156h46l98 -117l97 117h46zM269 37c68 0 116 33 132 102l51 -14c-22 -94 -95 -135 -183 -135c-132 0 -216 90 -216 260c0 162 86 260 216 260c121 0 186 -87 186 -200c0 -26 -3 -47 -7 -63h-339c1 -132 60 -210 160 -210zM111 291h286c1 9 1 20 1 30
c0 80 -45 144 -131 144c-90 0 -147 -68 -156 -174z" />
    <glyph glyph-name="ecircumflex" unicode="&#xea;" horiz-adv-x="507" 
d="M236 729h66l110 -156h-46l-97 117l-98 -117h-46zM269 37c68 0 116 33 132 102l51 -14c-22 -94 -95 -135 -183 -135c-132 0 -216 90 -216 260c0 162 86 260 216 260c121 0 186 -87 186 -200c0 -26 -3 -47 -7 -63h-339c1 -132 60 -210 160 -210zM111 291h286c1 9 1 20 1 30
c0 80 -45 144 -131 144c-90 0 -147 -68 -156 -174z" />
    <glyph glyph-name="edieresis" unicode="&#xeb;" horiz-adv-x="507" 
d="M222 647c0 -24 -18 -43 -42 -43c-26 0 -43 19 -43 43s17 43 43 43c24 0 42 -19 42 -43zM399 647c0 -24 -17 -43 -43 -43c-24 0 -42 19 -42 43s18 43 42 43c26 0 43 -19 43 -43zM269 37c68 0 116 33 132 102l51 -14c-22 -94 -95 -135 -183 -135c-132 0 -216 90 -216 260
c0 162 86 260 216 260c121 0 186 -87 186 -200c0 -26 -3 -47 -7 -63h-339c1 -132 60 -210 160 -210zM111 291h286c1 9 1 20 1 30c0 80 -45 144 -131 144c-90 0 -147 -68 -156 -174z" />
    <glyph glyph-name="edotaccent" unicode="&#x117;" horiz-adv-x="507" 
d="M313 649c0 -26 -19 -45 -45 -45c-25 0 -44 19 -44 45c0 25 19 45 44 45c26 0 45 -20 45 -45zM269 37c68 0 116 33 132 102l51 -14c-22 -94 -95 -135 -183 -135c-132 0 -216 90 -216 260c0 162 86 260 216 260c121 0 186 -87 186 -200c0 -26 -3 -47 -7 -63h-339
c1 -132 60 -210 160 -210zM111 291h286c1 9 1 20 1 30c0 80 -45 144 -131 144c-90 0 -147 -68 -156 -174z" />
    <glyph glyph-name="egrave" unicode="&#xe8;" horiz-adv-x="507" 
d="M302 574h-44l-112 155h80zM269 37c68 0 116 33 132 102l51 -14c-22 -94 -95 -135 -183 -135c-132 0 -216 90 -216 260c0 162 86 260 216 260c121 0 186 -87 186 -200c0 -26 -3 -47 -7 -63h-339c1 -132 60 -210 160 -210zM111 291h286c1 9 1 20 1 30
c0 80 -45 144 -131 144c-90 0 -147 -68 -156 -174z" />
    <glyph glyph-name="emacron" unicode="&#x113;" horiz-adv-x="507" 
d="M398 620h-259v46h259v-46zM269 37c68 0 116 33 132 102l51 -14c-22 -94 -95 -135 -183 -135c-132 0 -216 90 -216 260c0 162 86 260 216 260c121 0 186 -87 186 -200c0 -26 -3 -47 -7 -63h-339c1 -132 60 -210 160 -210zM111 291h286c1 9 1 20 1 30
c0 80 -45 144 -131 144c-90 0 -147 -68 -156 -174z" />
    <glyph glyph-name="eogonek" unicode="&#x119;" horiz-adv-x="507" 
d="M340 -208c-35 0 -69 23 -69 74c0 43 21 87 55 134c-16 -7 -38 -10 -57 -10c-132 0 -216 90 -216 260c0 162 86 260 216 260c121 0 186 -87 186 -200c0 -26 -3 -47 -7 -63h-339c1 -132 60 -210 160 -210c68 0 116 33 132 102l51 -14c-11 -48 -38 -76 -65 -104
c-47 -52 -71 -102 -71 -146c0 -26 12 -40 30 -40c11 0 21 3 32 13l15 -40c-15 -10 -33 -16 -53 -16zM111 291h286c1 9 1 20 1 30c0 80 -45 144 -131 144c-90 0 -147 -68 -156 -174z" />
    <glyph glyph-name="eth" unicode="&#xf0;" horiz-adv-x="538" 
d="M269 -10c-129 0 -216 93 -216 253c0 158 89 255 214 255c64 0 112 -33 144 -80h3c-18 58 -54 120 -104 178l-154 -40v42l123 32c-30 29 -63 57 -99 81l48 22c38 -25 73 -55 105 -89l98 26v-42l-69 -18c75 -93 123 -213 123 -355c0 -171 -87 -265 -216 -265zM426 243
c0 132 -56 208 -155 208c-100 0 -160 -79 -160 -208c0 -130 59 -207 158 -207s157 77 157 207z" />
    <glyph glyph-name="gbreve" unicode="&#x11f;" horiz-adv-x="509" 
d="M257 629c58 0 86 39 89 100h42c0 -89 -49 -145 -131 -145s-131 56 -131 145h42c3 -61 31 -100 89 -100zM119 344c0 -76 50 -122 128 -122c79 0 130 46 130 122s-51 122 -130 122c-78 0 -128 -46 -128 -122zM489 -44c0 -121 -126 -164 -249 -164c-110 0 -219 41 -219 144
c0 63 53 107 121 114c-37 10 -56 37 -56 71c0 39 28 66 61 78c-53 28 -85 79 -85 145c0 102 75 166 185 166c61 0 111 -19 143 -53c28 16 42 50 46 90l54 -18c-6 -54 -39 -89 -78 -101c14 -24 21 -52 21 -84c0 -101 -75 -167 -186 -167c-25 0 -49 4 -70 10
c-27 -12 -41 -30 -41 -56c0 -29 20 -45 62 -45h127c98 0 164 -44 164 -130zM77 -60c0 -72 79 -103 162 -103c102 0 195 32 195 114c0 52 -37 82 -114 82h-122c-66 0 -121 -31 -121 -93z" />
    <glyph glyph-name="gcircumflex" unicode="&#x11d;" horiz-adv-x="509" 
d="M224 729h66l110 -156h-46l-97 117l-98 -117h-46zM119 344c0 -76 50 -122 128 -122c79 0 130 46 130 122s-51 122 -130 122c-78 0 -128 -46 -128 -122zM489 -44c0 -121 -126 -164 -249 -164c-110 0 -219 41 -219 144c0 63 53 107 121 114c-37 10 -56 37 -56 71
c0 39 28 66 61 78c-53 28 -85 79 -85 145c0 102 75 166 185 166c61 0 111 -19 143 -53c28 16 42 50 46 90l54 -18c-6 -54 -39 -89 -78 -101c14 -24 21 -52 21 -84c0 -101 -75 -167 -186 -167c-25 0 -49 4 -70 10c-27 -12 -41 -30 -41 -56c0 -29 20 -45 62 -45h127
c98 0 164 -44 164 -130zM77 -60c0 -72 79 -103 162 -103c102 0 195 32 195 114c0 52 -37 82 -114 82h-122c-66 0 -121 -31 -121 -93z" />
    <glyph glyph-name="uni0123" unicode="&#x123;" horiz-adv-x="509" 
d="M205 655c0 48 37 95 105 95v-30c-39 -1 -63 -22 -63 -50c0 -3 0 -5 1 -7c4 2 9 5 15 5c22 0 37 -16 37 -37c0 -23 -20 -38 -43 -38c-27 0 -52 22 -52 62zM119 344c0 -76 50 -122 128 -122c79 0 130 46 130 122s-51 122 -130 122c-78 0 -128 -46 -128 -122zM489 -44
c0 -121 -126 -164 -249 -164c-110 0 -219 41 -219 144c0 63 53 107 121 114c-37 10 -56 37 -56 71c0 39 28 66 61 78c-53 28 -85 79 -85 145c0 102 75 166 185 166c61 0 111 -19 143 -53c28 16 42 50 46 90l54 -18c-6 -54 -39 -89 -78 -101c14 -24 21 -52 21 -84
c0 -101 -75 -167 -186 -167c-25 0 -49 4 -70 10c-27 -12 -41 -30 -41 -56c0 -29 20 -45 62 -45h127c98 0 164 -44 164 -130zM77 -60c0 -72 79 -103 162 -103c102 0 195 32 195 114c0 52 -37 82 -114 82h-122c-66 0 -121 -31 -121 -93z" />
    <glyph glyph-name="gdotaccent" unicode="&#x121;" horiz-adv-x="509" 
d="M301 649c0 -26 -19 -45 -45 -45c-25 0 -44 19 -44 45c0 25 19 45 44 45c26 0 45 -20 45 -45zM119 344c0 -76 50 -122 128 -122c79 0 130 46 130 122s-51 122 -130 122c-78 0 -128 -46 -128 -122zM489 -44c0 -121 -126 -164 -249 -164c-110 0 -219 41 -219 144
c0 63 53 107 121 114c-37 10 -56 37 -56 71c0 39 28 66 61 78c-53 28 -85 79 -85 145c0 102 75 166 185 166c61 0 111 -19 143 -53c28 16 42 50 46 90l54 -18c-6 -54 -39 -89 -78 -101c14 -24 21 -52 21 -84c0 -101 -75 -167 -186 -167c-25 0 -49 4 -70 10
c-27 -12 -41 -30 -41 -56c0 -29 20 -45 62 -45h127c98 0 164 -44 164 -130zM77 -60c0 -72 79 -103 162 -103c102 0 195 32 195 114c0 52 -37 82 -114 82h-122c-66 0 -121 -31 -121 -93z" />
    <glyph glyph-name="gbreve.1" horiz-adv-x="570" 
d="M281 629c58 0 86 39 89 100h42c0 -89 -49 -145 -131 -145s-131 56 -131 145h42c3 -61 31 -100 89 -100zM421 225v79c0 109 -80 159 -148 159c-89 0 -162 -68 -162 -212c0 -129 64 -198 158 -198c74 0 152 52 152 172zM479 -3c0 -129 -91 -205 -215 -205
c-107 0 -188 47 -204 146l55 14c10 -72 65 -112 147 -112c93 0 159 49 159 165v113c-26 -76 -91 -114 -164 -114c-112 0 -204 84 -204 246c0 164 85 260 213 260c84 0 143 -49 162 -107l7 97h44v-503z" />
    <glyph glyph-name="gcircumflex.1" horiz-adv-x="570" 
d="M248 729h66l110 -156h-46l-97 117l-98 -117h-46zM421 225v79c0 109 -80 159 -148 159c-89 0 -162 -68 -162 -212c0 -129 64 -198 158 -198c74 0 152 52 152 172zM479 -3c0 -129 -91 -205 -215 -205c-107 0 -188 47 -204 146l55 14c10 -72 65 -112 147 -112
c93 0 159 49 159 165v113c-26 -76 -91 -114 -164 -114c-112 0 -204 84 -204 246c0 164 85 260 213 260c84 0 143 -49 162 -107l7 97h44v-503z" />
    <glyph glyph-name="uni0123.1" horiz-adv-x="570" 
d="M229 655c0 48 37 95 105 95v-30c-39 -1 -63 -22 -63 -50c0 -3 0 -5 1 -7c4 2 9 5 15 5c22 0 37 -16 37 -37c0 -23 -20 -38 -43 -38c-27 0 -52 22 -52 62zM421 225v79c0 109 -80 159 -148 159c-89 0 -162 -68 -162 -212c0 -129 64 -198 158 -198c74 0 152 52 152 172z
M479 -3c0 -129 -91 -205 -215 -205c-107 0 -188 47 -204 146l55 14c10 -72 65 -112 147 -112c93 0 159 49 159 165v113c-26 -76 -91 -114 -164 -114c-112 0 -204 84 -204 246c0 164 85 260 213 260c84 0 143 -49 162 -107l7 97h44v-503z" />
    <glyph glyph-name="gdotaccent.1" horiz-adv-x="570" 
d="M324 649c0 -26 -19 -45 -45 -45c-25 0 -44 19 -44 45c0 25 19 45 44 45c26 0 45 -20 45 -45zM421 225v79c0 109 -80 159 -148 159c-89 0 -162 -68 -162 -212c0 -129 64 -198 158 -198c74 0 152 52 152 172zM479 -3c0 -129 -91 -205 -215 -205c-107 0 -188 47 -204 146
l55 14c10 -72 65 -112 147 -112c93 0 159 49 159 165v113c-26 -76 -91 -114 -164 -114c-112 0 -204 84 -204 246c0 164 85 260 213 260c84 0 143 -49 162 -107l7 97h44v-503z" />
    <glyph glyph-name="germandbls" unicode="&#xdf;" horiz-adv-x="581" 
d="M301 732c107 0 179 -68 179 -168c0 -82 -65 -144 -135 -152v-2c98 -6 184 -69 184 -200c0 -143 -97 -220 -209 -220c-40 0 -80 11 -105 30l18 50c22 -20 51 -34 89 -34c82 0 149 58 149 174c0 115 -74 174 -187 174h-29v49h30c85 0 138 54 138 127c0 75 -49 125 -127 125
c-88 0 -147 -64 -147 -184v-501h-58v505c0 133 83 227 210 227z" />
    <glyph glyph-name="hbar" unicode="&#x127;" horiz-adv-x="556" 
d="M149 284v-284h-58v588h-76v42h76v92h58v-92h148v-42h-148v-190c26 67 87 112 167 112c90 0 154 -54 154 -161v-349h-58v336c0 78 -39 123 -112 123c-81 0 -151 -56 -151 -175z" />
    <glyph glyph-name="hcircumflex" unicode="&#x125;" horiz-adv-x="556" 
d="M248 905h65l125 -150h-47l-110 106l-111 -106h-47zM149 722v-324c26 67 87 112 167 112c90 0 154 -54 154 -161v-349h-58v336c0 78 -39 123 -112 123c-81 0 -151 -56 -151 -175v-284h-58v722h58z" />
    <glyph glyph-name="dotlessi" unicode="&#x131;" horiz-adv-x="240" 
d="M91 500h58v-500h-58v500z" />
    <glyph glyph-name="iacute" unicode="&#xed;" horiz-adv-x="240" 
d="M135 574h-44l76 155h80zM91 500h58v-500h-58v500z" />
    <glyph glyph-name="ibreve" unicode="&#x12d;" horiz-adv-x="240" 
d="M120 629c58 0 86 39 89 100h42c0 -89 -49 -145 -131 -145c-81 0 -130 56 -130 145h42c2 -61 30 -100 88 -100zM91 500h58v-500h-58v500z" />
    <glyph glyph-name="icircumflex" unicode="&#xee;" horiz-adv-x="240" 
d="M87 729h66l111 -156h-46l-98 117l-97 -117h-46zM91 500h58v-500h-58v500z" />
    <glyph glyph-name="idieresis" unicode="&#xef;" horiz-adv-x="240" 
d="M74 647c0 -24 -18 -43 -42 -43c-26 0 -43 19 -43 43s17 43 43 43c24 0 42 -19 42 -43zM251 647c0 -24 -17 -43 -43 -43c-24 0 -42 19 -42 43s18 43 42 43c26 0 43 -19 43 -43zM91 500h58v-500h-58v500z" />
    <glyph glyph-name="i.dot" horiz-adv-x="240" 
d="M165 649c0 -26 -19 -45 -45 -45c-25 0 -44 19 -44 45c0 25 19 45 44 45c26 0 45 -20 45 -45zM91 500h58v-500h-58v500z" />
    <glyph glyph-name="igrave" unicode="&#xec;" horiz-adv-x="240" 
d="M150 574h-44l-112 155h80zM91 500h58v-500h-58v500z" />
    <glyph glyph-name="imacron" unicode="&#x12b;" horiz-adv-x="240" 
d="M250 620h-259v46h259v-46zM91 500h58v-500h-58v500z" />
    <glyph glyph-name="iogonek" unicode="&#x12f;" horiz-adv-x="240" 
d="M165 649c0 -26 -19 -45 -45 -45c-25 0 -44 19 -44 45c0 25 19 45 44 45c26 0 45 -20 45 -45zM109 -208c-35 0 -69 23 -69 72c0 42 23 86 60 136h-9v500h58v-500c-42 -44 -64 -89 -64 -127c0 -24 12 -38 30 -38c11 0 21 3 32 13l15 -40c-15 -10 -33 -16 -53 -16z" />
    <glyph glyph-name="itilde" unicode="&#x129;" horiz-adv-x="240" 
d="M230 719h45c-5 -75 -41 -125 -97 -125c-55 0 -77 74 -118 74c-32 0 -48 -30 -51 -75h-44c5 75 42 124 97 124s77 -74 118 -74c32 0 49 30 50 76zM91 500h58v-500h-58v500z" />
    <glyph glyph-name="uni0237" unicode="&#x237;" horiz-adv-x="240" 
d="M91 500h58v-540c0 -126 -73 -188 -189 -162l7 50c79 -22 124 11 124 117v535z" />
    <glyph glyph-name="jcircumflex" unicode="&#x135;" horiz-adv-x="240" 
d="M87 729h66l111 -156h-47l-97 117l-97 -117h-47zM91 500h58v-540c0 -126 -73 -188 -189 -162l7 50c79 -22 124 11 124 117v535z" />
    <glyph glyph-name="uni0137" unicode="&#x137;" horiz-adv-x="501" 
d="M248 269l239 -269h-73l-215 241h-50v-241h-58v722h58v-433h50l199 211h70zM316 -117c0 -48 -37 -95 -105 -95v30c39 1 63 22 63 50c0 3 0 5 -1 7c-4 -2 -9 -5 -15 -5c-22 0 -37 16 -37 37c0 23 20 38 43 38c27 0 52 -22 52 -62z" />
    <glyph glyph-name="kgreenlandic" unicode="&#x138;" horiz-adv-x="501" 
d="M248 269l239 -269h-73l-215 241h-50v-241h-58v500h58v-211h50l199 211h70z" />
    <glyph glyph-name="lacute" unicode="&#x13a;" horiz-adv-x="266" 
d="M134 759h-39l89 149h83zM226 51l7 -46c-15 -9 -38 -14 -59 -14c-58 0 -92 30 -92 96v635h58v-629c0 -39 18 -54 48 -54c13 0 27 4 38 12z" />
    <glyph glyph-name="lcaron" unicode="&#x13e;" horiz-adv-x="296" 
d="M272 535h-37l23 187h62zM226 51l7 -46c-15 -9 -38 -14 -59 -14c-58 0 -92 30 -92 96v635h58v-629c0 -39 18 -54 48 -54c13 0 27 4 38 12z" />
    <glyph glyph-name="uni013C" unicode="&#x13c;" horiz-adv-x="266" 
d="M226 51l7 -46c-15 -9 -38 -14 -59 -14c-58 0 -92 30 -92 96v635h58v-629c0 -39 18 -54 48 -54c13 0 27 4 38 12zM206 -117c0 -48 -37 -95 -105 -95v30c39 1 63 22 63 50c0 3 0 5 -1 7c-4 -2 -9 -5 -15 -5c-22 0 -37 16 -37 37c0 23 20 38 43 38c27 0 52 -22 52 -62z" />
    <glyph glyph-name="ldot" unicode="&#x140;" horiz-adv-x="357" 
d="M226 51l7 -46c-15 -9 -38 -14 -59 -14c-58 0 -92 30 -92 96v635h58v-629c0 -39 18 -54 48 -54c13 0 27 4 38 12zM337 357c0 -26 -19 -45 -45 -45c-25 0 -44 19 -44 45c0 25 19 45 44 45c26 0 45 -20 45 -45z" />
    <glyph glyph-name="lslash" unicode="&#x142;" horiz-adv-x="287" 
d="M188 -9c-58 0 -92 30 -92 96v277l-76 -47v50l76 48v307h58v-276l101 64v-50l-101 -64v-303c0 -39 18 -54 48 -54c13 0 27 4 38 12l7 -46c-15 -9 -38 -14 -59 -14z" />
    <glyph glyph-name="nacute" unicode="&#x144;" horiz-adv-x="556" 
d="M305 574h-44l76 155h80zM135 500l8 -113c23 73 87 123 173 123c90 0 154 -54 154 -161v-349h-58v336c0 78 -39 123 -112 123c-81 0 -151 -56 -151 -175v-284h-58v500h44z" />
    <glyph glyph-name="ncaron" unicode="&#x148;" horiz-adv-x="556" 
d="M324 573h-66l-111 156h46l98 -117l97 117h46zM135 500l8 -113c23 73 87 123 173 123c90 0 154 -54 154 -161v-349h-58v336c0 78 -39 123 -112 123c-81 0 -151 -56 -151 -175v-284h-58v500h44z" />
    <glyph glyph-name="uni0146" unicode="&#x146;" horiz-adv-x="556" 
d="M135 500l8 -113c23 73 87 123 173 123c90 0 154 -54 154 -161v-349h-58v336c0 78 -39 123 -112 123c-81 0 -151 -56 -151 -175v-284h-58v500h44zM337 -117c0 -48 -37 -95 -105 -95v30c39 1 63 22 63 50c0 3 0 5 -1 7c-4 -2 -9 -5 -15 -5c-22 0 -37 16 -37 37
c0 23 20 38 43 38c27 0 52 -22 52 -62z" />
    <glyph glyph-name="ntilde" unicode="&#xf1;" horiz-adv-x="556" 
d="M393 719h45c-5 -75 -42 -125 -97 -125s-78 74 -118 74c-32 0 -48 -30 -51 -75h-44c5 75 42 124 97 124s77 -74 118 -74c32 0 48 30 50 76zM135 500l8 -113c23 73 87 123 173 123c90 0 154 -54 154 -161v-349h-58v336c0 78 -39 123 -112 123c-81 0 -151 -56 -151 -175
v-284h-58v500h44z" />
    <glyph glyph-name="eng" unicode="&#x14b;" horiz-adv-x="556" 
d="M470 -40c0 -126 -73 -188 -189 -162l7 50c79 -22 124 11 124 117v371c0 78 -39 123 -112 123c-81 0 -151 -56 -151 -175v-284h-58v500h44l8 -113c23 73 87 123 173 123c90 0 154 -54 154 -161v-389z" />
    <glyph glyph-name="oacute" unicode="&#xf3;" horiz-adv-x="538" 
d="M283 574h-44l76 155h80zM485 250c0 -166 -87 -260 -216 -260s-216 94 -216 260s87 260 216 260s216 -94 216 -260zM426 250c0 138 -58 214 -157 214s-158 -76 -158 -214c0 -137 59 -214 158 -214s157 77 157 214z" />
    <glyph glyph-name="obreve" unicode="&#x14f;" horiz-adv-x="538" 
d="M269 629c58 0 86 39 89 100h42c0 -89 -49 -145 -131 -145s-131 56 -131 145h42c3 -61 31 -100 89 -100zM485 250c0 -166 -87 -260 -216 -260s-216 94 -216 260s87 260 216 260s216 -94 216 -260zM426 250c0 138 -58 214 -157 214s-158 -76 -158 -214
c0 -137 59 -214 158 -214s157 77 157 214z" />
    <glyph glyph-name="ocircumflex" unicode="&#xf4;" horiz-adv-x="538" 
d="M236 729h66l110 -156h-46l-97 117l-98 -117h-46zM485 250c0 -166 -87 -260 -216 -260s-216 94 -216 260s87 260 216 260s216 -94 216 -260zM426 250c0 138 -58 214 -157 214s-158 -76 -158 -214c0 -137 59 -214 158 -214s157 77 157 214z" />
    <glyph glyph-name="odieresis" unicode="&#xf6;" horiz-adv-x="538" 
d="M223 647c0 -24 -18 -43 -42 -43c-26 0 -43 19 -43 43s17 43 43 43c24 0 42 -19 42 -43zM400 647c0 -24 -17 -43 -43 -43c-24 0 -42 19 -42 43s18 43 42 43c26 0 43 -19 43 -43zM485 250c0 -166 -87 -260 -216 -260s-216 94 -216 260s87 260 216 260s216 -94 216 -260z
M426 250c0 138 -58 214 -157 214s-158 -76 -158 -214c0 -137 59 -214 158 -214s157 77 157 214z" />
    <glyph glyph-name="ograve" unicode="&#xf2;" horiz-adv-x="538" 
d="M298 574h-44l-112 155h80zM485 250c0 -166 -87 -260 -216 -260s-216 94 -216 260s87 260 216 260s216 -94 216 -260zM426 250c0 138 -58 214 -157 214s-158 -76 -158 -214c0 -137 59 -214 158 -214s157 77 157 214z" />
    <glyph glyph-name="ohungarumlaut" unicode="&#x151;" horiz-adv-x="538" 
d="M172 574l74 155h70l-105 -155h-39zM312 574l73 155h70l-104 -155h-39zM485 250c0 -166 -87 -260 -216 -260s-216 94 -216 260s87 260 216 260s216 -94 216 -260zM426 250c0 138 -58 214 -157 214s-158 -76 -158 -214c0 -137 59 -214 158 -214s157 77 157 214z" />
    <glyph glyph-name="omacron" unicode="&#x14d;" horiz-adv-x="538" 
d="M398 620h-259v46h259v-46zM485 250c0 -166 -87 -260 -216 -260s-216 94 -216 260s87 260 216 260s216 -94 216 -260zM426 250c0 138 -58 214 -157 214s-158 -76 -158 -214c0 -137 59 -214 158 -214s157 77 157 214z" />
    <glyph glyph-name="oslash" unicode="&#xf8;" horiz-adv-x="538" 
d="M111 250c0 -59 11 -108 32 -143l228 318c-26 26 -60 39 -102 39c-99 0 -158 -76 -158 -214zM269 36c99 0 157 77 157 214c0 58 -10 105 -30 140l-227 -316c25 -25 59 -38 100 -38zM269 -10c-51 0 -95 15 -130 42l-53 -73l-33 23l57 79c-36 44 -57 108 -57 189
c0 166 87 260 216 260c51 0 96 -15 132 -44l48 68l35 -22l-54 -75c35 -44 55 -107 55 -187c0 -166 -87 -260 -216 -260z" />
    <glyph glyph-name="oslashacute" unicode="&#x1ff;" horiz-adv-x="538" 
d="M283 574h-44l76 155h80zM111 250c0 -59 11 -108 32 -143l228 318c-26 26 -60 39 -102 39c-99 0 -158 -76 -158 -214zM269 36c99 0 157 77 157 214c0 58 -10 105 -30 140l-227 -316c25 -25 59 -38 100 -38zM269 -10c-51 0 -95 15 -130 42l-53 -73l-33 23l57 79
c-36 44 -57 108 -57 189c0 166 87 260 216 260c51 0 96 -15 132 -44l48 68l35 -22l-54 -75c35 -44 55 -107 55 -187c0 -166 -87 -260 -216 -260z" />
    <glyph glyph-name="otilde" unicode="&#xf5;" horiz-adv-x="538" 
d="M379 719h45c-5 -75 -42 -125 -97 -125s-78 74 -118 74c-32 0 -48 -30 -51 -75h-44c5 75 42 124 97 124s77 -74 118 -74c32 0 48 30 50 76zM485 250c0 -166 -87 -260 -216 -260s-216 94 -216 260s87 260 216 260s216 -94 216 -260zM426 250c0 138 -58 214 -157 214
s-158 -76 -158 -214c0 -137 59 -214 158 -214s157 77 157 214z" />
    <glyph glyph-name="oe" unicode="&#x153;" horiz-adv-x="878" 
d="M823 125c-21 -94 -94 -135 -182 -135s-158 48 -186 128c-31 -78 -100 -128 -186 -128c-129 0 -216 94 -216 260s87 260 216 260c85 0 156 -49 186 -128c32 77 101 128 185 128c122 0 187 -87 187 -200c0 -26 -4 -47 -8 -63h-340c1 -133 62 -210 162 -210
c67 0 115 33 132 102zM639 465c-90 0 -149 -68 -159 -174h288c1 9 1 20 1 30c0 80 -45 144 -130 144zM426 250c0 138 -58 214 -157 214s-158 -76 -158 -214c0 -137 59 -214 158 -214s157 77 157 214z" />
    <glyph glyph-name="racute" unicode="&#x155;" horiz-adv-x="360" 
d="M230 574h-44l76 155h80zM334 506l-4 -61c-11 4 -25 5 -40 5c-85 0 -141 -80 -141 -195v-255h-58v500h46l9 -136c17 93 89 161 188 142z" />
    <glyph glyph-name="rcaron" unicode="&#x159;" horiz-adv-x="360" 
d="M249 573h-66l-111 156h46l98 -117l97 117h46zM334 506l-4 -61c-11 4 -25 5 -40 5c-85 0 -141 -80 -141 -195v-255h-58v500h46l9 -136c17 93 89 161 188 142z" />
    <glyph glyph-name="uni0157" unicode="&#x157;" horiz-adv-x="360" 
d="M334 506l-4 -61c-11 4 -25 5 -40 5c-85 0 -141 -80 -141 -195v-255h-58v500h46l9 -136c17 93 89 161 188 142zM171 -117c0 -48 -37 -95 -105 -95v30c39 1 63 22 63 50c0 3 0 5 -1 7c-4 -2 -9 -5 -15 -5c-22 0 -37 16 -37 37c0 23 20 38 43 38c27 0 52 -22 52 -62z" />
    <glyph glyph-name="sacute" unicode="&#x15b;" horiz-adv-x="456" 
d="M251 574h-44l76 155h80zM38 126l53 15c12 -67 67 -106 139 -106c74 0 125 33 125 95c0 148 -295 45 -295 238c0 89 74 142 168 142c102 0 163 -45 175 -136l-54 -8c-10 63 -48 99 -121 99c-66 0 -113 -34 -113 -93c0 -145 295 -39 295 -239c0 -90 -77 -143 -180 -143
c-100 0 -176 48 -192 136z" />
    <glyph glyph-name="scaron" unicode="&#x161;" horiz-adv-x="456" 
d="M270 573h-66l-111 156h46l98 -117l97 117h46zM38 126l53 15c12 -67 67 -106 139 -106c74 0 125 33 125 95c0 148 -295 45 -295 238c0 89 74 142 168 142c102 0 163 -45 175 -136l-54 -8c-10 63 -48 99 -121 99c-66 0 -113 -34 -113 -93c0 -145 295 -39 295 -239
c0 -90 -77 -143 -180 -143c-100 0 -176 48 -192 136z" />
    <glyph glyph-name="uni015F" unicode="&#x15f;" horiz-adv-x="456" 
d="M215 -208c-45 0 -80 19 -99 43l24 33c20 -24 43 -37 75 -37s57 13 57 42c0 34 -35 50 -93 52l22 66c-85 9 -149 56 -163 135l53 15c12 -67 67 -106 139 -106c74 0 125 33 125 95c0 148 -295 45 -295 238c0 89 74 142 168 142c102 0 163 -45 175 -136l-54 -8
c-10 63 -48 99 -121 99c-66 0 -113 -34 -113 -93c0 -145 295 -39 295 -239c0 -90 -77 -143 -179 -143l-11 -33c55 -5 97 -33 97 -82c0 -57 -49 -83 -102 -83z" />
    <glyph glyph-name="scircumflex" unicode="&#x15d;" horiz-adv-x="456" 
d="M204 729h66l110 -156h-46l-97 117l-98 -117h-46zM38 126l53 15c12 -67 67 -106 139 -106c74 0 125 33 125 95c0 148 -295 45 -295 238c0 89 74 142 168 142c102 0 163 -45 175 -136l-54 -8c-10 63 -48 99 -121 99c-66 0 -113 -34 -113 -93c0 -145 295 -39 295 -239
c0 -90 -77 -143 -180 -143c-100 0 -176 48 -192 136z" />
    <glyph glyph-name="uni0219" unicode="&#x219;" horiz-adv-x="456" 
d="M38 126l53 15c12 -67 67 -106 139 -106c74 0 125 33 125 95c0 148 -295 45 -295 238c0 89 74 142 168 142c102 0 163 -45 175 -136l-54 -8c-10 63 -48 99 -121 99c-66 0 -113 -34 -113 -93c0 -145 295 -39 295 -239c0 -90 -77 -143 -180 -143c-100 0 -176 48 -192 136z
M284 -117c0 -48 -37 -95 -105 -95v30c39 1 63 22 63 50c0 3 0 5 -1 7c-4 -2 -9 -5 -15 -5c-22 0 -37 16 -37 37c0 23 20 38 43 38c27 0 52 -22 52 -62z" />
    <glyph glyph-name="tbar" unicode="&#x167;" horiz-adv-x="375" 
d="M338 26c-28 -23 -64 -36 -103 -36c-83 0 -131 43 -131 130v159h-71v45h71v131h-72v45h72v106l58 10v-116h150v-45h-150v-131h150v-45h-150v-154c0 -62 32 -86 77 -86c35 0 58 10 86 32z" />
    <glyph glyph-name="tcaron" unicode="&#x165;" horiz-adv-x="363" 
d="M262 582h-37l23 187h62zM319 71l13 -45c-28 -23 -64 -36 -103 -36c-83 0 -131 43 -131 130v335h-72v45h72v106l58 10v-116h150v-45h-150v-330c0 -62 32 -86 77 -86c35 0 58 10 86 32z" />
    <glyph glyph-name="tcommaaccent" unicode="&#x163;" horiz-adv-x="363" 
d="M189 -208c-45 0 -80 19 -99 43l24 33c20 -24 43 -37 75 -37s57 13 57 42c0 34 -35 50 -93 52l24 72c-51 15 -79 56 -79 123v335h-72v45h72v106l58 10v-116h150v-45h-150v-330c0 -62 32 -86 77 -86c35 0 58 10 86 32l13 -45c-28 -23 -64 -36 -103 -36c-8 0 -16 0 -24 1
l-11 -34c55 -5 97 -33 97 -82c0 -57 -49 -83 -102 -83z" />
    <glyph glyph-name="uni021B" unicode="&#x21b;" horiz-adv-x="363" 
d="M319 71l13 -45c-28 -23 -64 -36 -103 -36c-83 0 -131 43 -131 130v335h-72v45h72v106l58 10v-116h150v-45h-150v-330c0 -62 32 -86 77 -86c35 0 58 10 86 32zM256 -117c0 -48 -37 -95 -105 -95v30c39 1 63 22 63 50c0 3 0 5 -1 7c-4 -2 -9 -5 -15 -5c-22 0 -37 16 -37 37
c0 23 20 38 43 38c27 0 52 -22 52 -62z" />
    <glyph glyph-name="thorn" unicode="&#xfe;" horiz-adv-x="569" 
d="M457 253c0 137 -63 210 -158 210c-73 0 -150 -55 -150 -179v-83c0 -113 75 -164 146 -164c92 0 162 73 162 216zM149 401c19 57 79 109 160 109c132 0 207 -105 207 -257c0 -156 -84 -263 -214 -263c-80 0 -135 47 -153 99v-287h-58v920h58v-321z" />
    <glyph glyph-name="uacute" unicode="&#xfa;" horiz-adv-x="549" 
d="M286 574h-44l76 155h80zM412 0l-8 110c-21 -75 -82 -120 -164 -120c-85 0 -154 49 -154 160v350h58v-341c0 -79 41 -121 110 -121c82 0 145 59 145 178v284h59v-500h-46z" />
    <glyph glyph-name="ubreve" unicode="&#x16d;" horiz-adv-x="549" 
d="M272 629c58 0 86 39 89 100h42c0 -89 -49 -145 -131 -145s-131 56 -131 145h42c3 -61 31 -100 89 -100zM412 0l-8 110c-21 -75 -82 -120 -164 -120c-85 0 -154 49 -154 160v350h58v-341c0 -79 41 -121 110 -121c82 0 145 59 145 178v284h59v-500h-46z" />
    <glyph glyph-name="ucircumflex" unicode="&#xfb;" horiz-adv-x="549" 
d="M239 729h66l110 -156h-46l-97 117l-98 -117h-46zM412 0l-8 110c-21 -75 -82 -120 -164 -120c-85 0 -154 49 -154 160v350h58v-341c0 -79 41 -121 110 -121c82 0 145 59 145 178v284h59v-500h-46z" />
    <glyph glyph-name="udieresis" unicode="&#xfc;" horiz-adv-x="549" 
d="M226 647c0 -24 -18 -43 -42 -43c-26 0 -43 19 -43 43s17 43 43 43c24 0 42 -19 42 -43zM403 647c0 -24 -17 -43 -43 -43c-24 0 -42 19 -42 43s18 43 42 43c26 0 43 -19 43 -43zM412 0l-8 110c-21 -75 -82 -120 -164 -120c-85 0 -154 49 -154 160v350h58v-341
c0 -79 41 -121 110 -121c82 0 145 59 145 178v284h59v-500h-46z" />
    <glyph glyph-name="ugrave" unicode="&#xf9;" horiz-adv-x="549" 
d="M301 574h-44l-112 155h80zM412 0l-8 110c-21 -75 -82 -120 -164 -120c-85 0 -154 49 -154 160v350h58v-341c0 -79 41 -121 110 -121c82 0 145 59 145 178v284h59v-500h-46z" />
    <glyph glyph-name="uhungarumlaut" unicode="&#x171;" horiz-adv-x="549" 
d="M175 574l74 155h70l-105 -155h-39zM315 574l73 155h70l-104 -155h-39zM412 0l-8 110c-21 -75 -82 -120 -164 -120c-85 0 -154 49 -154 160v350h58v-341c0 -79 41 -121 110 -121c82 0 145 59 145 178v284h59v-500h-46z" />
    <glyph glyph-name="umacron" unicode="&#x16b;" horiz-adv-x="549" 
d="M401 620h-259v46h259v-46zM412 0l-8 110c-21 -75 -82 -120 -164 -120c-85 0 -154 49 -154 160v350h58v-341c0 -79 41 -121 110 -121c82 0 145 59 145 178v284h59v-500h-46z" />
    <glyph glyph-name="uogonek" unicode="&#x173;" horiz-adv-x="549" 
d="M470 -192c-14 -10 -32 -16 -53 -16c-35 0 -69 23 -69 72c0 45 25 88 63 140l-7 106c-21 -75 -82 -120 -164 -120c-85 0 -154 49 -154 160v350h58v-341c0 -79 41 -121 110 -121c82 0 145 59 145 178v284h59v-500c-41 -43 -65 -88 -65 -127c0 -24 12 -38 30 -38
c11 0 21 3 32 13z" />
    <glyph glyph-name="uring" unicode="&#x16f;" horiz-adv-x="549" 
d="M272 571c-52 0 -95 42 -95 95s43 95 95 95s95 -42 95 -95s-43 -95 -95 -95zM272 728c-33 0 -60 -28 -60 -62s27 -62 60 -62s60 28 60 62s-27 62 -60 62zM412 0l-8 110c-21 -75 -82 -120 -164 -120c-85 0 -154 49 -154 160v350h58v-341c0 -79 41 -121 110 -121
c82 0 145 59 145 178v284h59v-500h-46z" />
    <glyph glyph-name="utilde" unicode="&#x169;" horiz-adv-x="549" 
d="M382 719h45c-5 -75 -42 -125 -97 -125s-78 74 -118 74c-32 0 -48 -30 -51 -75h-44c5 75 42 124 97 124s77 -74 118 -74c32 0 48 30 50 76zM412 0l-8 110c-21 -75 -82 -120 -164 -120c-85 0 -154 49 -154 160v350h58v-341c0 -79 41 -121 110 -121c82 0 145 59 145 178v284
h59v-500h-46z" />
    <glyph glyph-name="wacute" unicode="&#x1e83;" horiz-adv-x="693" 
d="M361 574h-44l76 155h80zM320 500h54l117 -431h2l117 431h57l-144 -500h-59l-116 424h-3l-116 -424h-59l-143 500h57l117 -431h2z" />
    <glyph glyph-name="wcircumflex" unicode="&#x175;" horiz-adv-x="693" 
d="M314 729h66l110 -156h-46l-97 117l-98 -117h-46zM320 500h54l117 -431h2l117 431h57l-144 -500h-59l-116 424h-3l-116 -424h-59l-143 500h57l117 -431h2z" />
    <glyph glyph-name="wgrave" unicode="&#x1e81;" horiz-adv-x="693" 
d="M376 574h-44l-112 155h80zM320 500h54l117 -431h2l117 431h57l-144 -500h-59l-116 424h-3l-116 -424h-59l-143 500h57l117 -431h2z" />
    <glyph glyph-name="wdieresis" unicode="&#x1e85;" horiz-adv-x="693" 
d="M300 647c0 -24 -18 -43 -42 -43c-26 0 -43 19 -43 43s17 43 43 43c24 0 42 -19 42 -43zM477 647c0 -24 -17 -43 -43 -43c-24 0 -42 19 -42 43s18 43 42 43c26 0 43 -19 43 -43zM320 500h54l117 -431h2l117 431h57l-144 -500h-59l-116 424h-3l-116 -424h-59l-143 500h57
l117 -431h2z" />
    <glyph glyph-name="yacute" unicode="&#xfd;" horiz-adv-x="486" 
d="M259 574h-44l76 155h80zM244 56l157 444h58l-190 -520c-50 -137 -93 -188 -170 -188c-27 0 -53 8 -70 23l12 48c20 -15 35 -22 57 -22c54 0 78 36 117 142l-188 517h61l154 -444h2z" />
    <glyph glyph-name="ycircumflex" unicode="&#x177;" horiz-adv-x="486" 
d="M212 729h66l110 -156h-46l-97 117l-98 -117h-46zM244 56l157 444h58l-190 -520c-50 -137 -93 -188 -170 -188c-27 0 -53 8 -70 23l12 48c20 -15 35 -22 57 -22c54 0 78 36 117 142l-188 517h61l154 -444h2z" />
    <glyph glyph-name="ydieresis" unicode="&#xff;" horiz-adv-x="486" 
d="M198 647c0 -24 -18 -43 -42 -43c-26 0 -43 19 -43 43s17 43 43 43c24 0 42 -19 42 -43zM375 647c0 -24 -17 -43 -43 -43c-24 0 -42 19 -42 43s18 43 42 43c26 0 43 -19 43 -43zM244 56l157 444h58l-190 -520c-50 -137 -93 -188 -170 -188c-27 0 -53 8 -70 23l12 48
c20 -15 35 -22 57 -22c54 0 78 36 117 142l-188 517h61l154 -444h2z" />
    <glyph glyph-name="ygrave" unicode="&#x1ef3;" horiz-adv-x="486" 
d="M274 574h-44l-112 155h80zM244 56l157 444h58l-190 -520c-50 -137 -93 -188 -170 -188c-27 0 -53 8 -70 23l12 48c20 -15 35 -22 57 -22c54 0 78 36 117 142l-188 517h61l154 -444h2z" />
    <glyph glyph-name="zacute" unicode="&#x17a;" horiz-adv-x="461" 
d="M248 574h-44l76 155h80zM405 465l-289 -418h298v-47h-367v35l287 418h-280v47h351v-35z" />
    <glyph glyph-name="zcaron" unicode="&#x17e;" horiz-adv-x="461" 
d="M267 573h-66l-111 156h46l98 -117l97 117h46zM405 465l-289 -418h298v-47h-367v35l287 418h-280v47h351v-35z" />
    <glyph glyph-name="zdotaccent" unicode="&#x17c;" horiz-adv-x="461" 
d="M279 649c0 -26 -19 -45 -45 -45c-25 0 -44 19 -44 45c0 25 19 45 44 45c26 0 45 -20 45 -45zM405 465l-289 -418h298v-47h-367v35l287 418h-280v47h351v-35z" />
    <glyph glyph-name="ordmasculine" unicode="&#xba;" horiz-adv-x="416" 
d="M368 488c0 -120 -65 -188 -160 -188s-159 68 -159 188s64 187 159 187s160 -67 160 -187zM314 488c0 94 -38 147 -106 147c-67 0 -106 -53 -106 -147s39 -146 106 -146c68 0 106 52 106 146zM70 192v42h276v-42h-276z" />
    <glyph glyph-name="ordfeminine" unicode="&#xaa;" horiz-adv-x="392" 
d="M265 442v35c-13 2 -29 3 -44 3c-77 0 -124 -23 -124 -75c0 -39 28 -64 73 -64c49 0 95 30 95 101zM315 562v-177c0 -28 11 -41 30 -41c8 0 16 3 22 7l3 -38c-9 -7 -24 -10 -37 -10c-37 0 -61 21 -66 65c-15 -42 -61 -67 -109 -67c-66 0 -113 37 -113 101
c0 72 62 114 173 114c12 0 31 -2 47 -4v45c0 52 -29 77 -77 77c-45 0 -74 -24 -77 -71l-50 8c7 70 62 104 130 104c77 0 124 -35 124 -113zM66 188v42h280v-42h-280z" />
    <glyph glyph-name="a.ord" horiz-adv-x="392" 
d="M265 442v35c-13 2 -29 3 -44 3c-77 0 -124 -23 -124 -75c0 -39 28 -64 73 -64c49 0 95 30 95 101zM315 562v-177c0 -28 11 -41 30 -41c8 0 16 3 22 7l3 -38c-9 -7 -24 -10 -37 -10c-37 0 -61 21 -66 65c-15 -42 -61 -67 -109 -67c-66 0 -113 37 -113 101
c0 72 62 114 173 114c12 0 31 -2 47 -4v45c0 52 -29 77 -77 77c-45 0 -74 -24 -77 -71l-50 8c7 70 62 104 130 104c77 0 124 -35 124 -113z" />
    <glyph glyph-name="b.ord" horiz-adv-x="445" 
d="M134 827v-231c14 48 60 79 115 79c94 0 148 -75 148 -184c0 -114 -61 -191 -154 -191c-57 0 -100 35 -112 82l-7 -74h-43v519h53zM134 510v-50c0 -83 51 -118 99 -118c63 0 110 50 110 149c0 93 -43 142 -107 142c-50 0 -102 -38 -102 -123z" />
    <glyph glyph-name="c.ord" horiz-adv-x="382" 
d="M49 488c0 117 61 187 158 187c76 0 125 -44 133 -115l-48 -9c-4 48 -33 83 -85 83c-68 0 -105 -58 -105 -146s37 -146 106 -146c51 0 81 35 85 84l48 -11c-10 -72 -58 -115 -133 -115c-98 0 -159 71 -159 188z" />
    <glyph glyph-name="d.ord" horiz-adv-x="446" 
d="M311 465v58c0 77 -53 111 -99 111c-62 0 -109 -49 -109 -150c0 -90 43 -141 106 -141c50 0 102 37 102 122zM320 308l-6 78c-16 -55 -64 -86 -119 -86c-81 0 -146 64 -146 182c0 122 61 193 152 193c60 0 98 -33 110 -69v221h53v-519h-44z" />
    <glyph glyph-name="e.ord" horiz-adv-x="394" 
d="M208 342c46 0 78 23 91 69l44 -13c-16 -68 -71 -98 -135 -98c-97 0 -159 66 -159 187c0 117 63 188 160 188c90 0 137 -64 137 -146c0 -18 -3 -34 -6 -46h-240c0 -89 41 -141 108 -141zM101 518h193v21c0 53 -29 96 -87 96c-60 0 -99 -45 -106 -117z" />
    <glyph glyph-name="f.ord" horiz-adv-x="235" 
d="M85 627h-52v41h52v41c0 77 49 125 117 125c28 0 50 -7 69 -19l-14 -41c-15 13 -31 17 -52 17c-41 0 -67 -31 -67 -84v-39h90v-41h-90v-319h-53v319z" />
    <glyph glyph-name="g.ord" horiz-adv-x="374" 
d="M96 554c0 -51 34 -83 86 -83c53 0 87 31 87 83s-34 84 -87 84c-52 0 -86 -32 -86 -84zM360 275c0 -89 -93 -121 -184 -121c-80 0 -160 28 -160 102c0 45 37 76 86 81c-27 7 -42 27 -42 54c0 30 21 50 48 59c-39 19 -63 56 -63 104c0 75 55 121 137 121
c43 0 79 -13 103 -36c19 12 28 36 30 64l47 -14c-4 -40 -30 -65 -58 -73c10 -18 16 -38 16 -62c0 -74 -56 -120 -138 -120c-18 0 -35 2 -50 7c-18 -8 -28 -22 -28 -38c0 -21 14 -32 42 -32h93c73 0 121 -32 121 -96zM64 262c0 -49 54 -70 112 -70c71 0 135 22 135 77
c0 35 -26 55 -77 55h-89c-44 0 -81 -20 -81 -62z" />
    <glyph glyph-name="g.1ord" horiz-adv-x="446" 
d="M311 465v57c0 78 -53 112 -99 112c-62 0 -109 -50 -109 -151c0 -90 43 -140 106 -140c50 0 102 37 102 122zM311 307v75c-18 -55 -64 -82 -116 -82c-81 0 -146 64 -146 182c0 122 61 193 152 193c60 0 102 -34 116 -77l6 70h41v-367c0 -97 -71 -154 -163 -154
c-77 0 -137 35 -149 106l46 15c7 -51 50 -80 101 -80c66 0 112 36 112 119z" />
    <glyph glyph-name="h.ord" horiz-adv-x="442" 
d="M134 827v-231c19 48 63 79 119 79c65 0 112 -39 112 -116v-251h-53v238c0 53 -26 83 -76 83c-55 0 -102 -37 -102 -118v-203h-53v519h53z" />
    <glyph glyph-name="i.ord" horiz-adv-x="210" 
d="M142 774c0 -22 -16 -37 -37 -37s-37 15 -37 37c0 21 16 36 37 36s37 -15 37 -36zM78 668h54v-360h-54v360z" />
    <glyph glyph-name="j.ord" horiz-adv-x="190" 
d="M122 774c0 -22 -16 -37 -37 -37c-20 0 -37 15 -37 37c0 21 17 36 37 36c21 0 37 -15 37 -36zM59 668h52v-383c0 -98 -58 -141 -145 -122l6 44c55 -16 87 7 87 80v381z" />
    <glyph glyph-name="k.ord" horiz-adv-x="402" 
d="M214 501l165 -193h-65l-145 170h-35v-170h-53v519h53v-307h35l134 148h62z" />
    <glyph glyph-name="l.ord" horiz-adv-x="225" 
d="M187 353l5 -40c-12 -7 -30 -12 -48 -12c-42 0 -70 22 -70 73v453h53v-444c0 -28 12 -38 32 -38c10 0 20 2 28 8z" />
    <glyph glyph-name="m.ord" horiz-adv-x="649" 
d="M348 591c17 50 58 84 115 84c65 0 108 -37 108 -113v-254h-52v238c0 53 -22 83 -73 83s-93 -38 -93 -117v-204h-53v238c0 53 -22 83 -73 83s-93 -38 -93 -117v-204h-53v360h43l6 -79c16 53 58 86 114 86c55 0 93 -28 104 -84z" />
    <glyph glyph-name="n.ord" horiz-adv-x="442" 
d="M124 668l6 -79c17 52 63 86 123 86c65 0 112 -39 112 -116v-251h-53v238c0 53 -26 83 -76 83c-55 0 -102 -37 -102 -118v-203h-53v360h43z" />
    <glyph glyph-name="o.ord" horiz-adv-x="416" 
d="M368 488c0 -120 -65 -188 -160 -188s-159 68 -159 188s64 187 159 187s160 -67 160 -187zM314 488c0 94 -38 147 -106 147c-67 0 -106 -53 -106 -147s39 -146 106 -146c68 0 106 52 106 146z" />
    <glyph glyph-name="p.ord" horiz-adv-x="445" 
d="M134 510v-56c0 -77 51 -112 99 -112c63 0 110 50 110 148c0 94 -43 143 -107 143c-50 0 -102 -38 -102 -123zM124 668l6 -78c13 47 60 85 119 85c94 0 148 -75 148 -184c0 -114 -61 -191 -154 -191c-56 0 -95 33 -109 69v-203h-53v502h43z" />
    <glyph glyph-name="q.ord" horiz-adv-x="446" 
d="M311 166v216c-18 -55 -64 -82 -116 -82c-81 0 -146 64 -146 182c0 122 61 193 152 193c60 0 102 -34 116 -77l6 70h41v-502h-53zM311 465v57c0 78 -53 112 -99 112c-62 0 -109 -50 -109 -151c0 -90 43 -140 106 -140c50 0 102 37 102 122z" />
    <glyph glyph-name="r.ord" horiz-adv-x="294" 
d="M267 673l-3 -55c-9 2 -19 3 -31 3c-59 0 -99 -53 -99 -132v-181h-53v360h44l7 -95c13 66 64 113 135 100z" />
    <glyph glyph-name="s.ord" horiz-adv-x="355" 
d="M36 399l48 12c7 -44 45 -71 94 -71s83 22 83 63c0 99 -209 29 -209 168c0 66 56 104 125 104c75 0 121 -33 129 -99l-47 -6c-6 43 -33 66 -82 66c-43 0 -75 -22 -75 -61c0 -98 209 -25 209 -169c0 -66 -57 -106 -134 -106c-73 0 -128 35 -141 99z" />
    <glyph glyph-name="t.ord" horiz-adv-x="286" 
d="M245 367l10 -40c-21 -17 -48 -27 -78 -27c-62 0 -99 33 -99 99v228h-51v41h51v76l53 8v-84h106v-41h-106v-223c0 -42 22 -59 53 -59c24 0 41 7 61 22z" />
    <glyph glyph-name="u.ord" horiz-adv-x="437" 
d="M312 308l-7 78c-15 -54 -58 -86 -117 -86c-61 0 -111 37 -111 116v252h54v-242c0 -53 26 -82 73 -82c56 0 98 40 98 120v204h54v-360h-44z" />
    <glyph glyph-name="v.ord" horiz-adv-x="376" 
d="M188 366h2l106 302h52l-133 -360h-54l-134 360h56z" />
    <glyph glyph-name="w.ord" horiz-adv-x="525" 
d="M240 668h46l79 -297h2l79 297h52l-102 -360h-54l-79 290h-1l-79 -290h-54l-102 360h53l79 -297h2z" />
    <glyph glyph-name="x.ord" horiz-adv-x="373" 
d="M285 308l-99 146h-2l-99 -146h-55l127 184l-120 176h58l93 -139h1l93 139h54l-120 -175l127 -185h-58z" />
    <glyph glyph-name="y.ord" horiz-adv-x="376" 
d="M189 360l107 308h53l-136 -373c-36 -99 -69 -137 -128 -137c-22 0 -42 7 -55 18l11 42c14 -12 26 -16 41 -16c38 0 54 23 80 94l-135 372h56l105 -308h1z" />
    <glyph glyph-name="z.ord" horiz-adv-x="363" 
d="M310 635l-200 -285h206v-42h-269v33l198 285h-194v42h259v-33z" />
    <glyph glyph-name="ampersand" unicode="&#x26;" horiz-adv-x="640" 
d="M227 407l21 -22c92 42 137 81 137 146c0 53 -39 101 -114 101c-64 0 -109 -44 -109 -103c0 -49 23 -77 65 -122zM248 39c74 0 133 30 177 77l-199 212c-83 -39 -130 -80 -130 -158s67 -131 152 -131zM533 0l-76 81c-53 -56 -124 -91 -209 -91c-120 0 -211 67 -211 180
c0 89 58 146 157 191l-17 19c-40 43 -71 81 -71 145c0 89 69 153 165 153c107 0 169 -62 169 -145c0 -79 -49 -131 -161 -182l179 -192c42 64 63 147 65 227l55 -10c-4 -90 -34 -182 -86 -254l114 -122h-73z" />
    <glyph glyph-name="grave" unicode="`" horiz-adv-x="600" 
d="M358 574h-44l-112 155h80z" />
    <glyph glyph-name="acute" unicode="&#xb4;" horiz-adv-x="600" 
d="M271 574h-44l76 155h80z" />
    <glyph glyph-name="circumflex" unicode="&#x2c6;" horiz-adv-x="600" 
d="M266 729h66l110 -156h-46l-97 117l-98 -117h-46z" />
    <glyph glyph-name="tilde" unicode="&#x2dc;" horiz-adv-x="600" 
d="M410 719h45c-5 -75 -42 -125 -97 -125s-78 74 -118 74c-32 0 -48 -30 -51 -75h-44c5 75 42 124 97 124s77 -74 118 -74c32 0 48 30 50 76z" />
    <glyph glyph-name="macron" unicode="&#xaf;" horiz-adv-x="600" 
d="M429 620h-259v46h259v-46z" />
    <glyph glyph-name="breve" unicode="&#x2d8;" horiz-adv-x="600" 
d="M300 629c58 0 86 39 89 100h42c0 -89 -49 -145 -131 -145s-131 56 -131 145h42c3 -61 31 -100 89 -100z" />
    <glyph glyph-name="dotaccent" unicode="&#x2d9;" horiz-adv-x="600" 
d="M335 649c0 -26 -19 -45 -45 -45c-25 0 -44 19 -44 45c0 25 19 45 44 45c26 0 45 -20 45 -45z" />
    <glyph glyph-name="dieresis" unicode="&#xa8;" horiz-adv-x="600" 
d="M254 647c0 -24 -18 -43 -42 -43c-26 0 -43 19 -43 43s17 43 43 43c24 0 42 -19 42 -43zM431 647c0 -24 -17 -43 -43 -43c-24 0 -42 19 -42 43s18 43 42 43c26 0 43 -19 43 -43z" />
    <glyph glyph-name="ring" unicode="&#x2da;" horiz-adv-x="600" 
d="M300 571c-52 0 -95 42 -95 95s43 95 95 95s95 -42 95 -95s-43 -95 -95 -95zM300 728c-33 0 -60 -28 -60 -62s27 -62 60 -62s60 28 60 62s-27 62 -60 62z" />
    <glyph glyph-name="hungarumlaut" unicode="&#x2dd;" horiz-adv-x="600" 
d="M161 574l74 155h70l-105 -155h-39zM301 574l73 155h70l-104 -155h-39z" />
    <glyph glyph-name="caron" unicode="&#x2c7;" horiz-adv-x="600" 
d="M332 573h-66l-111 156h46l98 -117l97 117h46z" />
    <glyph glyph-name="caron.Slovak" horiz-adv-x="540" 
d="M263 535h-37l23 187h62z" />
    <glyph glyph-name="commaturn" horiz-adv-x="540" 
d="M238 655c0 48 37 95 105 95v-30c-39 -1 -63 -22 -63 -50c0 -3 0 -5 1 -7c4 2 9 5 15 5c22 0 37 -16 37 -37c0 -23 -20 -38 -43 -38c-27 0 -52 22 -52 62z" />
    <glyph glyph-name="uni00200326" horiz-adv-x="540" 
d="M343 -117c0 -48 -37 -95 -105 -95v30c39 1 63 22 63 50c0 3 0 5 -1 7c-4 -2 -9 -5 -15 -5c-22 0 -37 16 -37 37c0 23 20 38 43 38c27 0 52 -22 52 -62z" />
    <glyph glyph-name="cedilla" unicode="&#xb8;" horiz-adv-x="600" 
d="M398 -125c0 -57 -49 -83 -102 -83c-45 0 -80 19 -99 43l24 33c20 -24 43 -37 75 -37s57 13 57 42c0 34 -35 50 -93 52l28 83h30l-17 -51c55 -5 97 -33 97 -82z" />
    <glyph glyph-name="ogonek" unicode="&#x2db;" horiz-adv-x="600" 
d="M232 -136c0 53 36 108 87 171l23 -25c-43 -58 -64 -101 -64 -137c0 -24 11 -38 29 -38c11 0 22 3 32 13l15 -40c-14 -10 -32 -16 -53 -16c-35 0 -69 23 -69 72z" />
    <glyph glyph-name="period" unicode="." horiz-adv-x="232" 
d="M164 43c0 -27 -21 -48 -48 -48s-48 21 -48 48s21 48 48 48s48 -21 48 -48z" />
    <glyph glyph-name="comma" unicode="," horiz-adv-x="232" 
d="M175 8c0 -67 -43 -141 -135 -141v33c63 2 93 52 93 93c0 13 -3 21 -8 25c-4 -5 -13 -10 -22 -10c-21 0 -38 15 -38 40c0 26 18 43 44 43c36 0 66 -31 66 -83z" />
    <glyph glyph-name="colon" unicode=":" horiz-adv-x="232" 
d="M164 415c0 -27 -21 -48 -48 -48s-48 21 -48 48s21 48 48 48s48 -21 48 -48zM164 43c0 -27 -21 -48 -48 -48s-48 21 -48 48s21 48 48 48s48 -21 48 -48z" />
    <glyph glyph-name="semicolon" unicode=";" horiz-adv-x="232" 
d="M164 415c0 -27 -21 -48 -48 -48s-48 21 -48 48s21 48 48 48s48 -21 48 -48zM175 8c0 -67 -43 -141 -135 -141v33c63 2 93 52 93 93c0 13 -3 21 -8 25c-4 -5 -13 -10 -22 -10c-21 0 -38 15 -38 40c0 26 18 43 44 43c36 0 66 -31 66 -83z" />
    <glyph glyph-name="ellipsis" unicode="&#x2026;" horiz-adv-x="680" 
d="M612 43c0 -27 -21 -48 -48 -48s-48 21 -48 48s21 48 48 48s48 -21 48 -48zM388 43c0 -27 -21 -48 -48 -48s-48 21 -48 48s21 48 48 48s48 -21 48 -48zM164 43c0 -27 -21 -48 -48 -48s-48 21 -48 48s21 48 48 48s48 -21 48 -48z" />
    <glyph glyph-name="exclam" unicode="!" horiz-adv-x="250" 
d="M144 180h-38l-16 488h70zM173 43c0 -27 -21 -48 -48 -48s-48 21 -48 48s21 48 48 48s48 -21 48 -48z" />
    <glyph glyph-name="exclamdown" unicode="&#xa1;" horiz-adv-x="250" 
d="M125 673c27 0 48 -21 48 -48s-21 -48 -48 -48s-48 21 -48 48s21 48 48 48zM106 488h38l16 -488h-70z" />
    <glyph glyph-name="question" unicode="?" horiz-adv-x="456" 
d="M82 485l-56 20c18 92 88 173 210 173c124 0 194 -77 194 -175c0 -88 -59 -129 -110 -176c-50 -44 -70 -76 -70 -140h-54c0 87 32 125 80 170c45 42 94 72 94 146c0 68 -48 123 -134 123c-87 0 -142 -59 -154 -141zM273 43c0 -27 -21 -48 -48 -48c-26 0 -48 21 -48 48
s22 48 48 48c27 0 48 -21 48 -48z" />
    <glyph glyph-name="questiondown" unicode="&#xbf;" horiz-adv-x="456" 
d="M183 625c0 27 21 48 48 48c26 0 48 -21 48 -48s-22 -48 -48 -48c-27 0 -48 21 -48 48zM374 183l56 -20c-18 -92 -88 -173 -210 -173c-124 0 -194 77 -194 175c0 88 59 129 110 176c50 44 70 76 70 140h54c0 -87 -32 -125 -80 -170c-45 -42 -94 -72 -94 -146
c0 -68 48 -123 134 -123c87 0 142 59 154 141z" />
    <glyph glyph-name="quoteleft" unicode="&#x2018;" horiz-adv-x="226" 
d="M57 605c0 61 46 126 129 126v-32c-54 -2 -88 -38 -88 -79c0 -15 5 -24 12 -29c4 6 13 12 22 12c21 0 37 -14 37 -39c0 -27 -22 -42 -46 -42c-34 0 -66 31 -66 83z" />
    <glyph glyph-name="quoteright" unicode="&#x2019;" horiz-adv-x="226" 
d="M169 648c0 -61 -46 -126 -129 -126v32c54 2 88 38 88 79c0 15 -5 24 -12 29c-4 -6 -13 -12 -22 -12c-21 0 -37 14 -37 39c0 27 22 42 46 42c34 0 66 -31 66 -83z" />
    <glyph glyph-name="quotedblleft" unicode="&#x201c;" horiz-adv-x="408" 
d="M239 605c0 61 46 126 129 126v-32c-54 -2 -88 -38 -88 -79c0 -15 5 -24 12 -29c4 6 13 12 22 12c21 0 37 -14 37 -39c0 -27 -22 -42 -46 -42c-34 0 -66 31 -66 83zM57 605c0 61 46 126 129 126v-32c-54 -2 -88 -38 -88 -79c0 -15 5 -24 12 -29c4 6 13 12 22 12
c21 0 37 -14 37 -39c0 -27 -22 -42 -46 -42c-34 0 -66 31 -66 83z" />
    <glyph glyph-name="quotedblright" unicode="&#x201d;" horiz-adv-x="408" 
d="M351 648c0 -61 -46 -126 -129 -126v32c54 2 88 38 88 79c0 15 -5 24 -12 29c-4 -6 -13 -12 -22 -12c-21 0 -37 14 -37 39c0 27 22 42 46 42c34 0 66 -31 66 -83zM169 648c0 -61 -46 -126 -129 -126v32c54 2 88 38 88 79c0 15 -5 24 -12 29c-4 -6 -13 -12 -22 -12
c-21 0 -37 14 -37 39c0 27 22 42 46 42c34 0 66 -31 66 -83z" />
    <glyph glyph-name="quotesinglbase" unicode="&#x201a;" horiz-adv-x="226" 
d="M169 24c0 -61 -46 -126 -129 -126v32c54 2 88 38 88 79c0 15 -5 24 -12 29c-4 -6 -13 -12 -22 -12c-21 0 -37 14 -37 39c0 27 22 42 46 42c34 0 66 -31 66 -83z" />
    <glyph glyph-name="quotedblbase" unicode="&#x201e;" horiz-adv-x="408" 
d="M351 24c0 -61 -46 -126 -129 -126v32c54 2 88 38 88 79c0 15 -5 24 -12 29c-4 -6 -13 -12 -22 -12c-21 0 -37 14 -37 39c0 27 22 42 46 42c34 0 66 -31 66 -83zM169 24c0 -61 -46 -126 -129 -126v32c54 2 88 38 88 79c0 15 -5 24 -12 29c-4 -6 -13 -12 -22 -12
c-21 0 -37 14 -37 39c0 27 22 42 46 42c34 0 66 -31 66 -83z" />
    <glyph glyph-name="guilsinglleft" unicode="&#x2039;" horiz-adv-x="279" 
d="M107 245l125 -148l-37 -32l-152 180l152 180l37 -33z" />
    <glyph glyph-name="guilsinglright" unicode="&#x203a;" horiz-adv-x="279" 
d="M46 97l126 148l-126 147l37 33l153 -180l-153 -180z" />
    <glyph glyph-name="guillemotleft" unicode="&#xab;" horiz-adv-x="451" 
d="M279 245l126 -148l-37 -32l-153 180l153 180l37 -33zM107 245l125 -148l-37 -32l-152 180l152 180l37 -33z" />
    <glyph glyph-name="guillemotright" unicode="&#xbb;" horiz-adv-x="451" 
d="M46 97l126 148l-126 147l37 33l153 -180l-153 -180zM219 97l126 148l-126 147l37 33l152 -180l-152 -180z" />
    <glyph glyph-name="guilsinglleft.cap" horiz-adv-x="279" 
d="M107 319l125 -148l-37 -32l-152 180l152 180l37 -33z" />
    <glyph glyph-name="guilsinglright.cap" horiz-adv-x="279" 
d="M46 171l126 148l-126 147l37 33l153 -180l-153 -180z" />
    <glyph glyph-name="guillemotleft.cap" horiz-adv-x="451" 
d="M279 319l126 -148l-37 -32l-153 180l153 180l37 -33zM107 319l125 -148l-37 -32l-152 180l152 180l37 -33z" />
    <glyph glyph-name="guillemotright.cap" horiz-adv-x="451" 
d="M46 171l126 148l-126 147l37 33l153 -180l-153 -180zM219 171l126 148l-126 147l37 33l152 -180l-152 -180z" />
    <glyph glyph-name="slash" unicode="/" horiz-adv-x="360" 
d="M25 -116l257 838h53l-259 -838h-51z" />
    <glyph glyph-name="backslash" unicode="\" horiz-adv-x="360" 
d="M78 722l257 -838h-51l-259 838h53z" />
    <glyph glyph-name="bar" unicode="|" horiz-adv-x="250" 
d="M151 -116h-52v838h52v-838z" />
    <glyph glyph-name="slash.cap" horiz-adv-x="360" 
d="M25 -96l257 838h53l-259 -838h-51z" />
    <glyph glyph-name="backslash.cap" horiz-adv-x="360" 
d="M78 742l257 -838h-51l-259 838h53z" />
    <glyph glyph-name="bar.cap" horiz-adv-x="250" 
d="M151 -96h-52v838h52v-838z" />
    <glyph glyph-name="periodcentered" unicode="&#xb7;" horiz-adv-x="194" 
d="M145 267c0 -27 -21 -48 -48 -48s-48 21 -48 48s21 48 48 48s48 -21 48 -48z" />
    <glyph glyph-name="bullet" unicode="&#x2022;" horiz-adv-x="331" 
d="M282 272c0 -65 -47 -117 -116 -117c-70 0 -117 52 -117 117c0 66 47 118 117 118c69 0 116 -52 116 -118z" />
    <glyph glyph-name="hyphen" unicode="-" horiz-adv-x="353" 
d="M49 237v54h255v-54h-255z" />
    <glyph glyph-name="endash" unicode="&#x2013;" horiz-adv-x="479" 
d="M49 240v48h381v-48h-381z" />
    <glyph glyph-name="emdash" unicode="&#x2014;" horiz-adv-x="815" 
d="M49 240v48h717v-48h-717z" />
    <glyph glyph-name="periodcentered.cap" horiz-adv-x="194" 
d="M145 337c0 -27 -21 -48 -48 -48s-48 21 -48 48s21 48 48 48s48 -21 48 -48z" />
    <glyph glyph-name="bullet.cap" horiz-adv-x="331" 
d="M282 342c0 -65 -47 -117 -116 -117c-70 0 -117 52 -117 117c0 66 47 118 117 118c69 0 116 -52 116 -118z" />
    <glyph glyph-name="hyphen.cap" horiz-adv-x="353" 
d="M49 307v54h255v-54h-255z" />
    <glyph glyph-name="endash.cap" horiz-adv-x="479" 
d="M49 310v48h381v-48h-381z" />
    <glyph glyph-name="emdash.cap" horiz-adv-x="815" 
d="M49 310v48h717v-48h-717z" />
    <glyph glyph-name="parenleft" unicode="(" horiz-adv-x="342" 
d="M67 303c0 198 109 351 186 419h63c-93 -86 -192 -233 -192 -419s99 -333 192 -419h-63c-77 68 -186 221 -186 419z" />
    <glyph glyph-name="parenright" unicode=")" horiz-adv-x="342" 
d="M89 722c77 -68 186 -221 186 -419s-109 -351 -186 -419h-63c93 86 192 233 192 419s-99 333 -192 419h63z" />
    <glyph glyph-name="bracketleft" unicode="[" horiz-adv-x="327" 
d="M147 677v-748h134v-45h-187v838h187v-45h-134z" />
    <glyph glyph-name="bracketright" unicode="]" horiz-adv-x="327" 
d="M180 -71v748h-134v45h187v-838h-187v45h134z" />
    <glyph glyph-name="braceleft" unicode="{" horiz-adv-x="398" 
d="M36 278v51h42c49 0 81 20 81 84l-15 185c0 79 57 133 130 133c34 0 60 -9 82 -23l-12 -42c-18 13 -36 19 -62 19c-48 0 -85 -34 -85 -90l16 -190c0 -71 -40 -95 -88 -101v-2c48 -5 88 -30 88 -100l-16 -190c0 -56 37 -91 85 -91c26 0 44 7 62 20l12 -42
c-22 -14 -48 -23 -82 -23c-73 0 -130 54 -130 133l15 185c0 64 -32 84 -81 84h-42z" />
    <glyph glyph-name="braceright" unicode="}" horiz-adv-x="398" 
d="M362 329v-51h-42c-49 0 -81 -20 -81 -84l15 -185c0 -79 -57 -133 -130 -133c-34 0 -60 9 -82 23l12 42c18 -13 36 -20 62 -20c48 0 85 35 85 91l-16 190c0 70 40 95 88 100v2c-48 6 -88 30 -88 101l16 190c0 56 -37 90 -85 90c-26 0 -44 -6 -62 -19l-12 42
c22 14 48 23 82 23c73 0 130 -54 130 -133l-15 -185c0 -64 32 -84 81 -84h42z" />
    <glyph glyph-name="parenleft.cap" horiz-adv-x="342" 
d="M67 323c0 198 109 351 186 419h63c-93 -86 -192 -233 -192 -419s99 -333 192 -419h-63c-77 68 -186 221 -186 419z" />
    <glyph glyph-name="parenright.cap" horiz-adv-x="342" 
d="M89 742c77 -68 186 -221 186 -419s-109 -351 -186 -419h-63c93 86 192 233 192 419s-99 333 -192 419h63z" />
    <glyph glyph-name="bracketleft.cap" horiz-adv-x="327" 
d="M147 697v-748h134v-45h-187v838h187v-45h-134z" />
    <glyph glyph-name="bracketright.cap" horiz-adv-x="327" 
d="M180 -51v748h-134v45h187v-838h-187v45h134z" />
    <glyph glyph-name="braceleft.cap" horiz-adv-x="398" 
d="M36 298v51h42c49 0 81 20 81 84l-15 185c0 79 57 133 130 133c34 0 60 -9 82 -23l-12 -42c-18 13 -36 19 -62 19c-48 0 -85 -34 -85 -90l16 -190c0 -71 -40 -95 -88 -101v-2c48 -5 88 -30 88 -100l-16 -190c0 -56 37 -91 85 -91c26 0 44 7 62 20l12 -42
c-22 -14 -48 -23 -82 -23c-73 0 -130 54 -130 133l15 185c0 64 -32 84 -81 84h-42z" />
    <glyph glyph-name="braceright.cap" horiz-adv-x="398" 
d="M362 349v-51h-42c-49 0 -81 -20 -81 -84l15 -185c0 -79 -57 -133 -130 -133c-34 0 -60 9 -82 23l12 42c18 -13 36 -20 62 -20c48 0 85 35 85 91l-16 190c0 70 40 95 88 100v2c-48 6 -88 30 -88 101l16 190c0 56 -37 90 -85 90c-26 0 -44 -6 -62 -19l-12 42
c22 14 48 23 82 23c73 0 130 -54 130 -133l-15 -185c0 -64 32 -84 81 -84h42z" />
    <glyph glyph-name="asterisk" unicode="*" horiz-adv-x="411" 
d="M182 722h47l-6 -132l122 47l14 -45l-122 -34l79 -98l-38 -27l-72 109l-72 -109l-39 27l80 98l-123 34l15 45l122 -47z" />
    <glyph glyph-name="dagger" unicode="&#x2020;" horiz-adv-x="394" 
d="M330 564l-117 8l9 -192h-52l9 192l-115 -8v52l115 -8l-9 114h52l-9 -115l117 9v-52z" />
    <glyph glyph-name="daggerdbl" unicode="&#x2021;" horiz-adv-x="394" 
d="M330 466l-117 9l9 -95h-52l9 95l-115 -9v50l113 -8v86l-113 -8v50l115 -8l-9 94h52l-9 -95l117 9v-50l-115 8v-86l115 8v-50z" />
    <glyph glyph-name="section" unicode="&#xa7;" horiz-adv-x="506" 
d="M186 237l157 -123c30 9 56 38 56 77c0 34 -17 64 -79 113l-157 123c-30 -9 -56 -38 -56 -78c0 -34 17 -64 79 -112zM248 -138c-75 0 -132 39 -164 97l41 34c30 -56 71 -84 123 -84c56 0 94 36 94 86c0 46 -21 67 -71 105l-122 94c-61 48 -94 83 -94 138
c0 57 35 101 80 122c-17 23 -27 52 -27 86c0 80 64 138 150 138c75 0 132 -39 164 -97l-41 -34c-30 57 -71 84 -123 84c-56 0 -95 -35 -95 -86c0 -45 22 -66 71 -105l123 -94c61 -47 94 -83 94 -138c0 -56 -35 -101 -80 -122c17 -24 26 -52 26 -86c0 -79 -63 -138 -149 -138
z" />
    <glyph glyph-name="paragraph" unicode="&#xb6;" horiz-adv-x="529" 
d="M239 -76c65 0 96 34 96 121v572h-74v-282h-17c-124 0 -200 66 -200 168c0 99 77 165 200 165h241v-51h-90v-573c0 -117 -64 -174 -156 -174c-39 0 -78 13 -106 32l18 55c24 -23 54 -33 88 -33z" />
    <glyph glyph-name="asciicircum" unicode="^" horiz-adv-x="440" 
d="M195 668h50l145 -238h-56l-114 189l-114 -189h-56z" />
    <glyph glyph-name="asciitilde" unicode="~" horiz-adv-x="435" 
d="M341 332h45c-13 -75 -49 -121 -102 -121s-85 67 -134 67c-31 0 -45 -23 -56 -69h-45c13 75 49 121 102 121s85 -67 134 -67c31 0 45 23 56 69z" />
    <glyph glyph-name="underscore" unicode="_" horiz-adv-x="353" 
d="M49 -100v53h255v-53h-255z" />
    <glyph glyph-name="quotesingle" unicode="'" horiz-adv-x="219" 
d="M76 487v235h67l-30 -235h-37z" />
    <glyph glyph-name="quotedbl" unicode="&#x22;" horiz-adv-x="359" 
d="M76 487v235h67l-30 -235h-37zM216 487v235h67l-30 -235h-37z" />
    <glyph glyph-name="at" unicode="@" horiz-adv-x="918" 
d="M663 84c66 0 146 78 146 239c0 182 -139 296 -322 296c-209 0 -377 -164 -377 -386c0 -218 161 -353 368 -353c100 0 177 23 249 77l21 -36c-74 -60 -171 -86 -270 -86c-232 0 -418 151 -418 399c0 240 186 430 427 430c206 0 371 -130 371 -341
c0 -185 -108 -280 -204 -280c-56 0 -105 35 -100 102c-24 -64 -77 -103 -140 -103c-82 0 -146 59 -146 167c0 145 86 258 203 258c65 0 109 -41 118 -93l26 84h36l-51 -282c-1 -6 -3 -21 -3 -30c0 -45 30 -62 66 -62zM558 225c11 54 15 85 15 97c0 56 -34 101 -98 101
c-93 0 -154 -96 -154 -213c0 -77 39 -123 103 -123c69 0 119 53 134 138z" />
    <glyph glyph-name="at.cap" horiz-adv-x="918" 
d="M663 154c66 0 146 78 146 239c0 182 -139 296 -322 296c-209 0 -377 -164 -377 -386c0 -218 161 -353 368 -353c100 0 177 23 249 77l21 -36c-74 -60 -171 -86 -270 -86c-232 0 -418 151 -418 399c0 240 186 430 427 430c206 0 371 -130 371 -341
c0 -185 -108 -280 -204 -280c-56 0 -105 35 -100 102c-24 -64 -77 -103 -140 -103c-82 0 -146 59 -146 167c0 145 86 258 203 258c65 0 109 -41 118 -93l26 84h36l-51 -282c-1 -6 -3 -21 -3 -30c0 -45 30 -62 66 -62zM558 295c11 54 15 85 15 97c0 56 -34 101 -98 101
c-93 0 -154 -96 -154 -213c0 -77 39 -123 103 -123c69 0 119 53 134 138z" />
    <glyph glyph-name="copyright" unicode="&#xa9;" horiz-adv-x="791" 
d="M396 680c191 0 345 -144 345 -346c0 -200 -154 -346 -345 -346c-192 0 -346 146 -346 346c0 202 154 346 346 346zM396 25c170 0 306 132 306 309c0 179 -136 309 -306 309c-171 0 -307 -130 -307 -309c0 -177 136 -309 307 -309zM232 334c0 126 70 197 168 197
c69 0 116 -32 137 -93l-45 -22c-13 45 -45 71 -92 71c-70 0 -114 -57 -114 -153c0 -95 44 -152 114 -152c47 0 79 26 92 71l45 -22c-21 -61 -68 -93 -137 -93c-98 0 -168 71 -168 196z" />
    <glyph glyph-name="registered" unicode="&#xae;" horiz-adv-x="506" 
d="M253 680c112 0 203 -85 203 -203s-91 -203 -203 -203s-203 85 -203 203s91 203 203 203zM253 302c96 0 173 75 173 175s-77 175 -173 175s-173 -75 -173 -175s77 -175 173 -175zM298 522c0 22 -13 33 -40 33h-49v-68h49c27 0 40 12 40 35zM343 378h-36c-5 5 -8 13 -10 22
l-7 32c-6 22 -17 28 -40 28h-41v-82h-34v204h88c46 0 70 -20 70 -58c0 -31 -24 -49 -47 -51c19 -3 31 -13 36 -34l9 -37c2 -9 6 -18 12 -24z" />
    <glyph glyph-name="published" horiz-adv-x="791" 
d="M396 680c191 0 345 -144 345 -346c0 -200 -154 -346 -345 -346c-192 0 -346 146 -346 346c0 202 154 346 346 346zM396 25c170 0 306 132 306 309c0 179 -136 309 -306 309c-171 0 -307 -130 -307 -309c0 -177 136 -309 307 -309zM420 284h-79v-136h-50v370h129
c86 0 134 -44 134 -117c0 -74 -50 -117 -134 -117zM502 401c0 48 -26 76 -87 76h-74v-153h74c59 0 87 27 87 77z" />
    <glyph glyph-name="trademark" unicode="&#x2122;" horiz-adv-x="713" 
d="M195 387h-45v242h-100v39h245v-39h-100v-242zM506 460h-26l-78 140v-213h-44v281h50l87 -156l87 156h47v-281h-43v213z" />
    <glyph glyph-name="numbersign" unicode="#" horiz-adv-x="677" 
d="M398 262l23 143h-141l-23 -143h141zM360 30l31 189h-141l-31 -189h-45l31 189h-145l7 43h145l23 143h-150l6 43h151l31 190h45l-31 -190h141l31 190h45l-31 -190h144l-7 -43h-144l-23 -143h150l-7 -43h-150l-31 -189h-45z" />
    <glyph glyph-name="degree" unicode="&#xb0;" horiz-adv-x="328" 
d="M164 678c69 0 124 -54 124 -124c0 -68 -55 -124 -124 -124c-68 0 -124 56 -124 124c0 70 56 124 124 124zM164 474c44 0 79 37 79 80c0 45 -35 80 -79 80s-79 -35 -79 -80c0 -43 35 -80 79 -80z" />
    <glyph glyph-name="uni0192" unicode="&#x192;" horiz-adv-x="528" 
d="M61 -120c-50 0 -86 23 -106 50l24 48c18 -27 48 -49 83 -49c63 0 96 46 110 134l35 230h-117v47h124l24 158c18 123 81 180 169 180c49 0 84 -23 105 -50l-25 -47c-18 26 -47 48 -82 48c-62 0 -97 -46 -110 -133l-24 -156h126v-47h-133l-35 -233
c-19 -122 -81 -180 -168 -180z" />
    <glyph glyph-name="Euro" unicode="&#x20ac;" horiz-adv-x="630" 
d="M581 147c-36 -105 -105 -157 -210 -157c-129 0 -228 89 -254 252h-79v46h74c-1 15 -2 30 -2 46c0 18 1 35 2 52h-74v46h80c28 160 125 246 253 246c105 0 174 -52 210 -157l-47 -28c-25 87 -81 134 -163 134c-104 0 -171 -73 -194 -195h225l-8 -46h-223
c-1 -17 -2 -34 -2 -52c0 -16 1 -31 2 -46h206l-8 -46h-193c22 -126 90 -201 195 -201c82 0 138 48 163 134z" />
    <glyph glyph-name="dollar" unicode="$" horiz-adv-x="558" 
d="M118 491c0 -78 65 -101 142 -119v246c-80 -5 -142 -52 -142 -127zM446 183c0 81 -66 106 -143 125v-258c81 8 143 54 143 133zM303 -106h-43v106c-123 6 -208 72 -225 187l55 17c13 -93 75 -148 170 -154v268c-98 22 -198 48 -198 171c0 108 90 173 198 179v94h43v-95
c106 -8 178 -64 194 -177l-55 -11c-12 80 -61 129 -139 138v-254c98 -22 199 -49 199 -178c0 -109 -85 -176 -199 -184v-107z" />
    <glyph glyph-name="cent" unicode="&#xa2;" horiz-adv-x="519" 
d="M471 150c-13 -97 -73 -154 -171 -159v-101h-43v101c-123 12 -199 106 -199 259s77 248 199 259v110h43v-110c98 -6 160 -65 171 -157l-53 -10c-6 65 -43 114 -118 120v-424c75 6 112 54 118 121zM115 250c0 -117 50 -199 142 -211v422c-91 -12 -142 -93 -142 -211z" />
    <glyph glyph-name="sterling" unicode="&#xa3;" horiz-adv-x="580" 
d="M551 157c-10 -111 -70 -157 -183 -157h-312v52c64 0 114 59 114 128c0 36 -8 67 -19 97h-85v48h65c-17 42 -33 84 -33 137c0 132 96 216 214 216c131 0 198 -91 198 -189c0 -39 -11 -74 -29 -101l-46 21c13 21 22 47 22 80c0 77 -51 141 -144 141
c-92 0 -157 -67 -157 -167c0 -57 16 -98 32 -138h169v-48h-150c10 -29 18 -60 18 -98c0 -48 -32 -104 -79 -127h222c94 0 129 39 134 126z" />
    <glyph glyph-name="yen" unicode="&#xa5;" horiz-adv-x="569" 
d="M505 185h-193v-185h-55v185h-192v46h192v98h-192v46h162l-201 293h66l193 -285h2l193 285h63l-201 -293h163v-46h-193v-98h193v-46z" />
    <glyph glyph-name="uni0192.lt" 
d="M124 -120c-50 0 -86 23 -106 50l24 48c18 -27 48 -49 83 -49c63 0 96 46 110 134l35 230h-117v47h124l24 158c18 123 81 180 169 180c49 0 84 -23 105 -50l-25 -47c-18 26 -47 48 -82 48c-62 0 -97 -46 -110 -133l-24 -156h126v-47h-133l-35 -233
c-19 -122 -81 -180 -168 -180z" />
    <glyph glyph-name="Euro.lt" 
d="M573 147c-37 -105 -103 -157 -208 -157c-129 0 -225 89 -250 252h-80v46h75c-1 15 -2 30 -2 46c0 18 1 35 2 52h-75v46h81c27 160 121 246 249 246c105 0 171 -52 208 -157l-48 -28c-25 87 -78 134 -160 134c-104 0 -169 -73 -191 -195h219l-8 -46h-217
c-1 -17 -2 -34 -2 -52c0 -16 1 -31 2 -46h200l-8 -46h-187c21 -126 87 -201 192 -201c82 0 135 48 160 134z" />
    <glyph glyph-name="dollar.lt" 
d="M145 491c0 -78 65 -101 142 -119v246c-79 -5 -142 -52 -142 -127zM474 183c0 81 -66 106 -144 125v-258c82 8 144 54 144 133zM330 -106h-43v106c-123 7 -207 73 -225 187l55 17c13 -93 75 -148 170 -154v268c-98 22 -198 48 -198 171c0 108 90 173 198 179v94h43v-95
c107 -8 179 -64 195 -177l-55 -11c-12 80 -62 129 -140 138v-254c99 -22 200 -49 200 -178c0 -109 -86 -176 -200 -184v-107z" />
    <glyph glyph-name="cent.lt" 
d="M518 150c-13 -97 -73 -154 -171 -159v-101h-43v101c-123 12 -199 106 -199 259s77 248 199 259v110h43v-110c98 -6 160 -65 171 -157l-53 -10c-6 65 -43 114 -118 120v-424c75 6 112 54 118 121zM162 250c0 -117 50 -199 142 -211v422c-91 -12 -142 -93 -142 -211z" />
    <glyph glyph-name="sterling.lt" 
d="M562 157c-10 -111 -70 -157 -182 -157h-313v52c64 0 114 59 114 128c0 36 -8 67 -19 97h-85v48h65c-17 42 -33 84 -33 137c0 132 96 216 214 216c131 0 199 -93 199 -191c0 -39 -12 -74 -29 -101l-47 21c13 21 22 47 22 80c0 77 -50 143 -144 143
c-91 0 -156 -67 -156 -167c0 -57 16 -98 32 -138h168v-48h-149c10 -29 18 -60 18 -98c0 -48 -33 -104 -80 -127h222c94 0 129 39 134 126z" />
    <glyph glyph-name="yen.lt" 
d="M527 185h-193v-185h-55v185h-192v46h192v98h-192v46h162l-201 293h66l193 -285h2l193 285h63l-201 -293h163v-46h-193v-98h193v-46z" />
    <glyph glyph-name="zero" unicode="0" horiz-adv-x="597" 
d="M298 678c161 0 243 -153 243 -344s-82 -344 -243 -344c-160 0 -242 153 -242 344s82 344 242 344zM298 41c122 0 183 123 183 293s-61 293 -183 293c-121 0 -182 -123 -182 -293s61 -293 182 -293z" />
    <glyph glyph-name="one" unicode="1" horiz-adv-x="354" 
d="M242 0h-59v603l-164 -45v55l223 65v-678z" />
    <glyph glyph-name="two" unicode="2" horiz-adv-x="515" 
d="M486 52v-52h-440v45c169 121 357 260 357 422c0 104 -61 163 -153 163c-94 0 -147 -70 -147 -148c0 -32 9 -57 22 -79l-51 -21c-17 28 -27 61 -27 103c0 94 71 193 203 193c120 0 212 -72 212 -210c0 -175 -213 -340 -334 -416h358z" />
    <glyph glyph-name="three" unicode="3" horiz-adv-x="520" 
d="M306 346v-2c98 -5 167 -69 167 -162c0 -120 -97 -192 -218 -192c-131 0 -212 78 -224 173l51 17c16 -86 79 -142 174 -142c90 0 161 52 161 144c0 86 -65 137 -174 137h-49v50h46c97 0 154 52 154 139c0 78 -60 122 -137 122c-82 0 -138 -52 -154 -134l-51 20
c20 92 91 162 205 162c117 0 195 -62 195 -170c0 -89 -58 -151 -146 -162z" />
    <glyph glyph-name="four" unicode="4" horiz-adv-x="570" 
d="M344 0v213h-315v48l314 408h58v-409h142v-47h-142v-213h-57zM340 591l-250 -328v-3h254v331h-4z" />
    <glyph glyph-name="five" unicode="5" horiz-adv-x="531" 
d="M93 318l17 350h335v-52h-288l-11 -247c25 26 73 55 134 55c114 0 198 -83 198 -214c0 -140 -99 -220 -224 -220c-128 0 -210 79 -221 175l51 17c15 -87 78 -144 172 -144c96 0 165 63 165 171c0 102 -60 165 -152 165c-60 0 -101 -27 -128 -56h-48z" />
    <glyph glyph-name="six" unicode="6" horiz-adv-x="564" 
d="M507 545l-50 -23c-23 70 -74 107 -144 107c-120 0 -202 -123 -202 -315v-42h3c19 91 94 150 188 150c129 0 210 -93 210 -216c0 -114 -77 -216 -217 -216c-88 0 -151 40 -189 102c-36 59 -50 138 -50 222c0 224 106 364 257 364c96 0 164 -46 194 -133zM455 206
c0 96 -67 166 -163 166c-93 0 -161 -70 -161 -166c0 -97 67 -167 161 -167c98 0 163 70 163 167z" />
    <glyph glyph-name="seven" unicode="7" horiz-adv-x="509" 
d="M412 616h-324v-124h-52v176h438v-43l-245 -625h-61z" />
    <glyph glyph-name="eight" unicode="8" horiz-adv-x="555" 
d="M278 -10c-131 0 -226 68 -226 185c0 82 58 147 143 165v2c-70 20 -121 74 -121 160c0 106 81 176 204 176c122 0 203 -70 203 -176c0 -86 -51 -140 -120 -160v-2c85 -18 142 -83 142 -165c0 -117 -95 -185 -225 -185zM278 366c86 0 146 46 146 133c0 86 -59 133 -146 133
c-88 0 -147 -47 -147 -133c0 -87 60 -133 147 -133zM278 316c-98 0 -167 -49 -167 -139s69 -140 167 -140s166 50 166 140s-68 139 -166 139z" />
    <glyph glyph-name="nine" unicode="9" horiz-adv-x="564" 
d="M109 462c0 -96 67 -166 163 -166c93 0 161 70 161 166c0 97 -67 167 -161 167c-98 0 -163 -70 -163 -167zM57 123l50 23c23 -70 74 -107 144 -107c120 0 202 123 202 315v42h-3c-19 -91 -94 -150 -188 -150c-129 0 -210 93 -210 216c0 114 77 216 217 216
c88 0 151 -40 189 -102c36 -59 50 -138 50 -222c0 -224 -106 -364 -257 -364c-96 0 -164 46 -194 133z" />
    <glyph glyph-name="zero.op" horiz-adv-x="589" 
d="M294 568c151 0 236 -127 236 -290c0 -162 -85 -288 -236 -288c-150 0 -235 126 -235 288c0 163 85 290 235 290zM294 39c111 0 177 100 177 239c0 141 -66 241 -177 241s-177 -100 -177 -241c0 -139 66 -239 177 -239z" />
    <glyph glyph-name="one.op" horiz-adv-x="353" 
d="M241 0h-59v500l-164 -46v55l223 60v-569z" />
    <glyph glyph-name="two.op" horiz-adv-x="519" 
d="M483 49v-49h-431v42c136 85 337 185 337 333c0 89 -49 146 -138 146c-88 0 -146 -68 -146 -144c0 -32 9 -57 21 -78l-49 -21c-16 27 -26 60 -26 102c0 93 77 188 201 188c116 0 194 -71 194 -193c0 -160 -229 -282 -307 -326h344z" />
    <glyph glyph-name="three.op" horiz-adv-x="517" 
d="M301 236v-2c96 -5 165 -69 165 -162c0 -120 -96 -192 -213 -192c-127 0 -207 77 -220 172l52 18c16 -87 76 -142 168 -142c88 0 157 52 157 144c0 86 -63 137 -169 137h-48v50h45c94 0 150 52 150 139c0 78 -59 122 -133 122c-80 0 -134 -51 -150 -134l-50 21
c20 91 89 161 200 161c113 0 189 -62 189 -170c0 -89 -56 -151 -143 -162z" />
    <glyph glyph-name="four.op" horiz-adv-x="569" 
d="M345 -106v209h-313v47l312 411h56v-412h142v-46h-142v-209h-55zM342 483l-251 -331v-3h254v334h-3z" />
    <glyph glyph-name="five.op" horiz-adv-x="523" 
d="M101 206l27 352h313v-51h-271l-18 -250c24 26 69 54 129 54c109 0 192 -80 192 -211c0 -140 -98 -220 -218 -220c-126 0 -203 78 -215 173l51 18c14 -87 75 -143 165 -143c93 0 162 63 162 171c0 97 -59 161 -148 161c-57 0 -97 -25 -123 -54h-46z" />
    <glyph glyph-name="six.op" horiz-adv-x="554" 
d="M503 545l-49 -23c-22 70 -71 107 -138 107c-119 0 -204 -124 -204 -315v-42h3c19 91 92 150 184 150c125 0 203 -93 203 -216c0 -114 -74 -216 -211 -216c-84 0 -146 40 -184 102c-34 59 -48 138 -48 222c0 223 108 364 257 364c92 0 158 -46 187 -133zM447 206
c0 96 -65 166 -159 166c-90 0 -156 -70 -156 -166c0 -97 65 -167 156 -167c96 0 159 70 159 167z" />
    <glyph glyph-name="seven.op" horiz-adv-x="492" 
d="M402 509h-314v-130h-52v179h421v-52l-234 -616h-59z" />
    <glyph glyph-name="eight.op" horiz-adv-x="554" 
d="M277 -10c-129 0 -222 68 -222 185c0 82 57 147 140 165v2c-68 20 -118 74 -118 160c0 106 79 176 200 176c120 0 200 -70 200 -176c0 -86 -51 -140 -119 -160v-2c84 -18 141 -83 141 -165c0 -117 -94 -185 -222 -185zM277 366c85 0 144 46 144 133c0 86 -58 133 -144 133
c-87 0 -145 -47 -145 -133c0 -87 59 -133 145 -133zM277 317c-96 0 -164 -50 -164 -140s68 -141 164 -141s163 51 163 141s-67 140 -163 140z" />
    <glyph glyph-name="nine.op" horiz-adv-x="554" 
d="M107 352c0 -96 65 -166 159 -166c90 0 156 70 156 166c0 97 -65 167 -156 167c-96 0 -159 -70 -159 -167zM51 13l49 23c22 -70 71 -107 138 -107c119 0 204 124 204 315v42h-3c-19 -91 -92 -150 -184 -150c-125 0 -203 93 -203 216c0 114 74 216 211 216
c84 0 146 -40 184 -102c34 -59 48 -138 48 -222c0 -223 -108 -364 -257 -364c-92 0 -158 46 -187 133z" />
    <glyph glyph-name="zero.lt" 
d="M307 678c161 0 243 -153 243 -344s-82 -344 -243 -344s-243 153 -243 344s82 344 243 344zM307 41c121 0 183 123 183 293s-62 293 -183 293s-183 -123 -183 -293s62 -293 183 -293z" />
    <glyph glyph-name="one.lt" 
d="M564 0h-475v52h212v553l-209 -61v54l268 80v-626h204v-52z" />
    <glyph glyph-name="two.lt" 
d="M526 52v-52h-441v45c169 121 358 260 358 422c0 104 -62 163 -154 163c-94 0 -146 -70 -146 -148c0 -32 8 -57 22 -79l-51 -21c-17 28 -27 61 -27 103c0 94 71 193 203 193c120 0 211 -72 211 -210c0 -175 -213 -340 -333 -416h358z" />
    <glyph glyph-name="three.lt" 
d="M350 346v-2c98 -5 167 -69 167 -162c0 -120 -97 -192 -218 -192c-130 0 -212 77 -224 172l53 18c16 -87 78 -142 172 -142c90 0 160 52 160 144c0 86 -64 137 -172 137h-50v50h47c96 0 153 52 153 139c0 78 -61 122 -137 122c-82 0 -136 -51 -153 -134l-50 21
c20 91 90 161 203 161c116 0 194 -62 194 -170c0 -89 -57 -151 -145 -162z" />
    <glyph glyph-name="four.lt" 
d="M366 0v212h-322v48l321 408h57v-409h147v-47h-147v-212h-56zM362 590l-257 -328v-3h261v331h-4z" />
    <glyph glyph-name="five.lt" 
d="M133 318l17 350h334v-52h-287l-11 -247c25 26 73 55 133 55c115 0 199 -83 199 -214c0 -140 -99 -220 -224 -220c-130 0 -210 78 -222 173l52 18c15 -87 77 -143 171 -143c97 0 166 63 166 171c0 102 -60 165 -152 165c-60 0 -101 -27 -128 -56h-48z" />
    <glyph glyph-name="six.lt" 
d="M532 545l-50 -23c-23 70 -74 107 -144 107c-120 0 -202 -123 -202 -315v-42h3c19 91 94 150 188 150c129 0 210 -93 210 -216c0 -114 -77 -216 -217 -216c-88 0 -151 40 -189 102c-36 59 -50 138 -50 222c0 224 106 364 257 364c96 0 164 -46 194 -133zM480 206
c0 96 -67 166 -163 166c-93 0 -161 -70 -161 -166c0 -97 67 -167 161 -167c98 0 163 70 163 167z" />
    <glyph glyph-name="seven.lt" 
d="M480 616h-348v-132h-52v184h462v-43l-253 -625h-61z" />
    <glyph glyph-name="eight.lt" 
d="M307 -10c-131 0 -226 68 -226 185c0 82 58 147 143 165v2c-69 20 -121 74 -121 160c0 106 82 176 204 176s204 -70 204 -176c0 -86 -52 -140 -121 -160v-2c85 -18 143 -83 143 -165c0 -117 -95 -185 -226 -185zM307 366c87 0 147 46 147 133c0 86 -59 133 -147 133
s-147 -47 -147 -133c0 -87 60 -133 147 -133zM307 316c-98 0 -167 -49 -167 -139s69 -140 167 -140s167 50 167 140s-69 139 -167 139z" />
    <glyph glyph-name="nine.lt" 
d="M134 462c0 -96 67 -166 163 -166c93 0 161 70 161 166c0 97 -67 167 -161 167c-98 0 -163 -70 -163 -167zM82 123l50 23c23 -70 74 -107 144 -107c120 0 202 123 202 315v42h-3c-19 -91 -94 -150 -188 -150c-129 0 -210 93 -210 216c0 114 77 216 217 216
c88 0 151 -40 189 -102c36 -59 50 -138 50 -222c0 -224 -106 -364 -257 -364c-96 0 -164 46 -194 133z" />
    <glyph glyph-name="zero.ot" 
d="M307 568c150 0 236 -127 236 -290c0 -162 -86 -288 -236 -288s-236 126 -236 288c0 163 86 290 236 290zM307 39c111 0 177 100 177 239c0 141 -66 241 -177 241s-177 -100 -177 -241c0 -139 66 -239 177 -239z" />
    <glyph glyph-name="one.ot" 
d="M554 0h-460v47h210v454l-202 -55v51l261 72v-522h191v-47z" />
    <glyph glyph-name="two.ot" 
d="M530 49v-49h-431v42c136 85 338 185 338 333c0 89 -50 146 -139 146c-88 0 -145 -68 -145 -144c0 -32 8 -57 20 -78l-49 -21c-16 27 -26 60 -26 102c0 93 77 188 201 188c116 0 194 -71 194 -193c0 -160 -229 -282 -307 -326h344z" />
    <glyph glyph-name="three.ot" 
d="M348 236v-2c96 -5 165 -69 165 -162c0 -120 -96 -192 -214 -192c-126 0 -207 77 -219 172l52 18c16 -87 76 -142 168 -142c88 0 157 52 157 144c0 86 -63 137 -169 137h-48v50h45c94 0 150 52 150 139c0 78 -59 122 -134 122c-80 0 -133 -51 -149 -134l-50 21
c20 91 89 161 199 161c114 0 190 -62 190 -170c0 -89 -57 -151 -143 -162z" />
    <glyph glyph-name="four.ot" 
d="M369 -106v209h-317v47l316 411h55v-412h142v-46h-142v-209h-54zM365 483l-255 -331v-3h259v334h-4z" />
    <glyph glyph-name="five.ot" 
d="M139 206l27 352h313v-51h-271l-17 -250c23 26 68 54 128 54c109 0 192 -80 192 -211c0 -140 -98 -220 -218 -220c-126 0 -203 78 -214 173l50 18c14 -87 75 -143 166 -143c93 0 161 63 161 171c0 97 -59 161 -147 161c-57 0 -98 -25 -123 -54h-47z" />
    <glyph glyph-name="six.ot" 
d="M530 545l-49 -23c-23 70 -72 107 -140 107c-117 0 -199 -124 -199 -315v-42h3c19 91 92 150 184 150c125 0 203 -93 203 -216c0 -114 -74 -216 -211 -216c-85 0 -146 40 -184 102c-34 59 -48 138 -48 222c0 223 105 364 252 364c94 0 160 -46 189 -133zM477 206
c0 96 -65 166 -159 166c-90 0 -156 -70 -156 -166c0 -97 65 -167 156 -167c95 0 159 70 159 167z" />
    <glyph glyph-name="seven.ot" 
d="M482 509h-344v-130h-52v179h451v-52l-248 -616h-59z" />
    <glyph glyph-name="eight.ot" 
d="M307 -10c-129 0 -222 68 -222 185c0 82 57 147 140 165v2c-68 20 -118 74 -118 160c0 106 79 176 200 176c120 0 200 -70 200 -176c0 -86 -51 -140 -119 -160v-2c84 -18 141 -83 141 -165c0 -117 -94 -185 -222 -185zM307 366c85 0 144 46 144 133c0 86 -58 134 -144 134
c-87 0 -145 -48 -145 -134c0 -87 59 -133 145 -133zM307 317c-96 0 -164 -50 -164 -140s68 -141 164 -141s163 51 163 141s-67 140 -163 140z" />
    <glyph glyph-name="nine.ot" 
d="M142 352c0 -96 65 -166 159 -166c90 0 156 70 156 166c0 97 -65 167 -156 167c-95 0 -159 -70 -159 -167zM89 13l49 23c23 -70 72 -107 140 -107c117 0 199 124 199 315v42h-3c-19 -91 -92 -150 -184 -150c-125 0 -203 93 -203 216c0 114 74 216 211 216
c85 0 146 -40 184 -102c34 -59 48 -138 48 -222c0 -223 -105 -364 -252 -364c-94 0 -160 46 -189 133z" />
    <glyph glyph-name="uni2070" unicode="&#x2070;" horiz-adv-x="379" 
d="M189 674c94 0 143 -85 143 -196s-49 -196 -143 -196c-93 0 -143 85 -143 196s50 196 143 196zM189 629c-60 0 -89 -62 -89 -151s29 -151 89 -151s90 62 90 151s-30 151 -90 151z" />
    <glyph glyph-name="onesuperior" unicode="&#xb9;" horiz-adv-x="379" 
d="M334 288h-273v44h112v283l-110 -30v46l164 43v-342h107v-44z" />
    <glyph glyph-name="twosuperior" unicode="&#xb2;" horiz-adv-x="379" 
d="M320 334v-46h-260v39c101 74 194 142 194 225c0 50 -29 79 -73 79c-45 0 -71 -34 -71 -72c0 -17 5 -30 12 -41l-46 -20c-11 17 -17 37 -17 63c0 56 43 113 123 113c75 0 127 -45 127 -122c0 -92 -107 -176 -175 -218h186z" />
    <glyph glyph-name="threesuperior" unicode="&#xb3;" horiz-adv-x="379" 
d="M225 484v-1c54 -4 89 -41 89 -91c0 -69 -57 -110 -130 -110c-75 0 -125 44 -133 97l46 18c9 -45 39 -73 87 -73c44 0 79 26 79 70s-32 68 -86 68h-31v39h29c49 0 76 26 76 70c0 37 -28 60 -66 60c-42 0 -68 -27 -76 -69l-46 17c12 54 55 95 124 95c70 0 116 -37 116 -99
c0 -50 -30 -84 -78 -91z" />
    <glyph glyph-name="uni2074" unicode="&#x2074;" horiz-adv-x="379" 
d="M216 288v111h-183v45l179 224h53v-230h76v-39h-76v-111h-49zM213 609l-135 -168v-3h138v171h-3z" />
    <glyph glyph-name="uni2075" unicode="&#x2075;" horiz-adv-x="379" 
d="M83 463l9 205h203v-45h-160l-6 -120c14 14 40 28 73 28c67 0 113 -48 113 -120c0 -84 -61 -129 -134 -129c-76 0 -124 44 -132 99l47 17c7 -45 39 -73 85 -73c49 0 82 31 82 85c0 49 -29 81 -75 81c-29 0 -49 -13 -63 -28h-42z" />
    <glyph glyph-name="uni2076" unicode="&#x2076;" horiz-adv-x="379" 
d="M323 602l-38 -25c-13 35 -40 54 -76 54c-62 0 -105 -62 -105 -157v-18h2c12 45 52 73 101 73c72 0 119 -52 119 -121c0 -71 -49 -126 -129 -126c-50 0 -87 23 -110 57s-32 79 -32 129c0 125 63 206 154 206c57 0 96 -26 114 -72zM276 406c0 48 -32 82 -80 82
c-46 0 -79 -34 -79 -82c0 -47 32 -82 79 -82c48 0 80 34 80 82z" />
    <glyph glyph-name="uni2077" unicode="&#x2077;" horiz-adv-x="379" 
d="M272 623h-171v-74h-47v119h274v-40l-138 -340h-56z" />
    <glyph glyph-name="uni2078" unicode="&#x2078;" horiz-adv-x="379" 
d="M190 674c74 0 122 -42 122 -102c0 -46 -27 -78 -67 -89v-1c48 -11 79 -47 79 -93c0 -66 -54 -107 -134 -107c-81 0 -135 41 -135 107c0 46 31 82 79 93v1c-40 11 -68 43 -68 89c0 60 49 102 124 102zM190 502c42 0 71 24 71 66c0 43 -29 67 -71 67c-44 0 -72 -24 -72 -67
c0 -42 29 -66 72 -66zM190 462c-49 0 -82 -25 -82 -70c0 -44 33 -69 82 -69c48 0 81 25 81 69c0 45 -33 70 -81 70z" />
    <glyph glyph-name="uni2079" unicode="&#x2079;" horiz-adv-x="379" 
d="M102 550c0 -48 33 -82 81 -82c46 0 79 34 79 82c0 47 -33 82 -79 82c-48 0 -81 -34 -81 -82zM55 354l39 25c12 -35 39 -54 76 -54c62 0 104 62 104 157v18h-2c-12 -45 -52 -73 -100 -73c-73 0 -119 52 -119 121c0 71 49 126 128 126c50 0 88 -23 111 -57
c22 -34 32 -79 32 -129c0 -125 -63 -206 -154 -206c-57 0 -96 26 -115 72z" />
    <glyph glyph-name="zero.dnom" horiz-adv-x="379" 
d="M189 386c94 0 143 -85 143 -196s-49 -196 -143 -196c-93 0 -143 85 -143 196s50 196 143 196zM189 341c-60 0 -89 -62 -89 -151s29 -151 89 -151s90 62 90 151s-30 151 -90 151z" />
    <glyph glyph-name="one.dnom" horiz-adv-x="379" 
d="M334 0h-273v44h112v283l-110 -30v46l164 43v-342h107v-44z" />
    <glyph glyph-name="two.dnom" horiz-adv-x="379" 
d="M320 46v-46h-260v39c101 74 194 142 194 225c0 50 -29 79 -73 79c-45 0 -71 -34 -71 -72c0 -17 5 -30 12 -41l-46 -20c-11 17 -17 37 -17 63c0 56 43 113 123 113c75 0 127 -45 127 -122c0 -92 -107 -176 -175 -218h186z" />
    <glyph glyph-name="three.dnom" horiz-adv-x="379" 
d="M225 196v-1c54 -4 89 -41 89 -91c0 -69 -57 -110 -130 -110c-75 0 -125 44 -133 97l46 18c9 -45 39 -73 87 -73c44 0 79 26 79 70s-32 68 -86 68h-31v39h29c49 0 76 26 76 70c0 37 -28 60 -66 60c-42 0 -68 -27 -76 -69l-46 17c12 54 55 95 124 95c70 0 116 -37 116 -99
c0 -50 -30 -84 -78 -91z" />
    <glyph glyph-name="four.dnom" horiz-adv-x="379" 
d="M216 0v111h-183v45l179 224h53v-230h76v-39h-76v-111h-49zM213 321l-135 -168v-3h138v171h-3z" />
    <glyph glyph-name="five.dnom" horiz-adv-x="379" 
d="M83 175l9 205h203v-45h-160l-6 -120c14 14 40 28 73 28c67 0 113 -48 113 -120c0 -84 -61 -129 -134 -129c-76 0 -124 44 -132 99l47 17c7 -45 39 -73 85 -73c49 0 82 31 82 85c0 49 -29 81 -75 81c-29 0 -49 -13 -63 -28h-42z" />
    <glyph glyph-name="six.dnom" horiz-adv-x="379" 
d="M323 314l-38 -25c-13 35 -40 54 -76 54c-62 0 -105 -62 -105 -157v-18h2c12 45 52 73 101 73c72 0 119 -52 119 -121c0 -71 -49 -126 -129 -126c-50 0 -87 23 -110 57s-32 79 -32 129c0 125 63 206 154 206c57 0 96 -26 114 -72zM276 118c0 48 -32 82 -80 82
c-46 0 -79 -34 -79 -82c0 -47 32 -82 79 -82c48 0 80 34 80 82z" />
    <glyph glyph-name="seven.dnom" horiz-adv-x="379" 
d="M272 335h-171v-74h-47v119h274v-40l-138 -340h-56z" />
    <glyph glyph-name="eight.dnom" horiz-adv-x="379" 
d="M190 386c74 0 122 -42 122 -102c0 -46 -27 -78 -67 -89v-1c48 -11 79 -47 79 -93c0 -66 -54 -107 -134 -107c-81 0 -135 41 -135 107c0 46 31 82 79 93v1c-40 11 -68 43 -68 89c0 60 49 102 124 102zM190 214c42 0 71 24 71 66c0 43 -29 67 -71 67c-44 0 -72 -24 -72 -67
c0 -42 29 -66 72 -66zM190 174c-49 0 -82 -25 -82 -70c0 -44 33 -69 82 -69c48 0 81 25 81 69c0 45 -33 70 -81 70z" />
    <glyph glyph-name="nine.dnom" horiz-adv-x="379" 
d="M102 262c0 -48 33 -82 81 -82c46 0 79 34 79 82c0 47 -33 82 -79 82c-48 0 -81 -34 -81 -82zM55 66l39 25c12 -35 39 -54 76 -54c62 0 104 62 104 157v18h-2c-12 -45 -52 -73 -100 -73c-73 0 -119 52 -119 121c0 71 49 126 128 126c50 0 88 -23 111 -57
c22 -34 32 -79 32 -129c0 -125 -63 -206 -154 -206c-57 0 -96 26 -115 72z" />
    <glyph glyph-name="uni2080" unicode="&#x2080;" horiz-adv-x="379" 
d="M189 266c94 0 143 -85 143 -196s-49 -196 -143 -196c-93 0 -143 85 -143 196s50 196 143 196zM189 221c-60 0 -89 -62 -89 -151s29 -151 89 -151s90 62 90 151s-30 151 -90 151z" />
    <glyph glyph-name="uni2081" unicode="&#x2081;" horiz-adv-x="379" 
d="M334 -120h-273v44h112v283l-110 -30v46l164 43v-342h107v-44z" />
    <glyph glyph-name="uni2082" unicode="&#x2082;" horiz-adv-x="379" 
d="M320 -74v-46h-260v39c101 74 194 142 194 225c0 50 -29 79 -73 79c-45 0 -71 -34 -71 -72c0 -17 5 -30 12 -41l-46 -20c-11 17 -17 37 -17 63c0 56 43 113 123 113c75 0 127 -45 127 -122c0 -92 -107 -176 -175 -218h186z" />
    <glyph glyph-name="uni2083" unicode="&#x2083;" horiz-adv-x="379" 
d="M225 76v-1c54 -4 89 -41 89 -91c0 -69 -57 -110 -130 -110c-75 0 -125 44 -133 97l46 18c9 -45 39 -73 87 -73c44 0 79 26 79 70s-32 68 -86 68h-31v39h29c49 0 76 26 76 70c0 37 -28 60 -66 60c-42 0 -68 -27 -76 -69l-46 17c12 54 55 95 124 95c70 0 116 -37 116 -99
c0 -50 -30 -84 -78 -91z" />
    <glyph glyph-name="uni2084" unicode="&#x2084;" horiz-adv-x="379" 
d="M216 -120v111h-183v45l179 224h53v-230h76v-39h-76v-111h-49zM213 201l-135 -168v-3h138v171h-3z" />
    <glyph glyph-name="uni2085" unicode="&#x2085;" horiz-adv-x="379" 
d="M83 55l9 205h203v-45h-160l-6 -120c14 14 40 28 73 28c67 0 113 -48 113 -120c0 -84 -61 -129 -134 -129c-76 0 -124 44 -132 99l47 17c7 -45 39 -73 85 -73c49 0 82 31 82 85c0 49 -29 81 -75 81c-29 0 -49 -13 -63 -28h-42z" />
    <glyph glyph-name="uni2086" unicode="&#x2086;" horiz-adv-x="379" 
d="M323 194l-38 -25c-13 35 -40 54 -76 54c-62 0 -105 -62 -105 -157v-18h2c12 45 52 73 101 73c72 0 119 -52 119 -121c0 -71 -49 -126 -129 -126c-50 0 -87 23 -110 57s-32 79 -32 129c0 125 63 206 154 206c57 0 96 -26 114 -72zM276 -2c0 48 -32 82 -80 82
c-46 0 -79 -34 -79 -82c0 -47 32 -82 79 -82c48 0 80 34 80 82z" />
    <glyph glyph-name="uni2087" unicode="&#x2087;" horiz-adv-x="379" 
d="M272 215h-171v-74h-47v119h274v-40l-138 -340h-56z" />
    <glyph glyph-name="uni2088" unicode="&#x2088;" horiz-adv-x="379" 
d="M190 266c74 0 122 -42 122 -102c0 -46 -27 -78 -67 -89v-1c48 -11 79 -47 79 -93c0 -66 -54 -107 -134 -107c-81 0 -135 41 -135 107c0 46 31 82 79 93v1c-40 11 -68 43 -68 89c0 60 49 102 124 102zM190 94c42 0 71 24 71 66c0 43 -29 67 -71 67c-44 0 -72 -24 -72 -67
c0 -42 29 -66 72 -66zM190 54c-49 0 -82 -25 -82 -70c0 -44 33 -69 82 -69c48 0 81 25 81 69c0 45 -33 70 -81 70z" />
    <glyph glyph-name="uni2089" unicode="&#x2089;" horiz-adv-x="379" 
d="M102 142c0 -48 33 -82 81 -82c46 0 79 34 79 82c0 47 -33 82 -79 82c-48 0 -81 -34 -81 -82zM55 -54l39 25c12 -35 39 -54 76 -54c62 0 104 62 104 157v18h-2c-12 -45 -52 -73 -100 -73c-73 0 -119 52 -119 121c0 71 49 126 128 126c50 0 88 -23 111 -57
c22 -34 32 -79 32 -129c0 -125 -63 -206 -154 -206c-57 0 -96 26 -115 72z" />
    <glyph glyph-name="fraction" unicode="&#x2044;" horiz-adv-x="209" 
d="M-110 0l375 668h54l-375 -668h-54z" />
    <glyph glyph-name="onehalf" unicode="&#xbd;" horiz-adv-x="916" 
d="M334 288h-273v44h112v283l-110 -30v46l164 43v-342h107v-44zM250 0l375 668h54l-375 -668h-54zM857 46v-46h-260v39c101 74 194 142 194 225c0 50 -29 79 -73 79c-45 0 -71 -34 -71 -72c0 -17 5 -30 12 -41l-46 -20c-11 17 -17 37 -17 63c0 56 43 113 123 113
c75 0 127 -45 127 -122c0 -92 -107 -176 -175 -218h186z" />
    <glyph glyph-name="onequarter" unicode="&#xbc;" horiz-adv-x="887" 
d="M334 288h-273v44h112v283l-110 -30v46l164 43v-342h107v-44zM250 0l375 668h54l-375 -668h-54zM724 0v111h-183v45l179 224h53v-230h76v-39h-76v-111h-49zM721 321l-135 -168v-3h138v171h-3z" />
    <glyph glyph-name="threequarters" unicode="&#xbe;" horiz-adv-x="857" 
d="M220 0l375 668h54l-375 -668h-54zM225 484v-1c54 -4 89 -41 89 -91c0 -69 -57 -110 -130 -110c-75 0 -125 44 -133 97l46 18c9 -45 39 -73 87 -73c44 0 79 26 79 70s-32 68 -86 68h-31v39h29c49 0 76 26 76 70c0 37 -28 60 -66 60c-42 0 -68 -27 -76 -69l-46 17
c12 54 55 95 124 95c70 0 116 -37 116 -99c0 -50 -30 -84 -78 -91zM694 0v111h-183v45l179 224h53v-230h76v-39h-76v-111h-49zM691 321l-135 -168v-3h138v171h-3z" />
    <glyph glyph-name="uni2153" unicode="&#x2153;" horiz-adv-x="912" 
d="M334 288h-273v44h112v283l-110 -30v46l164 43v-342h107v-44zM250 0l375 668h54l-375 -668h-54zM758 196v-1c54 -4 89 -41 89 -91c0 -69 -57 -110 -130 -110c-75 0 -125 44 -133 97l46 18c9 -45 39 -73 87 -73c44 0 79 26 79 70s-32 68 -86 68h-31v39h29c49 0 76 26 76 70
c0 37 -28 60 -66 60c-42 0 -68 -27 -76 -69l-46 17c12 54 55 95 124 95c70 0 116 -37 116 -99c0 -50 -30 -84 -78 -91z" />
    <glyph glyph-name="uni2154" unicode="&#x2154;" horiz-adv-x="912" 
d="M320 334v-46h-260v39c101 74 194 142 194 225c0 50 -29 79 -73 79c-45 0 -71 -34 -71 -72c0 -17 5 -30 12 -41l-46 -20c-11 17 -17 37 -17 63c0 56 43 113 123 113c75 0 127 -45 127 -122c0 -92 -107 -176 -175 -218h186zM250 0l375 668h54l-375 -668h-54zM758 196v-1
c54 -4 89 -41 89 -91c0 -69 -57 -110 -130 -110c-75 0 -125 44 -133 97l46 18c9 -45 39 -73 87 -73c44 0 79 26 79 70s-32 68 -86 68h-31v39h29c49 0 76 26 76 70c0 37 -28 60 -66 60c-42 0 -68 -27 -76 -69l-46 17c12 54 55 95 124 95c70 0 116 -37 116 -99
c0 -50 -30 -84 -78 -91z" />
    <glyph glyph-name="uni215B" unicode="&#x215b;" horiz-adv-x="913" 
d="M334 288h-273v44h112v283l-110 -30v46l164 43v-342h107v-44zM250 0l375 668h54l-375 -668h-54zM724 386c74 0 122 -42 122 -102c0 -46 -27 -78 -67 -89v-1c48 -11 79 -47 79 -93c0 -66 -54 -107 -134 -107c-81 0 -135 41 -135 107c0 46 31 82 79 93v1
c-40 11 -68 43 -68 89c0 60 49 102 124 102zM724 214c42 0 71 24 71 66c0 43 -29 67 -71 67c-44 0 -72 -24 -72 -67c0 -42 29 -66 72 -66zM724 174c-49 0 -82 -25 -82 -70c0 -44 33 -69 82 -69c48 0 81 25 81 69c0 45 -33 70 -81 70z" />
    <glyph glyph-name="uni215C" unicode="&#x215c;" horiz-adv-x="883" 
d="M220 0l375 668h54l-375 -668h-54zM225 484v-1c54 -4 89 -41 89 -91c0 -69 -57 -110 -130 -110c-75 0 -125 44 -133 97l46 18c9 -45 39 -73 87 -73c44 0 79 26 79 70s-32 68 -86 68h-31v39h29c49 0 76 26 76 70c0 37 -28 60 -66 60c-42 0 -68 -27 -76 -69l-46 17
c12 54 55 95 124 95c70 0 116 -37 116 -99c0 -50 -30 -84 -78 -91zM694 386c74 0 122 -42 122 -102c0 -46 -27 -78 -67 -89v-1c48 -11 79 -47 79 -93c0 -66 -54 -107 -134 -107c-81 0 -135 41 -135 107c0 46 31 82 79 93v1c-40 11 -68 43 -68 89c0 60 49 102 124 102z
M694 214c42 0 71 24 71 66c0 43 -29 67 -71 67c-44 0 -72 -24 -72 -67c0 -42 29 -66 72 -66zM694 174c-49 0 -82 -25 -82 -70c0 -44 33 -69 82 -69c48 0 81 25 81 69c0 45 -33 70 -81 70z" />
    <glyph glyph-name="uni215D" unicode="&#x215d;" horiz-adv-x="893" 
d="M230 0l375 668h54l-375 -668h-54zM83 463l9 205h203v-45h-160l-6 -120c14 14 40 28 73 28c67 0 113 -48 113 -120c0 -84 -61 -129 -134 -129c-76 0 -124 44 -132 99l47 17c7 -45 39 -73 85 -73c49 0 82 31 82 85c0 49 -29 81 -75 81c-29 0 -49 -13 -63 -28h-42zM704 386
c74 0 122 -42 122 -102c0 -46 -27 -78 -67 -89v-1c48 -11 79 -47 79 -93c0 -66 -54 -107 -134 -107c-81 0 -135 41 -135 107c0 46 31 82 79 93v1c-40 11 -68 43 -68 89c0 60 49 102 124 102zM704 214c42 0 71 24 71 66c0 43 -29 67 -71 67c-44 0 -72 -24 -72 -67
c0 -42 29 -66 72 -66zM704 174c-49 0 -82 -25 -82 -70c0 -44 33 -69 82 -69c48 0 81 25 81 69c0 45 -33 70 -81 70z" />
    <glyph glyph-name="uni215E" unicode="&#x215e;" horiz-adv-x="833" 
d="M170 0l375 668h54l-375 -668h-54zM272 623h-171v-74h-47v119h274v-40l-138 -340h-56zM644 386c74 0 122 -42 122 -102c0 -46 -27 -78 -67 -89v-1c48 -11 79 -47 79 -93c0 -66 -54 -107 -134 -107c-81 0 -135 41 -135 107c0 46 31 82 79 93v1c-40 11 -68 43 -68 89
c0 60 49 102 124 102zM644 214c42 0 71 24 71 66c0 43 -29 67 -71 67c-44 0 -72 -24 -72 -67c0 -42 29 -66 72 -66zM644 174c-49 0 -82 -25 -82 -70c0 -44 33 -69 82 -69c48 0 81 25 81 69c0 45 -33 70 -81 70z" />
    <glyph glyph-name="percent" unicode="%" horiz-adv-x="821" 
d="M191 675c88 0 140 -75 140 -175c0 -101 -52 -176 -140 -176c-89 0 -141 75 -141 176c0 100 52 175 141 175zM196 0l375 668h54l-375 -668h-54zM191 632c-59 0 -88 -56 -88 -132s29 -133 88 -133c58 0 87 57 87 133s-29 132 -87 132zM630 344c89 0 140 -75 140 -176
c0 -100 -51 -175 -140 -175s-140 75 -140 175c0 101 51 176 140 176zM630 301c-59 0 -87 -57 -87 -133s28 -132 87 -132s87 56 87 132s-28 133 -87 133z" />
    <glyph glyph-name="percent.lt" 
d="M147 675c76 0 121 -65 121 -153c0 -89 -45 -154 -121 -154c-75 0 -120 65 -120 154c0 88 45 153 120 153zM527 668l-391 -668h-48l391 668h48zM147 410c51 0 74 47 74 112c0 64 -23 112 -74 112s-74 -48 -74 -112c0 -65 23 -112 74 -112zM467 -7c-75 0 -120 65 -120 153
c0 89 45 154 120 154s120 -65 120 -154c0 -88 -45 -153 -120 -153zM467 258c-50 0 -73 -47 -73 -112c0 -64 23 -112 73 -112c51 0 74 48 74 112c0 65 -23 112 -74 112z" />
    <glyph glyph-name="plus" unicode="+" 
d="M545 290h-215v-216h-46v216h-215v46h215v215h46v-215h215v-46z" />
    <glyph glyph-name="minus" unicode="&#x2212;" 
d="M70 290v46h474v-46h-474z" />
    <glyph glyph-name="multiply" unicode="&#xd7;" 
d="M480 109l-173 173l-174 -173l-31 31l173 173l-173 173l31 32l174 -174l173 173l31 -32l-173 -172l173 -172z" />
    <glyph glyph-name="divide" unicode="&#xf7;" 
d="M352 503c0 -26 -19 -46 -45 -46s-45 20 -45 46s19 45 45 45s45 -19 45 -45zM69 290v46h476v-46h-476zM352 122c0 -26 -19 -46 -45 -46s-45 20 -45 46s19 46 45 46s45 -20 45 -46z" />
    <glyph glyph-name="equal" unicode="=" 
d="M79 375v45h456v-45h-456zM79 210v45h456v-45h-456z" />
    <glyph glyph-name="less" unicode="&#x3c;" 
d="M96 285v51l401 206v-52l-350 -180l350 -178v-53z" />
    <glyph glyph-name="greater" unicode="&#x3e;" 
d="M518 285l-401 -206v53l350 178l-350 180v52l401 -206v-51z" />
    <glyph glyph-name="period.tab" horiz-adv-x="300" 
d="M198 43c0 -27 -21 -48 -48 -48s-48 21 -48 48s21 48 48 48s48 -21 48 -48z" />
    <glyph glyph-name="comma.tab" horiz-adv-x="300" 
d="M209 8c0 -67 -43 -141 -135 -141v33c63 2 93 52 93 93c0 13 -3 21 -8 25c-4 -5 -13 -10 -22 -10c-21 0 -38 15 -38 40c0 26 18 43 44 43c36 0 66 -31 66 -83z" />
    <glyph glyph-name="colon.tab" horiz-adv-x="300" 
d="M198 415c0 -27 -21 -48 -48 -48s-48 21 -48 48s21 48 48 48s48 -21 48 -48zM198 43c0 -27 -21 -48 -48 -48s-48 21 -48 48s21 48 48 48s48 -21 48 -48z" />
    <glyph glyph-name="semicolon.tab" horiz-adv-x="300" 
d="M198 415c0 -27 -21 -48 -48 -48s-48 21 -48 48s21 48 48 48s48 -21 48 -48zM209 8c0 -67 -43 -141 -135 -141v33c63 2 93 52 93 93c0 13 -3 21 -8 25c-4 -5 -13 -10 -22 -10c-21 0 -38 15 -38 40c0 26 18 43 44 43c36 0 66 -31 66 -83z" />
    <glyph glyph-name="space.tab" horiz-adv-x="300" 
 />
    <glyph glyph-name="thinspace" horiz-adv-x="80" 
 />
    </font>
</defs>
</svg>
