<?xml version="1.0" standalone="no"?>
<!DOCTYPE svg PUBLIC "-//W3C//DTD SVG 1.1//EN" "http://www.w3.org/Graphics/SVG/1.1/DTD/svg11.dtd" >
<svg>
<metadata>
Created by FontForge 20120731 at Tue May  7 21:45:16 2019
 By www-data
(c) 2014 Klim Type Foundry. All Rights Reserved.
</metadata>
<defs>
<font id="National2-Bold" horiz-adv-x="614" >
  <font-face 
    font-family="National 2"
    font-weight="700"
    font-stretch="normal"
    units-per-em="1000"
    panose-1="2 11 8 4 3 5 2 2 2 3"
    ascent="762"
    descent="-238"
    x-height="506"
    cap-height="668"
    bbox="-131 -252 1215 961"
    underline-thickness="87"
    underline-position="-29"
    stemh="120"
    stemv="164"
    unicode-range="U+0020-FB02"
  />
<missing-glyph horiz-adv-x="908" 
d="M120 349v288l288 -288h-85l-133 131v-131h-70zM439 668v-288l-288 288h85l133 -131v131h70zM469 668h288l-288 -288v85l131 133h-131v70zM788 349h-288l288 288v-85l-131 -133h131v-70zM788 319v-288l-288 288h85l133 -131v131h70zM469 0v288l288 -288h-85l-133 131v-131
h-70zM439 0h-288l288 288v-85l-131 -133h131v-70zM120 319h288l-288 -288v85l131 133h-131v70z" />
    <glyph glyph-name="f_b" unicode="fb" horiz-adv-x="936" 
d="M906 260c0 -168 -86 -272 -215 -272c-70 0 -126 36 -146 97l-21 -85h-135v588c-14 15 -37 26 -67 26c-50 0 -75 -33 -75 -83v-25h88v-121h-88v-385h-165v385h-65v121h65v24c0 117 75 204 211 204c49 0 99 -15 133 -36l32 35h96v-314c20 60 77 99 148 99
c129 0 204 -106 204 -258zM554 273v-51c0 -78 40 -112 86 -112c61 0 97 51 97 146c0 90 -36 136 -94 136c-48 0 -89 -40 -89 -119z" />
    <glyph glyph-name="f_f_b" unicode="ffb" horiz-adv-x="1246" 
d="M1215 260c0 -168 -86 -272 -215 -272c-70 0 -126 36 -146 97l-21 -85h-135v588c-14 15 -37 26 -67 26c-50 0 -75 -33 -75 -83v-25h88v-121h-88v-385h-165v385h-144v-385h-165v385h-65v121h65v24c0 121 78 192 196 192c37 0 75 -9 100 -24l-33 -109c-11 7 -24 12 -40 12
c-39 0 -58 -26 -58 -72v-23h144v24c0 117 75 204 211 204c49 0 99 -15 133 -36l32 35h96v-314c20 60 77 99 148 99c129 0 204 -106 204 -258zM863 273v-51c0 -78 40 -112 86 -112c61 0 97 51 97 146c0 90 -36 136 -94 136c-48 0 -89 -40 -89 -119z" />
    <glyph glyph-name="f_f" unicode="ff" horiz-adv-x="677" 
d="M247 0h-165v385h-65v121h65v24c0 121 78 192 196 192c37 0 75 -9 100 -24l-33 -109c-11 7 -24 12 -40 12c-39 0 -58 -26 -58 -72v-23h145v29c0 122 78 199 201 199c52 0 90 -14 125 -35l-40 -110c-18 16 -34 22 -58 22c-42 0 -63 -29 -63 -76v-29h110v-121h-110v-385
h-165v385h-145v-385z" />
    <glyph glyph-name="f_h" unicode="fh" horiz-adv-x="925" 
d="M247 385v-385h-165v385h-65v121h65v24c0 117 75 204 211 204c49 0 99 -15 133 -36l32 35h96v-317c26 66 85 102 158 102c91 0 158 -56 158 -164v-354h-165v301c0 50 -19 80 -66 80s-85 -30 -85 -107v-274h-165v588c-14 15 -37 26 -67 26c-50 0 -75 -33 -75 -83v-25h88
v-121h-88z" />
    <glyph glyph-name="f_f_h" unicode="ffh" horiz-adv-x="1234" 
d="M247 0h-165v385h-65v121h65v24c0 121 78 192 196 192c37 0 75 -9 100 -24l-33 -109c-11 7 -24 12 -40 12c-39 0 -58 -26 -58 -72v-23h144v24c0 117 75 204 211 204c49 0 99 -15 133 -36l32 35h96v-317c26 66 85 102 158 102c91 0 158 -56 158 -164v-354h-165v301
c0 50 -19 80 -66 80s-85 -30 -85 -107v-274h-165v588c-14 15 -37 26 -67 26c-50 0 -75 -33 -75 -83v-25h88v-121h-88v-385h-165v385h-144v-385z" />
    <glyph glyph-name="fi" unicode="fi" horiz-adv-x="617" 
d="M247 0h-165v385h-65v121h65v15c0 131 88 213 230 213c70 0 125 -20 168 -53l-54 -112c-26 29 -56 43 -96 43c-58 0 -83 -34 -83 -92v-14h310v-506h-165v385h-145v-385z" />
    <glyph glyph-name="f_idieresis" unicode="f&#xef;" horiz-adv-x="617" 
d="M667 644c0 -52 -37 -82 -85 -82c-47 0 -85 30 -85 82s38 83 85 83c48 0 85 -31 85 -83zM247 0h-165v385h-65v121h65v29c0 122 78 199 201 199c52 0 90 -14 125 -35l-40 -110c-18 16 -34 22 -58 22c-42 0 -63 -29 -63 -76v-29h310v-506h-165v385h-145v-385z" />
    <glyph glyph-name="f_f_i" unicode="ffi" horiz-adv-x="926" 
d="M247 0h-165v385h-65v121h65v24c0 121 78 192 196 192c37 0 75 -9 100 -24l-33 -109c-11 7 -24 12 -40 12c-39 0 -58 -26 -58 -72v-23h145v15c0 131 88 213 230 213c70 0 125 -20 168 -53l-54 -112c-26 29 -56 43 -96 43c-58 0 -83 -34 -83 -92v-14h310v-506h-165v385
h-145v-385h-165v385h-145v-385z" />
    <glyph glyph-name="f_f_idieresis" unicode="ff&#xef;" horiz-adv-x="926" 
d="M977 644c0 -52 -37 -82 -85 -82c-47 0 -85 30 -85 82s38 83 85 83c48 0 85 -31 85 -83zM247 0h-165v385h-65v121h65v24c0 121 78 192 196 192c37 0 75 -9 100 -24l-33 -109c-11 7 -24 12 -40 12c-39 0 -58 -26 -58 -72v-23h145v29c0 122 78 199 201 199
c52 0 90 -14 125 -35l-40 -110c-18 16 -34 22 -58 22c-42 0 -63 -29 -63 -76v-29h310v-506h-165v385h-145v-385h-165v385h-145v-385z" />
    <glyph glyph-name="f_j" unicode="fj" horiz-adv-x="617" 
d="M557 9c0 -186 -134 -243 -280 -208l12 126c64 -22 103 -3 103 83v375h-145v-385h-165v385h-65v121h65v15c0 131 88 213 230 213c70 0 125 -20 168 -53l-54 -112c-26 29 -56 43 -96 43c-58 0 -83 -34 -83 -92v-14h310v-497z" />
    <glyph glyph-name="f_f_j" unicode="ffj" horiz-adv-x="926" 
d="M867 9c0 -186 -134 -243 -280 -208l12 126c64 -22 103 -3 103 83v375h-145v-385h-165v385h-145v-385h-165v385h-65v121h65v24c0 121 78 192 196 192c37 0 75 -9 100 -24l-33 -109c-11 7 -24 12 -40 12c-39 0 -58 -26 -58 -72v-23h145v15c0 131 88 213 230 213
c70 0 125 -20 168 -53l-54 -112c-26 29 -56 43 -96 43c-58 0 -83 -34 -83 -92v-14h310v-497z" />
    <glyph glyph-name="f_k" unicode="fk" horiz-adv-x="915" 
d="M247 385v-385h-165v385h-65v121h65v24c0 117 75 204 211 204c49 0 99 -15 133 -36l32 35h96v-405h33l118 178h181l-157 -234l173 -272h-185l-131 209h-32v-209h-165v588c-14 15 -37 26 -67 26c-50 0 -75 -33 -75 -83v-25h88v-121h-88z" />
    <glyph glyph-name="f_f_k" unicode="ffk" horiz-adv-x="1224" 
d="M247 0h-165v385h-65v121h65v24c0 121 78 192 196 192c37 0 75 -9 100 -24l-33 -109c-11 7 -24 12 -40 12c-39 0 -58 -26 -58 -72v-23h144v24c0 117 75 204 211 204c49 0 99 -15 133 -36l32 35h96v-405h33l118 178h181l-157 -234l173 -272h-185l-131 209h-32v-209h-165
v588c-14 15 -37 26 -67 26c-50 0 -75 -33 -75 -83v-25h88v-121h-88v-385h-165v385h-144v-385z" />
    <glyph glyph-name="fl" unicode="fl" horiz-adv-x="654" 
d="M528 -10c-71 0 -139 34 -139 136v462c-14 15 -37 26 -67 26c-50 0 -75 -33 -75 -83v-25h88v-121h-88v-385h-165v385h-65v121h65v24c0 117 75 204 211 204c49 0 99 -15 133 -36l32 35h96v-571c0 -30 12 -43 35 -43c14 0 25 4 38 13l8 -117c-23 -14 -61 -25 -107 -25z" />
    <glyph glyph-name="f_f_l" unicode="ffl" horiz-adv-x="964" 
d="M945 15c-23 -14 -61 -25 -107 -25c-71 0 -139 34 -139 136v462c-14 15 -37 26 -67 26c-50 0 -75 -33 -75 -83v-25h88v-121h-88v-385h-165v385h-145v-385h-165v385h-65v121h65v24c0 121 78 192 196 192c37 0 75 -9 100 -24l-33 -109c-11 7 -24 12 -40 12
c-39 0 -58 -26 -58 -72v-23h145v24c0 117 75 204 211 204c49 0 99 -15 133 -36l32 35h96v-571c0 -30 12 -43 35 -43c14 0 25 4 38 13z" />
    <glyph glyph-name=".notdef" horiz-adv-x="908" 
d="M120 349v288l288 -288h-85l-133 131v-131h-70zM439 668v-288l-288 288h85l133 -131v131h70zM469 668h288l-288 -288v85l131 133h-131v70zM788 349h-288l288 288v-85l-131 -133h131v-70zM788 319v-288l-288 288h85l133 -131v131h70zM469 0v288l288 -288h-85l-133 131v-131
h-70zM439 0h-288l288 288v-85l-131 -133h131v-70zM120 319h288l-288 -288v85l131 133h-131v70z" />
    <glyph glyph-name="uni00A0" unicode="&#xa0;" horiz-adv-x="224" 
 />
    <glyph glyph-name="space" unicode=" " horiz-adv-x="224" 
 />
    <glyph glyph-name="A" unicode="A" horiz-adv-x="701" 
d="M346 494l-79 -231h160l-79 231h-2zM518 0l-48 139h-245l-48 -139h-165l243 668h191l243 -668h-171z" />
    <glyph glyph-name="B" unicode="B" horiz-adv-x="632" 
d="M462 342v-2c88 -12 142 -70 142 -155c0 -107 -73 -185 -232 -185h-306v668h303c133 0 210 -66 210 -177c0 -84 -50 -136 -117 -149zM229 542v-157h96c56 0 88 25 88 77c0 54 -30 80 -87 80h-97zM229 281v-157h111c63 0 94 28 94 79c0 50 -32 78 -94 78h-111z" />
    <glyph glyph-name="C" unicode="C" horiz-adv-x="632" 
d="M31 334c0 216 125 346 316 346c135 0 231 -67 266 -177l-151 -67c-13 61 -51 103 -116 103c-84 0 -141 -70 -141 -205s57 -205 141 -205c65 0 103 43 116 104l151 -67c-35 -111 -131 -178 -266 -178c-191 0 -316 130 -316 346z" />
    <glyph glyph-name="D" unicode="D" horiz-adv-x="688" 
d="M66 0v668h252c199 0 339 -104 339 -333c0 -228 -141 -335 -339 -335h-252zM234 528v-388h75c98 0 174 55 174 195c0 141 -76 193 -173 193h-76z" />
    <glyph glyph-name="E" unicode="E" horiz-adv-x="588" 
d="M540 140v-140h-474v668h472v-140h-310v-128h275v-126h-275v-134h312z" />
    <glyph glyph-name="F" unicode="F" horiz-adv-x="565" 
d="M234 0h-168v668h464v-140h-296v-153h261v-135h-261v-240z" />
    <glyph glyph-name="G" unicode="G" horiz-adv-x="700" 
d="M361 359h286v-359h-114l-21 80c-26 -58 -101 -92 -185 -92c-167 0 -296 122 -296 340c0 216 134 352 328 352c141 0 243 -67 279 -178l-158 -64c-14 60 -55 101 -123 101c-90 0 -152 -71 -152 -211c0 -121 48 -206 153 -206c69 0 121 37 121 106v21h-118v110z" />
    <glyph glyph-name="H" unicode="H" horiz-adv-x="722" 
d="M234 0h-168v668h168v-258h254v258h168v-668h-168v266h-254v-266z" />
    <glyph glyph-name="I" unicode="I" horiz-adv-x="300" 
d="M66 668h168v-668h-168v668z" />
    <glyph glyph-name="J" unicode="J" horiz-adv-x="574" 
d="M348 230v438h169v-430c0 -169 -103 -250 -254 -250c-137 0 -231 79 -250 202l156 57c3 -66 29 -120 94 -120c55 0 85 32 85 103z" />
    <glyph glyph-name="K" unicode="K" horiz-adv-x="667" 
d="M664 0h-198l-182 267h-50v-267h-168v668h168v-260h52l174 260h187l-218 -325z" />
    <glyph glyph-name="L" unicode="L" horiz-adv-x="562" 
d="M66 668h168v-528h296v-140h-464v668z" />
    <glyph glyph-name="M" unicode="M" horiz-adv-x="808" 
d="M580 416l-127 -266h-98l-127 266h-2l1 -137v-279h-161v668h181l158 -325h2l157 325h178v-668h-161v279l1 137h-2z" />
    <glyph glyph-name="N" unicode="N" horiz-adv-x="718" 
d="M491 258v410h161v-668h-149l-274 412h-2v-412h-161v668h159l264 -410h2z" />
    <glyph glyph-name="O" unicode="O" horiz-adv-x="699" 
d="M349 680c194 0 319 -132 319 -346s-125 -346 -319 -346s-318 132 -318 346s124 346 318 346zM349 540c-93 0 -144 -80 -144 -206s51 -206 144 -206s145 80 145 206s-52 206 -145 206z" />
    <glyph glyph-name="P" unicode="P" horiz-adv-x="620" 
d="M343 209h-109v-209h-168v668h277c161 0 256 -83 256 -230c0 -145 -104 -229 -256 -229zM426 437c0 61 -31 98 -103 98h-89v-195h89c71 0 103 34 103 97z" />
    <glyph glyph-name="Q" unicode="Q" horiz-adv-x="699" 
d="M510 -174c-130 -3 -220 76 -244 171c-146 33 -235 155 -235 337c0 214 124 346 318 346s319 -132 319 -346c0 -177 -85 -298 -224 -334c22 -45 69 -60 147 -62zM349 540c-93 0 -144 -80 -144 -206s51 -206 144 -206s145 80 145 206s-52 206 -145 206z" />
    <glyph glyph-name="R" unicode="R" horiz-adv-x="671" 
d="M444 451c0 52 -29 81 -92 81h-121v-166h122c60 0 91 27 91 85zM653 0h-180c-18 21 -26 40 -32 73l-18 89c-13 57 -41 73 -93 73h-99v-235h-165v668h304c154 0 248 -63 248 -198c0 -99 -69 -158 -144 -167v-2c60 -10 95 -43 111 -107l27 -115c8 -32 20 -56 41 -79z" />
    <glyph glyph-name="S" unicode="S" horiz-adv-x="585" 
d="M287 -12c-145 0 -248 63 -278 168l144 60c12 -64 70 -99 135 -99c54 0 99 23 99 70c0 118 -353 27 -353 280c0 134 119 213 259 213s232 -56 258 -169l-149 -41c-9 54 -55 82 -108 82c-56 0 -91 -29 -91 -69c0 -118 353 -25 353 -284c0 -139 -126 -211 -269 -211z" />
    <glyph glyph-name="T" unicode="T" horiz-adv-x="641" 
d="M405 0h-169v528h-210v140h590v-140h-211v-528z" />
    <glyph glyph-name="U" unicode="U" horiz-adv-x="676" 
d="M338 128c80 0 113 56 113 143v397h168v-409c0 -191 -120 -271 -281 -271c-160 0 -281 80 -281 271v409h169v-397c0 -87 32 -143 112 -143z" />
    <glyph glyph-name="V" unicode="V" horiz-adv-x="669" 
d="M340 205l144 463h173l-233 -668h-178l-234 668h176l150 -463h2z" />
    <glyph glyph-name="W" unicode="W" horiz-adv-x="897" 
d="M376 668h151l96 -449h2l99 449h161l-165 -668h-171l-99 441h-3l-97 -441h-173l-165 668h168l99 -449h2z" />
    <glyph glyph-name="X" unicode="X" horiz-adv-x="660" 
d="M466 0l-137 214h-3l-138 -214h-179l224 341l-212 327h186l124 -200h3l124 200h179l-211 -324l225 -344h-185z" />
    <glyph glyph-name="Y" unicode="Y" horiz-adv-x="657" 
d="M332 412h2l136 256h175l-232 -420v-248h-168v248l-233 420h183z" />
    <glyph glyph-name="Z" unicode="Z" horiz-adv-x="618" 
d="M248 140h325v-140h-531v127l311 401h-306v140h518v-125z" />
    <glyph glyph-name="Aacute" unicode="&#xc1;" horiz-adv-x="701" 
d="M404 718h-124l65 168h205zM346 494l-79 -231h160l-79 231h-2zM518 0l-48 139h-245l-48 -139h-165l243 668h191l243 -668h-171z" />
    <glyph glyph-name="Abreve" unicode="&#x102;" horiz-adv-x="701" 
d="M350 819c41 0 65 30 67 67h110c0 -98 -65 -172 -177 -172s-177 74 -177 172h110c2 -37 26 -67 67 -67zM346 494l-79 -231h160l-79 231h-2zM518 0l-48 139h-245l-48 -139h-165l243 668h191l243 -668h-171z" />
    <glyph glyph-name="Acircumflex" unicode="&#xc2;" horiz-adv-x="701" 
d="M274 886h153l117 -168h-119l-75 81l-74 -81h-119zM346 494l-79 -231h160l-79 231h-2zM518 0l-48 139h-245l-48 -139h-165l243 668h191l243 -668h-171z" />
    <glyph glyph-name="Adieresis" unicode="&#xc4;" horiz-adv-x="701" 
d="M327 796c0 -52 -38 -83 -85 -83c-48 0 -86 31 -86 83s38 82 86 82c47 0 85 -30 85 -82zM544 796c0 -52 -38 -83 -86 -83c-47 0 -85 31 -85 83s38 82 85 82c48 0 86 -30 86 -82zM346 494l-79 -231h160l-79 231h-2zM518 0l-48 139h-245l-48 -139h-165l243 668h191l243 -668
h-171z" />
    <glyph glyph-name="Agrave" unicode="&#xc0;" horiz-adv-x="701" 
d="M422 718h-124l-146 168h205zM346 494l-79 -231h160l-79 231h-2zM518 0l-48 139h-245l-48 -139h-165l243 668h191l243 -668h-171z" />
    <glyph glyph-name="Amacron" unicode="&#x100;" horiz-adv-x="701" 
d="M523 730h-344v113h344v-113zM346 494l-79 -231h160l-79 231h-2zM518 0l-48 139h-245l-48 -139h-165l243 668h191l243 -668h-171z" />
    <glyph glyph-name="Aogonek" unicode="&#x104;" horiz-adv-x="701" 
d="M627 -183c-23 -16 -51 -27 -87 -27c-51 0 -101 32 -101 93c0 50 32 95 74 132l-43 124h-245l-48 -139h-165l243 668h191l243 -668h-101c-37 -34 -54 -60 -54 -83c0 -17 9 -29 27 -29c14 0 28 3 40 13zM346 494l-79 -231h160l-79 231h-2z" />
    <glyph glyph-name="Aring" unicode="&#xc5;" horiz-adv-x="701" 
d="M289 740c0 -36 25 -63 61 -63s61 27 61 63s-25 63 -61 63s-61 -27 -61 -63zM346 494l-79 -231h160l-79 231h-2zM225 139l-48 -139h-165l237 651c-23 24 -36 55 -36 89c0 70 57 131 137 131s137 -61 137 -131c0 -33 -13 -65 -35 -88l237 -652h-171l-48 139h-245z" />
    <glyph glyph-name="Atilde" unicode="&#xc3;" horiz-adv-x="701" 
d="M440 894h100c10 -109 -44 -175 -115 -175c-57 0 -92 58 -128 58c-25 0 -37 -26 -38 -59h-99c-11 109 43 175 114 175c57 0 92 -58 129 -58c25 0 36 26 37 59zM346 494l-79 -231h160l-79 231h-2zM518 0l-48 139h-245l-48 -139h-165l243 668h191l243 -668h-171z" />
    <glyph glyph-name="AE" unicode="&#xc6;" horiz-adv-x="1013" 
d="M489 543l-145 -255h147v255h-2zM491 0v164h-218l-93 -164h-168l375 668h576v-140h-310v-128h275v-126h-275v-134h312v-140h-474z" />
    <glyph glyph-name="AEacute" unicode="&#x1fc;" horiz-adv-x="1013" 
d="M716 718h-124l65 168h205zM489 543l-145 -255h147v255h-2zM491 0v164h-218l-93 -164h-168l375 668h576v-140h-310v-128h275v-126h-275v-134h312v-140h-474z" />
    <glyph glyph-name="Cacute" unicode="&#x106;" horiz-adv-x="632" 
d="M402 722h-124l65 168h205zM31 334c0 216 125 346 316 346c135 0 231 -67 266 -177l-151 -67c-13 61 -51 103 -116 103c-84 0 -141 -70 -141 -205s57 -205 141 -205c65 0 103 43 116 104l151 -67c-35 -111 -131 -178 -266 -178c-191 0 -316 130 -316 346z" />
    <glyph glyph-name="Ccaron" unicode="&#x10c;" horiz-adv-x="632" 
d="M425 722h-153l-117 168h119l74 -81l75 81h119zM31 334c0 216 125 346 316 346c135 0 231 -67 266 -177l-151 -67c-13 61 -51 103 -116 103c-84 0 -141 -70 -141 -205s57 -205 141 -205c65 0 103 43 116 104l151 -67c-35 -111 -131 -178 -266 -178
c-191 0 -316 130 -316 346z" />
    <glyph glyph-name="Ccedilla" unicode="&#xc7;" horiz-adv-x="632" 
d="M317 -210c-45 0 -87 15 -112 38l40 67c18 -19 34 -27 56 -27c21 0 36 8 36 25c0 21 -23 32 -65 32l24 66c-162 22 -265 147 -265 343c0 216 125 346 316 346c135 0 231 -67 266 -177l-151 -67c-13 61 -51 103 -116 103c-84 0 -141 -70 -141 -205s57 -205 141 -205
c65 0 103 43 116 104l151 -67c-35 -111 -131 -178 -264 -178l-8 -20c59 -3 107 -29 107 -82c0 -63 -61 -96 -131 -96z" />
    <glyph glyph-name="Ccircumflex" unicode="&#x108;" horiz-adv-x="632" 
d="M272 886h153l117 -168h-119l-75 81l-74 -81h-119zM31 334c0 216 125 346 316 346c135 0 231 -67 266 -177l-151 -67c-13 61 -51 103 -116 103c-84 0 -141 -70 -141 -205s57 -205 141 -205c65 0 103 43 116 104l151 -67c-35 -111 -131 -178 -266 -178
c-191 0 -316 130 -316 346z" />
    <glyph glyph-name="Cdotaccent" unicode="&#x10a;" horiz-adv-x="632" 
d="M445 805c0 -56 -46 -88 -96 -88c-51 0 -97 32 -97 88c0 57 46 90 97 90c50 0 96 -33 96 -90zM31 334c0 216 125 346 316 346c135 0 231 -67 266 -177l-151 -67c-13 61 -51 103 -116 103c-84 0 -141 -70 -141 -205s57 -205 141 -205c65 0 103 43 116 104l151 -67
c-35 -111 -131 -178 -266 -178c-191 0 -316 130 -316 346z" />
    <glyph glyph-name="Dcaron" unicode="&#x10e;" horiz-adv-x="688" 
d="M410 718h-153l-117 168h119l74 -81l75 81h119zM66 0v668h252c199 0 339 -104 339 -333c0 -228 -141 -335 -339 -335h-252zM234 528v-388h75c98 0 174 55 174 195c0 141 -76 193 -173 193h-76z" />
    <glyph glyph-name="Dcroat" unicode="&#x110;" horiz-adv-x="706" 
d="M336 0h-252v275h-59v121h59v272h252c199 0 339 -104 339 -333c0 -228 -141 -335 -339 -335zM252 140h75c98 0 174 55 174 195c0 141 -76 193 -173 193h-76v-132h111v-121h-111v-135z" />
    <glyph glyph-name="Eacute" unicode="&#xc9;" horiz-adv-x="588" 
d="M361 718h-124l65 168h205zM540 140v-140h-474v668h472v-140h-310v-128h275v-126h-275v-134h312z" />
    <glyph glyph-name="Ebreve" unicode="&#x114;" horiz-adv-x="588" 
d="M308 819c41 0 65 30 67 67h110c0 -98 -65 -172 -177 -172s-177 74 -177 172h110c2 -37 26 -67 67 -67zM540 140v-140h-474v668h472v-140h-310v-128h275v-126h-275v-134h312z" />
    <glyph glyph-name="Ecaron" unicode="&#x11a;" horiz-adv-x="588" 
d="M384 718h-153l-117 168h119l74 -81l75 81h119zM540 140v-140h-474v668h472v-140h-310v-128h275v-126h-275v-134h312z" />
    <glyph glyph-name="Ecircumflex" unicode="&#xca;" horiz-adv-x="588" 
d="M231 886h153l117 -168h-119l-75 81l-74 -81h-119zM540 140v-140h-474v668h472v-140h-310v-128h275v-126h-275v-134h312z" />
    <glyph glyph-name="Edieresis" unicode="&#xcb;" horiz-adv-x="588" 
d="M285 796c0 -52 -38 -83 -85 -83c-48 0 -86 31 -86 83s38 82 86 82c47 0 85 -30 85 -82zM502 796c0 -52 -38 -83 -86 -83c-47 0 -85 31 -85 83s38 82 85 82c48 0 86 -30 86 -82zM540 140v-140h-474v668h472v-140h-310v-128h275v-126h-275v-134h312z" />
    <glyph glyph-name="Edotaccent" unicode="&#x116;" horiz-adv-x="588" 
d="M404 801c0 -56 -46 -88 -96 -88c-51 0 -97 32 -97 88c0 57 46 90 97 90c50 0 96 -33 96 -90zM540 140v-140h-474v668h472v-140h-310v-128h275v-126h-275v-134h312z" />
    <glyph glyph-name="Egrave" unicode="&#xc8;" horiz-adv-x="588" 
d="M379 718h-124l-146 168h205zM540 140v-140h-474v668h472v-140h-310v-128h275v-126h-275v-134h312z" />
    <glyph glyph-name="Emacron" unicode="&#x112;" horiz-adv-x="588" 
d="M480 730h-344v113h344v-113zM540 140v-140h-474v668h472v-140h-310v-128h275v-126h-275v-134h312z" />
    <glyph glyph-name="Eogonek" unicode="&#x118;" horiz-adv-x="588" 
d="M523 -183c-23 -16 -51 -27 -87 -27c-51 0 -101 32 -101 93c0 43 24 83 57 117h-326v668h472v-140h-310v-128h275v-126h-275v-134h312v-140h-56c-37 -34 -54 -60 -54 -83c0 -17 9 -29 27 -29c14 0 28 3 40 13z" />
    <glyph glyph-name="Eth" unicode="&#xd0;" horiz-adv-x="706" 
d="M336 0h-252v275h-59v121h59v272h252c199 0 339 -104 339 -333c0 -228 -141 -335 -339 -335zM252 140h75c98 0 174 55 174 195c0 141 -76 193 -173 193h-76v-132h111v-121h-111v-135z" />
    <glyph glyph-name="Gbreve" unicode="&#x11e;" horiz-adv-x="700" 
d="M360 823c41 0 65 30 67 67h110c0 -98 -65 -172 -177 -172s-177 74 -177 172h110c2 -37 26 -67 67 -67zM361 359h286v-359h-114l-21 80c-26 -58 -101 -92 -185 -92c-167 0 -296 122 -296 340c0 216 134 352 328 352c141 0 243 -67 279 -178l-158 -64
c-14 60 -55 101 -123 101c-90 0 -152 -71 -152 -211c0 -121 48 -206 153 -206c69 0 121 37 121 106v21h-118v110z" />
    <glyph glyph-name="Gcircumflex" unicode="&#x11c;" horiz-adv-x="700" 
d="M283 886h153l117 -168h-119l-75 81l-74 -81h-119zM361 359h286v-359h-114l-21 80c-26 -58 -101 -92 -185 -92c-167 0 -296 122 -296 340c0 216 134 352 328 352c141 0 243 -67 279 -178l-158 -64c-14 60 -55 101 -123 101c-90 0 -152 -71 -152 -211
c0 -121 48 -206 153 -206c69 0 121 37 121 106v21h-118v110z" />
    <glyph glyph-name="uni0122" unicode="&#x122;" horiz-adv-x="700" 
d="M361 359h286v-359h-114l-21 80c-26 -58 -101 -92 -185 -92c-167 0 -296 122 -296 340c0 216 134 352 328 352c141 0 243 -67 279 -178l-158 -64c-14 60 -55 101 -123 101c-90 0 -152 -71 -152 -211c0 -121 48 -206 153 -206c69 0 121 37 121 106v21h-118v110zM447 -130
c0 -68 -56 -122 -159 -122v52c44 0 65 15 65 35v3c-6 -2 -14 -4 -21 -4c-45 0 -68 25 -68 60c0 43 39 69 85 69c49 0 98 -32 98 -93z" />
    <glyph glyph-name="Gdotaccent" unicode="&#x120;" horiz-adv-x="700" 
d="M456 805c0 -56 -46 -88 -96 -88c-51 0 -97 32 -97 88c0 57 46 90 97 90c50 0 96 -33 96 -90zM361 359h286v-359h-114l-21 80c-26 -58 -101 -92 -185 -92c-167 0 -296 122 -296 340c0 216 134 352 328 352c141 0 243 -67 279 -178l-158 -64c-14 60 -55 101 -123 101
c-90 0 -152 -71 -152 -211c0 -121 48 -206 153 -206c69 0 121 37 121 106v21h-118v110z" />
    <glyph glyph-name="Hbar" unicode="&#x126;" horiz-adv-x="748" 
d="M247 343h254v97h-254v-97zM247 204v-204h-168v440h-59v122h59v106h168v-106h254v106h168v-106h59v-122h-59v-440h-168v204h-254z" />
    <glyph glyph-name="Hcircumflex" unicode="&#x124;" horiz-adv-x="722" 
d="M285 886h153l117 -168h-119l-75 81l-74 -81h-119zM234 0h-168v668h168v-258h254v258h168v-668h-168v266h-254v-266z" />
    <glyph glyph-name="Iacute" unicode="&#xcd;" horiz-adv-x="300" 
d="M203 718h-124l65 168h205zM66 668h168v-668h-168v668z" />
    <glyph glyph-name="Ibreve" unicode="&#x12c;" horiz-adv-x="300" 
d="M150 819c41 0 65 30 67 67h110c0 -98 -65 -172 -177 -172s-177 74 -177 172h110c2 -37 26 -67 67 -67zM66 668h168v-668h-168v668z" />
    <glyph glyph-name="Icircumflex" unicode="&#xce;" horiz-adv-x="300" 
d="M73 886h153l117 -168h-119l-75 81l-74 -81h-119zM66 668h168v-668h-168v668z" />
    <glyph glyph-name="Idieresis" unicode="&#xcf;" horiz-adv-x="300" 
d="M127 796c0 -52 -38 -83 -85 -83c-48 0 -86 31 -86 83s38 82 86 82c47 0 85 -30 85 -82zM344 796c0 -52 -38 -83 -86 -83c-47 0 -85 31 -85 83s38 82 85 82c48 0 86 -30 86 -82zM66 668h168v-668h-168v668z" />
    <glyph glyph-name="Idotaccent" unicode="&#x130;" horiz-adv-x="300" 
d="M246 801c0 -56 -46 -88 -96 -88c-51 0 -97 32 -97 88c0 57 46 90 97 90c50 0 96 -33 96 -90zM66 668h168v-668h-168v668z" />
    <glyph glyph-name="Igrave" unicode="&#xcc;" horiz-adv-x="300" 
d="M222 718h-124l-146 168h205zM66 668h168v-668h-168v668z" />
    <glyph glyph-name="Imacron" unicode="&#x12a;" horiz-adv-x="300" 
d="M322 730h-344v113h344v-113zM66 668h168v-668h-168v668z" />
    <glyph glyph-name="Iogonek" unicode="&#x12e;" horiz-adv-x="300" 
d="M243 -183c-23 -16 -51 -27 -87 -27c-51 0 -102 32 -102 93c0 41 23 81 56 117h-44v668h168v-668c-59 -18 -84 -56 -84 -83c0 -17 9 -29 27 -29c13 0 28 3 40 13z" />
    <glyph glyph-name="Itilde" unicode="&#x128;" horiz-adv-x="300" 
d="M240 894h100c10 -109 -44 -175 -115 -175c-57 0 -92 58 -128 58c-25 0 -37 -26 -38 -59h-99c-11 109 43 175 114 175c57 0 92 -58 129 -58c25 0 36 26 37 59zM66 668h168v-668h-168v668z" />
    <glyph glyph-name="Jcircumflex" unicode="&#x134;" horiz-adv-x="574" 
d="M356 886h153l117 -168h-119l-75 81l-74 -81h-119zM348 230v438h169v-430c0 -169 -103 -250 -254 -250c-137 0 -231 79 -250 202l156 57c3 -66 29 -120 94 -120c55 0 85 32 85 103z" />
    <glyph glyph-name="uni0136" unicode="&#x136;" horiz-adv-x="667" 
d="M664 0h-198l-182 267h-50v-267h-168v668h168v-260h52l174 260h187l-218 -325zM419 -130c0 -68 -56 -122 -159 -122v52c44 0 65 15 65 35v3c-6 -2 -14 -4 -21 -4c-45 0 -68 25 -68 60c0 43 39 69 85 69c49 0 98 -32 98 -93z" />
    <glyph glyph-name="Lacute" unicode="&#x139;" horiz-adv-x="562" 
d="M217 718h-124l65 168h205zM66 668h168v-528h296v-140h-464v668z" />
    <glyph glyph-name="Lcaron" unicode="&#x13d;" horiz-adv-x="562" 
d="M431 472h-103l24 196h169zM66 668h168v-528h296v-140h-464v668z" />
    <glyph glyph-name="uni013B" unicode="&#x13b;" horiz-adv-x="562" 
d="M66 668h168v-528h296v-140h-464v668zM390 -130c0 -68 -56 -122 -159 -122v52c44 0 65 15 65 35v3c-6 -2 -14 -4 -21 -4c-45 0 -68 25 -68 60c0 43 39 69 85 69c49 0 98 -32 98 -93z" />
    <glyph glyph-name="Ldot" unicode="&#x13f;" horiz-adv-x="562" 
d="M66 668h168v-528h296v-140h-464v668zM524 394c0 -56 -45 -88 -95 -88s-96 32 -96 88c0 57 46 89 96 89s95 -32 95 -89z" />
    <glyph glyph-name="Lslash" unicode="&#x141;" horiz-adv-x="576" 
d="M548 0h-464v248l-59 -24v124l59 25v295h168v-232l127 56v-124l-127 -56v-172h296v-140z" />
    <glyph glyph-name="Nacute" unicode="&#x143;" horiz-adv-x="718" 
d="M413 718h-124l65 168h205zM491 258v410h161v-668h-149l-274 412h-2v-412h-161v668h159l264 -410h2z" />
    <glyph glyph-name="Ncaron" unicode="&#x147;" horiz-adv-x="718" 
d="M435 718h-153l-117 168h119l74 -81l75 81h119zM491 258v410h161v-668h-149l-274 412h-2v-412h-161v668h159l264 -410h2z" />
    <glyph glyph-name="uni0145" unicode="&#x145;" horiz-adv-x="718" 
d="M491 258v410h161v-668h-149l-274 412h-2v-412h-161v668h159l264 -410h2zM452 -130c0 -68 -56 -122 -159 -122v52c44 0 65 15 65 35v3c-6 -2 -14 -4 -21 -4c-45 0 -68 25 -68 60c0 43 39 69 85 69c49 0 98 -32 98 -93z" />
    <glyph glyph-name="Ntilde" unicode="&#xd1;" horiz-adv-x="718" 
d="M449 894h100c10 -109 -44 -175 -115 -175c-57 0 -92 58 -128 58c-25 0 -37 -26 -38 -59h-99c-11 109 43 175 114 175c57 0 92 -58 129 -58c25 0 36 26 37 59zM491 258v410h161v-668h-149l-274 412h-2v-412h-161v668h159l264 -410h2z" />
    <glyph glyph-name="Eng" unicode="&#x14a;" horiz-adv-x="718" 
d="M652 9c0 -186 -129 -243 -276 -208l12 126c64 -22 103 -3 103 79v14l-262 392h-2v-412h-161v668h159l264 -410h2v410h161v-659z" />
    <glyph glyph-name="Oacute" unicode="&#xd3;" horiz-adv-x="699" 
d="M403 722h-124l65 168h205zM349 680c194 0 319 -132 319 -346s-125 -346 -319 -346s-318 132 -318 346s124 346 318 346zM349 540c-93 0 -144 -80 -144 -206s51 -206 144 -206s145 80 145 206s-52 206 -145 206z" />
    <glyph glyph-name="Obreve" unicode="&#x14e;" horiz-adv-x="699" 
d="M349 823c41 0 65 30 67 67h110c0 -98 -65 -172 -177 -172s-177 74 -177 172h110c2 -37 26 -67 67 -67zM349 680c194 0 319 -132 319 -346s-125 -346 -319 -346s-318 132 -318 346s124 346 318 346zM349 540c-93 0 -144 -80 -144 -206s51 -206 144 -206s145 80 145 206
s-52 206 -145 206z" />
    <glyph glyph-name="Ocircumflex" unicode="&#xd4;" horiz-adv-x="699" 
d="M273 886h153l117 -168h-119l-75 81l-74 -81h-119zM349 680c194 0 319 -132 319 -346s-125 -346 -319 -346s-318 132 -318 346s124 346 318 346zM349 540c-93 0 -144 -80 -144 -206s51 -206 144 -206s145 80 145 206s-52 206 -145 206z" />
    <glyph glyph-name="Odieresis" unicode="&#xd6;" horiz-adv-x="699" 
d="M326 796c0 -52 -38 -83 -85 -83c-48 0 -86 31 -86 83s38 82 86 82c47 0 85 -30 85 -82zM543 796c0 -52 -38 -83 -86 -83c-47 0 -85 31 -85 83s38 82 85 82c48 0 86 -30 86 -82zM349 680c194 0 319 -132 319 -346s-125 -346 -319 -346s-318 132 -318 346s124 346 318 346z
M349 540c-93 0 -144 -80 -144 -206s51 -206 144 -206s145 80 145 206s-52 206 -145 206z" />
    <glyph glyph-name="Ograve" unicode="&#xd2;" horiz-adv-x="699" 
d="M421 722h-124l-146 168h205zM349 680c194 0 319 -132 319 -346s-125 -346 -319 -346s-318 132 -318 346s124 346 318 346zM349 540c-93 0 -144 -80 -144 -206s51 -206 144 -206s145 80 145 206s-52 206 -145 206z" />
    <glyph glyph-name="Ohungarumlaut" unicode="&#x150;" horiz-adv-x="699" 
d="M184 722l69 168h166l-125 -168h-110zM388 722l69 168h166l-125 -168h-110zM349 680c194 0 319 -132 319 -346s-125 -346 -319 -346s-318 132 -318 346s124 346 318 346zM349 540c-93 0 -144 -80 -144 -206s51 -206 144 -206s145 80 145 206s-52 206 -145 206z" />
    <glyph glyph-name="Omacron" unicode="&#x14c;" horiz-adv-x="699" 
d="M522 730h-344v113h344v-113zM349 680c194 0 319 -132 319 -346s-125 -346 -319 -346s-318 132 -318 346s124 346 318 346zM349 540c-93 0 -144 -80 -144 -206s51 -206 144 -206s145 80 145 206s-52 206 -145 206z" />
    <glyph glyph-name="Oslash" unicode="&#xd8;" horiz-adv-x="699" 
d="M200 334c0 -41 5 -77 14 -107l229 288c-24 25 -55 38 -94 38c-96 0 -149 -83 -149 -219zM349 115c97 0 149 83 149 219c0 36 -4 68 -11 96l-225 -284c23 -20 52 -31 87 -31zM349 -12c-68 0 -127 16 -176 46l-62 -78l-70 53l66 83c-49 59 -76 142 -76 242
c0 214 124 346 318 346c72 0 134 -18 184 -51l59 74l71 -52l-66 -83c46 -58 71 -138 71 -234c0 -214 -125 -346 -319 -346z" />
    <glyph glyph-name="Oslashacute" unicode="&#x1fe;" horiz-adv-x="699" 
d="M403 722h-124l65 168h205zM200 334c0 -41 5 -77 14 -107l229 288c-24 25 -55 38 -94 38c-96 0 -149 -83 -149 -219zM349 115c97 0 149 83 149 219c0 36 -4 68 -11 96l-225 -284c23 -20 52 -31 87 -31zM349 -12c-68 0 -127 16 -176 46l-62 -78l-70 53l66 83
c-49 59 -76 142 -76 242c0 214 124 346 318 346c72 0 134 -18 184 -51l59 74l71 -52l-66 -83c46 -58 71 -138 71 -234c0 -214 -125 -346 -319 -346z" />
    <glyph glyph-name="Otilde" unicode="&#xd5;" horiz-adv-x="699" 
d="M439 894h100c10 -109 -44 -175 -115 -175c-57 0 -92 58 -128 58c-25 0 -37 -26 -38 -59h-99c-11 109 43 175 114 175c57 0 92 -58 129 -58c25 0 36 26 37 59zM349 680c194 0 319 -132 319 -346s-125 -346 -319 -346s-318 132 -318 346s124 346 318 346zM349 540
c-93 0 -144 -80 -144 -206s51 -206 144 -206s145 80 145 206s-52 206 -145 206z" />
    <glyph glyph-name="OE" unicode="&#x152;" horiz-adv-x="977" 
d="M370 0c-199 0 -339 104 -339 333c0 228 141 335 339 335h558v-140h-311v-128h276v-126h-276v-134h312v-140h-559zM454 140v388h-75c-98 0 -174 -55 -174 -195c0 -141 76 -193 173 -193h76z" />
    <glyph glyph-name="Racute" unicode="&#x154;" horiz-adv-x="671" 
d="M378 718h-124l65 168h205zM444 451c0 52 -29 81 -92 81h-121v-166h122c60 0 91 27 91 85zM653 0h-180c-18 21 -26 40 -32 73l-18 89c-13 57 -41 73 -93 73h-99v-235h-165v668h304c154 0 248 -63 248 -198c0 -99 -69 -158 -144 -167v-2c60 -10 95 -43 111 -107l27 -115
c8 -32 20 -56 41 -79z" />
    <glyph glyph-name="Rcaron" unicode="&#x158;" horiz-adv-x="671" 
d="M401 718h-153l-117 168h119l74 -81l75 81h119zM444 451c0 52 -29 81 -92 81h-121v-166h122c60 0 91 27 91 85zM653 0h-180c-18 21 -26 40 -32 73l-18 89c-13 57 -41 73 -93 73h-99v-235h-165v668h304c154 0 248 -63 248 -198c0 -99 -69 -158 -144 -167v-2
c60 -10 95 -43 111 -107l27 -115c8 -32 20 -56 41 -79z" />
    <glyph glyph-name="uni0156" unicode="&#x156;" horiz-adv-x="671" 
d="M444 451c0 52 -29 81 -92 81h-121v-166h122c60 0 91 27 91 85zM653 0h-180c-18 21 -26 40 -32 73l-18 89c-13 57 -41 73 -93 73h-99v-235h-165v668h304c154 0 248 -63 248 -198c0 -99 -69 -158 -144 -167v-2c60 -10 95 -43 111 -107l27 -115c8 -32 20 -56 41 -79z
M417 -130c0 -68 -56 -122 -159 -122v52c44 0 65 15 65 35v3c-6 -2 -14 -4 -21 -4c-45 0 -68 25 -68 60c0 43 39 69 85 69c49 0 98 -32 98 -93z" />
    <glyph glyph-name="Sacute" unicode="&#x15a;" horiz-adv-x="585" 
d="M357 722h-124l65 168h205zM287 -12c-145 0 -248 63 -278 168l144 60c12 -64 70 -99 135 -99c54 0 99 23 99 70c0 118 -353 27 -353 280c0 134 119 213 259 213s232 -56 258 -169l-149 -41c-9 54 -55 82 -108 82c-56 0 -91 -29 -91 -69c0 -118 353 -25 353 -284
c0 -139 -126 -211 -269 -211z" />
    <glyph glyph-name="Scaron" unicode="&#x160;" horiz-adv-x="585" 
d="M380 722h-153l-117 168h119l74 -81l75 81h119zM287 -12c-145 0 -248 63 -278 168l144 60c12 -64 70 -99 135 -99c54 0 99 23 99 70c0 118 -353 27 -353 280c0 134 119 213 259 213s232 -56 258 -169l-149 -41c-9 54 -55 82 -108 82c-56 0 -91 -29 -91 -69
c0 -118 353 -25 353 -284c0 -139 -126 -211 -269 -211z" />
    <glyph glyph-name="uni015E" unicode="&#x15e;" horiz-adv-x="585" 
d="M271 -210c-45 0 -87 15 -112 38l40 67c18 -19 34 -27 56 -27c21 0 36 8 36 25c0 21 -23 32 -65 32l23 64c-125 11 -213 71 -240 167l144 60c12 -64 70 -99 135 -99c54 0 99 23 99 70c0 118 -353 27 -353 280c0 134 119 213 259 213s232 -56 258 -169l-149 -41
c-9 54 -55 82 -108 82c-56 0 -91 -29 -91 -69c0 -118 353 -25 353 -284c0 -134 -117 -206 -253 -211l-8 -20c59 -3 107 -29 107 -82c0 -63 -61 -96 -131 -96z" />
    <glyph glyph-name="Scircumflex" unicode="&#x15c;" horiz-adv-x="585" 
d="M227 886h153l117 -168h-119l-75 81l-74 -81h-119zM287 -12c-145 0 -248 63 -278 168l144 60c12 -64 70 -99 135 -99c54 0 99 23 99 70c0 118 -353 27 -353 280c0 134 119 213 259 213s232 -56 258 -169l-149 -41c-9 54 -55 82 -108 82c-56 0 -91 -29 -91 -69
c0 -118 353 -25 353 -284c0 -139 -126 -211 -269 -211z" />
    <glyph glyph-name="uni0218" unicode="&#x218;" horiz-adv-x="585" 
d="M287 -12c-145 0 -248 63 -278 168l144 60c12 -64 70 -99 135 -99c54 0 99 23 99 70c0 118 -353 27 -353 280c0 134 119 213 259 213s232 -56 258 -169l-149 -41c-9 54 -55 82 -108 82c-56 0 -91 -29 -91 -69c0 -118 353 -25 353 -284c0 -139 -126 -211 -269 -211z
M386 -130c0 -68 -56 -122 -159 -122v52c44 0 65 15 65 35v3c-6 -2 -14 -4 -21 -4c-45 0 -68 25 -68 60c0 43 39 69 85 69c49 0 98 -32 98 -93z" />
    <glyph glyph-name="Tbar" unicode="&#x166;" horiz-adv-x="641" 
d="M505 259h-100v-259h-169v259h-100v121h100v148h-210v140h590v-140h-211v-148h100v-121z" />
    <glyph glyph-name="Tcaron" unicode="&#x164;" horiz-adv-x="641" 
d="M397 718h-153l-117 168h119l74 -81l75 81h119zM405 0h-169v528h-210v140h590v-140h-211v-528z" />
    <glyph glyph-name="Tcommaaccent" unicode="&#x162;" horiz-adv-x="641" 
d="M300 -210c-45 0 -87 15 -112 38l40 67c18 -19 34 -27 56 -27c21 0 36 8 36 25c0 21 -23 32 -65 32l27 75h-46v528h-210v140h590v-140h-211v-528h-69l-12 -32c59 -3 107 -29 107 -82c0 -63 -61 -96 -131 -96z" />
    <glyph glyph-name="uni021A" unicode="&#x21a;" horiz-adv-x="641" 
d="M405 0h-169v528h-210v140h590v-140h-211v-528zM415 -130c0 -68 -56 -122 -159 -122v52c44 0 65 15 65 35v3c-6 -2 -14 -4 -21 -4c-45 0 -68 25 -68 60c0 43 39 69 85 69c49 0 98 -32 98 -93z" />
    <glyph glyph-name="Thorn" unicode="&#xde;" horiz-adv-x="620" 
d="M234 0h-168v668h168v-92h109c161 0 256 -83 256 -230c0 -145 -104 -229 -256 -229h-109v-117zM426 345c0 62 -31 98 -103 98h-89v-195h89c71 0 103 34 103 97z" />
    <glyph glyph-name="Uacute" unicode="&#xda;" horiz-adv-x="676" 
d="M391 718h-124l65 168h205zM338 128c80 0 113 56 113 143v397h168v-409c0 -191 -120 -271 -281 -271c-160 0 -281 80 -281 271v409h169v-397c0 -87 32 -143 112 -143z" />
    <glyph glyph-name="Ubreve" unicode="&#x16c;" horiz-adv-x="676" 
d="M338 819c41 0 65 30 67 67h110c0 -98 -65 -172 -177 -172s-177 74 -177 172h110c2 -37 26 -67 67 -67zM338 128c80 0 113 56 113 143v397h168v-409c0 -191 -120 -271 -281 -271c-160 0 -281 80 -281 271v409h169v-397c0 -87 32 -143 112 -143z" />
    <glyph glyph-name="Ucircumflex" unicode="&#xdb;" horiz-adv-x="676" 
d="M261 886h153l117 -168h-119l-75 81l-74 -81h-119zM338 128c80 0 113 56 113 143v397h168v-409c0 -191 -120 -271 -281 -271c-160 0 -281 80 -281 271v409h169v-397c0 -87 32 -143 112 -143z" />
    <glyph glyph-name="Udieresis" unicode="&#xdc;" horiz-adv-x="676" 
d="M315 796c0 -52 -38 -83 -85 -83c-48 0 -86 31 -86 83s38 82 86 82c47 0 85 -30 85 -82zM532 796c0 -52 -38 -83 -86 -83c-47 0 -85 31 -85 83s38 82 85 82c48 0 86 -30 86 -82zM338 128c80 0 113 56 113 143v397h168v-409c0 -191 -120 -271 -281 -271
c-160 0 -281 80 -281 271v409h169v-397c0 -87 32 -143 112 -143z" />
    <glyph glyph-name="Ugrave" unicode="&#xd9;" horiz-adv-x="676" 
d="M410 718h-124l-146 168h205zM338 128c80 0 113 56 113 143v397h168v-409c0 -191 -120 -271 -281 -271c-160 0 -281 80 -281 271v409h169v-397c0 -87 32 -143 112 -143z" />
    <glyph glyph-name="Uhungarumlaut" unicode="&#x170;" horiz-adv-x="676" 
d="M173 718l69 168h166l-125 -168h-110zM377 718l69 168h166l-125 -168h-110zM338 128c80 0 113 56 113 143v397h168v-409c0 -191 -120 -271 -281 -271c-160 0 -281 80 -281 271v409h169v-397c0 -87 32 -143 112 -143z" />
    <glyph glyph-name="Umacron" unicode="&#x16a;" horiz-adv-x="676" 
d="M510 730h-344v113h344v-113zM338 128c80 0 113 56 113 143v397h168v-409c0 -191 -120 -271 -281 -271c-160 0 -281 80 -281 271v409h169v-397c0 -87 32 -143 112 -143z" />
    <glyph glyph-name="Uogonek" unicode="&#x172;" horiz-adv-x="676" 
d="M419 -210c-51 0 -102 32 -102 93c0 37 18 73 45 106c-7 -1 -17 -1 -24 -1c-160 0 -281 80 -281 271v409h169v-397c0 -87 32 -143 112 -143s113 56 113 143v397h168v-409c0 -143 -66 -203 -146 -253c-43 -29 -61 -58 -61 -88c0 -17 10 -30 28 -30c13 0 28 3 40 13l26 -84
c-23 -16 -51 -27 -87 -27z" />
    <glyph glyph-name="Uring" unicode="&#x16e;" horiz-adv-x="676" 
d="M201 830c0 70 57 131 137 131s137 -61 137 -131s-57 -131 -137 -131s-137 61 -137 131zM277 830c0 -36 25 -63 61 -63s61 27 61 63s-25 63 -61 63s-61 -27 -61 -63zM338 128c80 0 113 56 113 143v397h168v-409c0 -191 -120 -271 -281 -271c-160 0 -281 80 -281 271v409
h169v-397c0 -87 32 -143 112 -143z" />
    <glyph glyph-name="Utilde" unicode="&#x168;" horiz-adv-x="676" 
d="M428 894h100c10 -109 -44 -175 -115 -175c-57 0 -92 58 -128 58c-25 0 -37 -26 -38 -59h-99c-11 109 43 175 114 175c57 0 92 -58 129 -58c25 0 36 26 37 59zM338 128c80 0 113 56 113 143v397h168v-409c0 -191 -120 -271 -281 -271c-160 0 -281 80 -281 271v409h169
v-397c0 -87 32 -143 112 -143z" />
    <glyph glyph-name="Wacute" unicode="&#x1e82;" horiz-adv-x="897" 
d="M502 718h-124l65 168h205zM376 668h151l96 -449h2l99 449h161l-165 -668h-171l-99 441h-3l-97 -441h-173l-165 668h168l99 -449h2z" />
    <glyph glyph-name="Wcircumflex" unicode="&#x174;" horiz-adv-x="897" 
d="M372 886h153l117 -168h-119l-75 81l-74 -81h-119zM376 668h151l96 -449h2l99 449h161l-165 -668h-171l-99 441h-3l-97 -441h-173l-165 668h168l99 -449h2z" />
    <glyph glyph-name="Wgrave" unicode="&#x1e80;" horiz-adv-x="897" 
d="M520 718h-124l-146 168h205zM376 668h151l96 -449h2l99 449h161l-165 -668h-171l-99 441h-3l-97 -441h-173l-165 668h168l99 -449h2z" />
    <glyph glyph-name="Wdieresis" unicode="&#x1e84;" horiz-adv-x="897" 
d="M425 796c0 -52 -38 -83 -85 -83c-48 0 -86 31 -86 83s38 82 86 82c47 0 85 -30 85 -82zM642 796c0 -52 -38 -83 -86 -83c-47 0 -85 31 -85 83s38 82 85 82c48 0 86 -30 86 -82zM376 668h151l96 -449h2l99 449h161l-165 -668h-171l-99 441h-3l-97 -441h-173l-165 668h168
l99 -449h2z" />
    <glyph glyph-name="Yacute" unicode="&#xdd;" horiz-adv-x="657" 
d="M382 718h-124l65 168h205zM332 412h2l136 256h175l-232 -420v-248h-168v248l-233 420h183z" />
    <glyph glyph-name="Ycircumflex" unicode="&#x176;" horiz-adv-x="657" 
d="M252 886h153l117 -168h-119l-75 81l-74 -81h-119zM332 412h2l136 256h175l-232 -420v-248h-168v248l-233 420h183z" />
    <glyph glyph-name="Ydieresis" unicode="&#x178;" horiz-adv-x="657" 
d="M305 796c0 -52 -38 -83 -85 -83c-48 0 -86 31 -86 83s38 82 86 82c47 0 85 -30 85 -82zM522 796c0 -52 -38 -83 -86 -83c-47 0 -85 31 -85 83s38 82 85 82c48 0 86 -30 86 -82zM332 412h2l136 256h175l-232 -420v-248h-168v248l-233 420h183z" />
    <glyph glyph-name="Ygrave" unicode="&#x1ef2;" horiz-adv-x="657" 
d="M400 718h-124l-146 168h205zM332 412h2l136 256h175l-232 -420v-248h-168v248l-233 420h183z" />
    <glyph glyph-name="Zacute" unicode="&#x179;" horiz-adv-x="618" 
d="M367 718h-124l65 168h205zM248 140h325v-140h-531v127l311 401h-306v140h518v-125z" />
    <glyph glyph-name="Zcaron" unicode="&#x17d;" horiz-adv-x="618" 
d="M389 718h-153l-117 168h119l74 -81l75 81h119zM248 140h325v-140h-531v127l311 401h-306v140h518v-125z" />
    <glyph glyph-name="Zdotaccent" unicode="&#x17b;" horiz-adv-x="618" 
d="M410 801c0 -56 -46 -88 -96 -88c-51 0 -97 32 -97 88c0 57 46 90 97 90c50 0 96 -33 96 -90zM248 140h325v-140h-531v127l311 401h-306v140h518v-125z" />
    <glyph glyph-name="a" unicode="a" horiz-adv-x="558" 
d="M480 348v-201c0 -26 14 -36 32 -36c11 0 20 4 28 11l6 -107c-23 -16 -57 -25 -91 -25c-46 0 -82 17 -104 46c-8 9 -13 20 -17 33c-21 -49 -79 -79 -146 -79c-95 0 -160 54 -160 147c0 101 87 157 230 157c20 0 46 -2 63 -3v51c0 37 -19 59 -57 59c-39 0 -60 -25 -60 -68
l-151 21c9 101 90 164 218 164c144 0 209 -63 209 -170zM321 180v30c-9 1 -22 2 -35 2c-66 0 -100 -21 -100 -62c0 -32 22 -53 60 -53c37 0 75 22 75 83z" />
    <glyph glyph-name="b" unicode="b" horiz-adv-x="607" 
d="M224 722v-303c20 60 77 99 148 99c129 0 205 -106 205 -258c0 -168 -87 -272 -216 -272c-69 0 -125 36 -146 97l-21 -85h-135v722h165zM224 273v-51c0 -78 40 -112 87 -112c61 0 96 51 96 146c0 90 -36 136 -94 136c-48 0 -89 -40 -89 -119z" />
    <glyph glyph-name="c" unicode="c" horiz-adv-x="520" 
d="M30 253c0 165 99 265 249 265c126 0 206 -69 216 -172l-142 -31c-4 46 -25 82 -71 82c-61 0 -88 -58 -88 -144c0 -91 29 -143 88 -143c41 0 68 30 73 81l143 -44c-19 -99 -102 -159 -215 -159c-154 0 -253 100 -253 265z" />
    <glyph glyph-name="d" unicode="d" horiz-adv-x="607" 
d="M382 233v60c0 71 -43 105 -87 105c-60 0 -96 -50 -96 -150c0 -86 36 -132 93 -132c49 0 90 38 90 117zM405 0l-19 93c-21 -69 -80 -105 -153 -105c-113 0 -203 93 -203 254c0 177 86 276 213 276c71 0 121 -31 139 -77v281h166v-722h-143z" />
    <glyph glyph-name="e" unicode="e" horiz-adv-x="534" 
d="M283 110c41 0 70 20 83 65l134 -46c-31 -98 -122 -141 -220 -141c-152 0 -250 97 -250 260c0 165 96 270 254 270c148 0 220 -102 220 -227c0 -21 -4 -50 -9 -67h-307c1 -72 39 -114 95 -114zM190 302h160c2 7 2 15 2 23c0 41 -25 77 -72 77c-51 0 -85 -38 -90 -100z" />
    <glyph glyph-name="f" unicode="f" horiz-adv-x="367" 
d="M82 385h-65v121h65v29c0 122 78 199 201 199c52 0 90 -14 125 -35l-40 -110c-18 16 -34 22 -58 22c-42 0 -63 -29 -63 -76v-29h110v-121h-110v-385h-165v385z" />
    <glyph glyph-name="g" unicode="g" horiz-adv-x="563" 
d="M202 348c0 -46 24 -75 68 -75c42 0 67 27 67 75c0 49 -25 75 -67 75c-44 0 -68 -27 -68 -75zM551 -22c0 -138 -150 -188 -298 -188c-119 0 -245 31 -245 126c0 53 45 87 109 96c-42 12 -72 45 -72 94c0 51 40 88 92 100c-59 27 -96 74 -96 141c0 111 92 171 229 171
c53 0 100 -11 138 -30c16 18 24 51 27 82l131 -43c-7 -52 -50 -84 -93 -94c17 -24 27 -53 27 -86c0 -113 -100 -167 -230 -167c-25 0 -49 2 -72 7c-15 -7 -24 -17 -24 -32c0 -18 15 -25 35 -25h134c140 0 208 -53 208 -152zM141 -56c0 -38 45 -56 118 -56
c90 0 148 19 148 60c0 27 -24 40 -65 40h-143c-35 0 -58 -16 -58 -44z" />
    <glyph glyph-name="g.1" horiz-adv-x="610" 
d="M386 245v58c0 67 -44 99 -88 99c-60 0 -96 -47 -96 -141c0 -81 36 -126 94 -126c48 0 90 37 90 110zM551 41c0 -167 -122 -251 -284 -251c-115 0 -210 48 -238 129l107 77c17 -49 59 -79 126 -79c75 0 126 38 126 131v61c-23 -67 -83 -96 -151 -96
c-114 0 -205 88 -205 242c0 170 88 263 214 263c78 0 135 -39 156 -90l21 78h128v-465z" />
    <glyph glyph-name="h" unicode="h" horiz-adv-x="595" 
d="M224 722v-306c27 66 86 102 158 102c91 0 158 -56 158 -164v-354h-165v301c0 50 -18 80 -66 80c-46 0 -85 -30 -85 -107v-274h-165v722h165z" />
    <glyph glyph-name="i" unicode="i" horiz-adv-x="284" 
d="M238 648c0 -56 -46 -88 -96 -88s-96 32 -96 88c0 57 46 89 96 89s96 -32 96 -89zM59 506h165v-506h-165v506z" />
    <glyph glyph-name="j" unicode="j" horiz-adv-x="284" 
d="M238 648c0 -56 -46 -88 -96 -88s-96 32 -96 88c0 57 46 89 96 89s96 -32 96 -89zM59 506h165v-497c0 -186 -133 -243 -280 -208l12 126c64 -22 103 -3 103 83v496z" />
    <glyph glyph-name="k" unicode="k" horiz-adv-x="579" 
d="M399 272l173 -272h-185l-131 209h-32v-209h-165v722h165v-394h33l119 178h180z" />
    <glyph glyph-name="l" unicode="l" horiz-adv-x="314" 
d="M288 132l8 -117c-23 -14 -61 -25 -107 -25c-71 0 -139 34 -139 136v596h165v-560c0 -30 12 -43 35 -43c14 0 25 4 38 13z" />
    <glyph glyph-name="m" unicode="m" horiz-adv-x="893" 
d="M524 411c25 68 86 107 158 107c90 0 157 -54 157 -162v-356h-166v302c0 50 -15 79 -64 79c-41 0 -78 -30 -78 -106v-275h-165v302c0 50 -16 79 -64 79c-42 0 -78 -30 -78 -106v-275h-165v506h141l20 -97c23 71 84 109 155 109c72 0 129 -37 149 -107z" />
    <glyph glyph-name="n" unicode="n" horiz-adv-x="595" 
d="M200 506l20 -97c25 70 86 109 162 109c91 0 158 -56 158 -164v-354h-165v301c0 50 -18 80 -66 80c-46 0 -85 -30 -85 -107v-274h-165v506h141z" />
    <glyph glyph-name="o" unicode="o" horiz-adv-x="569" 
d="M539 253c0 -169 -103 -265 -254 -265c-152 0 -255 96 -255 265c0 170 103 265 255 265c151 0 254 -95 254 -265zM375 253c0 93 -28 145 -90 145c-63 0 -91 -52 -91 -145s28 -144 91 -144c62 0 90 51 90 144z" />
    <glyph glyph-name="p" unicode="p" horiz-adv-x="607" 
d="M224 271v-58c0 -72 40 -106 87 -106c61 0 96 52 96 146c0 90 -36 136 -94 136c-48 0 -89 -41 -89 -118zM200 506l19 -93c19 60 78 105 153 105c129 0 205 -106 205 -258c0 -168 -87 -272 -214 -272c-67 0 -117 31 -139 74v-260h-165v704h141z" />
    <glyph glyph-name="q" unicode="q" horiz-adv-x="607" 
d="M384 -198v285c-23 -70 -82 -99 -151 -99c-113 0 -203 93 -203 254c0 177 87 276 213 276c75 0 129 -38 150 -92l22 80h133v-704h-164zM382 232v60c0 72 -43 105 -87 105c-60 0 -96 -50 -96 -149c0 -86 36 -133 93 -133c49 0 90 38 90 117z" />
    <glyph glyph-name="r" unicode="r" horiz-adv-x="420" 
d="M405 514l-8 -167c-16 7 -39 11 -63 11c-60 0 -110 -39 -110 -125v-233h-165v506h143l19 -115c20 86 88 140 184 123z" />
    <glyph glyph-name="s" unicode="s" horiz-adv-x="492" 
d="M18 126l138 31c7 -37 41 -62 83 -62s69 16 69 48c0 88 -273 9 -273 205c0 111 96 170 214 170c120 0 195 -53 210 -147l-137 -16c-4 35 -29 58 -72 58c-38 0 -61 -18 -61 -48c0 -89 275 -6 275 -208c0 -110 -94 -169 -226 -169c-110 0 -198 45 -220 138z" />
    <glyph glyph-name="t" unicode="t" horiz-adv-x="418" 
d="M378 146l21 -116c-36 -27 -85 -42 -138 -42c-107 0 -181 52 -181 171v226h-65v121h66v107l165 20v-127h131v-121h-132v-204c0 -42 21 -61 57 -61c27 0 50 8 76 26z" />
    <glyph glyph-name="u" unicode="u" horiz-adv-x="589" 
d="M388 0l-20 92c-22 -68 -77 -104 -154 -104c-86 0 -159 54 -159 164v354h165v-308c0 -50 22 -79 65 -79c46 0 80 33 80 109v278h165v-506h-142z" />
    <glyph glyph-name="v" unicode="v" horiz-adv-x="557" 
d="M281 180h2l105 326h158l-186 -506h-162l-186 506h172z" />
    <glyph glyph-name="w" unicode="w" horiz-adv-x="764" 
d="M322 506h125l75 -327h2l70 327h158l-137 -506h-159l-73 311h-2l-73 -311h-159l-137 506h164l70 -327h2z" />
    <glyph glyph-name="x" unicode="x" horiz-adv-x="558" 
d="M370 0l-94 147h-2l-91 -147h-171l172 260l-161 246h175l83 -140h2l83 140h169l-162 -246l172 -260h-175z" />
    <glyph glyph-name="y" unicode="y" horiz-adv-x="557" 
d="M284 163l104 343h158l-182 -519c-49 -140 -115 -197 -225 -197c-48 0 -88 14 -112 29l31 119c18 -14 37 -23 62 -23c35 0 54 16 73 71l-181 520h171l99 -343h2z" />
    <glyph glyph-name="z" unicode="z" horiz-adv-x="501" 
d="M456 402l-222 -278h231v-124h-428v103l218 281h-214v122h415v-104z" />
    <glyph glyph-name="aacute" unicode="&#xe1;" horiz-adv-x="558" 
d="M330 561h-124l68 167h199zM480 348v-201c0 -26 14 -36 32 -36c11 0 20 4 28 11l6 -107c-23 -16 -57 -25 -91 -25c-46 0 -82 17 -104 46c-8 9 -13 20 -17 33c-21 -49 -79 -79 -146 -79c-95 0 -160 54 -160 147c0 101 87 157 230 157c20 0 46 -2 63 -3v51
c0 37 -19 59 -57 59c-39 0 -60 -25 -60 -68l-151 21c9 101 90 164 218 164c144 0 209 -63 209 -170zM321 180v30c-9 1 -22 2 -35 2c-66 0 -100 -21 -100 -62c0 -32 22 -53 60 -53c37 0 75 22 75 83z" />
    <glyph glyph-name="abreve" unicode="&#x103;" horiz-adv-x="558" 
d="M277 661c40 0 60 30 62 67h107c0 -98 -58 -171 -169 -171s-169 73 -169 171h107c2 -37 22 -67 62 -67zM480 348v-201c0 -26 14 -36 32 -36c11 0 20 4 28 11l6 -107c-23 -16 -57 -25 -91 -25c-46 0 -82 17 -104 46c-8 9 -13 20 -17 33c-21 -49 -79 -79 -146 -79
c-95 0 -160 54 -160 147c0 101 87 157 230 157c20 0 46 -2 63 -3v51c0 37 -19 59 -57 59c-39 0 -60 -25 -60 -68l-151 21c9 101 90 164 218 164c144 0 209 -63 209 -170zM321 180v30c-9 1 -22 2 -35 2c-66 0 -100 -21 -100 -62c0 -32 22 -53 60 -53c37 0 75 22 75 83z" />
    <glyph glyph-name="acircumflex" unicode="&#xe2;" horiz-adv-x="558" 
d="M204 728h145l111 -167h-113l-71 82l-70 -82h-113zM480 348v-201c0 -26 14 -36 32 -36c11 0 20 4 28 11l6 -107c-23 -16 -57 -25 -91 -25c-46 0 -82 17 -104 46c-8 9 -13 20 -17 33c-21 -49 -79 -79 -146 -79c-95 0 -160 54 -160 147c0 101 87 157 230 157
c20 0 46 -2 63 -3v51c0 37 -19 59 -57 59c-39 0 -60 -25 -60 -68l-151 21c9 101 90 164 218 164c144 0 209 -63 209 -170zM321 180v30c-9 1 -22 2 -35 2c-66 0 -100 -21 -100 -62c0 -32 22 -53 60 -53c37 0 75 22 75 83z" />
    <glyph glyph-name="adieresis" unicode="&#xe4;" horiz-adv-x="558" 
d="M255 644c0 -52 -38 -82 -85 -82c-48 0 -86 30 -86 82s38 83 86 83c47 0 85 -31 85 -83zM470 644c0 -52 -38 -82 -86 -82c-47 0 -84 30 -84 82s37 83 84 83c48 0 86 -31 86 -83zM480 348v-201c0 -26 14 -36 32 -36c11 0 20 4 28 11l6 -107c-23 -16 -57 -25 -91 -25
c-46 0 -82 17 -104 46c-8 9 -13 20 -17 33c-21 -49 -79 -79 -146 -79c-95 0 -160 54 -160 147c0 101 87 157 230 157c20 0 46 -2 63 -3v51c0 37 -19 59 -57 59c-39 0 -60 -25 -60 -68l-151 21c9 101 90 164 218 164c144 0 209 -63 209 -170zM321 180v30c-9 1 -22 2 -35 2
c-66 0 -100 -21 -100 -62c0 -32 22 -53 60 -53c37 0 75 22 75 83z" />
    <glyph glyph-name="agrave" unicode="&#xe0;" horiz-adv-x="558" 
d="M349 561h-124l-143 167h199zM480 348v-201c0 -26 14 -36 32 -36c11 0 20 4 28 11l6 -107c-23 -16 -57 -25 -91 -25c-46 0 -82 17 -104 46c-8 9 -13 20 -17 33c-21 -49 -79 -79 -146 -79c-95 0 -160 54 -160 147c0 101 87 157 230 157c20 0 46 -2 63 -3v51
c0 37 -19 59 -57 59c-39 0 -60 -25 -60 -68l-151 21c9 101 90 164 218 164c144 0 209 -63 209 -170zM321 180v30c-9 1 -22 2 -35 2c-66 0 -100 -21 -100 -62c0 -32 22 -53 60 -53c37 0 75 22 75 83z" />
    <glyph glyph-name="amacron" unicode="&#x101;" horiz-adv-x="558" 
d="M443 584h-332v107h332v-107zM480 348v-201c0 -26 14 -36 32 -36c11 0 20 4 28 11l6 -107c-23 -16 -57 -25 -91 -25c-46 0 -82 17 -104 46c-8 9 -13 20 -17 33c-21 -49 -79 -79 -146 -79c-95 0 -160 54 -160 147c0 101 87 157 230 157c20 0 46 -2 63 -3v51
c0 37 -19 59 -57 59c-39 0 -60 -25 -60 -68l-151 21c9 101 90 164 218 164c144 0 209 -63 209 -170zM321 180v30c-9 1 -22 2 -35 2c-66 0 -100 -21 -100 -62c0 -32 22 -53 60 -53c37 0 75 22 75 83z" />
    <glyph glyph-name="aogonek" unicode="&#x105;" horiz-adv-x="558" 
d="M453 -210c-51 0 -101 32 -101 93c0 40 22 79 60 114c-26 6 -47 20 -61 39c-8 9 -13 20 -17 33c-21 -49 -79 -79 -146 -79c-95 0 -160 54 -160 147c0 101 87 157 230 157c20 0 46 -2 63 -3v51c0 37 -19 59 -57 59c-39 0 -60 -25 -60 -68l-151 21c9 101 90 164 218 164
c144 0 209 -63 209 -170v-201c0 -26 14 -36 32 -36c11 0 20 4 28 11l6 -107c-63 -34 -99 -66 -99 -98c0 -17 9 -29 27 -29c14 0 28 3 40 13l26 -84c-23 -16 -51 -27 -87 -27zM321 180v30c-9 1 -22 2 -35 2c-66 0 -100 -21 -100 -62c0 -32 22 -53 60 -53c37 0 75 22 75 83z
" />
    <glyph glyph-name="aring" unicode="&#xe5;" horiz-adv-x="558" 
d="M277 555c-71 0 -121 53 -121 116c0 64 50 117 121 117s121 -53 121 -117c0 -63 -50 -116 -121 -116zM277 725c-30 0 -52 -24 -52 -54c0 -29 22 -53 52 -53s52 24 52 53c0 30 -22 54 -52 54zM480 348v-201c0 -26 14 -36 32 -36c11 0 20 4 28 11l6 -107
c-23 -16 -57 -25 -91 -25c-46 0 -82 17 -104 46c-8 9 -13 20 -17 33c-21 -49 -79 -79 -146 -79c-95 0 -160 54 -160 147c0 101 87 157 230 157c20 0 46 -2 63 -3v51c0 37 -19 59 -57 59c-39 0 -60 -25 -60 -68l-151 21c9 101 90 164 218 164c144 0 209 -63 209 -170z
M321 180v30c-9 1 -22 2 -35 2c-66 0 -100 -21 -100 -62c0 -32 22 -53 60 -53c37 0 75 22 75 83z" />
    <glyph glyph-name="atilde" unicode="&#xe3;" horiz-adv-x="558" 
d="M362 740h94c11 -108 -41 -173 -110 -173c-55 0 -82 58 -118 58c-24 0 -36 -26 -36 -58h-94c-11 107 41 172 110 172c55 0 82 -58 118 -58c24 0 36 26 36 59zM480 348v-201c0 -26 14 -36 32 -36c11 0 20 4 28 11l6 -107c-23 -16 -57 -25 -91 -25c-46 0 -82 17 -104 46
c-8 9 -13 20 -17 33c-21 -49 -79 -79 -146 -79c-95 0 -160 54 -160 147c0 101 87 157 230 157c20 0 46 -2 63 -3v51c0 37 -19 59 -57 59c-39 0 -60 -25 -60 -68l-151 21c9 101 90 164 218 164c144 0 209 -63 209 -170zM321 180v30c-9 1 -22 2 -35 2c-66 0 -100 -21 -100 -62
c0 -32 22 -53 60 -53c37 0 75 22 75 83z" />
    <glyph glyph-name="ae" unicode="&#xe6;" horiz-adv-x="809" 
d="M562 -12c-87 0 -154 31 -197 88c-28 -44 -88 -88 -174 -88c-97 0 -163 56 -163 146c0 104 89 159 232 162l59 1c2 15 4 28 8 42c-2 37 -24 62 -62 62c-39 0 -61 -25 -61 -68l-151 21c9 101 91 164 212 164c65 0 112 -19 143 -48c40 31 91 48 151 48
c148 0 221 -102 221 -227c0 -21 -4 -49 -10 -65l-307 -6c4 -70 42 -110 95 -110c42 0 71 20 84 65l133 -46c-31 -98 -122 -141 -213 -141zM556 402c-52 0 -85 -37 -91 -103l161 3c1 7 2 15 2 23c0 41 -25 77 -72 77zM246 97c33 0 70 24 79 69c-4 16 -6 33 -8 51l-31 -1
c-66 -1 -100 -25 -100 -66c0 -32 22 -53 60 -53z" />
    <glyph glyph-name="aeacute" unicode="&#x1fd;" horiz-adv-x="809" 
d="M467 561h-124l68 167h199zM562 -12c-87 0 -154 31 -197 88c-28 -44 -88 -88 -174 -88c-97 0 -163 56 -163 146c0 104 89 159 232 162l59 1c2 15 4 28 8 42c-2 37 -24 62 -62 62c-39 0 -61 -25 -61 -68l-151 21c9 101 91 164 212 164c65 0 112 -19 143 -48
c40 31 91 48 151 48c148 0 221 -102 221 -227c0 -21 -4 -49 -10 -65l-307 -6c4 -70 42 -110 95 -110c42 0 71 20 84 65l133 -46c-31 -98 -122 -141 -213 -141zM556 402c-52 0 -85 -37 -91 -103l161 3c1 7 2 15 2 23c0 41 -25 77 -72 77zM246 97c33 0 70 24 79 69
c-4 16 -6 33 -8 51l-31 -1c-66 -1 -100 -25 -100 -66c0 -32 22 -53 60 -53z" />
    <glyph glyph-name="cacute" unicode="&#x107;" horiz-adv-x="520" 
d="M336 561h-124l68 167h199zM30 253c0 165 99 265 249 265c126 0 206 -69 216 -172l-142 -31c-4 46 -25 82 -71 82c-61 0 -88 -58 -88 -144c0 -91 29 -143 88 -143c41 0 68 30 73 81l143 -44c-19 -99 -102 -159 -215 -159c-154 0 -253 100 -253 265z" />
    <glyph glyph-name="ccaron" unicode="&#x10d;" horiz-adv-x="520" 
d="M355 561h-145l-111 167h113l70 -82l71 82h113zM30 253c0 165 99 265 249 265c126 0 206 -69 216 -172l-142 -31c-4 46 -25 82 -71 82c-61 0 -88 -58 -88 -144c0 -91 29 -143 88 -143c41 0 68 30 73 81l143 -44c-19 -99 -102 -159 -215 -159c-154 0 -253 100 -253 265z
" />
    <glyph glyph-name="ccedilla" unicode="&#xe7;" horiz-adv-x="520" 
d="M251 -210c-45 0 -87 15 -112 38l40 67c18 -19 34 -27 56 -27c21 0 36 8 36 25c0 21 -23 32 -65 32l24 67c-123 21 -200 116 -200 261c0 165 99 265 249 265c126 0 206 -69 216 -172l-142 -31c-4 46 -25 82 -71 82c-61 0 -88 -58 -88 -144c0 -91 29 -143 88 -143
c41 0 68 30 73 81l143 -44c-19 -99 -102 -159 -215 -159l-8 -20c59 -3 107 -29 107 -82c0 -63 -61 -96 -131 -96z" />
    <glyph glyph-name="ccircumflex" unicode="&#x109;" horiz-adv-x="520" 
d="M210 728h145l111 -167h-113l-71 82l-70 -82h-113zM30 253c0 165 99 265 249 265c126 0 206 -69 216 -172l-142 -31c-4 46 -25 82 -71 82c-61 0 -88 -58 -88 -144c0 -91 29 -143 88 -143c41 0 68 30 73 81l143 -44c-19 -99 -102 -159 -215 -159c-154 0 -253 100 -253 265z
" />
    <glyph glyph-name="cdotaccent" unicode="&#x10b;" horiz-adv-x="520" 
d="M378 650c0 -56 -45 -88 -95 -88s-96 32 -96 88c0 57 46 89 96 89s95 -32 95 -89zM30 253c0 165 99 265 249 265c126 0 206 -69 216 -172l-142 -31c-4 46 -25 82 -71 82c-61 0 -88 -58 -88 -144c0 -91 29 -143 88 -143c41 0 68 30 73 81l143 -44
c-19 -99 -102 -159 -215 -159c-154 0 -253 100 -253 265z" />
    <glyph glyph-name="dcaron" unicode="&#x10f;" horiz-adv-x="752" 
d="M706 526h-103l24 196h169zM382 233v60c0 71 -43 105 -87 105c-60 0 -96 -50 -96 -150c0 -86 36 -132 93 -132c49 0 90 38 90 117zM405 0l-19 93c-21 -69 -80 -105 -153 -105c-113 0 -203 93 -203 254c0 177 86 276 213 276c71 0 121 -31 139 -77v281h166v-722h-143z" />
    <glyph glyph-name="dcroat" unicode="&#x111;" horiz-adv-x="615" 
d="M382 233v60c0 71 -43 105 -87 105c-60 0 -96 -50 -96 -150c0 -86 36 -132 93 -132c49 0 90 38 90 117zM386 93c-21 -69 -80 -105 -153 -105c-113 0 -203 93 -203 254c0 177 86 276 213 276c71 0 121 -31 139 -77v121h-118v93h118v67h166v-67h58v-93h-58v-562h-143z" />
    <glyph glyph-name="eacute" unicode="&#xe9;" horiz-adv-x="534" 
d="M334 561h-124l68 167h199zM283 110c41 0 70 20 83 65l134 -46c-31 -98 -122 -141 -220 -141c-152 0 -250 97 -250 260c0 165 96 270 254 270c148 0 220 -102 220 -227c0 -21 -4 -50 -9 -67h-307c1 -72 39 -114 95 -114zM190 302h160c2 7 2 15 2 23c0 41 -25 77 -72 77
c-51 0 -85 -38 -90 -100z" />
    <glyph glyph-name="ebreve" unicode="&#x115;" horiz-adv-x="534" 
d="M282 661c40 0 60 30 62 67h107c0 -98 -58 -171 -169 -171s-169 73 -169 171h107c2 -37 22 -67 62 -67zM283 110c41 0 70 20 83 65l134 -46c-31 -98 -122 -141 -220 -141c-152 0 -250 97 -250 260c0 165 96 270 254 270c148 0 220 -102 220 -227c0 -21 -4 -50 -9 -67h-307
c1 -72 39 -114 95 -114zM190 302h160c2 7 2 15 2 23c0 41 -25 77 -72 77c-51 0 -85 -38 -90 -100z" />
    <glyph glyph-name="ecaron" unicode="&#x11b;" horiz-adv-x="534" 
d="M355 561h-145l-111 167h113l70 -82l71 82h113zM283 110c41 0 70 20 83 65l134 -46c-31 -98 -122 -141 -220 -141c-152 0 -250 97 -250 260c0 165 96 270 254 270c148 0 220 -102 220 -227c0 -21 -4 -50 -9 -67h-307c1 -72 39 -114 95 -114zM190 302h160c2 7 2 15 2 23
c0 41 -25 77 -72 77c-51 0 -85 -38 -90 -100z" />
    <glyph glyph-name="ecircumflex" unicode="&#xea;" horiz-adv-x="534" 
d="M210 728h145l111 -167h-113l-71 82l-70 -82h-113zM283 110c41 0 70 20 83 65l134 -46c-31 -98 -122 -141 -220 -141c-152 0 -250 97 -250 260c0 165 96 270 254 270c148 0 220 -102 220 -227c0 -21 -4 -50 -9 -67h-307c1 -72 39 -114 95 -114zM190 302h160c2 7 2 15 2 23
c0 41 -25 77 -72 77c-51 0 -85 -38 -90 -100z" />
    <glyph glyph-name="edieresis" unicode="&#xeb;" horiz-adv-x="534" 
d="M260 644c0 -52 -38 -82 -85 -82c-48 0 -86 30 -86 82s38 83 86 83c47 0 85 -31 85 -83zM475 644c0 -52 -38 -82 -86 -82c-47 0 -84 30 -84 82s37 83 84 83c48 0 86 -31 86 -83zM283 110c41 0 70 20 83 65l134 -46c-31 -98 -122 -141 -220 -141c-152 0 -250 97 -250 260
c0 165 96 270 254 270c148 0 220 -102 220 -227c0 -21 -4 -50 -9 -67h-307c1 -72 39 -114 95 -114zM190 302h160c2 7 2 15 2 23c0 41 -25 77 -72 77c-51 0 -85 -38 -90 -100z" />
    <glyph glyph-name="edotaccent" unicode="&#x117;" horiz-adv-x="534" 
d="M378 650c0 -56 -45 -88 -95 -88s-96 32 -96 88c0 57 46 89 96 89s95 -32 95 -89zM283 110c41 0 70 20 83 65l134 -46c-31 -98 -122 -141 -220 -141c-152 0 -250 97 -250 260c0 165 96 270 254 270c148 0 220 -102 220 -227c0 -21 -4 -50 -9 -67h-307
c1 -72 39 -114 95 -114zM190 302h160c2 7 2 15 2 23c0 41 -25 77 -72 77c-51 0 -85 -38 -90 -100z" />
    <glyph glyph-name="egrave" unicode="&#xe8;" horiz-adv-x="534" 
d="M358 561h-124l-143 167h199zM283 110c41 0 70 20 83 65l134 -46c-31 -98 -122 -141 -220 -141c-152 0 -250 97 -250 260c0 165 96 270 254 270c148 0 220 -102 220 -227c0 -21 -4 -50 -9 -67h-307c1 -72 39 -114 95 -114zM190 302h160c2 7 2 15 2 23c0 41 -25 77 -72 77
c-51 0 -85 -38 -90 -100z" />
    <glyph glyph-name="emacron" unicode="&#x113;" horiz-adv-x="534" 
d="M449 584h-332v107h332v-107zM283 110c41 0 70 20 83 65l134 -46c-31 -98 -122 -141 -220 -141c-152 0 -250 97 -250 260c0 165 96 270 254 270c148 0 220 -102 220 -227c0 -21 -4 -50 -9 -67h-307c1 -72 39 -114 95 -114zM190 302h160c2 7 2 15 2 23c0 41 -25 77 -72 77
c-51 0 -85 -38 -90 -100z" />
    <glyph glyph-name="eogonek" unicode="&#x119;" horiz-adv-x="534" 
d="M361 -210c-51 0 -102 32 -102 93c0 37 15 72 41 106c-6 -1 -13 -1 -20 -1c-152 0 -250 97 -250 260c0 165 96 270 254 270c148 0 220 -102 220 -227c0 -21 -4 -50 -9 -67h-307c1 -72 39 -114 95 -114c41 0 70 20 83 65l134 -46c-15 -49 -55 -86 -90 -114
c-39 -33 -56 -65 -56 -94c0 -22 12 -33 29 -33c13 0 27 3 39 13l26 -84c-23 -16 -51 -27 -87 -27zM190 302h160c2 7 2 15 2 23c0 41 -25 77 -72 77c-51 0 -85 -38 -90 -100z" />
    <glyph glyph-name="eth" unicode="&#xf0;" horiz-adv-x="569" 
d="M285 -12c-152 0 -255 96 -255 255c0 156 108 252 233 252c52 0 92 -21 118 -47h4c-13 32 -37 73 -70 115l-161 -36v87l97 22c-28 27 -58 52 -91 74l140 24c27 -18 54 -42 80 -70l115 26v-87l-55 -12c57 -84 99 -190 99 -307c0 -195 -103 -296 -254 -296zM375 244
c0 86 -27 135 -89 135s-92 -52 -92 -135c0 -86 28 -135 91 -135c62 0 90 49 90 135z" />
    <glyph glyph-name="gbreve" unicode="&#x11f;" horiz-adv-x="563" 
d="M274 661c40 0 60 30 62 67h107c0 -98 -58 -171 -169 -171s-169 73 -169 171h107c2 -37 22 -67 62 -67zM202 348c0 -46 24 -75 68 -75c42 0 67 27 67 75c0 49 -25 75 -67 75c-44 0 -68 -27 -68 -75zM551 -22c0 -138 -150 -188 -298 -188c-119 0 -245 31 -245 126
c0 53 45 87 109 96c-42 12 -72 45 -72 94c0 51 40 88 92 100c-59 27 -96 74 -96 141c0 111 92 171 229 171c53 0 100 -11 138 -30c16 18 24 51 27 82l131 -43c-7 -52 -50 -84 -93 -94c17 -24 27 -53 27 -86c0 -113 -100 -167 -230 -167c-25 0 -49 2 -72 7
c-15 -7 -24 -17 -24 -32c0 -18 15 -25 35 -25h134c140 0 208 -53 208 -152zM141 -56c0 -38 45 -56 118 -56c90 0 148 19 148 60c0 27 -24 40 -65 40h-143c-35 0 -58 -16 -58 -44z" />
    <glyph glyph-name="gcircumflex" unicode="&#x11d;" horiz-adv-x="563" 
d="M201 755h145l111 -167h-113l-71 82l-70 -82h-113zM202 348c0 -46 24 -75 68 -75c42 0 67 27 67 75c0 49 -25 75 -67 75c-44 0 -68 -27 -68 -75zM551 -22c0 -138 -150 -188 -298 -188c-119 0 -245 31 -245 126c0 53 45 87 109 96c-42 12 -72 45 -72 94c0 51 40 88 92 100
c-59 27 -96 74 -96 141c0 111 92 171 229 171c53 0 100 -11 138 -30c16 18 24 51 27 82l131 -43c-7 -52 -50 -84 -93 -94c17 -24 27 -53 27 -86c0 -113 -100 -167 -230 -167c-25 0 -49 2 -72 7c-15 -7 -24 -17 -24 -32c0 -18 15 -25 35 -25h134c140 0 208 -53 208 -152z
M141 -56c0 -38 45 -56 118 -56c90 0 148 19 148 60c0 27 -24 40 -65 40h-143c-35 0 -58 -16 -58 -44z" />
    <glyph glyph-name="uni0123" unicode="&#x123;" horiz-adv-x="563" 
d="M182 650c0 68 56 122 159 122v-52c-44 0 -65 -15 -65 -35v-3c6 2 14 4 21 4c45 0 68 -25 68 -60c0 -43 -39 -69 -85 -69c-49 0 -98 32 -98 93zM202 348c0 -46 24 -75 68 -75c42 0 67 27 67 75c0 49 -25 75 -67 75c-44 0 -68 -27 -68 -75zM551 -22
c0 -138 -150 -188 -298 -188c-119 0 -245 31 -245 126c0 53 45 87 109 96c-42 12 -72 45 -72 94c0 51 40 88 92 100c-59 27 -96 74 -96 141c0 111 92 171 229 171c53 0 100 -11 138 -30c16 18 24 51 27 82l131 -43c-7 -52 -50 -84 -93 -94c17 -24 27 -53 27 -86
c0 -113 -100 -167 -230 -167c-25 0 -49 2 -72 7c-15 -7 -24 -17 -24 -32c0 -18 15 -25 35 -25h134c140 0 208 -53 208 -152zM141 -56c0 -38 45 -56 118 -56c90 0 148 19 148 60c0 27 -24 40 -65 40h-143c-35 0 -58 -16 -58 -44z" />
    <glyph glyph-name="gdotaccent" unicode="&#x121;" horiz-adv-x="563" 
d="M369 650c0 -56 -45 -88 -95 -88s-96 32 -96 88c0 57 46 89 96 89s95 -32 95 -89zM202 348c0 -46 24 -75 68 -75c42 0 67 27 67 75c0 49 -25 75 -67 75c-44 0 -68 -27 -68 -75zM551 -22c0 -138 -150 -188 -298 -188c-119 0 -245 31 -245 126c0 53 45 87 109 96
c-42 12 -72 45 -72 94c0 51 40 88 92 100c-59 27 -96 74 -96 141c0 111 92 171 229 171c53 0 100 -11 138 -30c16 18 24 51 27 82l131 -43c-7 -52 -50 -84 -93 -94c17 -24 27 -53 27 -86c0 -113 -100 -167 -230 -167c-25 0 -49 2 -72 7c-15 -7 -24 -17 -24 -32
c0 -18 15 -25 35 -25h134c140 0 208 -53 208 -152zM141 -56c0 -38 45 -56 118 -56c90 0 148 19 148 60c0 27 -24 40 -65 40h-143c-35 0 -58 -16 -58 -44z" />
    <glyph glyph-name="gbreve.1" horiz-adv-x="610" 
d="M304 661c40 0 60 30 62 67h107c0 -98 -58 -171 -169 -171s-169 73 -169 171h107c2 -37 22 -67 62 -67zM386 245v58c0 67 -44 99 -88 99c-60 0 -96 -47 -96 -141c0 -81 36 -126 94 -126c48 0 90 37 90 110zM551 41c0 -167 -122 -251 -284 -251c-115 0 -210 48 -238 129
l107 77c17 -49 59 -79 126 -79c75 0 126 38 126 131v61c-23 -67 -83 -96 -151 -96c-114 0 -205 88 -205 242c0 170 88 263 214 263c78 0 135 -39 156 -90l21 78h128v-465z" />
    <glyph glyph-name="gcircumflex.1" horiz-adv-x="610" 
d="M241 728h145l111 -167h-113l-71 82l-70 -82h-113zM386 245v58c0 67 -44 99 -88 99c-60 0 -96 -47 -96 -141c0 -81 36 -126 94 -126c48 0 90 37 90 110zM551 41c0 -167 -122 -251 -284 -251c-115 0 -210 48 -238 129l107 77c17 -49 59 -79 126 -79c75 0 126 38 126 131v61
c-23 -67 -83 -96 -151 -96c-114 0 -205 88 -205 242c0 170 88 263 214 263c78 0 135 -39 156 -90l21 78h128v-465z" />
    <glyph glyph-name="uni0123.1" horiz-adv-x="610" 
d="M213 650c0 68 56 122 159 122v-52c-44 0 -65 -15 -65 -35v-3c6 2 14 4 21 4c45 0 68 -25 68 -60c0 -43 -39 -69 -85 -69c-49 0 -98 32 -98 93zM386 245v58c0 67 -44 99 -88 99c-60 0 -96 -47 -96 -141c0 -81 36 -126 94 -126c48 0 90 37 90 110zM551 41
c0 -167 -122 -251 -284 -251c-115 0 -210 48 -238 129l107 77c17 -49 59 -79 126 -79c75 0 126 38 126 131v61c-23 -67 -83 -96 -151 -96c-114 0 -205 88 -205 242c0 170 88 263 214 263c78 0 135 -39 156 -90l21 78h128v-465z" />
    <glyph glyph-name="gdotaccent.1" horiz-adv-x="610" 
d="M405 650c0 -56 -45 -88 -95 -88s-96 32 -96 88c0 57 46 89 96 89s95 -32 95 -89zM386 245v58c0 67 -44 99 -88 99c-60 0 -96 -47 -96 -141c0 -81 36 -126 94 -126c48 0 90 37 90 110zM551 41c0 -167 -122 -251 -284 -251c-115 0 -210 48 -238 129l107 77
c17 -49 59 -79 126 -79c75 0 126 38 126 131v61c-23 -67 -83 -96 -151 -96c-114 0 -205 88 -205 242c0 170 88 263 214 263c78 0 135 -39 156 -90l21 78h128v-465z" />
    <glyph glyph-name="germandbls" unicode="&#xdf;" horiz-adv-x="636" 
d="M337 734c139 0 228 -78 228 -189c0 -80 -57 -136 -111 -149v-3c82 -15 152 -78 152 -186c0 -145 -104 -219 -221 -219c-48 0 -90 12 -120 32l39 125c19 -19 37 -30 63 -30c48 0 85 37 85 105c0 73 -48 107 -112 107h-39v122h32c52 0 83 36 83 81c0 48 -29 82 -86 82
c-75 0 -106 -60 -106 -144v-468h-165v466c0 157 109 268 278 268z" />
    <glyph glyph-name="hbar" unicode="&#x127;" horiz-adv-x="603" 
d="M233 274v-274h-165v562h-59v93h59v67h165v-67h118v-93h-118v-146c27 66 86 102 158 102c91 0 158 -56 158 -164v-354h-165v301c0 50 -18 80 -66 80c-46 0 -85 -30 -85 -107z" />
    <glyph glyph-name="hcircumflex" unicode="&#x125;" horiz-adv-x="595" 
d="M223 922h153l117 -168h-119l-75 81l-74 -81h-119zM224 722v-306c27 66 86 102 158 102c91 0 158 -56 158 -164v-354h-165v301c0 50 -18 80 -66 80c-46 0 -85 -30 -85 -107v-274h-165v722h165z" />
    <glyph glyph-name="dotlessi" unicode="&#x131;" horiz-adv-x="284" 
d="M59 506h165v-506h-165v506z" />
    <glyph glyph-name="iacute" unicode="&#xed;" horiz-adv-x="284" 
d="M195 561h-124l68 167h199zM59 506h165v-506h-165v506z" />
    <glyph glyph-name="ibreve" unicode="&#x12d;" horiz-adv-x="284" 
d="M142 661c40 0 54 32 56 67h107c0 -98 -52 -171 -163 -171c-112 0 -164 73 -164 171h107c2 -35 16 -67 57 -67zM59 506h165v-506h-165v506z" />
    <glyph glyph-name="icircumflex" unicode="&#xee;" horiz-adv-x="284" 
d="M70 728h144l106 -167h-113l-65 82l-65 -82h-113zM59 506h165v-506h-165v506z" />
    <glyph glyph-name="idieresis" unicode="&#xef;" horiz-adv-x="284" 
d="M120 644c0 -52 -38 -82 -85 -82c-48 0 -86 30 -86 82s38 83 86 83c47 0 85 -31 85 -83zM335 644c0 -52 -38 -82 -86 -82c-47 0 -84 30 -84 82s37 83 84 83c48 0 86 -31 86 -83zM59 506h165v-506h-165v506z" />
    <glyph glyph-name="i.dot" horiz-adv-x="284" 
d="M238 648c0 -56 -46 -88 -96 -88s-96 32 -96 88c0 57 46 89 96 89s96 -32 96 -89zM59 506h165v-506h-165v506z" />
    <glyph glyph-name="igrave" unicode="&#xec;" horiz-adv-x="284" 
d="M214 561h-124l-143 167h199zM59 506h165v-506h-165v506z" />
    <glyph glyph-name="imacron" unicode="&#x12b;" horiz-adv-x="284" 
d="M298 584h-311v107h311v-107zM59 506h165v-506h-165v506z" />
    <glyph glyph-name="iogonek" unicode="&#x12f;" horiz-adv-x="284" 
d="M238 648c0 -56 -46 -88 -96 -88s-96 32 -96 88c0 57 46 89 96 89s96 -32 96 -89zM146 -210c-51 0 -101 32 -101 93c0 41 23 81 55 117h-41v506h165v-506c-58 -18 -84 -56 -84 -83c0 -17 9 -29 28 -29c13 0 27 3 40 13l25 -84c-23 -16 -51 -27 -87 -27z" />
    <glyph glyph-name="itilde" unicode="&#x129;" horiz-adv-x="284" 
d="M222 740h90c10 -108 -40 -173 -105 -173c-53 0 -76 58 -110 58c-23 0 -35 -26 -35 -58h-91c-9 107 40 172 105 172c53 0 76 -58 111 -58c23 0 34 26 35 59zM59 506h165v-506h-165v506z" />
    <glyph glyph-name="uni0237" unicode="&#x237;" horiz-adv-x="284" 
d="M59 506h165v-497c0 -186 -133 -243 -280 -208l12 126c64 -22 103 -3 103 83v496z" />
    <glyph glyph-name="jcircumflex" unicode="&#x135;" horiz-adv-x="284" 
d="M69 728h144l106 -167h-113l-65 82l-64 -82h-114zM59 506h165v-497c0 -186 -133 -243 -280 -208l12 126c64 -22 103 -3 103 83v496z" />
    <glyph glyph-name="uni0137" unicode="&#x137;" horiz-adv-x="579" 
d="M399 272l173 -272h-185l-131 209h-32v-209h-165v722h165v-394h33l119 178h180zM398 -130c0 -68 -56 -122 -159 -122v52c44 0 65 15 65 35v3c-6 -2 -14 -4 -21 -4c-45 0 -68 25 -68 60c0 43 39 69 85 69c49 0 98 -32 98 -93z" />
    <glyph glyph-name="kgreenlandic" unicode="&#x138;" horiz-adv-x="579" 
d="M399 272l173 -272h-185l-131 209h-32v-209h-165v506h165v-178h33l119 178h180z" />
    <glyph glyph-name="lacute" unicode="&#x13a;" horiz-adv-x="314" 
d="M198 759h-124l65 168h205zM288 132l8 -117c-23 -14 -61 -25 -107 -25c-71 0 -139 34 -139 136v596h165v-560c0 -30 12 -43 35 -43c14 0 25 4 38 13z" />
    <glyph glyph-name="lcaron" unicode="&#x13e;" horiz-adv-x="423" 
d="M377 526h-103l24 196h169zM288 132l8 -117c-23 -14 -61 -25 -107 -25c-71 0 -139 34 -139 136v596h165v-560c0 -30 12 -43 35 -43c14 0 25 4 38 13z" />
    <glyph glyph-name="uni013C" unicode="&#x13c;" horiz-adv-x="314" 
d="M288 132l8 -117c-23 -14 -61 -25 -107 -25c-71 0 -139 34 -139 136v596h165v-560c0 -30 12 -43 35 -43c14 0 25 4 38 13zM265 -130c0 -68 -56 -122 -159 -122v52c44 0 65 15 65 35v3c-6 -2 -14 -4 -21 -4c-45 0 -68 25 -68 60c0 43 39 69 85 69c49 0 98 -32 98 -93z" />
    <glyph glyph-name="ldot" unicode="&#x140;" horiz-adv-x="487" 
d="M288 132l8 -117c-23 -14 -61 -25 -107 -25c-71 0 -139 34 -139 136v596h165v-560c0 -30 12 -43 35 -43c14 0 25 4 38 13zM471 361c0 -56 -45 -88 -95 -88s-96 32 -96 88c0 57 46 89 96 89s95 -32 95 -89z" />
    <glyph glyph-name="lslash" unicode="&#x142;" horiz-adv-x="347" 
d="M213 -10c-71 0 -139 34 -139 136v196l-59 -25v102l59 25v298h165v-238l81 34v-102l-81 -34v-220c0 -30 12 -43 35 -43c14 0 25 4 38 13l8 -117c-23 -14 -61 -25 -107 -25z" />
    <glyph glyph-name="nacute" unicode="&#x144;" horiz-adv-x="595" 
d="M366 561h-124l68 167h199zM200 506l20 -97c25 70 86 109 162 109c91 0 158 -56 158 -164v-354h-165v301c0 50 -18 80 -66 80c-46 0 -85 -30 -85 -107v-274h-165v506h141z" />
    <glyph glyph-name="ncaron" unicode="&#x148;" horiz-adv-x="595" 
d="M386 561h-145l-111 167h113l70 -82l71 82h113zM200 506l20 -97c25 70 86 109 162 109c91 0 158 -56 158 -164v-354h-165v301c0 50 -18 80 -66 80c-46 0 -85 -30 -85 -107v-274h-165v506h141z" />
    <glyph glyph-name="uni0146" unicode="&#x146;" horiz-adv-x="595" 
d="M200 506l20 -97c25 70 86 109 162 109c91 0 158 -56 158 -164v-354h-165v301c0 50 -18 80 -66 80c-46 0 -85 -30 -85 -107v-274h-165v506h141zM401 -130c0 -68 -56 -122 -159 -122v52c44 0 65 15 65 35v3c-6 -2 -14 -4 -21 -4c-45 0 -68 25 -68 60c0 43 39 69 85 69
c49 0 98 -32 98 -93z" />
    <glyph glyph-name="ntilde" unicode="&#xf1;" horiz-adv-x="595" 
d="M394 740h94c11 -108 -41 -173 -110 -173c-55 0 -82 58 -118 58c-24 0 -36 -26 -36 -58h-94c-11 107 41 172 110 172c55 0 82 -58 118 -58c24 0 36 26 36 59zM200 506l20 -97c25 70 86 109 162 109c91 0 158 -56 158 -164v-354h-165v301c0 50 -18 80 -66 80
c-46 0 -85 -30 -85 -107v-274h-165v506h141z" />
    <glyph glyph-name="eng" unicode="&#x14b;" horiz-adv-x="595" 
d="M540 9c0 -186 -134 -243 -281 -208l12 126c65 -22 104 -3 104 83v291c0 50 -18 80 -66 80c-46 0 -85 -30 -85 -107v-274h-165v506h141l20 -97c25 70 86 109 162 109c91 0 158 -56 158 -164v-345z" />
    <glyph glyph-name="oacute" unicode="&#xf3;" horiz-adv-x="569" 
d="M337 561h-124l68 167h199zM539 253c0 -169 -103 -265 -254 -265c-152 0 -255 96 -255 265c0 170 103 265 255 265c151 0 254 -95 254 -265zM375 253c0 93 -28 145 -90 145c-63 0 -91 -52 -91 -145s28 -144 91 -144c62 0 90 51 90 144z" />
    <glyph glyph-name="obreve" unicode="&#x14f;" horiz-adv-x="569" 
d="M285 661c40 0 60 30 62 67h107c0 -98 -58 -171 -169 -171s-169 73 -169 171h107c2 -37 22 -67 62 -67zM539 253c0 -169 -103 -265 -254 -265c-152 0 -255 96 -255 265c0 170 103 265 255 265c151 0 254 -95 254 -265zM375 253c0 93 -28 145 -90 145
c-63 0 -91 -52 -91 -145s28 -144 91 -144c62 0 90 51 90 144z" />
    <glyph glyph-name="ocircumflex" unicode="&#xf4;" horiz-adv-x="569" 
d="M212 728h145l111 -167h-113l-71 82l-70 -82h-113zM539 253c0 -169 -103 -265 -254 -265c-152 0 -255 96 -255 265c0 170 103 265 255 265c151 0 254 -95 254 -265zM375 253c0 93 -28 145 -90 145c-63 0 -91 -52 -91 -145s28 -144 91 -144c62 0 90 51 90 144z" />
    <glyph glyph-name="odieresis" unicode="&#xf6;" horiz-adv-x="569" 
d="M263 644c0 -52 -38 -82 -85 -82c-48 0 -86 30 -86 82s38 83 86 83c47 0 85 -31 85 -83zM478 644c0 -52 -38 -82 -86 -82c-47 0 -84 30 -84 82s37 83 84 83c48 0 86 -31 86 -83zM539 253c0 -169 -103 -265 -254 -265c-152 0 -255 96 -255 265c0 170 103 265 255 265
c151 0 254 -95 254 -265zM375 253c0 93 -28 145 -90 145c-63 0 -91 -52 -91 -145s28 -144 91 -144c62 0 90 51 90 144z" />
    <glyph glyph-name="ograve" unicode="&#xf2;" horiz-adv-x="569" 
d="M356 561h-124l-143 167h199zM539 253c0 -169 -103 -265 -254 -265c-152 0 -255 96 -255 265c0 170 103 265 255 265c151 0 254 -95 254 -265zM375 253c0 93 -28 145 -90 145c-63 0 -91 -52 -91 -145s28 -144 91 -144c62 0 90 51 90 144z" />
    <glyph glyph-name="ohungarumlaut" unicode="&#x151;" horiz-adv-x="569" 
d="M121 561l71 167h165l-125 -167h-111zM323 561l71 167h165l-124 -167h-112zM539 253c0 -169 -103 -265 -254 -265c-152 0 -255 96 -255 265c0 170 103 265 255 265c151 0 254 -95 254 -265zM375 253c0 93 -28 145 -90 145c-63 0 -91 -52 -91 -145s28 -144 91 -144
c62 0 90 51 90 144z" />
    <glyph glyph-name="omacron" unicode="&#x14d;" horiz-adv-x="569" 
d="M451 584h-332v107h332v-107zM539 253c0 -169 -103 -265 -254 -265c-152 0 -255 96 -255 265c0 170 103 265 255 265c151 0 254 -95 254 -265zM375 253c0 93 -28 145 -90 145c-63 0 -91 -52 -91 -145s28 -144 91 -144c62 0 90 51 90 144z" />
    <glyph glyph-name="oslash" unicode="&#xf8;" horiz-adv-x="569" 
d="M186 253c0 -22 1 -41 4 -59l158 190c-16 17 -36 25 -63 25c-70 0 -99 -56 -99 -156zM285 97c69 0 98 56 98 156c0 20 -1 38 -4 55l-156 -188c16 -15 36 -23 62 -23zM285 -12c-54 0 -102 12 -141 35l-52 -62l-57 46l53 64c-37 44 -58 106 -58 182c0 170 103 265 255 265
c55 0 104 -13 143 -37l48 58l57 -46l-50 -60c36 -44 56 -105 56 -180c0 -169 -103 -265 -254 -265z" />
    <glyph glyph-name="oslashacute" unicode="&#x1ff;" horiz-adv-x="569" 
d="M337 561h-124l68 167h199zM186 253c0 -22 1 -41 4 -59l158 190c-16 17 -36 25 -63 25c-70 0 -99 -56 -99 -156zM285 97c69 0 98 56 98 156c0 20 -1 38 -4 55l-156 -188c16 -15 36 -23 62 -23zM285 -12c-54 0 -102 12 -141 35l-52 -62l-57 46l53 64
c-37 44 -58 106 -58 182c0 170 103 265 255 265c55 0 104 -13 143 -37l48 58l57 -46l-50 -60c36 -44 56 -105 56 -180c0 -169 -103 -265 -254 -265z" />
    <glyph glyph-name="otilde" unicode="&#xf5;" horiz-adv-x="569" 
d="M370 740h94c11 -108 -41 -173 -110 -173c-55 0 -82 58 -118 58c-24 0 -36 -26 -36 -58h-94c-11 107 41 172 110 172c55 0 82 -58 118 -58c24 0 36 26 36 59zM539 253c0 -169 -103 -265 -254 -265c-152 0 -255 96 -255 265c0 170 103 265 255 265c151 0 254 -95 254 -265z
M375 253c0 93 -28 145 -90 145c-63 0 -91 -52 -91 -145s28 -144 91 -144c62 0 90 51 90 144z" />
    <glyph glyph-name="oe" unicode="&#x153;" horiz-adv-x="876" 
d="M841 129c-31 -98 -121 -141 -219 -141c-72 0 -131 31 -167 78c-38 -47 -99 -78 -170 -78c-152 0 -255 96 -255 265c0 170 103 265 255 265c71 0 133 -31 171 -78c39 45 98 78 169 78c149 0 221 -102 221 -227c0 -21 -5 -50 -10 -67h-308c3 -73 42 -114 97 -114
c41 0 70 20 83 65zM622 402c-52 0 -87 -38 -92 -100h162c1 7 2 15 2 23c0 41 -25 77 -72 77zM375 253c0 93 -28 145 -90 145c-63 0 -91 -52 -91 -145s28 -144 91 -144c62 0 90 51 90 144z" />
    <glyph glyph-name="racute" unicode="&#x155;" horiz-adv-x="420" 
d="M295 561h-124l68 167h199zM405 514l-8 -167c-16 7 -39 11 -63 11c-60 0 -110 -39 -110 -125v-233h-165v506h143l19 -115c20 86 88 140 184 123z" />
    <glyph glyph-name="rcaron" unicode="&#x159;" horiz-adv-x="420" 
d="M315 561h-145l-111 167h113l70 -82l71 82h113zM405 514l-8 -167c-16 7 -39 11 -63 11c-60 0 -110 -39 -110 -125v-233h-165v506h143l19 -115c20 86 88 140 184 123z" />
    <glyph glyph-name="uni0157" unicode="&#x157;" horiz-adv-x="420" 
d="M405 514l-8 -167c-16 7 -39 11 -63 11c-60 0 -110 -39 -110 -125v-233h-165v506h143l19 -115c20 86 88 140 184 123zM235 -130c0 -68 -56 -122 -159 -122v52c44 0 65 15 65 35v3c-6 -2 -14 -4 -21 -4c-45 0 -68 25 -68 60c0 43 39 69 85 69c49 0 98 -32 98 -93z" />
    <glyph glyph-name="sacute" unicode="&#x15b;" horiz-adv-x="492" 
d="M308 561h-124l68 167h199zM18 126l138 31c7 -37 41 -62 83 -62s69 16 69 48c0 88 -273 9 -273 205c0 111 96 170 214 170c120 0 195 -53 210 -147l-137 -16c-4 35 -29 58 -72 58c-38 0 -61 -18 -61 -48c0 -89 275 -6 275 -208c0 -110 -94 -169 -226 -169
c-110 0 -198 45 -220 138z" />
    <glyph glyph-name="scaron" unicode="&#x161;" horiz-adv-x="492" 
d="M328 561h-145l-111 167h113l70 -82l71 82h113zM18 126l138 31c7 -37 41 -62 83 -62s69 16 69 48c0 88 -273 9 -273 205c0 111 96 170 214 170c120 0 195 -53 210 -147l-137 -16c-4 35 -29 58 -72 58c-38 0 -61 -18 -61 -48c0 -89 275 -6 275 -208
c0 -110 -94 -169 -226 -169c-110 0 -198 45 -220 138z" />
    <glyph glyph-name="uni015F" unicode="&#x15f;" horiz-adv-x="492" 
d="M222 -210c-45 0 -87 15 -112 38l40 67c18 -19 34 -27 56 -27c21 0 36 8 36 25c0 21 -23 32 -65 32l24 65c-93 9 -164 54 -183 136l138 31c7 -37 41 -62 83 -62s69 16 69 48c0 88 -273 9 -273 205c0 111 96 170 214 170c120 0 195 -53 210 -147l-137 -16
c-4 35 -29 58 -72 58c-38 0 -61 -18 -61 -48c0 -89 275 -6 275 -208c0 -106 -87 -164 -210 -169l-8 -20c59 -3 107 -29 107 -82c0 -63 -61 -96 -131 -96z" />
    <glyph glyph-name="scircumflex" unicode="&#x15d;" horiz-adv-x="492" 
d="M183 728h145l111 -167h-113l-71 82l-70 -82h-113zM18 126l138 31c7 -37 41 -62 83 -62s69 16 69 48c0 88 -273 9 -273 205c0 111 96 170 214 170c120 0 195 -53 210 -147l-137 -16c-4 35 -29 58 -72 58c-38 0 -61 -18 -61 -48c0 -89 275 -6 275 -208
c0 -110 -94 -169 -226 -169c-110 0 -198 45 -220 138z" />
    <glyph glyph-name="uni0219" unicode="&#x219;" horiz-adv-x="492" 
d="M18 126l138 31c7 -37 41 -62 83 -62s69 16 69 48c0 88 -273 9 -273 205c0 111 96 170 214 170c120 0 195 -53 210 -147l-137 -16c-4 35 -29 58 -72 58c-38 0 -61 -18 -61 -48c0 -89 275 -6 275 -208c0 -110 -94 -169 -226 -169c-110 0 -198 45 -220 138zM338 -130
c0 -68 -56 -122 -159 -122v52c44 0 65 15 65 35v3c-6 -2 -14 -4 -21 -4c-45 0 -68 25 -68 60c0 43 39 69 85 69c49 0 98 -32 98 -93z" />
    <glyph glyph-name="tbar" unicode="&#x167;" horiz-adv-x="436" 
d="M409 30c-36 -27 -85 -42 -138 -42c-107 0 -181 52 -181 171v81h-64v98h64v71h-65v97h66v107l165 20v-127h131v-97h-132v-71h132v-98h-132v-59c0 -42 21 -61 57 -61c27 0 50 8 76 26z" />
    <glyph glyph-name="tcaron" unicode="&#x165;" horiz-adv-x="418" 
d="M395 564h-103l24 196h169zM378 146l21 -116c-36 -27 -85 -42 -138 -42c-107 0 -181 52 -181 171v226h-65v121h66v107l165 20v-127h131v-121h-132v-204c0 -42 21 -61 57 -61c27 0 50 8 76 26z" />
    <glyph glyph-name="tcommaaccent" unicode="&#x163;" horiz-adv-x="418" 
d="M213 -210c-45 0 -87 15 -112 38l40 67c18 -19 34 -27 56 -27c21 0 36 8 36 25c0 21 -23 32 -65 32l26 71c-70 19 -114 71 -114 163v226h-65v121h66v107l165 20v-127h131v-121h-132v-204c0 -42 21 -61 57 -61c27 0 50 8 76 26l21 -116c-36 -27 -85 -42 -138 -42h-16
l-8 -20c59 -3 107 -29 107 -82c0 -63 -61 -96 -131 -96z" />
    <glyph glyph-name="uni021B" unicode="&#x21b;" horiz-adv-x="418" 
d="M378 146l21 -116c-36 -27 -85 -42 -138 -42c-107 0 -181 52 -181 171v226h-65v121h66v107l165 20v-127h131v-121h-132v-204c0 -42 21 -61 57 -61c27 0 50 8 76 26zM333 -130c0 -68 -56 -122 -159 -122v52c44 0 65 15 65 35v3c-6 -2 -14 -4 -21 -4c-45 0 -68 25 -68 60
c0 43 39 69 85 69c49 0 98 -32 98 -93z" />
    <glyph glyph-name="thorn" unicode="&#xfe;" horiz-adv-x="607" 
d="M407 253c0 90 -36 136 -94 136c-48 0 -89 -41 -89 -118v-58c0 -72 40 -106 87 -106c61 0 96 52 96 146zM225 422c20 53 73 96 147 96c129 0 205 -106 205 -258c0 -168 -87 -272 -214 -272c-67 0 -117 31 -139 74v-260h-165v920h166v-300z" />
    <glyph glyph-name="uacute" unicode="&#xfa;" horiz-adv-x="589" 
d="M345 561h-124l68 167h199zM388 0l-20 92c-22 -68 -77 -104 -154 -104c-86 0 -159 54 -159 164v354h165v-308c0 -50 22 -79 65 -79c46 0 80 33 80 109v278h165v-506h-142z" />
    <glyph glyph-name="ubreve" unicode="&#x16d;" horiz-adv-x="589" 
d="M292 661c40 0 60 30 62 67h107c0 -98 -58 -171 -169 -171s-169 73 -169 171h107c2 -37 22 -67 62 -67zM388 0l-20 92c-22 -68 -77 -104 -154 -104c-86 0 -159 54 -159 164v354h165v-308c0 -50 22 -79 65 -79c46 0 80 33 80 109v278h165v-506h-142z" />
    <glyph glyph-name="ucircumflex" unicode="&#xfb;" horiz-adv-x="589" 
d="M220 728h145l111 -167h-113l-71 82l-70 -82h-113zM388 0l-20 92c-22 -68 -77 -104 -154 -104c-86 0 -159 54 -159 164v354h165v-308c0 -50 22 -79 65 -79c46 0 80 33 80 109v278h165v-506h-142z" />
    <glyph glyph-name="udieresis" unicode="&#xfc;" horiz-adv-x="589" 
d="M270 644c0 -52 -38 -82 -85 -82c-48 0 -86 30 -86 82s38 83 86 83c47 0 85 -31 85 -83zM485 644c0 -52 -38 -82 -86 -82c-47 0 -84 30 -84 82s37 83 84 83c48 0 86 -31 86 -83zM388 0l-20 92c-22 -68 -77 -104 -154 -104c-86 0 -159 54 -159 164v354h165v-308
c0 -50 22 -79 65 -79c46 0 80 33 80 109v278h165v-506h-142z" />
    <glyph glyph-name="ugrave" unicode="&#xf9;" horiz-adv-x="589" 
d="M364 561h-124l-143 167h199zM388 0l-20 92c-22 -68 -77 -104 -154 -104c-86 0 -159 54 -159 164v354h165v-308c0 -50 22 -79 65 -79c46 0 80 33 80 109v278h165v-506h-142z" />
    <glyph glyph-name="uhungarumlaut" unicode="&#x171;" horiz-adv-x="589" 
d="M128 561l71 167h165l-125 -167h-111zM330 561l71 167h165l-124 -167h-112zM388 0l-20 92c-22 -68 -77 -104 -154 -104c-86 0 -159 54 -159 164v354h165v-308c0 -50 22 -79 65 -79c46 0 80 33 80 109v278h165v-506h-142z" />
    <glyph glyph-name="umacron" unicode="&#x16b;" horiz-adv-x="589" 
d="M458 584h-332v107h332v-107zM388 0l-20 92c-22 -68 -77 -104 -154 -104c-86 0 -159 54 -159 164v354h165v-308c0 -50 22 -79 65 -79c46 0 80 33 80 109v278h165v-506h-142z" />
    <glyph glyph-name="uogonek" unicode="&#x173;" horiz-adv-x="589" 
d="M519 -183c-24 -16 -52 -27 -88 -27c-51 0 -101 32 -101 93c0 43 24 82 58 119l-20 90c-22 -68 -77 -104 -154 -104c-86 0 -159 54 -159 164v354h165v-308c0 -50 22 -79 65 -79c46 0 80 33 80 109v278h165v-506c-83 -16 -105 -54 -105 -83c0 -17 9 -29 28 -29
c13 0 27 3 40 13z" />
    <glyph glyph-name="uring" unicode="&#x16f;" horiz-adv-x="589" 
d="M292 555c-71 0 -121 53 -121 116c0 64 50 117 121 117s121 -53 121 -117c0 -63 -50 -116 -121 -116zM292 725c-30 0 -52 -24 -52 -54c0 -29 22 -53 52 -53s52 24 52 53c0 30 -22 54 -52 54zM388 0l-20 92c-22 -68 -77 -104 -154 -104c-86 0 -159 54 -159 164v354h165
v-308c0 -50 22 -79 65 -79c46 0 80 33 80 109v278h165v-506h-142z" />
    <glyph glyph-name="utilde" unicode="&#x169;" horiz-adv-x="589" 
d="M377 740h94c11 -108 -41 -173 -110 -173c-55 0 -82 58 -118 58c-24 0 -36 -26 -36 -58h-94c-11 107 41 172 110 172c55 0 82 -58 118 -58c24 0 36 26 36 59zM388 0l-20 92c-22 -68 -77 -104 -154 -104c-86 0 -159 54 -159 164v354h165v-308c0 -50 22 -79 65 -79
c46 0 80 33 80 109v278h165v-506h-142z" />
    <glyph glyph-name="wacute" unicode="&#x1e83;" horiz-adv-x="764" 
d="M435 561h-124l68 167h199zM322 506h125l75 -327h2l70 327h158l-137 -506h-159l-73 311h-2l-73 -311h-159l-137 506h164l70 -327h2z" />
    <glyph glyph-name="wcircumflex" unicode="&#x175;" horiz-adv-x="764" 
d="M309 728h145l111 -167h-113l-71 82l-70 -82h-113zM322 506h125l75 -327h2l70 327h158l-137 -506h-159l-73 311h-2l-73 -311h-159l-137 506h164l70 -327h2z" />
    <glyph glyph-name="wgrave" unicode="&#x1e81;" horiz-adv-x="764" 
d="M454 561h-124l-143 167h199zM322 506h125l75 -327h2l70 327h158l-137 -506h-159l-73 311h-2l-73 -311h-159l-137 506h164l70 -327h2z" />
    <glyph glyph-name="wdieresis" unicode="&#x1e85;" horiz-adv-x="764" 
d="M360 644c0 -52 -38 -82 -85 -82c-48 0 -86 30 -86 82s38 83 86 83c47 0 85 -31 85 -83zM575 644c0 -52 -38 -82 -86 -82c-47 0 -84 30 -84 82s37 83 84 83c48 0 86 -31 86 -83zM322 506h125l75 -327h2l70 327h158l-137 -506h-159l-73 311h-2l-73 -311h-159l-137 506h164
l70 -327h2z" />
    <glyph glyph-name="yacute" unicode="&#xfd;" horiz-adv-x="557" 
d="M331 561h-124l68 167h199zM284 163l104 343h158l-182 -519c-49 -140 -115 -197 -225 -197c-48 0 -88 14 -112 29l31 119c18 -14 37 -23 62 -23c35 0 54 16 73 71l-181 520h171l99 -343h2z" />
    <glyph glyph-name="ycircumflex" unicode="&#x177;" horiz-adv-x="557" 
d="M206 728h145l111 -167h-113l-71 82l-70 -82h-113zM284 163l104 343h158l-182 -519c-49 -140 -115 -197 -225 -197c-48 0 -88 14 -112 29l31 119c18 -14 37 -23 62 -23c35 0 54 16 73 71l-181 520h171l99 -343h2z" />
    <glyph glyph-name="ydieresis" unicode="&#xff;" horiz-adv-x="557" 
d="M257 644c0 -52 -38 -82 -85 -82c-48 0 -86 30 -86 82s38 83 86 83c47 0 85 -31 85 -83zM472 644c0 -52 -38 -82 -86 -82c-47 0 -84 30 -84 82s37 83 84 83c48 0 86 -31 86 -83zM284 163l104 343h158l-182 -519c-49 -140 -115 -197 -225 -197c-48 0 -88 14 -112 29l31 119
c18 -14 37 -23 62 -23c35 0 54 16 73 71l-181 520h171l99 -343h2z" />
    <glyph glyph-name="ygrave" unicode="&#x1ef3;" horiz-adv-x="557" 
d="M351 561h-124l-143 167h199zM284 163l104 343h158l-182 -519c-49 -140 -115 -197 -225 -197c-48 0 -88 14 -112 29l31 119c18 -14 37 -23 62 -23c35 0 54 16 73 71l-181 520h171l99 -343h2z" />
    <glyph glyph-name="zacute" unicode="&#x17a;" horiz-adv-x="501" 
d="M304 561h-124l68 167h199zM456 402l-222 -278h231v-124h-428v103l218 281h-214v122h415v-104z" />
    <glyph glyph-name="zcaron" unicode="&#x17e;" horiz-adv-x="501" 
d="M323 561h-145l-111 167h113l70 -82l71 82h113zM456 402l-222 -278h231v-124h-428v103l218 281h-214v122h415v-104z" />
    <glyph glyph-name="zdotaccent" unicode="&#x17c;" horiz-adv-x="501" 
d="M346 650c0 -56 -45 -88 -95 -88s-96 32 -96 88c0 57 46 89 96 89s95 -32 95 -89zM456 402l-222 -278h231v-124h-428v103l218 281h-214v122h415v-104z" />
    <glyph glyph-name="ordmasculine" unicode="&#xba;" horiz-adv-x="437" 
d="M403 486c0 -122 -74 -191 -185 -191c-109 0 -184 69 -184 191s75 190 184 190c111 0 185 -68 185 -190zM280 486c0 65 -18 101 -62 101c-42 0 -61 -36 -61 -101s19 -101 61 -101c44 0 62 36 62 101zM58 169v78h321v-78h-321z" />
    <glyph glyph-name="ordfeminine" unicode="&#xaa;" horiz-adv-x="427" 
d="M243 432v22c-7 0 -16 2 -25 2c-45 0 -67 -15 -67 -44c0 -21 14 -36 40 -36c25 0 52 15 52 56zM362 553v-140c0 -18 10 -26 23 -26c8 0 14 3 20 7l4 -79c-17 -12 -41 -18 -66 -18c-44 0 -78 20 -91 56c-15 -35 -56 -57 -104 -57c-70 0 -116 39 -116 106
c0 73 63 113 164 113c14 0 34 -2 47 -3v37c0 25 -14 40 -39 40c-26 0 -40 -17 -41 -48l-113 16c7 73 65 119 159 119c106 0 153 -46 153 -123zM61 169v78h322v-78h-322z" />
    <glyph glyph-name="a.ord" horiz-adv-x="427" 
d="M243 432v22c-7 0 -16 2 -25 2c-45 0 -67 -15 -67 -44c0 -21 14 -36 40 -36c25 0 52 15 52 56zM362 553v-140c0 -18 10 -26 23 -26c8 0 14 3 20 7l4 -79c-17 -12 -41 -18 -66 -18c-44 0 -78 20 -91 56c-15 -35 -56 -57 -104 -57c-70 0 -116 39 -116 106
c0 73 63 113 164 113c14 0 34 -2 47 -3v37c0 25 -14 40 -39 40c-26 0 -40 -17 -41 -48l-113 16c7 73 65 119 159 119c106 0 153 -46 153 -123z" />
    <glyph glyph-name="b.ord" horiz-adv-x="469" 
d="M183 823v-219c14 44 55 72 106 72c92 0 147 -76 147 -184c0 -123 -63 -197 -155 -197c-50 0 -90 26 -105 69l-16 -60h-101v519h124zM183 499v-35c0 -54 27 -78 59 -78c43 0 66 36 66 102c0 62 -24 94 -64 94c-33 0 -61 -28 -61 -83z" />
    <glyph glyph-name="c.ord" horiz-adv-x="401" 
d="M34 485c0 119 72 191 180 191c93 0 150 -49 157 -124l-106 -24c-2 33 -16 58 -48 58c-42 0 -61 -40 -61 -101c0 -63 21 -99 61 -99c27 0 47 21 49 57l108 -34c-14 -71 -75 -114 -157 -114c-111 0 -183 72 -183 190z" />
    <glyph glyph-name="d.ord" horiz-adv-x="470" 
d="M287 472v41c0 50 -29 73 -60 73c-42 0 -67 -35 -67 -103c0 -60 26 -92 65 -92c34 0 62 27 62 81zM303 304l-14 66c-14 -49 -57 -75 -109 -75c-82 0 -146 68 -146 183c0 128 62 198 153 198c50 0 86 -21 100 -55v202h124v-519h-108z" />
    <glyph glyph-name="e.ord" horiz-adv-x="412" 
d="M217 386c29 0 49 14 59 45l99 -34c-23 -71 -89 -102 -159 -102c-111 0 -182 70 -182 187c0 118 69 194 184 194c108 0 160 -73 160 -164c0 -14 -3 -36 -7 -48h-219c1 -49 28 -78 65 -78zM153 521h110c1 5 1 11 1 16c0 28 -16 53 -48 53c-36 0 -60 -27 -63 -69z" />
    <glyph glyph-name="f.ord" horiz-adv-x="280" 
d="M69 577h-46v91h46v19c0 88 56 144 146 144c38 0 67 -10 92 -26l-30 -81c-13 11 -24 15 -41 15c-29 0 -43 -19 -43 -53v-18h78v-91h-78v-273h-124v273z" />
    <glyph glyph-name="g.ord" horiz-adv-x="420" 
d="M156 554c0 -31 17 -52 46 -52c28 0 46 19 46 52c0 34 -18 52 -46 52c-29 0 -46 -19 -46 -52zM403 288c0 -101 -107 -135 -213 -135c-85 0 -175 21 -175 90c0 39 31 61 77 68c-30 8 -52 32 -52 68c0 39 31 67 66 73c-42 20 -68 54 -68 101c0 80 66 123 164 123
c37 0 71 -7 97 -21c12 14 17 36 19 60l96 -32c-4 -40 -39 -63 -66 -67c13 -18 20 -39 20 -63c0 -81 -73 -120 -166 -120c-18 0 -35 2 -50 5c-10 -4 -16 -11 -16 -21c0 -13 10 -17 24 -17h105c90 0 138 -40 138 -112zM111 264c0 -26 31 -38 82 -38c61 0 100 13 100 40
c0 19 -16 27 -44 27h-98c-23 0 -40 -10 -40 -29z" />
    <glyph glyph-name="g.1ord" horiz-adv-x="470" 
d="M287 476v40c0 49 -29 73 -60 73c-42 0 -67 -35 -67 -103c0 -59 26 -90 65 -90c34 0 62 27 62 80zM288 330v43c-16 -49 -59 -70 -108 -70c-82 0 -146 66 -146 179c0 125 63 194 153 194c54 0 92 -27 107 -65l16 57h101v-344c0 -121 -92 -182 -206 -182
c-85 0 -152 35 -172 95l80 55c12 -37 43 -60 86 -60c55 0 89 28 89 98z" />
    <glyph glyph-name="h.ord" horiz-adv-x="466" 
d="M183 823v-220c19 47 61 73 113 73c66 0 114 -40 114 -118v-254h-124v215c0 33 -12 55 -45 55c-32 0 -58 -21 -58 -74v-196h-124v519h124z" />
    <glyph glyph-name="i.ord" horiz-adv-x="237" 
d="M190 770c0 -43 -34 -66 -72 -66c-36 0 -71 23 -71 66c0 41 35 65 71 65c38 0 72 -24 72 -65zM57 668h124v-364h-124v364z" />
    <glyph glyph-name="j.ord" horiz-adv-x="222" 
d="M174 770c0 -43 -33 -66 -71 -66c-37 0 -71 23 -71 66c0 41 34 65 71 65c38 0 71 -24 71 -65zM41 668h124v-356c0 -136 -99 -176 -205 -151l8 94c46 -15 73 -2 73 57v356z" />
    <glyph glyph-name="k.ord" horiz-adv-x="452" 
d="M313 499l120 -195h-138l-90 149h-22v-149h-124v519h124v-282h23l82 127h134z" />
    <glyph glyph-name="l.ord" horiz-adv-x="256" 
d="M226 402l6 -87c-17 -10 -45 -18 -79 -18c-51 0 -102 24 -102 99v427h124v-399c0 -22 9 -30 24 -30c10 0 18 2 27 8z" />
    <glyph glyph-name="m.ord" horiz-adv-x="681" 
d="M399 599c18 49 62 77 114 77c65 0 112 -39 112 -116v-256h-123v215c0 34 -11 55 -44 55c-29 0 -54 -21 -54 -74v-196h-124v215c0 34 -11 55 -44 55c-29 0 -53 -21 -53 -74v-196h-124v364h107l14 -70c16 51 60 78 111 78c52 0 94 -26 108 -77z" />
    <glyph glyph-name="n.ord" horiz-adv-x="466" 
d="M166 668l14 -70c18 51 62 78 116 78c66 0 114 -40 114 -118v-254h-124v215c0 33 -12 55 -45 55c-32 0 -58 -21 -58 -74v-196h-124v364h107z" />
    <glyph glyph-name="o.ord" horiz-adv-x="437" 
d="M403 486c0 -122 -74 -191 -185 -191c-109 0 -184 69 -184 191s75 190 184 190c111 0 185 -68 185 -190zM280 486c0 65 -18 101 -62 101c-42 0 -61 -36 -61 -101s19 -101 61 -101c44 0 62 36 62 101z" />
    <glyph glyph-name="p.ord" horiz-adv-x="469" 
d="M183 498v-41c0 -49 27 -73 59 -73c43 0 66 36 66 101c0 63 -24 95 -64 95c-33 0 -61 -29 -61 -82zM166 668l14 -67c13 43 55 75 109 75c92 0 147 -76 147 -184c0 -123 -63 -197 -154 -197c-48 0 -84 22 -99 53v-186h-124v506h107z" />
    <glyph glyph-name="q.ord" horiz-adv-x="470" 
d="M288 162v205c-16 -51 -59 -72 -108 -72c-82 0 -146 68 -146 183c0 128 63 198 153 198c54 0 92 -26 107 -65l16 57h101v-506h-123zM287 472v41c0 49 -29 73 -60 73c-42 0 -67 -35 -67 -104c0 -60 26 -91 65 -91c34 0 62 27 62 81z" />
    <glyph glyph-name="r.ord" horiz-adv-x="333" 
d="M313 673l-6 -125c-12 5 -29 8 -47 8c-42 0 -77 -25 -77 -87v-165h-124v364h108l13 -82c15 61 63 100 133 87z" />
    <glyph glyph-name="s.ord" horiz-adv-x="380" 
d="M24 395l103 22c4 -25 28 -42 57 -42c28 0 46 11 46 32c0 59 -195 5 -195 146c0 80 70 123 157 123s142 -38 152 -105l-100 -13c-3 25 -22 40 -51 40c-26 0 -42 -12 -42 -32c0 -61 196 -4 196 -148c0 -80 -67 -123 -164 -123c-79 0 -143 32 -159 100z" />
    <glyph glyph-name="t.ord" horiz-adv-x="324" 
d="M285 413l15 -87c-26 -21 -62 -31 -101 -31c-78 0 -132 38 -132 125v157h-46v91h47v77l123 14v-91h94v-91h-94v-141c0 -29 14 -41 39 -41c19 0 36 5 55 18z" />
    <glyph glyph-name="u.ord" horiz-adv-x="462" 
d="M296 304l-15 66c-16 -49 -56 -75 -111 -75c-62 0 -115 39 -115 118v255h124v-220c0 -35 15 -55 45 -55c31 0 54 23 54 75v200h124v-364h-106z" />
    <glyph glyph-name="v.ord" horiz-adv-x="425" 
d="M214 439h1l74 229h118l-134 -364h-121l-134 364h129z" />
    <glyph glyph-name="w.ord" horiz-adv-x="574" 
d="M243 668h92l52 -229h1l48 229h119l-98 -364h-119l-50 216h-2l-50 -216h-119l-99 364h123l49 -229h1z" />
    <glyph glyph-name="x.ord" horiz-adv-x="426" 
d="M275 304l-64 102h-1l-64 -102h-127l122 186l-115 178h132l57 -98h1l57 98h126l-115 -177l123 -187h-132z" />
    <glyph glyph-name="y.ord" horiz-adv-x="425" 
d="M217 426l71 242h119l-130 -373c-35 -100 -84 -142 -165 -142c-35 0 -65 10 -83 22l23 88c13 -10 28 -17 46 -17c24 0 37 11 50 48l-130 374h128l69 -242h2z" />
    <glyph glyph-name="z.ord" horiz-adv-x="390" 
d="M344 589l-157 -193h163v-92h-310v77l153 196h-151v91h302v-79z" />
    <glyph glyph-name="ampersand" unicode="&#x26;" horiz-adv-x="706" 
d="M244 507c0 -35 24 -58 58 -92c56 25 77 52 77 93c0 35 -27 60 -70 60c-41 0 -65 -28 -65 -61zM288 108c33 0 65 10 94 27l-148 152c-45 -23 -60 -51 -60 -90c0 -55 48 -89 114 -89zM514 0l-46 48c-57 -37 -123 -60 -195 -60c-148 0 -249 76 -249 195c0 75 42 141 134 182
c-34 37 -61 77 -61 133c0 100 81 182 209 182c119 0 209 -65 209 -167c0 -77 -40 -136 -139 -176l101 -104c28 46 47 100 53 152l134 -38c-12 -74 -46 -148 -97 -209l132 -138h-185z" />
    <glyph glyph-name="grave" unicode="`" horiz-adv-x="600" 
d="M418 561h-124l-143 167h199z" />
    <glyph glyph-name="acute" unicode="&#xb4;" horiz-adv-x="600" 
d="M295 561h-124l68 167h199z" />
    <glyph glyph-name="circumflex" unicode="&#x2c6;" horiz-adv-x="600" 
d="M228 728h145l111 -167h-113l-71 82l-70 -82h-113z" />
    <glyph glyph-name="tilde" unicode="&#x2dc;" horiz-adv-x="600" 
d="M385 740h94c11 -108 -41 -173 -110 -173c-55 0 -82 58 -118 58c-24 0 -36 -26 -36 -58h-94c-11 107 41 172 110 172c55 0 82 -58 118 -58c24 0 36 26 36 59z" />
    <glyph glyph-name="macron" unicode="&#xaf;" horiz-adv-x="600" 
d="M466 584h-332v107h332v-107z" />
    <glyph glyph-name="breve" unicode="&#x2d8;" horiz-adv-x="600" 
d="M300 661c40 0 60 30 62 67h107c0 -98 -58 -171 -169 -171s-169 73 -169 171h107c2 -37 22 -67 62 -67z" />
    <glyph glyph-name="dotaccent" unicode="&#x2d9;" horiz-adv-x="600" 
d="M388 650c0 -56 -45 -88 -95 -88s-96 32 -96 88c0 57 46 89 96 89s95 -32 95 -89z" />
    <glyph glyph-name="dieresis" unicode="&#xa8;" horiz-adv-x="600" 
d="M278 644c0 -52 -38 -82 -85 -82c-48 0 -86 30 -86 82s38 83 86 83c47 0 85 -31 85 -83zM493 644c0 -52 -38 -82 -86 -82c-47 0 -84 30 -84 82s37 83 84 83c48 0 86 -31 86 -83z" />
    <glyph glyph-name="ring" unicode="&#x2da;" horiz-adv-x="600" 
d="M300 555c-71 0 -121 53 -121 116c0 64 50 117 121 117s121 -53 121 -117c0 -63 -50 -116 -121 -116zM300 725c-30 0 -52 -24 -52 -54c0 -29 22 -53 52 -53s52 24 52 53c0 30 -22 54 -52 54z" />
    <glyph glyph-name="hungarumlaut" unicode="&#x2dd;" horiz-adv-x="600" 
d="M85 561l71 167h165l-125 -167h-111zM287 561l71 167h165l-124 -167h-112z" />
    <glyph glyph-name="caron" unicode="&#x2c7;" horiz-adv-x="600" 
d="M373 561h-145l-111 167h113l70 -82l71 82h113z" />
    <glyph glyph-name="caron.Slovak" horiz-adv-x="553" 
d="M289 526h-103l24 196h169z" />
    <glyph glyph-name="commaturn" horiz-adv-x="553" 
d="M200 650c0 68 56 122 159 122v-52c-44 0 -65 -15 -65 -35v-3c6 2 14 4 21 4c45 0 68 -25 68 -60c0 -43 -39 -69 -85 -69c-49 0 -98 32 -98 93z" />
    <glyph glyph-name="uni00200326" horiz-adv-x="553" 
d="M384 -130c0 -68 -56 -122 -159 -122v52c44 0 65 15 65 35v3c-6 -2 -14 -4 -21 -4c-45 0 -68 25 -68 60c0 43 39 69 85 69c49 0 98 -32 98 -93z" />
    <glyph glyph-name="cedilla" unicode="&#xb8;" horiz-adv-x="600" 
d="M421 -114c0 -63 -61 -96 -131 -96c-45 0 -87 15 -112 38l40 67c18 -19 34 -27 56 -27c21 0 36 8 36 25c0 21 -23 32 -65 32l32 88h54l-17 -45c59 -3 107 -29 107 -82z" />
    <glyph glyph-name="ogonek" unicode="&#x2db;" horiz-adv-x="600" 
d="M199 -117c0 69 62 130 124 171l34 -46c-43 -38 -63 -66 -63 -91c0 -17 9 -29 27 -29c14 0 28 3 40 13l26 -84c-23 -16 -51 -27 -87 -27c-51 0 -101 32 -101 93z" />
    <glyph glyph-name="period" unicode="." horiz-adv-x="282" 
d="M237 87c0 -54 -40 -96 -96 -96s-96 42 -96 96s40 97 96 97s96 -43 96 -97z" />
    <glyph glyph-name="comma" unicode="," horiz-adv-x="282" 
d="M241 59c0 -114 -74 -204 -198 -204v70c65 2 104 40 104 86c0 5 0 8 -2 11c-5 -3 -14 -5 -21 -5c-40 0 -79 27 -79 80s41 87 89 87c59 0 107 -49 107 -125z" />
    <glyph glyph-name="colon" unicode=":" horiz-adv-x="282" 
d="M237 401c0 -54 -40 -96 -96 -96s-96 42 -96 96s40 97 96 97s96 -43 96 -97zM237 87c0 -54 -40 -96 -96 -96s-96 42 -96 96s40 97 96 97s96 -43 96 -97z" />
    <glyph glyph-name="semicolon" unicode=";" horiz-adv-x="282" 
d="M237 401c0 -54 -40 -96 -96 -96s-96 42 -96 96s40 97 96 97s96 -43 96 -97zM241 59c0 -114 -74 -204 -198 -204v70c65 2 104 40 104 86c0 5 0 8 -2 11c-5 -3 -14 -5 -21 -5c-40 0 -79 27 -79 80s41 87 89 87c59 0 107 -49 107 -125z" />
    <glyph glyph-name="ellipsis" unicode="&#x2026;" horiz-adv-x="803" 
d="M758 87c0 -54 -40 -96 -96 -96s-96 42 -96 96s40 97 96 97s96 -43 96 -97zM497 87c0 -54 -40 -96 -96 -96s-96 42 -96 96s40 97 96 97s96 -43 96 -97zM237 87c0 -54 -40 -96 -96 -96s-96 42 -96 96s40 97 96 97s96 -43 96 -97z" />
    <glyph glyph-name="exclam" unicode="!" horiz-adv-x="279" 
d="M199 214h-119l-44 454h207zM238 84c0 -52 -39 -93 -98 -93s-98 41 -98 93s39 93 98 93s98 -41 98 -93z" />
    <glyph glyph-name="exclamdown" unicode="&#xa1;" horiz-adv-x="279" 
d="M140 677c59 0 98 -41 98 -93s-39 -93 -98 -93s-98 41 -98 93s39 93 98 93zM80 454h119l44 -454h-207z" />
    <glyph glyph-name="question" unicode="?" horiz-adv-x="524" 
d="M174 434l-160 38c16 115 110 208 264 208c144 0 232 -84 232 -193c0 -76 -42 -115 -82 -151c-47 -43 -73 -73 -74 -116h-171c0 69 29 107 70 144c38 34 81 56 81 102c0 37 -23 67 -71 67c-49 0 -83 -38 -89 -99zM366 84c0 -52 -38 -93 -97 -93c-60 0 -98 41 -98 93
s38 93 98 93c59 0 97 -41 97 -93z" />
    <glyph glyph-name="questiondown" unicode="&#xbf;" horiz-adv-x="524" 
d="M158 584c0 52 38 93 97 93c60 0 98 -41 98 -93s-38 -93 -98 -93c-59 0 -97 41 -97 93zM350 234l160 -38c-16 -115 -110 -208 -264 -208c-144 0 -232 84 -232 193c0 76 42 115 82 151c47 43 73 73 74 116h171c0 -69 -29 -107 -70 -144c-38 -34 -81 -56 -81 -102
c0 -37 23 -67 71 -67c49 0 83 38 89 99z" />
    <glyph glyph-name="quoteleft" unicode="&#x2018;" horiz-adv-x="279" 
d="M41 551c0 98 73 178 194 178v-64c-58 -3 -98 -29 -98 -69c0 -4 2 -9 5 -13c6 4 16 7 23 7c39 0 75 -28 75 -79c0 -56 -44 -86 -90 -86c-65 0 -109 55 -109 126z" />
    <glyph glyph-name="quoteright" unicode="&#x2019;" horiz-adv-x="279" 
d="M238 607c0 -98 -73 -178 -194 -178v64c58 3 98 29 98 69c0 4 -2 9 -5 13c-6 -4 -16 -7 -23 -7c-39 0 -75 28 -75 79c0 56 44 86 90 86c65 0 109 -55 109 -126z" />
    <glyph glyph-name="quotedblleft" unicode="&#x201c;" horiz-adv-x="519" 
d="M281 551c0 98 73 178 194 178v-64c-58 -3 -98 -29 -98 -69c0 -4 2 -9 5 -13c6 4 16 7 23 7c39 0 75 -28 75 -79c0 -56 -44 -86 -90 -86c-65 0 -109 55 -109 126zM41 551c0 98 73 178 194 178v-64c-58 -3 -98 -29 -98 -69c0 -4 2 -9 5 -13c6 4 16 7 23 7
c39 0 75 -28 75 -79c0 -56 -44 -86 -90 -86c-65 0 -109 55 -109 126z" />
    <glyph glyph-name="quotedblright" unicode="&#x201d;" horiz-adv-x="519" 
d="M478 607c0 -98 -73 -178 -194 -178v64c58 3 98 29 98 69c0 4 -2 9 -5 13c-6 -4 -16 -7 -23 -7c-39 0 -75 28 -75 79c0 56 44 86 90 86c65 0 109 -55 109 -126zM238 607c0 -98 -73 -178 -194 -178v64c58 3 98 29 98 69c0 4 -2 9 -5 13c-6 -4 -16 -7 -23 -7
c-39 0 -75 28 -75 79c0 56 44 86 90 86c65 0 109 -55 109 -126z" />
    <glyph glyph-name="quotesinglbase" unicode="&#x201a;" horiz-adv-x="279" 
d="M238 61c0 -98 -73 -178 -194 -178v64c58 3 98 29 98 69c0 4 -2 9 -5 13c-6 -4 -16 -7 -23 -7c-39 0 -75 28 -75 79c0 56 44 86 90 86c65 0 109 -55 109 -126z" />
    <glyph glyph-name="quotedblbase" unicode="&#x201e;" horiz-adv-x="519" 
d="M478 61c0 -98 -73 -178 -194 -178v64c58 3 98 29 98 69c0 4 -2 9 -5 13c-6 -4 -16 -7 -23 -7c-39 0 -75 28 -75 79c0 56 44 86 90 86c65 0 109 -55 109 -126zM238 61c0 -98 -73 -178 -194 -178v64c58 3 98 29 98 69c0 4 -2 9 -5 13c-6 -4 -16 -7 -23 -7
c-39 0 -75 28 -75 79c0 56 44 86 90 86c65 0 109 -55 109 -126z" />
    <glyph glyph-name="guilsinglleft" unicode="&#x2039;" horiz-adv-x="330" 
d="M181 252l124 -133l-82 -80l-198 213l198 213l82 -79z" />
    <glyph glyph-name="guilsinglright" unicode="&#x203a;" horiz-adv-x="330" 
d="M25 119l124 133l-124 134l82 79l198 -213l-198 -213z" />
    <glyph glyph-name="guillemotleft" unicode="&#xab;" horiz-adv-x="553" 
d="M415 252l112 -133l-82 -80l-186 213l186 213l82 -79zM181 252l113 -133l-82 -80l-187 213l187 213l82 -79z" />
    <glyph glyph-name="guillemotright" unicode="&#xbb;" horiz-adv-x="553" 
d="M25 119l113 133l-113 134l82 79l187 -213l-187 -213zM259 119l113 133l-113 134l82 79l186 -213l-186 -213z" />
    <glyph glyph-name="guilsinglleft.cap" horiz-adv-x="330" 
d="M181 322l124 -133l-82 -80l-198 213l198 213l82 -79z" />
    <glyph glyph-name="guilsinglright.cap" horiz-adv-x="330" 
d="M25 189l124 133l-124 134l82 79l198 -213l-198 -213z" />
    <glyph glyph-name="guillemotleft.cap" horiz-adv-x="553" 
d="M415 322l112 -133l-82 -80l-186 213l186 213l82 -79zM181 322l113 -133l-82 -80l-187 213l187 213l82 -79z" />
    <glyph glyph-name="guillemotright.cap" horiz-adv-x="553" 
d="M25 189l113 133l-113 134l82 79l187 -213l-187 -213zM259 189l113 133l-113 134l82 79l186 -213l-186 -213z" />
    <glyph glyph-name="slash" unicode="/" horiz-adv-x="444" 
d="M23 -116l257 838h141l-260 -838h-138z" />
    <glyph glyph-name="backslash" unicode="\" horiz-adv-x="444" 
d="M164 722l257 -838h-138l-260 838h141z" />
    <glyph glyph-name="bar" unicode="|" horiz-adv-x="327" 
d="M230 -116h-133v838h133v-838z" />
    <glyph glyph-name="slash.cap" horiz-adv-x="444" 
d="M23 -96l257 838h141l-260 -838h-138z" />
    <glyph glyph-name="backslash.cap" horiz-adv-x="444" 
d="M164 742l257 -838h-138l-260 838h141z" />
    <glyph glyph-name="bar.cap" horiz-adv-x="327" 
d="M230 -96h-133v838h133v-838z" />
    <glyph glyph-name="periodcentered" unicode="&#xb7;" horiz-adv-x="265" 
d="M229 269c0 -54 -40 -96 -96 -96s-96 42 -96 96s40 97 96 97s96 -43 96 -97z" />
    <glyph glyph-name="bullet" unicode="&#x2022;" horiz-adv-x="403" 
d="M366 274c0 -91 -66 -166 -164 -166c-99 0 -165 75 -165 166c0 93 66 167 165 167c98 0 164 -74 164 -167z" />
    <glyph glyph-name="hyphen" unicode="-" horiz-adv-x="338" 
d="M37 200v134h265v-134h-265z" />
    <glyph glyph-name="endash" unicode="&#x2013;" horiz-adv-x="476" 
d="M37 208v118h402v-118h-402z" />
    <glyph glyph-name="emdash" unicode="&#x2014;" horiz-adv-x="811" 
d="M37 208v118h737v-118h-737z" />
    <glyph glyph-name="periodcentered.cap" horiz-adv-x="265" 
d="M229 339c0 -54 -40 -96 -96 -96s-96 42 -96 96s40 97 96 97s96 -43 96 -97z" />
    <glyph glyph-name="bullet.cap" horiz-adv-x="403" 
d="M366 344c0 -91 -66 -166 -164 -166c-99 0 -165 75 -165 166c0 93 66 167 165 167c98 0 164 -74 164 -167z" />
    <glyph glyph-name="hyphen.cap" horiz-adv-x="338" 
d="M37 270v134h265v-134h-265z" />
    <glyph glyph-name="endash.cap" horiz-adv-x="476" 
d="M37 278v118h402v-118h-402z" />
    <glyph glyph-name="emdash.cap" horiz-adv-x="811" 
d="M37 278v118h737v-118h-737z" />
    <glyph glyph-name="parenleft" unicode="(" horiz-adv-x="393" 
d="M52 303c0 205 105 346 166 419h155c-82 -99 -174 -241 -174 -419s92 -320 174 -419h-155c-61 73 -166 214 -166 419z" />
    <glyph glyph-name="parenright" unicode=")" horiz-adv-x="393" 
d="M175 722c61 -73 166 -214 166 -419s-105 -346 -166 -419h-155c82 99 174 241 174 419s-92 320 -174 419h155z" />
    <glyph glyph-name="bracketleft" unicode="[" horiz-adv-x="355" 
d="M209 605v-604h112v-117h-252v838h252v-117h-112z" />
    <glyph glyph-name="bracketright" unicode="]" horiz-adv-x="355" 
d="M146 1v604h-112v117h252v-838h-252v117h112z" />
    <glyph glyph-name="braceleft" unicode="{" horiz-adv-x="428" 
d="M39 241v124h32c50 0 66 19 66 73l-12 137c0 87 64 157 166 157c46 0 76 -12 108 -33l-25 -98c-16 12 -33 18 -53 18c-32 0 -58 -20 -58 -56l13 -143c0 -79 -46 -112 -107 -116v-2c61 -4 107 -37 107 -116l-13 -143c0 -36 26 -56 58 -56c20 0 37 6 53 18l25 -98
c-32 -21 -62 -33 -108 -33c-102 0 -166 69 -166 157l12 137c0 54 -16 73 -66 73h-32z" />
    <glyph glyph-name="braceright" unicode="}" horiz-adv-x="428" 
d="M389 365v-124h-32c-50 0 -66 -19 -66 -73l12 -137c0 -88 -64 -157 -166 -157c-46 0 -76 12 -108 33l25 98c16 -12 33 -18 53 -18c32 0 58 20 58 56l-13 143c0 79 46 112 107 116v2c-61 4 -107 37 -107 116l13 143c0 36 -26 56 -58 56c-20 0 -37 -6 -53 -18l-25 98
c32 21 62 33 108 33c102 0 166 -70 166 -157l-12 -137c0 -54 16 -73 66 -73h32z" />
    <glyph glyph-name="parenleft.cap" horiz-adv-x="393" 
d="M52 323c0 205 105 346 166 419h155c-82 -99 -174 -241 -174 -419s92 -320 174 -419h-155c-61 73 -166 214 -166 419z" />
    <glyph glyph-name="parenright.cap" horiz-adv-x="393" 
d="M175 742c61 -73 166 -214 166 -419s-105 -346 -166 -419h-155c82 99 174 241 174 419s-92 320 -174 419h155z" />
    <glyph glyph-name="bracketleft.cap" horiz-adv-x="355" 
d="M209 625v-604h112v-117h-252v838h252v-117h-112z" />
    <glyph glyph-name="bracketright.cap" horiz-adv-x="355" 
d="M146 21v604h-112v117h252v-838h-252v117h112z" />
    <glyph glyph-name="braceleft.cap" horiz-adv-x="428" 
d="M39 261v124h32c50 0 66 19 66 73l-12 137c0 87 64 157 166 157c46 0 76 -12 108 -33l-25 -98c-16 12 -33 18 -53 18c-32 0 -58 -20 -58 -56l13 -143c0 -79 -46 -112 -107 -116v-2c61 -4 107 -37 107 -116l-13 -143c0 -36 26 -56 58 -56c20 0 37 6 53 18l25 -98
c-32 -21 -62 -33 -108 -33c-102 0 -166 69 -166 157l12 137c0 54 -16 73 -66 73h-32z" />
    <glyph glyph-name="braceright.cap" horiz-adv-x="428" 
d="M389 385v-124h-32c-50 0 -66 -19 -66 -73l12 -137c0 -88 -64 -157 -166 -157c-46 0 -76 12 -108 33l25 98c16 -12 33 -18 53 -18c32 0 58 20 58 56l-13 143c0 79 46 112 107 116v2c-61 4 -107 37 -107 116l13 143c0 36 -26 56 -58 56c-20 0 -37 -6 -53 -18l-25 98
c32 21 62 33 108 33c102 0 166 -70 166 -157l-12 -137c0 -54 16 -73 66 -73h32z" />
    <glyph glyph-name="asterisk" unicode="*" horiz-adv-x="432" 
d="M165 722h102l-20 -133l121 61l31 -97l-127 -21l90 -91l-82 -60l-63 122l-64 -122l-82 60l89 91l-127 21l32 97l120 -61z" />
    <glyph glyph-name="dagger" unicode="&#x2020;" horiz-adv-x="403" 
d="M355 525l-122 15l17 -194h-99l16 194l-119 -15v98l118 -14l-15 113h99l-15 -114l120 15v-98z" />
    <glyph glyph-name="daggerdbl" unicode="&#x2021;" horiz-adv-x="403" 
d="M355 419l-118 15l13 -88h-99l13 88l-116 -15v90l117 -15v80l-117 -15v90l116 -15l-13 88h99l-13 -88l118 15v-90l-120 15v-80l120 15v-90z" />
    <glyph glyph-name="section" unicode="&#xa7;" horiz-adv-x="561" 
d="M218 265l179 -129c13 10 22 25 22 45c0 29 -15 51 -76 96l-179 129c-13 -10 -22 -25 -22 -45c0 -29 15 -51 76 -96zM275 -138c-89 0 -153 39 -194 97l94 65c21 -40 47 -61 83 -61c35 0 55 20 55 47c0 28 -15 41 -59 73l-116 80c-57 41 -109 80 -109 157
c0 69 43 118 94 139c-8 20 -13 43 -13 65c0 85 74 156 176 156c89 0 153 -39 194 -97l-94 -65c-21 40 -47 61 -83 61c-35 0 -55 -20 -55 -47c0 -28 15 -41 59 -73l116 -80c57 -41 109 -80 109 -157c0 -69 -43 -118 -94 -139c8 -20 13 -43 13 -65c0 -85 -74 -156 -176 -156z
" />
    <glyph glyph-name="paragraph" unicode="&#xb6;" horiz-adv-x="605" 
d="M277 -18c65 0 82 34 82 122v454h-77v-292h-32c-131 0 -221 80 -221 202c0 121 91 200 221 200h326v-110h-85v-480c0 -147 -91 -208 -214 -208c-42 0 -94 15 -124 33l32 111c25 -22 58 -32 92 -32z" />
    <glyph glyph-name="asciicircum" unicode="^" horiz-adv-x="453" 
d="M166 668h121l137 -250h-120l-78 146l-78 -146h-119z" />
    <glyph glyph-name="asciitilde" unicode="~" horiz-adv-x="452" 
d="M323 365h89c6 -108 -47 -180 -113 -180c-54 0 -90 54 -130 54c-23 0 -34 -17 -40 -55h-89c-6 107 47 180 112 180c54 0 90 -55 131 -55c22 0 34 18 40 56z" />
    <glyph glyph-name="underscore" unicode="_" horiz-adv-x="347" 
d="M37 -151v120h273v-120h-273z" />
    <glyph glyph-name="quotesingle" unicode="'" horiz-adv-x="269" 
d="M59 430v292h162l-63 -292h-99z" />
    <glyph glyph-name="quotedbl" unicode="&#x22;" horiz-adv-x="472" 
d="M59 430v292h162l-63 -292h-99zM262 430v292h162l-63 -292h-99z" />
    <glyph glyph-name="at" unicode="@" horiz-adv-x="902" 
d="M665 119c58 0 112 75 112 201c0 174 -126 264 -300 264c-200 0 -348 -156 -348 -357c0 -198 140 -312 333 -312c105 0 185 23 260 82l48 -62c-81 -69 -196 -100 -307 -100c-238 0 -424 144 -424 392c0 240 188 437 439 437c213 0 386 -128 386 -339
c0 -180 -116 -283 -222 -283c-64 0 -115 32 -128 84c-28 -63 -82 -85 -130 -85c-86 0 -148 65 -148 174c0 133 85 249 202 249c57 0 95 -30 109 -70l32 60h98l-50 -274c-1 -6 -3 -17 -3 -24c0 -27 18 -37 41 -37zM508 233c8 40 11 67 11 78c0 31 -18 59 -54 59
c-57 0 -95 -72 -95 -152c0 -47 19 -77 58 -77c41 0 70 35 80 92z" />
    <glyph glyph-name="at.cap" horiz-adv-x="902" 
d="M665 186c58 0 112 75 112 201c0 174 -126 264 -300 264c-200 0 -348 -156 -348 -357c0 -198 140 -312 333 -312c105 0 185 23 260 82l48 -62c-81 -69 -196 -100 -307 -100c-238 0 -424 144 -424 392c0 240 188 437 439 437c213 0 386 -128 386 -339
c0 -180 -116 -283 -222 -283c-64 0 -115 32 -128 84c-28 -63 -82 -85 -130 -85c-86 0 -148 65 -148 174c0 133 85 249 202 249c57 0 95 -30 109 -70l32 60h98l-50 -274c-1 -6 -3 -17 -3 -24c0 -27 18 -37 41 -37zM508 300c8 40 11 67 11 78c0 31 -18 59 -54 59
c-57 0 -95 -72 -95 -152c0 -47 19 -77 58 -77c41 0 70 35 80 92z" />
    <glyph glyph-name="copyright" unicode="&#xa9;" horiz-adv-x="770" 
d="M385 680c191 0 345 -144 345 -346c0 -200 -154 -346 -345 -346c-192 0 -346 146 -346 346c0 202 154 346 346 346zM385 38c163 0 293 126 293 296c0 172 -130 296 -293 296c-164 0 -294 -124 -294 -296c0 -170 130 -296 294 -296zM202 335c0 121 76 196 189 196
c81 0 140 -40 160 -104l-102 -43c-6 32 -25 53 -59 53c-43 0 -71 -32 -71 -102c0 -71 28 -103 71 -103c34 0 53 22 59 53l102 -43c-20 -64 -79 -103 -160 -103c-113 0 -189 74 -189 196z" />
    <glyph glyph-name="registered" unicode="&#xae;" horiz-adv-x="511" 
d="M255 680c119 0 216 -91 216 -216s-97 -216 -216 -216s-216 91 -216 216s97 216 216 216zM255 282c100 0 180 78 180 182s-80 182 -180 182s-180 -78 -180 -182s80 -182 180 -182zM285 503c0 15 -10 24 -28 24h-34v-50h34c18 0 28 7 28 26zM362 358h-68c-5 8 -8 14 -10 25
l-5 27c-4 17 -13 22 -27 22h-29v-74h-62v218h107c50 0 83 -20 83 -66c0 -31 -23 -51 -46 -54c20 -5 30 -15 35 -36l9 -36c2 -10 6 -18 13 -26z" />
    <glyph glyph-name="published" horiz-adv-x="791" 
d="M396 680c191 0 345 -144 345 -346c0 -200 -154 -346 -345 -346c-192 0 -346 146 -346 346c0 202 154 346 346 346zM396 38c163 0 293 126 293 296c0 172 -130 296 -293 296c-164 0 -294 -124 -294 -296c0 -170 130 -296 294 -296zM430 256h-62v-110h-105v372h167
c90 0 145 -47 145 -132c0 -83 -61 -130 -145 -130zM468 386c0 32 -17 49 -50 49h-50v-98h50c33 0 50 16 50 49z" />
    <glyph glyph-name="trademark" unicode="&#x2122;" horiz-adv-x="745" 
d="M223 370h-92v227h-92v71h276v-71h-92v-227zM545 442h-47l-51 102v-174h-82v298h92l66 -132l65 132h90v-298h-82v174z" />
    <glyph glyph-name="numbersign" unicode="#" horiz-adv-x="682" 
d="M391 273l19 121h-115l-19 -121h115zM351 30l26 158h-115l-26 -158h-93l26 158h-125l14 85h125l19 121h-130l13 86h131l26 158h93l-26 -158h115l26 158h93l-26 -158h121l-14 -86h-121l-19 -121h127l-13 -85h-128l-26 -158h-93z" />
    <glyph glyph-name="degree" unicode="&#xb0;" horiz-adv-x="371" 
d="M185 680c82 0 146 -64 146 -145s-64 -146 -146 -146c-80 0 -145 65 -145 146s65 145 145 145zM185 462c42 0 73 33 73 73c0 39 -31 72 -73 72c-40 0 -72 -33 -72 -72c0 -40 32 -73 72 -73z" />
    <glyph glyph-name="uni0192" unicode="&#x192;" horiz-adv-x="574" 
d="M86 -120c-70 0 -116 29 -145 58l64 108c14 -21 36 -38 64 -38c43 0 66 28 74 84l26 166h-87v108h104l16 99c23 145 106 215 227 215c70 0 115 -29 144 -58l-64 -108c-14 21 -36 38 -63 38c-43 0 -67 -28 -76 -84l-16 -102h94v-108h-111l-25 -163
c-24 -144 -105 -215 -226 -215z" />
    <glyph glyph-name="Euro" unicode="&#x20ac;" horiz-adv-x="652" 
d="M615 166c-29 -111 -115 -178 -239 -178c-144 0 -243 87 -274 237h-71v82h61c-1 9 -1 18 -1 27c0 11 0 21 1 31h-61v82h71c33 148 131 233 274 233c124 0 210 -67 239 -177l-136 -62c-9 65 -46 112 -106 112c-58 0 -97 -36 -116 -106h147l-10 -82h-148
c-1 -10 -1 -20 -1 -31c0 -9 0 -18 1 -27h140l-10 -82h-120c18 -73 58 -111 117 -111c60 0 97 48 106 114z" />
    <glyph glyph-name="dollar" unicode="$" horiz-adv-x="584" 
d="M177 476c0 -38 32 -54 78 -66v138c-49 -8 -78 -35 -78 -72zM408 194c0 37 -32 53 -78 65v-138c51 8 78 32 78 73zM330 -99h-75v97c-124 8 -217 67 -246 164l134 58c10 -54 52 -90 112 -100v154c-104 19 -222 46 -222 188c0 119 99 195 222 207v86h75v-86
c115 -9 197 -64 220 -166l-139 -40c-7 42 -35 71 -81 82v-149c105 -19 225 -46 225 -191c0 -122 -101 -192 -225 -206v-98z" />
    <glyph glyph-name="cent" unicode="&#xa2;" horiz-adv-x="553" 
d="M524 147c-18 -90 -94 -147 -193 -157v-89h-73v89c-134 17 -224 113 -224 263c0 151 92 248 224 263v99h73v-99c110 -11 180 -77 190 -170l-116 -31c-3 39 -24 75 -74 86v-295c42 11 70 43 76 85zM178 253c0 -73 26 -126 80 -143v288c-55 -19 -80 -75 -80 -145z" />
    <glyph glyph-name="sterling" unicode="&#xa3;" horiz-adv-x="613" 
d="M595 144c-19 -100 -86 -144 -198 -144h-348v137c58 0 94 26 94 81c0 14 -2 27 -4 39h-85v87h48c-17 33 -33 68 -33 116c0 122 100 220 251 220c156 0 233 -95 233 -204c0 -41 -14 -77 -34 -105l-135 50c10 15 17 32 17 52c0 47 -31 79 -79 79c-52 0 -87 -38 -87 -94
c0 -48 16 -79 31 -114h115v-87h-93c1 -5 1 -11 1 -17c0 -40 -35 -84 -76 -103h169c72 0 101 31 109 94z" />
    <glyph glyph-name="yen" unicode="&#xa5;" horiz-adv-x="652" 
d="M571 171h-164v-171h-161v171h-166v85h166v58h-166v84h118l-184 270h183l132 -205h2l132 205h175l-183 -270h116v-84h-164v-58h164v-85z" />
    <glyph glyph-name="uni0192.lt" 
d="M115 -120c-70 0 -116 29 -145 58l64 108c14 -21 36 -38 64 -38c43 0 66 28 74 84l26 166h-87v108h104l16 99c23 145 106 215 227 215c70 0 115 -29 144 -58l-64 -108c-14 21 -36 38 -63 38c-43 0 -67 -28 -76 -84l-16 -102h94v-108h-111l-25 -163
c-24 -144 -105 -215 -226 -215z" />
    <glyph glyph-name="Euro.lt" 
d="M593 166c-29 -111 -112 -178 -236 -178c-144 0 -238 87 -268 237h-65v82h56c-1 9 -1 18 -1 27c0 11 0 21 1 31h-56v82h66c30 148 124 233 267 233c124 0 207 -67 236 -177l-130 -62c-10 65 -44 112 -104 112c-58 0 -96 -36 -113 -106h136l-10 -82h-137
c-1 -10 -1 -20 -1 -31c0 -9 0 -18 1 -27h130l-10 -82h-110c17 -73 55 -111 114 -111c60 0 94 48 104 114z" />
    <glyph glyph-name="dollar.lt" 
d="M194 476c0 -38 32 -55 78 -66v138c-50 -7 -78 -35 -78 -72zM423 194c0 37 -32 53 -78 65v-138c50 8 78 32 78 73zM345 -99h-73v97c-123 8 -215 67 -243 164l132 58c9 -54 51 -91 111 -100v154c-102 19 -219 46 -219 188c0 120 97 195 219 207v86h73v-86
c114 -9 194 -64 216 -166l-135 -40c-7 42 -35 71 -81 82v-149c103 -19 222 -46 222 -191c0 -122 -100 -192 -222 -206v-98z" />
    <glyph glyph-name="cent.lt" 
d="M553 147c-18 -90 -94 -147 -193 -157v-89h-73v89c-134 17 -224 113 -224 263c0 151 92 248 224 263v99h73v-99c110 -11 180 -77 190 -170l-116 -31c-3 39 -24 75 -74 86v-295c42 11 70 43 76 85zM207 253c0 -73 26 -126 80 -143v288c-55 -19 -80 -75 -80 -145z" />
    <glyph glyph-name="sterling.lt" 
d="M591 144c-19 -100 -86 -144 -198 -144h-348v137c58 0 93 26 93 81c0 14 -2 27 -4 39h-84v87h47c-17 33 -32 68 -32 116c0 122 99 220 251 220c155 0 232 -95 232 -204c0 -41 -13 -77 -33 -105l-135 50c10 15 16 32 16 52c0 47 -31 79 -78 79c-52 0 -88 -38 -88 -94
c0 -48 17 -79 32 -114h115v-87h-93c1 -5 1 -11 1 -17c0 -40 -36 -84 -77 -103h170c71 0 100 31 108 94z" />
    <glyph glyph-name="yen.lt" 
d="M532 171h-148v-171h-153v171h-155v85h155v58h-155v84h112l-167 270h164l124 -211h3l124 211h156l-165 -270h105v-84h-148v-58h148v-85z" />
    <glyph glyph-name="zero" unicode="0" horiz-adv-x="620" 
d="M310 680c177 0 279 -148 279 -346s-102 -346 -279 -346s-278 148 -278 346s101 346 278 346zM310 127c82 0 115 84 115 207s-33 207 -115 207s-114 -84 -114 -207s32 -207 114 -207z" />
    <glyph glyph-name="one" unicode="1" horiz-adv-x="386" 
d="M317 0h-167v504l-134 -27v145l301 56v-678z" />
    <glyph glyph-name="two" unicode="2" horiz-adv-x="547" 
d="M527 141v-141h-493v119c199 149 313 227 313 336c0 55 -31 90 -82 90c-49 0 -80 -36 -80 -82c0 -23 9 -41 21 -57l-138 -57c-25 31 -40 72 -40 121c0 107 85 210 244 210c155 0 243 -91 243 -221c0 -137 -137 -249 -257 -318h269z" />
    <glyph glyph-name="three" unicode="3" horiz-adv-x="551" 
d="M386 342v-2c85 -13 136 -77 136 -154c0 -125 -110 -198 -254 -198c-138 0 -236 74 -255 173l144 54c11 -61 46 -100 109 -100c54 0 95 29 95 84c0 53 -39 82 -105 82h-68v109h63c69 0 96 32 96 84c0 41 -30 73 -79 73c-55 0 -85 -39 -93 -94l-140 54
c22 99 110 173 242 173c139 0 229 -71 229 -185c0 -81 -47 -139 -120 -153z" />
    <glyph glyph-name="four" unicode="4" horiz-adv-x="612" 
d="M315 0v172h-293v124l294 372h160v-379h114v-117h-114v-172h-161zM311 494l-156 -201v-4h160v205h-4z" />
    <glyph glyph-name="five" unicode="5" horiz-adv-x="559" 
d="M71 286l17 382h401v-136h-271l-7 -136c24 19 66 37 114 37c124 0 202 -87 202 -207c0 -156 -122 -238 -258 -238c-139 0 -233 76 -255 178l148 52c8 -61 48 -100 107 -100c60 0 97 38 97 104c0 58 -34 98 -89 98c-35 0 -59 -16 -73 -34h-133z" />
    <glyph glyph-name="six" unicode="6" horiz-adv-x="578" 
d="M546 563l-106 -84c-18 46 -60 72 -108 72c-93 0 -147 -86 -147 -197v-12h2c26 53 84 88 152 88c129 0 210 -91 210 -211c0 -140 -103 -231 -243 -231c-92 0 -161 40 -207 102c-44 60 -67 139 -67 229c0 212 116 361 300 361c104 0 178 -47 214 -117zM399 212
c0 60 -39 98 -97 98c-55 0 -95 -38 -95 -98c0 -59 40 -97 95 -97c58 0 97 38 97 97z" />
    <glyph glyph-name="seven" unicode="7" horiz-adv-x="548" 
d="M352 536h-187v-97h-142v229h502v-125l-224 -543h-175z" />
    <glyph glyph-name="eight" unicode="8" horiz-adv-x="582" 
d="M291 -12c-163 0 -260 81 -260 194c0 78 52 142 130 161v2c-70 22 -109 79 -109 150c0 105 89 185 239 185c149 0 239 -80 239 -185c0 -71 -40 -128 -110 -150v-2c78 -19 131 -83 131 -161c0 -113 -97 -194 -260 -194zM291 400c50 0 85 31 85 82c0 54 -35 82 -85 82
s-86 -28 -86 -82c0 -51 36 -82 86 -82zM291 284c-59 0 -98 -33 -98 -88s39 -88 98 -88c58 0 97 33 97 88s-39 88 -97 88z" />
    <glyph glyph-name="nine" unicode="9" horiz-adv-x="578" 
d="M179 456c0 -60 39 -98 97 -98c55 0 95 38 95 98c0 59 -40 97 -95 97c-58 0 -97 -38 -97 -97zM32 105l106 84c18 -46 60 -72 108 -72c93 0 147 86 147 197v12h-2c-26 -53 -84 -88 -152 -88c-129 0 -210 91 -210 211c0 140 103 231 243 231c92 0 161 -40 207 -102
c44 -60 67 -139 67 -229c0 -212 -116 -361 -300 -361c-104 0 -178 47 -214 117z" />
    <glyph glyph-name="zero.op" horiz-adv-x="611" 
d="M305 576c168 0 272 -123 272 -294s-104 -294 -272 -294s-271 123 -271 294s103 294 271 294zM305 115c74 0 111 67 111 167s-37 168 -111 168c-73 0 -110 -68 -110 -168s37 -167 110 -167z" />
    <glyph glyph-name="one.op" horiz-adv-x="385" 
d="M315 0h-166v407l-134 -27v144l300 53v-577z" />
    <glyph glyph-name="two.op" horiz-adv-x="553" 
d="M530 127v-127h-491v113c154 77 303 154 303 255c0 46 -24 80 -74 80c-46 0 -80 -35 -80 -80c0 -23 9 -39 20 -55l-137 -51c-25 29 -39 65 -39 112c0 104 92 202 243 202s230 -84 230 -200c0 -135 -166 -222 -243 -249h268z" />
    <glyph glyph-name="three.op" horiz-adv-x="554" 
d="M387 239v-3c85 -12 136 -77 136 -154c0 -124 -109 -198 -252 -198c-138 0 -234 74 -253 173l144 55c11 -62 45 -101 107 -101c53 0 94 29 94 85c0 53 -39 82 -103 82h-68v108h63c67 0 94 32 94 85c0 41 -29 73 -78 73c-54 0 -84 -40 -91 -95l-139 54
c22 99 107 173 239 173c138 0 227 -70 227 -185c0 -81 -47 -138 -120 -152z" />
    <glyph glyph-name="four.op" 
d="M319 -104v174h-295v123l297 371h157v-378h115v-116h-115v-174h-159zM316 391l-160 -202v-3h163v205h-3z" />
    <glyph glyph-name="five.op" horiz-adv-x="557" 
d="M76 181l26 383h387v-136h-262l-11 -138c24 19 64 37 112 37c120 0 199 -85 199 -205c0 -157 -123 -238 -256 -238c-139 0 -230 75 -251 177l146 52c7 -61 47 -99 105 -99s96 38 96 104c0 55 -34 95 -87 95c-34 0 -58 -15 -71 -32h-133z" />
    <glyph glyph-name="six.op" horiz-adv-x="577" 
d="M545 563l-105 -84c-18 46 -59 72 -107 72c-92 0 -147 -87 -147 -197v-12h3c25 53 83 88 149 88c129 0 208 -91 208 -211c0 -140 -102 -231 -240 -231c-91 0 -159 40 -206 102c-43 60 -66 139 -66 229c0 211 117 361 300 361c102 0 176 -47 211 -117zM397 212
c0 60 -39 98 -95 98c-54 0 -94 -38 -94 -98c0 -59 40 -97 94 -97c56 0 95 38 95 97z" />
    <glyph glyph-name="seven.op" horiz-adv-x="539" 
d="M347 435h-182v-102h-142v231h493v-132l-220 -536h-174z" />
    <glyph glyph-name="eight.op" horiz-adv-x="583" 
d="M291 -12c-162 0 -258 81 -258 194c0 78 52 141 130 160v3c-70 22 -109 79 -109 150c0 105 89 185 237 185c149 0 238 -80 238 -185c0 -71 -40 -128 -109 -150v-3c77 -19 129 -82 129 -160c0 -113 -95 -194 -258 -194zM291 400c50 0 85 31 85 82c0 54 -35 83 -85 83
c-49 0 -84 -29 -84 -83c0 -51 35 -82 84 -82zM291 284c-57 0 -96 -33 -96 -88s39 -88 96 -88c58 0 96 33 96 88s-38 88 -96 88z" />
    <glyph glyph-name="nine.op" horiz-adv-x="577" 
d="M180 352c0 -60 39 -98 95 -98c54 0 94 38 94 98c0 59 -40 97 -94 97c-56 0 -95 -38 -95 -97zM32 1l105 84c18 -46 59 -72 107 -72c92 0 147 87 147 197v12h-3c-25 -53 -83 -88 -149 -88c-129 0 -208 91 -208 211c0 140 102 231 240 231c91 0 159 -40 206 -102
c43 -60 66 -139 66 -229c0 -211 -117 -361 -300 -361c-102 0 -176 47 -211 117z" />
    <glyph glyph-name="zero.lt" 
d="M307 680c170 0 267 -142 267 -346c0 -203 -97 -346 -267 -346s-267 143 -267 346c0 204 97 346 267 346zM307 127c75 0 107 79 107 207s-32 207 -107 207s-106 -79 -106 -207s31 -207 106 -207z" />
    <glyph glyph-name="one.lt" 
d="M573 0h-505v132h174v379l-171 -36v138l338 65v-546h164v-132z" />
    <glyph glyph-name="two.lt" 
d="M557 141v-141h-493v119c199 150 312 229 312 338c0 55 -31 90 -82 90c-48 0 -80 -35 -80 -82c0 -23 9 -41 21 -57l-138 -59c-25 31 -40 71 -40 120c0 107 84 211 244 211c155 0 242 -91 242 -221c0 -138 -137 -249 -252 -318h266z" />
    <glyph glyph-name="three.lt" 
d="M413 342v-2c85 -13 136 -77 136 -154c0 -125 -109 -198 -254 -198c-140 0 -237 73 -256 172l145 55c11 -61 46 -100 109 -100c54 0 95 29 95 84c0 53 -39 82 -105 82h-68v109h63c69 0 96 32 96 84c0 41 -30 73 -79 73c-55 0 -85 -39 -93 -94l-140 54
c22 99 108 173 242 173c139 0 229 -71 229 -185c0 -81 -47 -139 -120 -153z" />
    <glyph glyph-name="four.lt" 
d="M318 0v172h-293v124l294 372h159v-379h110v-117h-110v-172h-160zM315 494l-156 -202v-3h159v205h-3z" />
    <glyph glyph-name="five.lt" 
d="M93 286l17 382h400v-136h-271l-6 -136c24 19 66 37 114 37c124 0 202 -87 202 -207c0 -157 -122 -238 -258 -238c-141 0 -233 75 -255 177l147 52c8 -61 49 -99 108 -99s97 38 97 104c0 58 -34 98 -89 98c-35 0 -59 -16 -73 -34h-133z" />
    <glyph glyph-name="six.lt" 
d="M564 563l-106 -84c-19 46 -60 72 -108 72c-94 0 -147 -86 -147 -197v-12h2c25 53 84 88 151 88c130 0 210 -91 210 -211c0 -140 -102 -231 -242 -231c-92 0 -161 40 -207 102c-45 60 -68 139 -68 229c0 212 117 361 301 361c104 0 178 -47 214 -117zM417 212
c0 60 -40 98 -97 98c-55 0 -95 -38 -95 -98c0 -59 40 -97 95 -97c57 0 97 38 97 97z" />
    <glyph glyph-name="seven.lt" 
d="M397 536h-206v-97h-143v229h522v-125l-224 -543h-175z" />
    <glyph glyph-name="eight.lt" 
d="M307 -12c-163 0 -260 81 -260 194c0 78 53 141 130 160v3c-70 22 -109 79 -109 150c0 105 89 185 239 185s239 -80 239 -185c0 -71 -39 -128 -109 -150v-3c77 -19 130 -82 130 -160c0 -113 -97 -194 -260 -194zM307 400c50 0 86 31 86 82c0 54 -36 82 -86 82
s-86 -28 -86 -82c0 -51 36 -82 86 -82zM307 284c-59 0 -98 -33 -98 -88s39 -88 98 -88s98 33 98 88s-39 88 -98 88z" />
    <glyph glyph-name="nine.lt" 
d="M197 456c0 -60 40 -98 97 -98c55 0 95 38 95 98c0 59 -40 97 -95 97c-57 0 -97 -38 -97 -97zM50 105l106 84c19 -46 60 -72 108 -72c94 0 147 86 147 197v12h-2c-25 -53 -84 -88 -151 -88c-130 0 -210 91 -210 211c0 140 102 231 242 231c92 0 161 -40 207 -102
c45 -60 68 -139 68 -229c0 -212 -117 -361 -301 -361c-104 0 -178 47 -214 117z" />
    <glyph glyph-name="zero.ot" 
d="M307 576c163 0 262 -122 262 -294c0 -171 -99 -294 -262 -294s-262 123 -262 294c0 172 99 294 262 294zM307 115c73 0 107 67 107 167s-34 168 -107 168s-106 -68 -106 -168s33 -167 106 -167z" />
    <glyph glyph-name="one.ot" 
d="M572 0h-499v125h179v293l-171 -31v131l333 59v-452h158v-125z" />
    <glyph glyph-name="two.ot" 
d="M561 127v-127h-492v107c160 91 303 160 303 261c0 46 -24 80 -73 80c-46 0 -81 -35 -81 -80c0 -23 9 -39 20 -55l-137 -51c-24 29 -39 64 -39 111c0 104 90 203 243 203c151 0 231 -84 231 -200c0 -130 -163 -222 -239 -249h264z" />
    <glyph glyph-name="three.ot" 
d="M417 239v-3c84 -12 135 -77 135 -154c0 -124 -109 -198 -252 -198c-138 0 -234 74 -253 173l144 55c11 -62 45 -101 107 -101c53 0 94 29 94 85c0 53 -39 82 -103 82h-68v108h63c67 0 94 32 94 85c0 41 -29 73 -78 73c-54 0 -84 -40 -91 -95l-139 54
c22 99 107 173 239 173c138 0 227 -70 227 -185c0 -81 -47 -138 -119 -152z" />
    <glyph glyph-name="four.ot" 
d="M313 -104v174h-284v123l286 371h157v-378h115v-116h-115v-174h-159zM311 396l-155 -207v-3h157v210h-2z" />
    <glyph glyph-name="five.ot" 
d="M95 181l25 383h388v-136h-263l-11 -138c24 19 64 37 112 37c121 0 200 -85 200 -205c0 -157 -123 -238 -257 -238c-139 0 -229 75 -251 177l146 52c8 -61 47 -99 105 -99c59 0 97 38 97 104c0 55 -34 95 -87 95c-35 0 -58 -15 -72 -32h-132z" />
    <glyph glyph-name="six.ot" 
d="M563 563l-104 -84c-19 46 -60 72 -108 72c-92 0 -146 -87 -146 -197v-12h2c25 53 83 88 149 88c129 0 208 -91 208 -211c0 -140 -101 -231 -240 -231c-91 0 -159 40 -206 102c-43 60 -66 139 -66 229c0 211 117 361 300 361c102 0 176 -47 211 -117zM416 212
c0 60 -40 98 -96 98c-54 0 -93 -38 -93 -98c0 -59 39 -97 93 -97c56 0 96 38 96 97z" />
    <glyph glyph-name="seven.ot" 
d="M394 435h-196v-102h-143v231h507v-132l-224 -536h-174z" />
    <glyph glyph-name="eight.ot" 
d="M307 -12c-162 0 -258 81 -258 194c0 78 52 141 129 160v3c-69 22 -108 79 -108 150c0 105 88 185 237 185s237 -80 237 -185c0 -71 -39 -128 -108 -150v-3c77 -19 129 -82 129 -160c0 -113 -96 -194 -258 -194zM307 400c49 0 85 31 85 82c0 54 -36 83 -85 83
s-85 -29 -85 -83c0 -51 36 -82 85 -82zM307 284c-58 0 -96 -33 -96 -88s38 -88 96 -88s96 33 96 88s-38 88 -96 88z" />
    <glyph glyph-name="nine.ot" 
d="M201 352c0 -60 40 -98 96 -98c54 0 93 38 93 98c0 59 -39 97 -93 97c-56 0 -96 -38 -96 -97zM54 1l104 84c19 -46 60 -72 108 -72c92 0 146 87 146 197v12h-2c-25 -53 -83 -88 -149 -88c-129 0 -208 91 -208 211c0 140 101 231 240 231c91 0 159 -40 206 -102
c43 -60 66 -139 66 -229c0 -211 -117 -361 -300 -361c-102 0 -176 47 -211 117z" />
    <glyph glyph-name="uni2070" unicode="&#x2070;" horiz-adv-x="385" 
d="M192 675c102 0 163 -82 163 -197c0 -114 -61 -197 -163 -197c-101 0 -162 83 -162 197c0 115 61 197 162 197zM192 584c-40 0 -55 -42 -55 -106s15 -106 55 -106s57 42 57 106s-17 106 -57 106z" />
    <glyph glyph-name="onesuperior" unicode="&#xb9;" horiz-adv-x="385" 
d="M341 288h-289v85h95v192l-88 -17v91l197 34v-300h85v-85z" />
    <glyph glyph-name="twosuperior" unicode="&#xb2;" horiz-adv-x="385" 
d="M339 379v-91h-288v77c120 89 172 129 172 181c0 25 -14 42 -37 42s-37 -17 -37 -39c0 -12 5 -21 11 -30l-90 -38c-15 18 -25 42 -25 71c0 63 50 123 145 123c94 0 144 -55 144 -128s-70 -131 -134 -168h139z" />
    <glyph glyph-name="threesuperior" unicode="&#xb3;" horiz-adv-x="385" 
d="M261 482v-2c47 -7 74 -44 74 -87c0 -71 -63 -112 -149 -112c-79 0 -138 41 -149 98l86 33c6 -31 29 -48 57 -48c29 0 50 15 50 40c0 26 -19 40 -53 40h-39v67h36c36 0 50 15 50 42c0 19 -15 35 -39 35c-27 0 -43 -18 -47 -44l-88 30c12 58 64 101 142 101
c82 0 135 -41 135 -107c0 -45 -26 -78 -66 -86z" />
    <glyph glyph-name="uni2074" unicode="&#x2074;" horiz-adv-x="385" 
d="M194 288v91h-170v74l164 215h105v-219h64v-70h-64v-91h-99zM191 564l-86 -112v-3h89v115h-3z" />
    <glyph glyph-name="uni2075" unicode="&#x2075;" horiz-adv-x="385" 
d="M69 448l10 220h237v-89h-156l-3 -65c14 12 40 22 67 22c71 0 115 -49 115 -117c0 -91 -73 -138 -152 -138c-82 0 -136 42 -149 102l91 32c6 -31 26 -49 55 -49c30 0 50 19 50 51c0 30 -17 48 -43 48c-17 0 -29 -8 -36 -17h-86z" />
    <glyph glyph-name="uni2076" unicode="&#x2076;" horiz-adv-x="385" 
d="M343 611l-67 -56c-10 23 -32 36 -58 36c-48 0 -76 -41 -76 -95v-5h1c15 26 47 43 81 43c74 0 120 -52 120 -119c0 -84 -62 -134 -142 -134c-52 0 -92 22 -120 57c-26 34 -40 79 -40 133c0 120 68 204 176 204c61 0 104 -27 125 -64zM247 410c0 29 -18 47 -46 47
s-46 -18 -46 -47s18 -47 46 -47s46 18 46 47z" />
    <glyph glyph-name="uni2077" unicode="&#x2077;" horiz-adv-x="385" 
d="M230 583h-94v-59h-92v144h299v-83l-124 -297h-115z" />
    <glyph glyph-name="uni2078" unicode="&#x2078;" horiz-adv-x="385" 
d="M193 675c89 0 140 -47 140 -107c0 -38 -21 -71 -61 -84v-1c44 -10 73 -47 73 -90c0 -64 -55 -112 -152 -112c-98 0 -152 48 -152 112c0 43 28 80 72 90v1c-40 13 -62 46 -62 84c0 60 53 107 142 107zM193 520c24 0 41 16 41 40c0 26 -17 40 -41 40s-41 -14 -41 -40
c0 -24 17 -40 41 -40zM193 445c-29 0 -46 -16 -46 -43c0 -26 17 -43 46 -43c28 0 46 17 46 43c0 27 -18 43 -46 43z" />
    <glyph glyph-name="uni2079" unicode="&#x2079;" horiz-adv-x="385" 
d="M138 546c0 -29 19 -47 47 -47c27 0 45 18 45 47s-18 47 -45 47c-28 0 -47 -18 -47 -47zM43 345l66 56c10 -23 32 -36 58 -36c48 0 76 41 76 95v5h-1c-15 -26 -47 -43 -81 -43c-73 0 -120 52 -120 119c0 84 63 134 142 134c52 0 92 -22 119 -57c27 -34 42 -79 42 -133
c0 -120 -70 -204 -177 -204c-60 0 -103 27 -124 64z" />
    <glyph glyph-name="zero.dnom" horiz-adv-x="385" 
d="M192 387c102 0 163 -82 163 -197c0 -114 -61 -197 -163 -197c-101 0 -162 83 -162 197c0 115 61 197 162 197zM192 296c-40 0 -55 -42 -55 -106s15 -106 55 -106s57 42 57 106s-17 106 -57 106z" />
    <glyph glyph-name="one.dnom" horiz-adv-x="385" 
d="M341 0h-289v85h95v192l-88 -17v91l197 34v-300h85v-85z" />
    <glyph glyph-name="two.dnom" horiz-adv-x="385" 
d="M339 91v-91h-288v77c120 88 172 129 172 181c0 25 -14 42 -37 42s-37 -17 -37 -39c0 -12 5 -21 11 -30l-90 -38c-15 18 -25 42 -25 71c0 63 50 123 145 123c94 0 144 -55 144 -128s-70 -131 -134 -168h139z" />
    <glyph glyph-name="three.dnom" horiz-adv-x="385" 
d="M261 194v-2c47 -7 74 -44 74 -87c0 -71 -63 -112 -149 -112c-79 0 -138 41 -149 98l86 33c6 -31 29 -48 57 -48c29 0 50 15 50 40c0 26 -19 40 -53 40h-39v67h36c36 0 50 15 50 42c0 19 -15 35 -39 35c-27 0 -43 -18 -47 -44l-88 30c12 58 64 101 142 101
c82 0 135 -41 135 -107c0 -45 -26 -78 -66 -86z" />
    <glyph glyph-name="four.dnom" horiz-adv-x="385" 
d="M194 0v91h-170v74l164 215h105v-219h64v-70h-64v-91h-99zM191 276l-86 -112v-3h89v115h-3z" />
    <glyph glyph-name="five.dnom" horiz-adv-x="385" 
d="M69 160l10 220h237v-89h-156l-3 -65c14 12 40 22 67 22c71 0 115 -49 115 -117c0 -91 -73 -138 -152 -138c-82 0 -136 42 -149 102l91 32c6 -31 26 -49 55 -49c30 0 50 19 50 51c0 30 -17 48 -43 48c-17 0 -29 -8 -36 -17h-86z" />
    <glyph glyph-name="six.dnom" horiz-adv-x="385" 
d="M343 323l-67 -56c-10 23 -32 36 -58 36c-48 0 -76 -41 -76 -95v-5h1c15 26 47 43 81 43c74 0 120 -52 120 -119c0 -84 -62 -134 -142 -134c-52 0 -92 22 -120 57c-26 34 -40 79 -40 133c0 120 68 204 176 204c61 0 104 -27 125 -64zM247 122c0 29 -18 47 -46 47
s-46 -18 -46 -47s18 -47 46 -47s46 18 46 47z" />
    <glyph glyph-name="seven.dnom" horiz-adv-x="385" 
d="M230 295h-94v-59h-92v144h299v-83l-124 -297h-115z" />
    <glyph glyph-name="eight.dnom" horiz-adv-x="385" 
d="M193 387c89 0 140 -47 140 -107c0 -38 -21 -71 -61 -84v-1c44 -10 73 -47 73 -90c0 -64 -55 -112 -152 -112c-98 0 -152 48 -152 112c0 43 28 80 72 90v1c-40 13 -62 46 -62 84c0 60 53 107 142 107zM193 232c24 0 41 16 41 40c0 26 -17 40 -41 40s-41 -14 -41 -40
c0 -24 17 -40 41 -40zM193 157c-29 0 -46 -16 -46 -43c0 -26 17 -43 46 -43c28 0 46 17 46 43c0 27 -18 43 -46 43z" />
    <glyph glyph-name="nine.dnom" horiz-adv-x="385" 
d="M138 258c0 -29 19 -47 47 -47c27 0 45 18 45 47s-18 47 -45 47c-28 0 -47 -18 -47 -47zM43 57l66 56c10 -23 32 -36 58 -36c48 0 76 41 76 95v5h-1c-15 -26 -47 -43 -81 -43c-73 0 -120 52 -120 119c0 84 63 134 142 134c52 0 92 -22 119 -57c27 -34 42 -79 42 -133
c0 -120 -70 -204 -177 -204c-60 0 -103 27 -124 64z" />
    <glyph glyph-name="uni2080" unicode="&#x2080;" horiz-adv-x="385" 
d="M192 267c102 0 163 -82 163 -197c0 -114 -61 -197 -163 -197c-101 0 -162 83 -162 197c0 115 61 197 162 197zM192 176c-40 0 -55 -42 -55 -106s15 -106 55 -106s57 42 57 106s-17 106 -57 106z" />
    <glyph glyph-name="uni2081" unicode="&#x2081;" horiz-adv-x="385" 
d="M341 -120h-289v85h95v192l-88 -17v91l197 34v-300h85v-85z" />
    <glyph glyph-name="uni2082" unicode="&#x2082;" horiz-adv-x="385" 
d="M339 -29v-91h-288v77c119 88 172 129 172 181c0 25 -14 42 -37 42s-37 -17 -37 -39c0 -12 5 -21 11 -30l-90 -38c-15 18 -25 42 -25 71c0 63 50 123 145 123c94 0 144 -55 144 -128s-70 -131 -134 -168h139z" />
    <glyph glyph-name="uni2083" unicode="&#x2083;" horiz-adv-x="385" 
d="M261 74v-2c47 -7 74 -44 74 -87c0 -71 -63 -112 -149 -112c-79 0 -138 41 -149 98l86 33c6 -31 29 -48 57 -48c29 0 50 15 50 40c0 26 -19 40 -53 40h-39v67h36c36 0 50 15 50 42c0 19 -15 35 -39 35c-27 0 -43 -18 -47 -44l-88 30c12 58 64 101 142 101
c82 0 135 -41 135 -107c0 -45 -26 -78 -66 -86z" />
    <glyph glyph-name="uni2084" unicode="&#x2084;" horiz-adv-x="385" 
d="M194 -120v91h-170v74l164 215h105v-219h64v-70h-64v-91h-99zM191 156l-86 -112v-3h89v115h-3z" />
    <glyph glyph-name="uni2085" unicode="&#x2085;" horiz-adv-x="385" 
d="M69 40l10 220h237v-89h-156l-3 -65c14 12 40 22 67 22c71 0 115 -49 115 -117c0 -91 -73 -138 -152 -138c-82 0 -136 42 -149 102l91 32c6 -31 26 -49 55 -49c30 0 50 19 50 51c0 30 -17 48 -43 48c-17 0 -29 -8 -36 -17h-86z" />
    <glyph glyph-name="uni2086" unicode="&#x2086;" horiz-adv-x="385" 
d="M343 203l-67 -56c-10 23 -32 36 -58 36c-48 0 -76 -41 -76 -95v-5h1c15 26 47 43 81 43c74 0 120 -52 120 -119c0 -84 -62 -134 -142 -134c-52 0 -92 22 -120 57c-26 34 -40 79 -40 133c0 120 68 204 176 204c61 0 104 -27 125 -64zM247 2c0 29 -18 47 -46 47
s-46 -18 -46 -47s18 -47 46 -47s46 18 46 47z" />
    <glyph glyph-name="uni2087" unicode="&#x2087;" horiz-adv-x="385" 
d="M230 175h-94v-59h-92v144h299v-83l-124 -297h-115z" />
    <glyph glyph-name="uni2088" unicode="&#x2088;" horiz-adv-x="385" 
d="M193 267c89 0 140 -47 140 -107c0 -38 -21 -71 -61 -84v-1c44 -10 73 -47 73 -90c0 -64 -55 -112 -152 -112c-98 0 -152 48 -152 112c0 43 28 80 72 90v1c-40 13 -62 46 -62 84c0 60 53 107 142 107zM193 112c24 0 41 16 41 40c0 26 -17 40 -41 40s-41 -14 -41 -40
c0 -24 17 -40 41 -40zM193 37c-29 0 -46 -16 -46 -43c0 -26 17 -43 46 -43c28 0 46 17 46 43c0 27 -18 43 -46 43z" />
    <glyph glyph-name="uni2089" unicode="&#x2089;" horiz-adv-x="385" 
d="M138 138c0 -29 19 -47 47 -47c27 0 45 18 45 47s-18 47 -45 47c-28 0 -47 -18 -47 -47zM43 -63l66 56c10 -23 32 -36 58 -36c48 0 76 41 76 95v5h-1c-15 -26 -47 -43 -81 -43c-73 0 -120 52 -120 119c0 84 63 134 142 134c52 0 92 -22 119 -57c27 -34 42 -79 42 -133
c0 -120 -70 -204 -177 -204c-60 0 -103 27 -124 64z" />
    <glyph glyph-name="fraction" unicode="&#x2044;" horiz-adv-x="209" 
d="M-131 0l377 668h94l-377 -668h-94z" />
    <glyph glyph-name="onehalf" unicode="&#xbd;" horiz-adv-x="898" 
d="M341 288h-289v85h95v192l-88 -17v91l197 34v-300h85v-85zM225 0l377 668h94l-377 -668h-94zM852 91v-91h-288v77c119 88 172 129 172 181c0 25 -14 42 -37 42s-37 -17 -37 -39c0 -12 5 -21 11 -30l-90 -38c-15 18 -25 42 -25 71c0 63 50 123 145 123
c94 0 144 -55 144 -128s-70 -131 -134 -168h139z" />
    <glyph glyph-name="onequarter" unicode="&#xbc;" horiz-adv-x="870" 
d="M341 288h-289v85h95v192l-88 -17v91l197 34v-300h85v-85zM225 0l377 668h94l-377 -668h-94zM679 0v91h-170v74l164 215h105v-219h64v-70h-64v-91h-99zM676 276l-86 -112v-3h89v115h-3z" />
    <glyph glyph-name="threequarters" unicode="&#xbe;" horiz-adv-x="839" 
d="M195 0l377 668h94l-377 -668h-94zM261 482v-2c47 -7 74 -44 74 -87c0 -71 -63 -112 -149 -112c-79 0 -138 41 -149 98l86 33c6 -31 29 -48 57 -48c29 0 50 15 50 40c0 26 -19 40 -53 40h-39v67h36c36 0 50 15 50 42c0 19 -15 35 -39 35c-27 0 -43 -18 -47 -44l-88 30
c12 58 64 101 142 101c82 0 135 -41 135 -107c0 -45 -26 -78 -66 -86zM648 0v91h-170v74l164 215h105v-219h64v-70h-64v-91h-99zM645 276l-86 -112v-3h89v115h-3z" />
    <glyph glyph-name="uni2153" unicode="&#x2153;" horiz-adv-x="893" 
d="M341 288h-289v85h95v192l-88 -17v91l197 34v-300h85v-85zM225 0l377 668h94l-377 -668h-94zM769 194v-2c47 -7 74 -44 74 -87c0 -71 -63 -112 -149 -112c-79 0 -138 41 -149 98l86 33c6 -31 29 -48 57 -48c29 0 50 15 50 40c0 26 -19 40 -53 40h-39v67h36
c36 0 50 15 50 42c0 19 -15 35 -39 35c-27 0 -43 -18 -47 -44l-88 30c12 58 64 101 142 101c82 0 135 -41 135 -107c0 -45 -26 -78 -66 -86z" />
    <glyph glyph-name="uni2154" unicode="&#x2154;" horiz-adv-x="888" 
d="M225 0l377 668h94l-377 -668h-94zM763 194v-2c47 -7 74 -44 74 -87c0 -71 -63 -112 -149 -112c-79 0 -138 41 -149 98l86 33c6 -31 29 -48 57 -48c29 0 50 15 50 40c0 26 -19 40 -53 40h-39v67h36c36 0 50 15 50 42c0 19 -15 35 -39 35c-27 0 -43 -18 -47 -44l-88 30
c12 58 64 101 142 101c82 0 135 -41 135 -107c0 -45 -26 -78 -66 -86zM339 379v-91h-288v77c119 88 172 129 172 181c0 25 -14 42 -37 42s-37 -17 -37 -39c0 -12 5 -21 11 -30l-90 -38c-15 18 -25 42 -25 71c0 63 50 123 145 123c94 0 144 -55 144 -128s-70 -131 -134 -168
h139z" />
    <glyph glyph-name="uni215B" unicode="&#x215b;" horiz-adv-x="898" 
d="M341 288h-289v85h95v192l-88 -17v91l197 34v-300h85v-85zM225 0l377 668h94l-377 -668h-94zM706 387c89 0 140 -47 140 -107c0 -38 -21 -71 -61 -84v-1c44 -10 73 -47 73 -90c0 -64 -55 -112 -152 -112c-98 0 -152 48 -152 112c0 43 28 80 72 90v1c-40 13 -62 46 -62 84
c0 60 53 107 142 107zM706 232c24 0 41 16 41 40c0 26 -17 40 -41 40s-41 -14 -41 -40c0 -24 17 -40 41 -40zM706 157c-29 0 -46 -16 -46 -43c0 -26 17 -43 46 -43c28 0 46 17 46 43c0 27 -18 43 -46 43z" />
    <glyph glyph-name="uni215C" unicode="&#x215c;" horiz-adv-x="869" 
d="M195 0l377 668h94l-377 -668h-94zM261 482v-2c47 -7 74 -44 74 -87c0 -71 -63 -112 -149 -112c-79 0 -138 41 -149 98l86 33c6 -31 29 -48 57 -48c29 0 50 15 50 40c0 26 -19 40 -53 40h-39v67h36c36 0 50 15 50 42c0 19 -15 35 -39 35c-27 0 -43 -18 -47 -44l-88 30
c12 58 64 101 142 101c82 0 135 -41 135 -107c0 -45 -26 -78 -66 -86zM676 387c89 0 140 -47 140 -107c0 -38 -21 -71 -61 -84v-1c44 -10 73 -47 73 -90c0 -64 -55 -112 -152 -112c-98 0 -152 48 -152 112c0 43 28 80 72 90v1c-40 13 -62 46 -62 84c0 60 53 107 142 107z
M676 232c24 0 41 16 41 40c0 26 -17 40 -41 40s-41 -14 -41 -40c0 -24 17 -40 41 -40zM676 157c-29 0 -46 -16 -46 -43c0 -26 17 -43 46 -43c28 0 46 17 46 43c0 27 -18 43 -46 43z" />
    <glyph glyph-name="uni215D" unicode="&#x215d;" horiz-adv-x="872" 
d="M199 0l377 668h94l-377 -668h-94zM69 448l10 220h237v-89h-156l-3 -65c14 12 40 22 67 22c71 0 115 -49 115 -117c0 -91 -73 -138 -152 -138c-82 0 -136 42 -149 102l91 32c6 -31 26 -49 55 -49c30 0 50 19 50 51c0 30 -17 48 -43 48c-17 0 -29 -8 -36 -17h-86zM680 387
c89 0 140 -47 140 -107c0 -38 -21 -71 -61 -84v-1c44 -10 73 -47 73 -90c0 -64 -55 -112 -152 -112c-98 0 -152 48 -152 112c0 43 28 80 72 90v1c-40 13 -62 46 -62 84c0 60 53 107 142 107zM680 232c24 0 41 16 41 40c0 26 -17 40 -41 40s-41 -14 -41 -40
c0 -24 17 -40 41 -40zM680 157c-29 0 -46 -16 -46 -43c0 -26 17 -43 46 -43c28 0 46 17 46 43c0 27 -18 43 -46 43z" />
    <glyph glyph-name="uni215E" unicode="&#x215e;" horiz-adv-x="824" 
d="M150 0l377 668h94l-377 -668h-94zM230 583h-94v-59h-92v144h299v-83l-124 -297h-115zM631 387c89 0 140 -47 140 -107c0 -38 -21 -71 -61 -84v-1c44 -10 73 -47 73 -90c0 -64 -55 -112 -152 -112c-98 0 -152 48 -152 112c0 43 28 80 72 90v1c-40 13 -62 46 -62 84
c0 60 53 107 142 107zM631 232c24 0 41 16 41 40c0 26 -17 40 -41 40s-41 -14 -41 -40c0 -24 17 -40 41 -40zM631 157c-29 0 -46 -16 -46 -43c0 -26 17 -43 46 -43c28 0 46 17 46 43c0 27 -18 43 -46 43z" />
    <glyph glyph-name="percent" unicode="%" horiz-adv-x="847" 
d="M193 675c101 0 162 -77 162 -185c0 -107 -61 -184 -162 -184s-162 77 -162 184c0 108 61 185 162 185zM187 0l377 668h95l-378 -668h-94zM193 590c-40 0 -56 -40 -56 -100c0 -59 16 -99 56 -99s56 40 56 99c0 60 -16 100 -56 100zM654 362c101 0 162 -77 162 -184
c0 -108 -61 -185 -162 -185s-162 77 -162 185c0 107 61 184 162 184zM654 277c-40 0 -56 -40 -56 -99c0 -60 16 -100 56 -100s56 40 56 100c0 59 -16 99 -56 99z" />
    <glyph glyph-name="percent.lt" 
d="M144 675c83 0 133 -68 133 -159c0 -94 -50 -161 -133 -161c-82 0 -131 67 -131 161c0 91 49 159 131 159zM526 668l-360 -668h-79l360 668h79zM144 433c36 0 50 32 50 83c0 49 -14 82 -50 82s-50 -33 -50 -82c0 -51 14 -83 50 -83zM470 -7c-83 0 -133 68 -133 159
c0 94 50 161 133 161c82 0 131 -67 131 -161c0 -91 -49 -159 -131 -159zM470 235c-36 0 -50 -32 -50 -83c0 -49 14 -82 50 -82s50 33 50 82c0 51 -14 83 -50 83z" />
    <glyph glyph-name="plus" unicode="+" 
d="M554 270h-195v-195h-104v195h-195v104h195v195h104v-195h195v-104z" />
    <glyph glyph-name="minus" unicode="&#x2212;" 
d="M66 270v104h482v-104h-482z" />
    <glyph glyph-name="multiply" unicode="&#xd7;" 
d="M462 96l-155 155l-156 -156l-72 73l156 155l-155 155l71 72l155 -155l156 155l72 -73l-155 -155l154 -154z" />
    <glyph glyph-name="divide" unicode="&#xf7;" 
d="M385 521c0 -44 -34 -78 -78 -78s-78 34 -78 78s34 79 78 79s78 -35 78 -79zM66 270v104h482v-104h-482zM385 122c0 -43 -34 -78 -78 -78s-78 35 -78 78c0 44 34 79 78 79s78 -35 78 -79z" />
    <glyph glyph-name="equal" unicode="=" 
d="M63 374v97h488v-97h-488zM63 178v96h488v-96h-488z" />
    <glyph glyph-name="less" unicode="&#x3c;" 
d="M84 250v140l434 180v-118l-329 -132l329 -132v-119z" />
    <glyph glyph-name="greater" unicode="&#x3e;" 
d="M530 250l-434 -181v119l329 132l-329 132v118l434 -180v-140z" />
    <glyph glyph-name="period.tab" horiz-adv-x="300" 
d="M246 87c0 -54 -40 -96 -96 -96s-96 42 -96 96s40 97 96 97s96 -43 96 -97z" />
    <glyph glyph-name="comma.tab" horiz-adv-x="300" 
d="M250 59c0 -114 -74 -204 -198 -204v70c65 2 104 40 104 86c0 5 0 8 -2 11c-5 -3 -14 -5 -21 -5c-40 0 -79 27 -79 80s41 87 89 87c59 0 107 -49 107 -125z" />
    <glyph glyph-name="colon.tab" horiz-adv-x="300" 
d="M246 401c0 -54 -40 -96 -96 -96s-96 42 -96 96s40 97 96 97s96 -43 96 -97zM246 87c0 -54 -40 -96 -96 -96s-96 42 -96 96s40 97 96 97s96 -43 96 -97z" />
    <glyph glyph-name="semicolon.tab" horiz-adv-x="300" 
d="M246 401c0 -54 -40 -96 -96 -96s-96 42 -96 96s40 97 96 97s96 -43 96 -97zM250 59c0 -114 -74 -204 -198 -204v70c65 2 104 40 104 86c0 5 0 8 -2 11c-5 -3 -14 -5 -21 -5c-40 0 -79 27 -79 80s41 87 89 87c59 0 107 -49 107 -125z" />
    <glyph glyph-name="space.tab" horiz-adv-x="300" 
 />
    <glyph glyph-name="thinspace" horiz-adv-x="80" 
 />
    </font>
</defs>
</svg>
