<?xml version="1.0" standalone="no"?>
<!DOCTYPE svg PUBLIC "-//W3C//DTD SVG 1.1//EN" "http://www.w3.org/Graphics/SVG/1.1/DTD/svg11.dtd" >
<svg>
<metadata>
Created by FontForge 20120731 at Thu Apr 25 00:59:25 2019
 By www-data
Copyright 2018 by Jesse Ragan. All rights reserved.
</metadata>
<defs>
<font id="DartmouthRuzicka-Regular" horiz-adv-x="540" >
  <font-face 
    font-family="Dartmouth Ruzicka"
    font-weight="400"
    font-stretch="normal"
    units-per-em="1000"
    panose-1="2 10 5 2 3 2 5 4 2 3"
    ascent="715"
    descent="-285"
    x-height="431"
    cap-height="650"
    bbox="-130 -285 6513 905"
    underline-thickness="0"
    underline-position="0"
    unicode-range="U+0020-FB02"
  />
<missing-glyph horiz-adv-x="600" 
d="M510 -150h-420v800h420v-800zM150 595v-690h300v690h-300z" />
    <glyph glyph-name="T_h" unicode="Th" horiz-adv-x="1159" 
d="M381 41l67 -4v-37h-246v37l68 4q4 10 6 61.5t2 141.5v139q0 64 -0.5 117t-2.5 95h-53q-101 0 -133 -6.5t-71 -30.5l-17 21l66 72l3 1q23 -3 53 -4t109 -1h263q48 0 75 9t66 43l10 -9l110 5l1 -1q-1 -36 -1.5 -73.5t-0.5 -130.5v-120q43 36 81 51t87 15q84 0 120 -39.5
t36 -130.5v-167q0 -17 0.5 -33.5t1.5 -24.5l41 -7v-34h-197v34l56 6q4 12 6.5 47t2.5 84v86q0 63 -27.5 88t-97.5 25q-31 0 -58 -10.5t-52 -31.5v-178q0 -47 0.5 -72.5t2.5 -38.5l50 -5v-34h-191v34l47 5q2 20 2.5 53.5t0.5 93.5v257q0 88 -1 141.5t-4 73.5h-28l-55 -67
l-2 -1q-31 3 -67.5 4t-100.5 1h-34q-2 -19 -2.5 -66t-0.5 -126v-139q0 -99 2 -154t7 -69z" />
    <glyph glyph-name="f_b" unicode="fb" horiz-adv-x="850" 
d="M145 615q28 45 59 62.5t79 17.5q16 0 29.5 -1.5t22.5 -3.5l147 5l1 -1q-1 -36 -1.5 -73.5t-0.5 -130.5v-110q37 29 69 40.5t70 11.5q93 0 137 -47t44 -147q0 -75 -15 -111.5t-63 -70.5q-46 -33 -79.5 -44.5t-82.5 -11.5q-18 0 -48 1.5t-66 4.5l-32 -37l-28 6q3 44 4 91.5
t1 137.5v280q0 59 -1.5 102.5t-3.5 67.5l-51 2v-26l-2 -2q-7 -1 -18 0q-12 0 -39 1q-18 1 -26 1h-15q-21 0 -32 -5.5t-19 -18.5q-5 -8 -7.5 -18t-2.5 -22q0 -4 0.5 -10t2.5 -20q3 -28 4 -44.5t1 -31.5v-41h129v-46l-128 3v-236q0 -45 2 -70t7 -30l73 -1v-39h-227v34l51 5
q2 14 3.5 51t1.5 97v189h-53v43h53v19q0 51 10.5 90t39.5 87zM481 339v-189v-58t1 -25q35 -7 64.5 -10t62.5 -3q22 0 40 5t31 15q18 16 25 46.5t7 95.5v7q0 77 -29.5 112t-96.5 35q-32 0 -56.5 -7t-48.5 -24z" />
    <glyph glyph-name="f_f" unicode="ff" horiz-adv-x="614" 
d="M193 40l73 -1v-39h-227v34l51 5q2 14 3.5 51t1.5 97v189h-53v43h53v28q0 52 15.5 92t53.5 83q37 44 64 56.5t70 12.5q17 0 30.5 -1.5t22.5 -3.5l1 -2v-58l-2 -2q-7 -1 -19 0q-13 0 -41 1q-17 1 -25 1h-14q-18 0 -30.5 -4.5t-20.5 -14.5q-13 -16 -17 -32.5t-4 -51.5
q0 -4 1 -10q0 -6 1 -20q1 -22 1.5 -34.5t0.5 -23.5v-16h209v24q0 53 11 93t39 84q28 46 59 63.5t79 17.5q16 0 29 -1.5t22 -3.5l1 -2v-58l-2 -2q-7 -1 -18 0q-12 0 -40 1q-17 1 -25 1h-14q-21 0 -32 -5.5t-19 -18.5q-5 -9 -7.5 -18.5t-2.5 -21.5q0 -4 0.5 -10t2.5 -21
q3 -27 4 -44t1 -32v-46h129v-46l-128 3v-236q0 -45 2 -69.5t7 -29.5l74 -2v-39h-229v34l52 5q2 14 3.5 51t1.5 97v189h-208v-236q0 -45 2 -70t7 -30z" />
    <glyph glyph-name="f_h" unicode="fh" horiz-adv-x="885" 
d="M145 615q28 45 59 62.5t79 17.5q16 0 29.5 -1.5t22.5 -3.5l147 5l1 -1q-1 -36 -1.5 -73.5t-0.5 -130.5v-120q43 36 81 51t87 15q83 0 119 -39.5t36 -130.5v-167q0 -17 0.5 -33.5t1.5 -24.5l41 -7v-34h-196v34l56 6q4 12 6.5 47t2.5 84v86q0 63 -27.5 88t-97.5 25
q-31 0 -58 -10.5t-52 -31.5v-178q0 -47 0.5 -72.5t2.5 -38.5l50 -5v-34h-191v34l47 5q2 20 2.5 53.5t0.5 93.5v298q0 59 -1.5 102.5t-3.5 67.5l-52 2v-26l-2 -2q-7 -1 -18 0q-12 0 -39 1q-18 1 -26 1h-15q-21 0 -32 -5.5t-19 -18.5q-5 -8 -7.5 -18t-2.5 -22q0 -4 0.5 -10
t2.5 -20q3 -28 4 -44.5t1 -31.5v-41h129v-46l-128 3v-236q0 -45 2 -70t7 -30l73 -1v-39h-227v34l51 5q2 14 3.5 51t1.5 97v189h-53v43h53v19q0 51 10.5 90t39.5 87z" />
    <glyph glyph-name="uniFB01" unicode="fi" horiz-adv-x="577" 
d="M193 40l69 -1v-39h-223v34l51 5q2 14 3.5 51t1.5 97v189h-53v43h53v24q0 50 13 89t50 89q35 47 69 63.5t87 16.5q24 0 51 -2.5t47 -6.5l1 -2l-12 -63l-2 -2q-3 -1 -7.5 -2t-10.5 -1q-7 0 -17 1t-34 3q-31 4 -46.5 5t-27.5 1q-24 0 -38 -6t-23 -19q-9 -12 -12 -26t-3 -39
v-10t1 -19q1 -20 1.5 -31.5t0.5 -21.5v-41h105q39 0 92 3.5t104 9.5l1 -1q-1 -37 -1.5 -74t-0.5 -130v-76q0 -41 0.5 -68t1.5 -44l54 -5v-34h-201v34l54 5q1 26 1.5 61t0.5 86v55q0 49 -0.5 82t-2.5 53h-207v-236q0 -45 2 -70t7 -30z" />
    <glyph glyph-name="f_j" unicode="fj" horiz-adv-x="560" 
d="M428 -175q-29 -48 -55 -64.5t-63 -16.5q-6 0 -11.5 0.5t-10.5 1.5l-1 2v68l1 1h8h15q14 -1 21 -1h11q21 0 32 4t16 13q5 8 7.5 18t2.5 23v11q-1 7 -2 24q-3 37 -4 60t-1 45v227q0 49 -0.5 82t-2.5 53h-207v-236q0 -45 2 -70t7 -30l69 -1v-39h-223v34l51 5q2 14 3.5 51
t1.5 97v189h-53v43h53v24q0 50 13 89t50 89q35 47 69 63.5t87 16.5q24 0 51 -2.5t47 -6.5l1 -2l-12 -63l-2 -2q-3 -1 -7.5 -2t-10.5 -1q-7 0 -17 1t-34 3q-31 4 -46.5 5t-27.5 1q-24 0 -38 -6t-23 -19q-9 -12 -12 -26t-3 -39v-10t1 -19q1 -20 1.5 -31.5t0.5 -21.5v-41h105
q39 0 92 3.5t104 9.5l1 -1q-1 -37 -1.5 -74t-0.5 -130v-223q0 -47 -13 -90t-42 -89z" />
    <glyph glyph-name="f_k" unicode="fk" horiz-adv-x="826" 
d="M145 615q28 45 59 62.5t79 17.5q16 0 29.5 -1.5t22.5 -3.5l147 5l1 -1q-1 -36 -1.5 -73.5t-0.5 -130.5v-231h47q13 0 24 8t33 34l83 96q19 22 35 30t41 8q10 0 20.5 -1t14.5 -3l1 -1v-47l-1 -1q-8 -2 -24 -1h-17q-15 0 -24 -4t-26 -22l-87 -100q8 -3 15.5 -9t19.5 -20
l128 -156q15 -20 25.5 -26.5t28.5 -8.5v-35h-112l-2 1l-140 180q-16 19 -25.5 26t-21.5 7h-36v-67q0 -39 0.5 -65t1.5 -43l51 -5v-34h-191v34l47 5q2 20 2.5 53.5t0.5 93.5v298q0 59 -1.5 102.5t-3.5 67.5l-52 2v-26l-2 -2q-7 -1 -18 0q-12 0 -39 1q-18 1 -26 1h-15
q-21 0 -32 -5.5t-19 -18.5q-5 -8 -7.5 -18t-2.5 -22q0 -4 0.5 -10t2.5 -20q3 -28 4 -44.5t1 -31.5v-41h129v-46l-128 3v-236q0 -45 2 -70t7 -30l73 -1v-39h-227v34l51 5q2 14 3.5 51t1.5 97v189h-53v43h53v19q0 51 10.5 90t39.5 87z" />
    <glyph glyph-name="uniFB02" unicode="fl" horiz-adv-x="584" 
d="M145 615q28 45 59 62.5t79 17.5q16 0 29.5 -1.5t22.5 -3.5l153 5l1 -1q-1 -36 -1.5 -73.5t-0.5 -130.5v-339q0 -41 0.5 -68t1.5 -44l54 -5v-34h-201v34l54 5q1 26 1.5 61t0.5 86v298q0 69 -1 111t-4 59l-57 2v-26l-2 -2q-7 -1 -18 0q-12 0 -39 1q-18 1 -26 1h-15
q-21 0 -32 -5.5t-19 -18.5q-5 -8 -7.5 -18t-2.5 -22q0 -4 0.5 -10t2.5 -20q3 -28 4 -44.5t1 -31.5v-41h129v-46l-128 3v-236q0 -45 2 -70t7 -30l73 -1v-39h-227v34l51 5q2 14 3.5 51t1.5 97v189h-53v43h53v19q0 51 10.5 90t39.5 87z" />
    <glyph glyph-name="f_f_i" unicode="ffi" horiz-adv-x="874" 
d="M193 40l73 -1v-39h-227v34l51 5q2 14 3.5 51t1.5 97v189h-53v43h53v28q0 52 15.5 92t53.5 83q37 44 64 56.5t70 12.5q21 0 37 -1.5t26 -4.5l1 -2v-58l-2 -2q-8 -1 -20 0q-13 0 -43 1q-21 1 -30 2h-16q-18 0 -30.5 -4.5t-20.5 -14.5q-13 -16 -17 -32.5t-4 -51.5
q0 -4 1 -10q0 -6 1 -20q1 -22 1.5 -34.5t0.5 -23.5v-16h209v24q0 50 13 89t50 89q34 46 68 63t87 17q24 0 51.5 -2.5t47.5 -6.5l1 -2l-12 -63l-2 -2q-3 -1 -7.5 -2t-10.5 -1q-7 0 -17 1t-33 3q-32 4 -47.5 5t-28.5 1q-24 0 -37.5 -6t-22.5 -19q-9 -12 -12 -26t-3 -39v-10
t1 -19q1 -20 1.5 -31.5t0.5 -21.5v-41h105q38 0 91 3.5t104 9.5l1 -1q-1 -37 -1.5 -74t-0.5 -130v-76q0 -47 0.5 -73t2.5 -39l54 -5v-34h-202v34l54 5q2 20 2.5 53.5t0.5 93.5v55q0 49 -0.5 82t-2.5 53h-207v-236q0 -45 2 -70t7 -30l69 -1v-39h-224v34l52 5q2 14 3.5 51
t1.5 97v189h-208v-236q0 -45 2 -70t7 -30z" />
    <glyph glyph-name="f_f_l" unicode="ffl" horiz-adv-x="880" 
d="M442 615q28 45 59 62.5t79 17.5q16 0 29 -1.5t22 -3.5l154 5l1 -1q-1 -36 -1.5 -73.5t-0.5 -130.5v-339q0 -41 0.5 -68t1.5 -44l54 -5v-34h-201v34l54 5q1 26 1.5 61t0.5 86v298q0 59 -1.5 102.5t-3.5 67.5l-58 2v-26l-2 -2q-7 -1 -18 0q-12 0 -40 1q-17 1 -25 1h-14
q-21 0 -32 -5.5t-19 -18.5q-5 -8 -7.5 -18t-2.5 -22q0 -4 0.5 -10t2.5 -20q3 -28 4 -44.5t1 -31.5v-41h129v-46l-128 3v-236q0 -45 2 -70t7 -30l73 -1v-39h-228v34l52 5q2 14 3.5 51t1.5 97v189h-208v-236q0 -45 2 -70t7 -30l73 -1v-39h-227v34l51 5q2 14 3.5 51t1.5 97v189
h-53v43h53v28q0 52 15.5 92t53.5 83q37 44 64 56.5t70 12.5q21 0 36.5 -1.5t25.5 -4.5l1 -2v-58l-2 -2q-8 -1 -21 0q-13 0 -42 1q-20 1 -29 2h-16q-18 0 -30.5 -4.5t-20.5 -14.5q-13 -16 -17 -32.5t-4 -51.5q0 -4 1 -10q0 -6 1 -20q1 -22 1.5 -34.5t0.5 -23.5v-16h209v19
q0 52 10.5 91.5t39.5 85.5z" />
    <glyph glyph-name="uniE0AA" unicode="[[DARTMOUTH]]" horiz-adv-x="6618" 
d="M3664 320q0 146 97 245t246 99q153 0 249 -95.5t96 -238.5q0 -145 -97.5 -244.5t-246.5 -99.5q-153 0 -248.5 95t-95.5 239zM2520 12v-12h-185v12q24 13 32.5 36t8.5 71v460h-79q-62 0 -92.5 -8.5t-55.5 -39.5l-12 3l20 124q30 -4 68 -6t83 -2h239q45 0 83 2t68 6
l20 -124l-13 -3q-24 31 -54.5 39.5t-92.5 8.5h-79v-460q0 -48 8.5 -71t32.5 -36zM5555 12v-12h-185v12q24 13 32.5 36t8.5 71v460h-79q-62 0 -92.5 -8.5t-55.5 -39.5l-12 3l20 124q30 -4 68 -6t83 -2h239q45 0 83 2t68 6l20 -124l-12 -3q-25 31 -55.5 39.5t-92.5 8.5h-79
v-460q0 -48 8.5 -71t32.5 -36zM1113 657l252 -557q21 -45 33 -62t28 -26v-12h-190v12q26 12 27.5 34.5t-17.5 66.5l-34 79h-268l-34 -79q-20 -45 -17 -67.5t32 -33.5v-12h-167v12q19 9 32 26.5t33 61.5l252 557h38zM2920 12v-12h-160v12q23 12 33.5 34t16.5 68l77 543h48
l242 -500l242 500h48l74 -547q6 -46 15 -66.5t29 -31.5v-12h-177v12q23 10 29 33q2 10 2 25q0 18 -3 44l-40 328l-214 -434h-39l-212 433l-43 -323q-3 -22 -3 -39q0 -20 4 -33q6 -24 31 -34zM105 650h281q164 0 259 -83.5t95 -224.5q0 -158 -99 -250t-273 -92h-263v12
q22 13 29 35t7 68v419q0 47 -7 69t-29 34v13zM1707 12v-12h-175v12q19 10 27.5 34.5t8.5 68.5v419q0 44 -8.5 68.5t-27.5 34.5v13h234q125 0 188.5 -47.5t63.5 -141.5q0 -64 -37.5 -110t-106.5 -65q17 -7 36 -25.5t57 -65.5l80 -103q30 -38 48.5 -55t38.5 -25v-12h-114
q-18 0 -30 7t-25 25l-117 156q-38 51 -51 61.5t-34 10.5h-28l-29 58v9h62q68 0 105.5 34t37.5 94q0 64 -38.5 95.5t-116.5 31.5h-85v-467q0 -44 8.5 -68.5t27.5 -34.5zM4911 637v13h160v-13q-24 -14 -32.5 -37t-8.5 -70v-278q0 -127 -70.5 -196.5t-198.5 -69.5t-198.5 66.5
t-70.5 186.5v295q0 47 -7 69t-29 34v13h175v-13q-22 -12 -29 -34t-7 -69v-288q0 -87 46.5 -133t133.5 -46q84 0 130 48t46 137v278q0 47 -8 70.5t-32 36.5zM6038 650v-13q-22 -12 -29 -34t-7 -69v-167h372v167q0 47 -7 69t-29 34v13h175v-13q-22 -12 -29 -34t-7 -69v-419
q0 -46 7 -68t29 -35v-12h-175v12q22 13 29 35t7 68v181h-372v-181q0 -46 7 -68t29 -35v-12h-176v12q22 13 29 35t7 68v419q0 47 -7 69t-29 34v13h176zM3773 340q0 -121 69.5 -202t173.5 -81q103 0 164.5 68.5t61.5 184.5q0 121 -69.5 202t-173.5 81q-103 0 -164.5 -68.5
t-61.5 -184.5zM243 70h118q133 0 201.5 63t68.5 184q0 130 -66 196t-196 66h-126v-509zM1078 496l-104 -237h208z" />
    <glyph glyph-name=".notdef" horiz-adv-x="600" 
d="M510 -150h-420v800h420v-800zM150 595v-690h300v690h-300z" />
    <glyph glyph-name="space" unicode=" " horiz-adv-x="205" 
d="M0 0z" />
    <glyph glyph-name="uni00A0" unicode="&#xa0;" horiz-adv-x="205" 
d="M0 0z" />
    <glyph glyph-name="A" unicode="A" horiz-adv-x="671" 
d="M131 43l73 -6v-37h-193v37l49 6l225 601l3 2l97 9l3 -1l230 -613l42 -4v-37h-228v37l67 4q-3 29 -18 83t-35 110l-18 50l-47 -40q-33 1 -57.5 1.5t-46.5 0.5h-89l-10 -27q-18 -50 -31 -99.5t-16 -76.5zM58 37zM127 37zM503 37zM620 37zM206 297h146q27 0 42 1t27 3
l-107 292z" />
    <glyph glyph-name="B" unicode="B" horiz-adv-x="607" 
d="M556 206q0 -56 -24 -100t-68 -69q-37 -20 -72 -28.5t-77 -8.5h-270v37l59 4q5 13 7.5 70.5t2.5 151.5v113q0 104 -2.5 161.5t-8.5 71.5l-58 4v37h295q98 0 141 -34t43 -113q0 -54 -26 -94t-74 -59q66 -9 99 -45.5t33 -98.5zM208 497v-143h122q49 0 74 30.5t25 90.5v7
q0 72 -34 98t-129 26h-55q-1 -15 -2 -45.5t-1 -63.5zM213 62q20 -5 60.5 -9.5t73.5 -4.5q26 0 42 3t29 10q22 13 31 38.5t9 79.5v13q0 58 -37.5 86t-116.5 28h-96v-25q0 -94 1 -147t4 -72z" />
    <glyph glyph-name="C" unicode="C" horiz-adv-x="628" 
d="M344 -8q-137 0 -209 78.5t-72 227.5q0 124 33.5 195.5t117.5 120.5q42 24 83.5 34t98.5 10q50 0 96.5 -9.5t83.5 -26.5v-140h-40l-12 73q-29 22 -73.5 34.5t-95.5 12.5q-38 0 -64.5 -5.5t-47.5 -17.5q-47 -29 -64 -76t-17 -147v-32q0 -134 59.5 -200t180.5 -66
q51 0 95 19t77 55h3l18 -25q-44 -58 -106 -86.5t-145 -28.5z" />
    <glyph glyph-name="D" unicode="D" horiz-adv-x="724" 
d="M103 609l-58 4v37h327q157 0 222.5 -69t65.5 -228q0 -125 -31.5 -188.5t-120.5 -112.5q-54 -29 -104 -40.5t-127 -11.5h-232v37l59 4q5 13 7.5 70.5t2.5 151.5v113q0 104 -2.5 161.5t-8.5 71.5zM481 85q45 26 63 80.5t18 163.5v14q0 73 -14.5 121t-45.5 78
q-33 33 -95.5 47t-195.5 16q-1 -10 -2 -31t-1 -47v-217q0 -103 1 -160.5t4 -78.5q25 -6 59.5 -9t79.5 -3q43 0 74.5 6.5t54.5 19.5z" />
    <glyph glyph-name="E" unicode="E" horiz-adv-x="599" 
d="M359 0h-314v37l59 4q5 13 7.5 70.5t2.5 151.5v113q0 104 -2.5 161.5t-8.5 71.5l-58 4v37h316q56 0 80.5 5.5t54.5 25.5l18 -20l-67 -70l-2 -1q-43 6 -87 8t-105 2h-41q-2 -12 -3 -45t-1 -98v-94h152q56 0 83 5.5t59 23.5l16 -23l-84 -66l-3 -1q-27 2 -63 4t-61 2h-99v-28
q0 -94 1 -146.5t4 -71.5q20 -5 67.5 -9t87.5 -4q58 0 102 14.5t88 48.5l18 -20l-95 -94l-2 -1q-49 2 -74.5 2.5t-45.5 0.5z" />
    <glyph glyph-name="F" unicode="F" horiz-adv-x="532" 
d="M230 600h-18q-2 -12 -3 -45t-1 -98v-98h139q52 0 79 6.5t63 31.5l18 -20l-77 -77l-3 -1q-27 2 -63 4t-60 2h-96v-42q0 -98 2 -152.5t7 -68.5l77 -3v-39h-249v37l59 4q5 13 7.5 70.5t2.5 151.5v113q0 104 -2.5 161.5t-8.5 71.5l-58 4v37h293q56 0 80.5 5.5t54.5 25.5
l18 -20l-67 -70l-2 -1q-43 6 -87 8t-105 2z" />
    <glyph glyph-name="G" unicode="G" horiz-adv-x="696" 
d="M607 76l-1 -2q-66 -44 -128.5 -63t-134.5 -19q-142 0 -211 75.5t-69 230.5q0 124 33.5 195.5t117.5 120.5q42 24 83.5 34t98.5 10q53 0 104 -9.5t90 -26.5v-135h-41l-11 68q-29 22 -76.5 34.5t-106.5 12.5q-38 0 -64.5 -5.5t-47.5 -17.5q-48 -28 -64.5 -77t-16.5 -155
v-37q0 -129 56 -196.5t161 -67.5q38 0 71 7.5t64 22.5v155l-61 1v40h209v-2l-3 -35l-52 -5v-154z" />
    <glyph glyph-name="H" unicode="H" horiz-adv-x="776" 
d="M215 41l62 -4v-37h-232v37l62 4q3 8 5 60t2 143v142q0 96 -2 153t-5 70l-62 4v37h232v-37l-62 -4q-3 -9 -5 -61t-2 -142v-44h232q54 0 81 3t47 11v11q0 96 -2 152.5t-5 69.5l-62 4v37h232v-37l-62 -4q-3 -8 -5 -60t-2 -143v-142q0 -96 2 -153t5 -70l62 -4v-37h-232v37
l62 4q3 9 5 61t2 142v110l-59 -49q-30 2 -64.5 2.5t-83.5 0.5h-153v-44q0 -97 2 -153.5t5 -69.5z" />
    <glyph glyph-name="I" unicode="I" horiz-adv-x="341" 
d="M117 609l-67 4v37h242v-37l-67 -4q-3 -9 -5 -61t-2 -142v-142q0 -97 2 -153.5t5 -69.5l67 -4v-37h-242v37l67 4q3 8 5 60t2 143v142q0 96 -2 153t-5 70z" />
    <glyph glyph-name="J" unicode="J" horiz-adv-x="327" 
d="M163 -161q-33 -52 -63 -70t-75 -18q-6 0 -11.5 1t-19.5 4l-1 2v71l2 3q5 1 14 0q9 0 30 -1q14 -1 20 -1h11q23 0 35.5 4.5t18.5 16.5q6 10 8.5 21.5t2.5 27.5q0 5 -0.5 12t-2.5 25q-5 46 -6.5 81t-1.5 74v294q0 96 -2 153t-5 70l-77 3v38h179l1 -1q-1 -36 -1.5 -73.5
t-0.5 -130.5v-413q0 -56 -12.5 -100.5t-42.5 -92.5z" />
    <glyph glyph-name="K" unicode="K" horiz-adv-x="638" 
d="M215 41l62 -4v-37h-232v37l62 4q3 8 5 60t2 143v142q0 96 -2 153t-5 70l-62 4v37h232v-37l-62 -4q-3 -9 -5 -61t-2 -142v-57h78q14 14 27 29t25 30l165 206q15 19 23.5 27t15.5 9h68v-48h-44q-6 -1 -13.5 -7.5t-20.5 -23.5l-156 -188q-5 -7 -11.5 -14.5t-20.5 -22.5
q18 -9 37 -27.5t40 -45.5l151 -205q10 -13 21.5 -17.5t34.5 -5.5v-45h-116q-9 5 -20 17.5t-56 75.5l-110 156q-23 31 -37 40t-35 9h-46v-35q0 -96 2 -152.5t5 -69.5zM589 45zM557 602z" />
    <glyph glyph-name="L" unicode="L" horiz-adv-x="590" 
d="M576 93l-85 -95l-2 -1q-49 2 -74.5 2.5t-45.5 0.5h-324v37l59 4q5 13 7.5 70.5t2.5 151.5v113q0 104 -2.5 161.5t-8.5 71.5l-58 4v37h249v-39l-77 -3q-5 -14 -7 -68.5t-2 -152.5v-107q0 -94 1 -146.5t4 -71.5q21 -5 68 -9t87 -4q57 0 101 14.5t88 49.5z" />
    <glyph glyph-name="M" unicode="M" horiz-adv-x="889" 
d="M452 21l-2 -2l-39 -21h-3l-237 559l-7 -273q-3 -86 -2.5 -145.5t4.5 -94.5l72 -6v-38h-200v37l61 7q5 40 8.5 107t5.5 136l10 316l-70 10v37h185l4 -1q4 -20 21 -65.5t46 -115.5l139 -329q18 36 37.5 80t41.5 95l142 334l4 2h169v-37l-67 -4q-1 -10 -1 -40q0 -70 5 -251
q7 -260 14 -277l58 -4v-37h-231v37l66 4q3 9 3.5 58.5t-1.5 145.5l-8 312z" />
    <glyph glyph-name="N" unicode="N" horiz-adv-x="754" 
d="M642 26l-1 -2l-49 -32h-2l-422 574v-187q0 -164 1.5 -232t5.5 -102l64 -6v-39h-198v37l66 7q6 50 8.5 127.5t2.5 206.5v226l-66 9v37h166l4 -2l364 -499q3 49 5 108.5t2 125.5v18q0 72 -2 122.5t-7 81.5l-72 7v38h199v-37l-62 -8q-3 -33 -5 -89.5t-2 -136.5v-353z" />
    <glyph glyph-name="O" unicode="O" horiz-adv-x="724" 
d="M519 36q-42 -24 -83.5 -34t-99.5 -10q-69 0 -117.5 16.5t-84.5 52.5q-38 38 -54.5 93t-16.5 148q0 128 31.5 197t110.5 115q41 24 82.5 34t99.5 10q70 0 118.5 -16.5t84.5 -52.5q38 -39 54.5 -94.5t16.5 -146.5q0 -127 -31.5 -196t-110.5 -116zM221 99q27 -27 66.5 -39.5
t98.5 -12.5q31 0 56.5 6t46.5 18q45 26 58.5 67t13.5 156v34q0 98 -12.5 143.5t-46.5 79.5q-27 27 -66 39.5t-98 12.5q-31 0 -57 -6t-47 -18q-44 -26 -58 -68t-14 -155v-34q0 -96 12.5 -142t46.5 -81z" />
    <glyph glyph-name="P" unicode="P" horiz-adv-x="572" 
d="M215 42l78 -3v-39h-248v37l62 4q3 8 5 60t2 143v142q0 96 -2 153t-5 70l-62 4v37h295q101 0 149.5 -42.5t48.5 -131.5q0 -66 -25 -109.5t-78 -71.5q-39 -20 -71.5 -27.5t-79.5 -7.5h-76v-8q0 -92 2 -145.5t5 -64.5zM208 434v-113q44 -6 67.5 -8.5t41.5 -2.5q27 0 49 4.5
t36 13.5q23 15 31 41t8 81v11q0 81 -45 113t-154 32h-29q-2 -17 -3.5 -62.5t-1.5 -109.5z" />
    <glyph glyph-name="Q" unicode="Q" horiz-adv-x="724" 
d="M559 -47q13 -19 27 -27t50 -11v-40h-121q-15 10 -30.5 36t-45.5 91q-21 -5 -46 -7.5t-57 -2.5q-69 0 -117.5 16.5t-84.5 52.5q-38 38 -54.5 93t-16.5 148q0 128 31.5 197t110.5 115q41 24 82.5 34t99.5 10q70 0 118.5 -16.5t84.5 -52.5q38 -39 54.5 -94.5t16.5 -146.5
q0 -123 -30.5 -193.5t-111.5 -118.5q14 -33 23.5 -52t16.5 -31zM385 118zM221 96q27 -27 66.5 -39.5t98.5 -12.5q7 0 14.5 0.5t18.5 1.5q-20 44 -30 56.5t-33 18.5l-4 31l1 1q3 0 53.5 -5t55.5 -6q9 -8 18 -23t21 -43q36 24 48 65t12 149v38q0 98 -12.5 143.5t-46.5 79.5
q-27 27 -66 39.5t-98 12.5q-31 0 -57 -6t-47 -18q-44 -26 -58 -68t-14 -155v-38q0 -95 12.5 -141t46.5 -81z" />
    <glyph glyph-name="R" unicode="R" horiz-adv-x="626" 
d="M215 41l68 -4v-37h-238v37l62 4q3 8 5 60t2 143v142q0 96 -2 153t-5 70l-62 4v37h304q96 0 144 -42t48 -126q0 -71 -36 -114.5t-106 -56.5q36 -11 63.5 -47t60.5 -114l26 -62q13 -29 22 -35.5t39 -7.5v-45h-123q-7 5 -14 18t-21 45l-29 74q-34 83 -65.5 116.5t-81.5 33.5
q-21 0 -40.5 -0.5t-27.5 -1.5v-35q0 -92 2 -145t5 -64zM569 45zM208 434v-99q27 -2 51.5 -3t46.5 -1q73 0 105 30t32 97v5q0 84 -42 113.5t-161 29.5h-27q-2 -17 -3.5 -62.5t-1.5 -109.5z" />
    <glyph glyph-name="S" unicode="S" horiz-adv-x="531" 
d="M392 34q-39 -22 -76 -32t-83 -10q-51 0 -98 8t-74 21v112h40l8 -49q24 -17 73 -29.5t97 -12.5q22 0 41.5 5t34.5 15q23 14 32 37t9 67q0 56 -23 80t-97 34l-42 5q-56 8 -84.5 16t-47.5 21q-27 17 -39.5 46.5t-12.5 74.5q0 61 22.5 103.5t70.5 69.5q38 22 75 32t83 10
q43 0 83.5 -6.5t70.5 -18.5v-104h-39l-6 43q-28 16 -71 26t-83 10q-23 0 -42 -5t-35 -15q-23 -14 -32 -37t-9 -67q0 -56 23 -80t97 -34l43 -5q56 -8 84.5 -16t47.5 -21q26 -18 38.5 -47.5t12.5 -73.5q0 -61 -22.5 -103.5t-69.5 -69.5z" />
    <glyph glyph-name="T" unicode="T" horiz-adv-x="641" 
d="M381 41l67 -4v-37h-246v37l68 4q4 10 6 61.5t2 141.5v139q0 64 -0.5 117t-2.5 95h-53q-101 0 -133 -6.5t-71 -30.5l-17 21l66 72l3 1q23 -3 53 -4t109 -1h257q57 0 81 6t53 28l19 -20l-68 -71l-2 -1q-38 3 -76.5 4.5t-92.5 1.5h-28q-2 -19 -2.5 -66t-0.5 -126v-139
q0 -99 2 -154t7 -69z" />
    <glyph glyph-name="U" unicode="U" horiz-adv-x="747" 
d="M565 59q-37 -38 -77.5 -52.5t-107.5 -14.5q-142 0 -206.5 52t-64.5 167v229q0 67 -2 109.5t-6 59.5l-57 4v37h228v-37l-65 -4q-2 -20 -3 -57t-1 -83v-229q0 -101 49 -141.5t168 -40.5q44 0 72 8.5t48 28.5q24 24 33 60t9 124v104q0 80 -1.5 134.5t-5.5 87.5l-73 7v38h201
v-37l-63 -8q-3 -33 -5 -89.5t-2 -136.5v-103q0 -95 -14.5 -136.5t-53.5 -80.5z" />
    <glyph glyph-name="V" unicode="V" horiz-adv-x="652" 
d="M369 12l-3 -2l-79 -18l-3 1l-231 616l-42 4v37h228v-37l-67 -4q3 -30 18.5 -84.5t36.5 -112.5l120 -328l125 344q18 51 31.5 101.5t16.5 77.5l-73 6v37h194v-37l-49 -6zM594 613zM529 613zM160 613zM51 613z" />
    <glyph glyph-name="W" unicode="W" horiz-adv-x="997" 
d="M725 12l-3 -2l-74 -18l-3 1l-148 423l-146 -404l-3 -2l-74 -18l-3 1l-212 616l-44 4v37h224v-37l-65 -4q3 -31 17 -85.5t33 -111.5l108 -316l139 393l-42 120l-53 4v37h229v-37l-63 -4q4 -30 19 -84.5t35 -112.5l110 -314l110 329q17 52 29.5 102.5t13.5 77.5l-71 6v37
h194v-37l-51 -6zM535 613zM428 613zM162 613zM58 613z" />
    <glyph glyph-name="X" unicode="X" horiz-adv-x="625" 
d="M140 43l73 -6v-37h-193v37l42 6l200 274l-204 292l-38 4v37h221v-37l-63 -4q8 -17 22 -40.5t37 -57.5l95 -138l70 98q27 39 48 75t31 61l-73 6v37h197v-37l-47 -6l-194 -267l207 -299l35 -4v-37h-218v37l63 4q-9 20 -23.5 44t-35.5 54l-99 145l-74 -105q-27 -39 -48 -75
t-31 -61zM58 37zM131 37zM562 613zM490 613zM458 37zM574 37zM172 613zM55 613z" />
    <glyph glyph-name="Y" unicode="Y" horiz-adv-x="598" 
d="M351 41l67 -4v-37h-238v37l67 4q3 19 4 52.5t1 85.5v75q0 19 -2 28t-10 21l-196 306l-33 4v37h219v-37l-69 -4q8 -19 21.5 -44t33.5 -57l107 -169l80 128q24 38 43 76t27 64l-70 6v37h184v-37l-38 -6l-192 -298q-7 -11 -9 -20.5t-2 -30.5v-73q0 -54 1 -89t4 -55zM155 613
zM41 613zM553 613zM482 613z" />
    <glyph glyph-name="Z" unicode="Z" horiz-adv-x="589" 
d="M565 120l-62 -122l-2 -1q-47 2 -72.5 2.5t-45.5 0.5h-362l-2 5l311 465q37 55 51.5 79t24.5 43q-22 4 -51.5 6t-64.5 2h-87q-61 0 -87 -11t-55 -54l-26 15l55 102l2 1q47 -2 72.5 -2.5t46.5 -0.5h337l2 -5l-311 -465q-33 -50 -49 -75.5t-27 -46.5q23 -4 53.5 -6t66.5 -2
h83q77 0 106.5 15t65.5 69z" />
    <glyph glyph-name="a" unicode="a" horiz-adv-x="459" 
d="M424 32v-32l-93 -11h-3q-13 6 -23 20t-15 35q-33 -29 -59.5 -38t-64.5 -9q-66 0 -97 26t-31 80q0 37 16 61.5t58 47.5q37 20 80 30.5t94 12.5v45q0 47 -20 67t-67 20q-33 0 -63.5 -10t-65.5 -33l-2 1v49q32 20 77.5 32.5t87.5 12.5q79 0 110.5 -30t31.5 -105v-29
q-1 -19 -2 -65q-2 -52 -2.5 -75t-0.5 -36q0 -33 12 -48.5t42 -18.5zM124 124v-7q0 -35 21 -52t65 -17q33 0 52 15.5t20 43.5l2 84q-15 6 -32 8.5t-37 2.5q-51 0 -71 -17t-20 -61z" />
    <glyph glyph-name="b" unicode="b" 
d="M413 56q-48 -33 -81 -44.5t-81 -11.5q-18 0 -48 1.5t-66 4.5l-32 -37l-29 6q4 43 5 89t1 140v279q0 59 -1.5 103t-3.5 68l-52 2v34l147 5l1 -1q-2 -56 -2.5 -100.5t-0.5 -103.5v-110q38 29 69.5 40.5t69.5 11.5q94 0 138 -47t44 -147q0 -75 -15 -111.5t-63 -70.5z
M170 339v-189v-24q0 -13 1 -33v-17v-9q36 -7 65.5 -10t62.5 -3q22 0 40 5t30 15q18 16 25.5 46.5t7.5 95.5v7q0 77 -29.5 112t-96.5 35q-33 0 -57.5 -7t-48.5 -24z" />
    <glyph glyph-name="c" unicode="c" horiz-adv-x="433" 
d="M396 80h2l17 -22q-28 -31 -70 -48.5t-86 -17.5q-52 0 -92 14.5t-70 44.5q-24 24 -36 60t-12 83q0 79 25 127.5t88 87.5q29 17 56.5 24t62.5 7q32 0 65 -7t56 -19v-2l-17 -66h-2q-45 23 -81 34t-67 11q-51 0 -74 -40.5t-23 -128.5v-6q0 -81 42.5 -124.5t120.5 -43.5
q26 0 50.5 8.5t44.5 23.5z" />
    <glyph glyph-name="d" unicode="d" horiz-adv-x="548" 
d="M515 32v-32l-101 -20h-1q-13 11 -22.5 33.5t-11.5 50.5q-47 -42 -76 -53t-76 -11q-91 0 -134.5 47t-43.5 145q0 68 19 108.5t76 80.5q41 30 73 40.5t75 10.5q19 0 39 -1t38 -3v55q0 70 -1 112t-4 59l-52 2v34l147 5l1 -1q-1 -36 -1.5 -73.5t-0.5 -130.5v-314
q0 -92 9 -116t48 -28zM138 221v-17q0 -74 31.5 -108t102.5 -34q28 0 54 9.5t43 26.5v264q-39 8 -67.5 11.5t-55.5 3.5q-23 0 -40 -4.5t-29 -14.5q-21 -16 -30 -48t-9 -89z" />
    <glyph glyph-name="e" unicode="e" horiz-adv-x="472" 
d="M416 74l-12 -31q-21 -20 -65 -35.5t-85 -15.5q-51 0 -88.5 12.5t-64.5 38.5q-28 27 -40 64.5t-12 97.5q0 80 27.5 129t93.5 81q28 14 51.5 19.5t53.5 5.5q76 0 115 -34.5t39 -102.5q0 -17 -1 -32t-3 -26l-70 -53l-219 5q0 -75 41.5 -109.5t133.5 -34.5q27 0 51.5 5.5
t51.5 17.5zM346 300q0 50 -22.5 71t-74.5 21q-65 0 -87.5 -33t-25.5 -118l208 3q1 16 1.5 30t0.5 26z" />
    <glyph glyph-name="f" unicode="f" horiz-adv-x="317" 
d="M193 41l74 -2v-39h-228v34l51 5q2 14 3.5 51t1.5 97v189h-53v43h53v24q0 51 10.5 91t39.5 86q28 46 59 63.5t79 17.5q16 0 29.5 -1.5t22.5 -3.5l1 -2v-58l-2 -2q-7 -1 -18 0q-12 0 -39 1q-18 1 -26 1h-15q-21 0 -32 -5.5t-19 -18.5q-5 -9 -7.5 -18.5t-2.5 -21.5
q0 -4 0.5 -10t2.5 -21q3 -27 4 -44t1 -32v-46h129v-46l-128 3v-236q0 -45 2 -69.5t7 -29.5z" />
    <glyph glyph-name="g" unicode="g" horiz-adv-x="500" 
d="M482 -109q0 -40 -15 -66.5t-52 -53.5q-40 -29 -92.5 -42.5t-127.5 -13.5q-82 0 -124.5 22.5t-42.5 64.5q0 38 24.5 68t83.5 66q-4 6 -6 17t-2 25q0 33 12 50t51 41q-84 17 -118.5 56t-34.5 117q0 71 27 112.5t90 65.5q25 10 48.5 15t46.5 5q46 0 80.5 -12.5t56.5 -36.5
h103l2 -1l-6 -58h-70q2 -12 3.5 -23.5t1.5 -23.5q0 -72 -17.5 -108.5t-76.5 -67.5q-29 -13 -51.5 -22t-37.5 -14q-20 -12 -30 -25t-10 -26q0 -10 8 -12.5t40 -3.5l101 -3q67 -1 101 -29.5t34 -82.5zM233 400q-13 0 -26.5 -2.5t-26.5 -6.5q-33 -14 -44.5 -43t-11.5 -102v-5
q0 -38 12.5 -57.5t48.5 -36.5q21 -9 40 -14t35 -5q14 0 25 3t19 9q20 15 27.5 43t7.5 88v7q0 60 -27 91t-79 31zM166 -81q-32 -22 -46 -39.5t-14 -35.5q0 -34 46 -53t131 -19q36 0 62.5 6.5t43.5 20.5q14 11 19.5 23t5.5 29q0 40 -36 56t-122 16q-33 0 -54.5 -1t-35.5 -3z
" />
    <glyph glyph-name="h" unicode="h" horiz-adv-x="580" 
d="M178 39l50 -5v-34h-191v34l48 5q1 26 1.5 61t0.5 86v297q0 59 -1.5 103t-3.5 68l-52 2v34l147 5l1 -1q-2 -56 -2.5 -100.5t-0.5 -103.5v-120q43 36 81 51t87 15q84 0 120 -39.5t36 -130.5v-167q0 -17 0.5 -33.5t1.5 -24.5l41 -7v-34h-197v34l56 6q4 12 6.5 47t2.5 84v86
q0 63 -27.5 88t-97.5 25q-31 0 -58 -10.5t-52 -31.5v-178q0 -32 0.5 -57t2.5 -54z" />
    <glyph glyph-name="i" unicode="i" horiz-adv-x="282" 
d="M190 589q0 -18 -20 -32t-44 -14q-20 0 -35 16t-15 33q0 16 26.5 32.5t49.5 16.5q17 0 27.5 -16t10.5 -36zM244 34v-34h-201v34l54 5q1 24 1.5 57t0.5 81v65q0 61 -1 98t-4 55l-54 2v34l149 6l1 -1q-1 -32 -1.5 -64t-0.5 -113v-90q0 -48 0.5 -79.5t1.5 -50.5z" />
    <glyph glyph-name="j" unicode="j" horiz-adv-x="263" 
d="M174 589q0 -18 -20 -32t-44 -14q-20 0 -35 16t-15 33q0 16 26 32.5t50 16.5q16 0 27 -16t11 -36zM95 14v228q0 61 -1 98t-4 55l-57 2v34l151 6l1 -1q-1 -37 -1.5 -74.5t-0.5 -129.5v-228q0 -47 -13 -90.5t-41 -88.5q-29 -48 -55 -64.5t-63 -16.5q-6 0 -11 0.5t-12 1.5
l-1 2v68l1 1h8h16q14 -1 21 -1h11q21 0 32 4t16 13q5 7 7 17t2 24v11q-1 7 -2 24q-2 37 -3 60t-1 45z" />
    <glyph glyph-name="k" unicode="k" horiz-adv-x="520" 
d="M178 39l50 -5v-34h-191v34l48 5q1 26 1.5 61t0.5 86v297q0 59 -1.5 103t-3.5 68l-52 2v34l147 5l1 -1q-2 -56 -2.5 -100.5t-0.5 -103.5v-231h47q13 0 24 8t33 34l83 96q19 22 35 30t41 8q10 0 21 -1t14 -3l1 -1v-47l-1 -1q-7 -2 -24 -1h-17q-15 0 -24 -4t-26 -22
l-87 -100q8 -3 15.5 -9t19.5 -20l128 -156q15 -20 25.5 -26.5t29.5 -8.5v-35h-112l-3 1l-140 180q-16 20 -25.5 26.5t-21.5 6.5h-36v-67q0 -45 0.5 -70t2.5 -38zM487 35z" />
    <glyph glyph-name="l" unicode="l" horiz-adv-x="281" 
d="M241 34v-34h-201v34l54 5q1 26 1.5 61t0.5 86v297q0 59 -1.5 103t-3.5 68l-58 2v34l153 5l1 -1q-1 -36 -1.5 -73.5t-0.5 -130.5v-339q0 -41 0.5 -68t1.5 -44z" />
    <glyph glyph-name="m" unicode="m" horiz-adv-x="869" 
d="M180 39l51 -5v-34h-191v34l47 5q2 48 2.5 78.5t0.5 68.5v54q0 56 -1.5 96t-3.5 53l-52 4v34l130 13l2 -1l6 -68q46 37 83.5 51.5t83.5 14.5t79 -17.5t51 -50.5q41 37 77.5 52.5t83.5 15.5q82 0 118.5 -41t36.5 -129v-168q0 -16 0.5 -33t1.5 -26l41 -6v-34h-196v34l56 6
q4 12 6.5 46t2.5 82v85q0 63 -28 92.5t-89 29.5q-30 0 -53 -9t-42 -28q-1 -17 -2 -42t-1 -52v-103q0 -35 0.5 -60.5t1.5 -41.5l54 -5v-34h-200v34l53 5q2 28 2.5 56t0.5 64v85q0 72 -24.5 101.5t-88.5 29.5q-28 0 -52.5 -10t-46.5 -30q-1 -17 -2 -41.5t-1 -49.5v-94
q0 -40 0.5 -67t1.5 -44z" />
    <glyph glyph-name="n" unicode="n" horiz-adv-x="586" 
d="M180 40l60 -6v-34h-200v34l47 5q2 48 2.5 78.5t0.5 68.5v50q0 47 -0.5 83.5t-2.5 69.5l-50 6v30l132 17l2 -1l-3 -89q44 51 79 68t84 17q93 0 131.5 -43.5t38.5 -144.5v-150q0 -16 0.5 -33t1.5 -25l41 -7v-34h-196v34l56 6q4 12 6.5 47.5t2.5 83.5v82q0 63 -28 91t-94 28
q-54 0 -83.5 -29t-29.5 -80v-111q0 -40 0.5 -67t1.5 -45z" />
    <glyph glyph-name="o" unicode="o" horiz-adv-x="534" 
d="M376 23q-29 -17 -56.5 -24t-63.5 -7q-53 0 -90 13t-65 41q-26 26 -39 65t-13 90q0 79 24.5 126.5t84.5 81.5q29 17 56.5 24t63.5 7q52 0 89 -13t66 -42q26 -26 39 -65t13 -89q0 -80 -24.5 -127t-84.5 -81zM176 75q17 -17 45.5 -26t66.5 -9q23 0 38.5 3.5t27.5 11.5
q23 14 31 43.5t8 100.5v10q0 66 -7.5 96.5t-27.5 50.5q-18 18 -46.5 27t-65.5 9q-21 0 -37 -3.5t-29 -11.5q-23 -15 -31 -45.5t-8 -99.5v-9q0 -66 7.5 -97t27.5 -51z" />
    <glyph glyph-name="p" unicode="p" horiz-adv-x="548" 
d="M238 -239v-2l-16 -31l-134 20q1 42 1.5 92.5t0.5 179.5v310q0 33 -9.5 45t-47.5 12v34l136 21l2 -1l4 -65q38 31 71 43.5t72 12.5q94 0 138 -47t44 -147q0 -75 -15 -111.5t-64 -70.5q-47 -33 -79.5 -44.5t-81.5 -11.5q-11 0 -28.5 1l-52.5 3v-22q0 -53 2 -115.5t4 -83.5z
M182 340q-1 -18 -2 -42.5t-1 -50.5v-179q35 -8 64.5 -11t63.5 -3q23 0 41 5t30 15q18 14 25 44.5t7 97.5v7q0 78 -29 112.5t-96 34.5q-33 0 -56.5 -7t-46.5 -23z" />
    <glyph glyph-name="q" unicode="q" 
d="M460 464v-691l-131 -45l-16 33l53 32q2 28 3.5 72.5t1.5 96.5v87q-34 -26 -67 -37.5t-74 -11.5q-90 0 -134.5 47t-44.5 143q0 73 16.5 113t61.5 72q47 34 80.5 45.5t80.5 11.5q18 0 42 -3.5t49 -10.5l74 48zM140 215v-6q0 -75 30 -111.5t93 -36.5q41 0 66 7t42 24v251
q-43 19 -72.5 27t-55.5 8q-23 0 -40.5 -5.5t-30.5 -15.5q-18 -15 -25 -46t-7 -96z" />
    <glyph glyph-name="r" unicode="r" horiz-adv-x="358" 
d="M182 46l70 -8v-38h-212v34l47 5q2 48 2.5 78.5t0.5 68.5v50q0 67 -1.5 102.5t-5.5 53.5l-48 6v29l134 23l2 -1v-128q26 47 35 60t16 22q16 18 36 25.5t50 7.5q14 0 25.5 -1.5t15.5 -3.5l2 -2l-4 -66l-1 -3q-2 -2 -8.5 -3t-16.5 -1h-12q-7 0 -19 1h-13h-9q-15 0 -25.5 -4
t-20.5 -14q-21 -21 -32.5 -59t-11.5 -89v-63q0 -39 1 -57.5t3 -24.5z" />
    <glyph glyph-name="s" unicode="s" horiz-adv-x="391" 
d="M264 58q7 7 9.5 18.5t2.5 33.5q0 33 -15.5 46.5t-65.5 20.5l-32 4q-78 10 -102 33t-24 71q0 46 16.5 72t73.5 59q25 14 44 19t44 5q30 0 61 -5.5t54 -14.5l2 -3l-11 -61h-2q-21 14 -56.5 24.5t-67.5 10.5q-24 0 -39 -4.5t-24 -14.5q-8 -7 -11.5 -19t-3.5 -32
q0 -32 15.5 -45t63.5 -19l33 -5q76 -9 102 -33t26 -71t-13.5 -72.5t-56.5 -50.5q-33 -20 -57 -26.5t-57 -6.5q-27 0 -59 5.5t-58 13.5l-1 2l-9 65l3 2q33 -17 73.5 -27t79.5 -10q24 0 38.5 3.5t23.5 11.5z" />
    <glyph glyph-name="t" unicode="t" horiz-adv-x="334" 
d="M316 82l14 -14q-31 -44 -59.5 -60t-68.5 -16q-27 0 -50.5 8.5t-37.5 23.5q-14 13 -19 30.5t-5 49.5v272h-68v43h68v116l88 4v-120h134l1 -2l-11 -44l-124 3v-259q0 -14 4 -24.5t12 -18.5q9 -9 23.5 -14t32.5 -5q16 0 31.5 6.5t34.5 20.5z" />
    <glyph glyph-name="u" unicode="u" horiz-adv-x="569" 
d="M537 32v-32l-100 -20h-3q-13 11 -22 33t-12 48q-46 -35 -83.5 -49.5t-78.5 -14.5q-81 0 -117 35t-36 115v240l-45 9v32l132 5l1 -1v-282q0 -46 28.5 -67.5t89.5 -21.5q28 0 50 6.5t34 18.5q9 9 12.5 21t3.5 39v285h89v-255q0 -93 9 -116.5t48 -27.5z" />
    <glyph glyph-name="v" unicode="v" horiz-adv-x="495" 
d="M292 10l-3 -3l-74 -25l-4 1l-171 409l-31 9v30h195v-30l-57 -9q2 -14 14 -49t32 -86l77 -191l71 178q17 40 28.5 83t12.5 64l-60 12v28h164v-28l-35 -13zM456 403zM397 403zM138 401zM36 401z" />
    <glyph glyph-name="w" unicode="w" horiz-adv-x="766" 
d="M572 7l-3 -3l-68 -22l-4 1l-115 291l-106 -267l-4 -3l-67 -22l-4 1l-160 409l-32 9v30h193v-30l-56 -9q0 -11 11 -44.5t32 -90.5l69 -183l65 168q11 29 19 53.5t14 44.5l-17 42l-43 9v31h193v-31l-48 -9q3 -15 13.5 -45.5t29.5 -79.5l69 -183l65 174q15 42 25 83t9 60
l-59 12v28h164v-28l-36 -13zM433 391zM335 391zM726 403zM667 403zM137 401zM37 401z" />
    <glyph glyph-name="x" unicode="x" horiz-adv-x="492" 
d="M122 38l54 -9v-29h-161v29l34 11l148 168l-149 184l-30 9v30h193v-30l-49 -9q4 -9 17.5 -27.5t30.5 -40.5l55 -69l49 58q18 21 34 45.5t19 34.5l-55 10v28h162v-28l-34 -12l-146 -163l153 -189l30 -8v-31h-194v31l50 8q-4 9 -17.5 27.5t-30.5 40.5l-58 72l-52 -61
q-20 -23 -35.5 -46.5t-17.5 -33.5zM39 29zM107 29zM451 403zM378 403zM343 31zM453 31zM148 401zM41 401z" />
    <glyph glyph-name="y" unicode="y" horiz-adv-x="495" 
d="M198 -223q-20 -20 -46.5 -27t-68.5 -5l-2 2v63l2 2q4 1 42 7q37 6 49 18q7 7 11 17.5t12 38.5l22 92q-5 18 -16 45t-33 75l-131 287l-30 9v30h195v-30l-58 -9q2 -12 14.5 -46t36.5 -87l71 -165l68 150q19 41 32.5 84t15.5 63l-59 12v28h161v-28l-34 -13l-187 -400
l-32 -135q-8 -30 -16 -48.5t-19 -29.5zM137 401zM35 401zM176 -187zM188 -175zM458 403zM395 403z" />
    <glyph glyph-name="z" unicode="z" horiz-adv-x="435" 
d="M425 76l-48 -74l-4 -2h-360l-2 4l274 376q-21 3 -41.5 4t-43.5 1h-25q-50 0 -82.5 -4.5t-55.5 -15.5l-5 3l26 63l2 2q29 -1 62.5 -1.5t62.5 -0.5h227l3 -4l-272 -374q30 -3 53 -4.5t42 -1.5h21q48 0 84.5 7t77.5 26z" />
    <glyph glyph-name="a.smcp" horiz-adv-x="515" 
d="M110 40l57 -5v-35h-158v35l37 5l163 419l2 1l86 13l2 -1l175 -433l33 -4v-35h-193v35l51 4q-2 16 -11 48t-22 68l-6 15h-181q-14 -37 -23.5 -74t-11.5 -56zM234 405l-73 -193h149z" />
    <glyph glyph-name="b.smcp" horiz-adv-x="510" 
d="M458 149q0 -42 -18.5 -72.5t-55.5 -50.5q-29 -14 -56.5 -20t-59.5 -6h-227v35l47 4q3 9 4 46t1 103v81q0 75 -1.5 111t-4.5 46l-46 4v35h251q74 0 106.5 -24t32.5 -79q0 -40 -21 -68t-60 -41q55 -6 81.5 -31.5t26.5 -72.5zM183 345v-87h85q37 0 55 20t18 60v7
q0 47 -24.5 65t-88.5 18h-43q-1 -9 -1.5 -26t-0.5 -57zM186 50q19 -4 45.5 -6.5t48.5 -2.5q17 0 31.5 3t25.5 9q16 9 22.5 25.5t6.5 50.5v9q0 39 -26.5 58.5t-80.5 19.5h-76v-17q0 -65 0.5 -100.5t2.5 -48.5z" />
    <glyph glyph-name="c.smcp" horiz-adv-x="499" 
d="M271 -8q-107 0 -162.5 56t-55.5 163q0 89 26 139.5t93 88.5q32 19 64 26.5t76 7.5q35 0 70 -6t66 -18v-115h-40l-10 60q-23 15 -54.5 23t-65.5 8q-28 0 -46 -3.5t-33 -12.5q-31 -18 -41.5 -48.5t-10.5 -99.5v-29q0 -94 41.5 -139.5t127.5 -45.5q39 0 72.5 13.5t58.5 38.5
h3l15 -22q-34 -43 -82.5 -64t-111.5 -21z" />
    <glyph glyph-name="d.smcp" horiz-adv-x="578" 
d="M87 426l-46 4v35h271q115 0 164 -49.5t49 -161.5q0 -87 -25 -133t-97 -85q-37 -20 -75 -28t-94 -8h-193v35l47 4q3 9 4 46t1 103v81q0 75 -1.5 111t-4.5 46zM379 67q30 17 42 52.5t12 108.5v17q0 52 -10.5 85t-32.5 54q-25 24 -69.5 33.5t-135.5 10.5q-1 -10 -2 -28
t-1 -44v-140q0 -62 1 -102t3 -57q21 -5 46 -7t56 -2t53 4.5t38 14.5z" />
    <glyph glyph-name="e.smcp" horiz-adv-x="482" 
d="M438 92l17 -18l-71 -76h-2q-21 1 -50.5 1.5t-56.5 0.5h-234v35l47 4q3 9 4 46t1 103v81q0 75 -1.5 111t-4.5 46l-46 4v35h246q35 0 55.5 4t49.5 21l16 -17l-52 -56l-2 -1q-32 4 -64.5 6t-74.5 2h-30q-1 -10 -2 -27.5t-1 -43.5v-91h107q36 0 57.5 4.5t50.5 20.5l14 -20
l-64 -54l-2 -1q-12 2 -38.5 3.5t-53.5 1.5h-71v-21q0 -57 1 -94.5t3 -51.5q22 -5 48.5 -7t58.5 -2q41 0 73.5 11t71.5 40z" />
    <glyph glyph-name="f.smcp" horiz-adv-x="434" 
d="M88 426l-47 4v35h229q36 0 56.5 4.5t48.5 20.5l17 -17l-53 -56l-1 -1q-34 4 -66 6t-74 2h-12q-2 -13 -3 -48t-1 -86v-31h97q33 0 53.5 5t54.5 26l17 -18l-60 -62h-2q-15 2 -41 3t-50 1h-69v-27q0 -64 1.5 -101t3.5 -47l57 -4v-35h-203v35l47 4q3 8 4 42t1 96v98
q0 65 -1.5 103t-3.5 48z" />
    <glyph glyph-name="g.smcp" horiz-adv-x="549" 
d="M475 52l-1 -1q-47 -29 -98 -43.5t-107 -14.5q-109 0 -162.5 54t-53.5 164q0 88 26 139t94 89q34 19 66 26.5t77 7.5q40 0 77 -6.5t66 -17.5v-111h-40l-10 56q-23 15 -56.5 23t-71.5 8q-28 0 -46.5 -4t-33.5 -12q-32 -19 -43 -49.5t-11 -98.5v-40q0 -90 40 -136.5
t117 -46.5q23 0 43.5 4t40.5 13v106l-48 2v36h178v-2l-3 -33l-40 -4v-108z" />
    <glyph glyph-name="h.smcp" horiz-adv-x="613" 
d="M187 39l47 -4v-35h-193v35l47 4q3 8 4 42t1 96v98q0 65 -1.5 103t-3.5 48l-47 4v35h193v-35l-47 -4q-2 -7 -3.5 -41.5t-1.5 -94.5v-28h249v19q0 62 -1 98t-4 48l-48 3v35h194v-35l-48 -3q-3 -9 -4 -43.5t-1 -95.5v-100q0 -65 1 -102t4 -48l48 -3v-35h-194v35l48 3
q3 9 4 43t1 94v42h-249v-30q0 -64 1.5 -101t3.5 -47z" />
    <glyph glyph-name="i.smcp" horiz-adv-x="285" 
d="M93 426l-51 4v35h201v-35l-51 -4q-2 -7 -3.5 -41.5t-1.5 -94.5v-103q0 -64 1.5 -101t3.5 -47l51 -4v-35h-201v35l51 4q3 8 4 42t1 96v98q0 65 -1.5 103t-3.5 48z" />
    <glyph glyph-name="j.smcp" horiz-adv-x="279" 
d="M144 -176q-31 -44 -55.5 -58.5t-60.5 -14.5q-2 0 -8 0.5t-15 2.5l-1 2v62l1 2q5 1 13 1q7 0 24 -1q10 -1 15 -1h8q17 0 25.5 3.5t13.5 11.5q4 7 6 15t2 18q0 4 -0.5 9.5t-2.5 20.5q-5 34 -7 58.5t-2 50.5v266q0 67 -1 105.5t-4 48.5l-58 2v37h154l1 -1q-1 -24 -1.5 -50.5
t-0.5 -96.5v-345q0 -45 -10.5 -79t-35.5 -69z" />
    <glyph glyph-name="k.smcp" horiz-adv-x="512" 
d="M187 39l47 -4v-35h-193v35l47 4q3 8 4 42t1 96v98q0 65 -1.5 103t-3.5 48l-47 4v35h193v-35l-47 -4q-2 -7 -3.5 -41.5t-1.5 -93.5v-37h58q4 4 14 14.5t25 27.5l110 134q14 18 22.5 26t13.5 9h63v-43h-39q-6 -1 -14 -8t-20 -22l-99 -118l-4 -4t-5 -6q-4 -5 -6 -7l-4 -4
q13 -6 26.5 -19t30.5 -35l108 -142q9 -12 17.5 -15.5t25.5 -4.5v-37h-104q-9 4 -20 18t-38 52l-78 108q-14 20 -24 26.5t-25 6.5h-34v-25q0 -64 1 -100.5t4 -46.5z" />
    <glyph glyph-name="l.smcp" horiz-adv-x="464" 
d="M389 -2h-2q-21 1 -49.5 1.5t-53.5 0.5h-243v35l47 4q3 8 4 42t1 96v98q0 65 -1.5 103t-3.5 48l-47 4v35h203v-35l-57 -4q-2 -7 -3.5 -41.5t-1.5 -94.5v-93q0 -61 1.5 -97.5t3.5 -48.5q17 -4 48 -7t59 -3q40 0 72 11t70 41l18 -18z" />
    <glyph glyph-name="m.smcp" horiz-adv-x="697" 
d="M142 40l56 -5v-35h-162v35l48 5q3 24 5.5 64t4.5 97l7 221l-54 8v35h162l3 -1q4 -17 15.5 -48.5t30.5 -74.5l92 -211q13 24 26.5 52.5t28.5 63.5l96 217l2 2h150v-35l-51 -3q-2 -29 3.5 -199.5t10.5 -189.5l44 -3v-35h-192v35l50 3q2 10 2 45q0 34 -1 94l-5 210
l-164 -370l-1 -2l-32 -15h-2l-169 382l-5 -183q-2 -68 -1.5 -104t2.5 -55z" />
    <glyph glyph-name="n.smcp" horiz-adv-x="592" 
d="M499 16l-1 -1l-53 -23h-2l-298 392v-203q0 -54 1.5 -88t4.5 -52l53 -6v-35h-165v35l54 6q2 22 3.5 60.5t1.5 90.5v230l-54 8v35h145l3 -1l257 -343q1 50 1.5 84.5t0.5 62.5v16q0 51 -1.5 86t-3.5 54l-56 6v35h163v-35l-49 -6q-2 -22 -3.5 -60.5t-1.5 -90.5v-257z" />
    <glyph glyph-name="o.smcp" horiz-adv-x="581" 
d="M411 25q-33 -18 -64 -25.5t-71 -7.5q-57 0 -96.5 13.5t-69.5 42.5q-29 27 -43 68.5t-14 100.5q0 86 26 136.5t91 86.5q32 18 63.5 25.5t72.5 7.5q58 0 97.5 -13.5t68.5 -42.5q29 -28 42.5 -69.5t13.5 -99.5q0 -86 -26.5 -136.5t-90.5 -86.5zM187 79q20 -19 51 -28.5
t74 -9.5q25 0 42.5 4t31.5 13q28 16 37.5 45.5t9.5 101.5v33q0 66 -9 97t-31 53q-20 19 -51 28.5t-74 9.5q-24 0 -41.5 -4t-33.5 -13q-27 -16 -36.5 -46t-9.5 -102v-32q0 -66 9 -97t31 -53z" />
    <glyph glyph-name="p.smcp" horiz-adv-x="480" 
d="M189 36l57 -2v-34h-203v32l45 3q3 10 4 48t1 105v81q0 76 -1.5 113t-4.5 48l-44 3v32h249q78 0 116 -31t38 -96q0 -51 -19 -82t-63 -53q-37 -18 -63.5 -24.5t-59.5 -6.5h-59v-7q0 -57 1.5 -88.5t5.5 -40.5zM182 323v-96q22 -4 42 -6t37 -2q21 0 37 3.5t26 10.5
q18 11 24 28t6 55v10q0 54 -33 76t-112 22h-24q-2 -10 -2.5 -34.5t-0.5 -66.5z" />
    <glyph glyph-name="q.smcp" horiz-adv-x="581" 
d="M530 -68l2 -38l-109 -9q-9 2 -21.5 14t-30.5 37q-6 8 -20 29q-15 21 -22 31q-11 -2 -23.5 -3t-29.5 -1q-57 0 -96.5 13.5t-69.5 42.5q-29 27 -43 68.5t-14 100.5q0 86 26 136.5t91 86.5q32 18 63.5 25.5t72.5 7.5q58 0 97.5 -13.5t68.5 -42.5q29 -28 42.5 -69.5
t13.5 -99.5q0 -86 -26.5 -136.5t-90.5 -86.5q-1 -1 -2 -1.5t-2 -0.5q36 -53 57 -70t66 -21zM187 79q15 -15 37.5 -24t51.5 -13v16l70 26q9 -4 18.5 -11t18.5 -17l3 1q28 16 37.5 46t9.5 102v33q0 66 -9 97t-31 53q-20 19 -51 28.5t-74 9.5q-24 0 -41.5 -4t-33.5 -13
q-27 -16 -36.5 -46t-9.5 -102v-32q0 -67 9 -98t31 -52z" />
    <glyph glyph-name="r.smcp" horiz-adv-x="517" 
d="M187 39l47 -4v-35h-193v35l47 4q3 8 4 42t1 96v98q0 65 -1.5 103t-3.5 48l-47 4v35h255q73 0 109.5 -30t36.5 -89q0 -52 -27.5 -83.5t-81.5 -41.5q28 -7 48.5 -30.5t44.5 -73.5l24 -48q10 -20 18 -25.5t30 -6.5v-37h-106q-7 3 -13.5 13t-17.5 34l-29 59q-26 54 -46.5 74
t-54.5 20q-15 0 -30 -0.5t-19 -1.5v-14q0 -62 1.5 -98.5t3.5 -46.5zM182 292v-51q21 -1 40 -2q18 -1 32 -1q51 0 73.5 20.5t22.5 66.5v6q0 55 -30 75.5t-110 20.5h-23q-2 -8 -3.5 -42t-1.5 -93z" />
    <glyph glyph-name="s.smcp" horiz-adv-x="435" 
d="M320 24q-31 -17 -60.5 -24.5t-68.5 -7.5t-74 5.5t-59 15.5v97h39l7 -45q20 -12 55.5 -20.5t68.5 -8.5q17 0 30.5 3t24.5 10q16 10 21.5 24t5.5 43q0 37 -15 52.5t-69 23.5l-38 5q-89 12 -114.5 37t-25.5 78q0 48 16.5 77.5t55.5 51.5q30 17 59.5 24.5t68.5 7.5
q31 0 62.5 -4.5t57.5 -12.5v-93h-40l-6 42q-20 10 -51 17t-60 7q-17 0 -30.5 -3t-23.5 -9q-16 -11 -21.5 -25.5t-5.5 -42.5q0 -37 16 -52.5t69 -22.5l38 -6q87 -12 112.5 -37t25.5 -78q0 -48 -16.5 -77.5t-54.5 -51.5z" />
    <glyph glyph-name="t.smcp" horiz-adv-x="499" 
d="M208 177v95q0 52 -0.5 89.5t-1.5 56.5h-43q-59 0 -84.5 -5t-58.5 -24l-16 18l53 60h2q17 -2 41.5 -3t77.5 -1h194q41 0 61.5 5t45.5 23l17 -17l-52 -60h-2q-23 2 -49.5 3t-68.5 1h-25q-1 -17 -1.5 -51.5t-0.5 -82.5v-97q0 -64 1.5 -101t3.5 -47l51 -4v-35h-201v35l51 4
q3 8 4 42t1 96z" />
    <glyph glyph-name="u.smcp" horiz-adv-x="585" 
d="M443 42q-29 -28 -61 -39t-85 -11q-109 0 -158 38t-49 122v123q0 65 -1.5 103t-3.5 48l-47 4v35h193v-35l-47 -4q-2 -7 -3.5 -41.5t-1.5 -94.5v-119q0 -67 34 -93.5t118 -26.5q30 0 49.5 6t34.5 20q17 16 24 40t7 77v80q0 57 -1.5 94t-4.5 56l-55 6v35h162v-35l-48 -6
q-2 -22 -3.5 -60.5t-1.5 -90.5v-80q0 -60 -11 -91.5t-40 -59.5z" />
    <glyph glyph-name="v.smcp" horiz-adv-x="505" 
d="M295 6l-2 -1l-78 -13l-2 1l-172 433l-32 4v35h193v-35l-52 -4q2 -19 13 -57.5t28 -82.5l83 -215l83 218q14 37 24.5 75t13.5 61l-57 5v35h158v-35l-37 -5z" />
    <glyph glyph-name="w.smcp" horiz-adv-x="758" 
d="M559 6l-2 -1l-71 -13l-3 1l-105 289l-103 -276l-3 -1l-71 -13l-3 1l-155 433l-34 4v35h191v-35l-51 -4q3 -24 13.5 -63t24.5 -77l71 -200l96 262l-28 78l-41 4v35h194v-35l-48 -4q2 -19 13 -57t27 -83l71 -198l69 200q14 40 23.5 78.5t10.5 58.5l-55 5v35h159v-35l-39 -5
z" />
    <glyph glyph-name="x.smcp" horiz-adv-x="487" 
d="M118 39l55 -4v-35h-158v35l33 5l147 186l-150 201l-28 3v35h186v-35l-48 -3q5 -11 15 -26.5t29 -41.5l63 -86l46 60q20 25 35.5 50t22.5 43l-55 4v35h159v-35l-34 -4l-144 -183l153 -204l28 -4v-35h-186v35l48 3q-5 11 -15 26.5t-29 41.5l-66 91l-50 -65
q-20 -26 -35 -50.5t-22 -42.5z" />
    <glyph glyph-name="y.smcp" horiz-adv-x="467" 
d="M281 39l52 -4v-35h-199v35l51 4q2 7 3 32t1 50v54q0 15 -1.5 22t-7.5 15l-144 215l-27 3v35h186v-35l-50 -3q5 -12 14 -28.5t26 -42.5l72 -109l52 81q17 26 30.5 52.5t19.5 45.5l-54 4v35h153v-35l-31 -4l-140 -208q-6 -9 -8 -16.5t-2 -21.5v-52q0 -27 1 -53.5t3 -35.5z
" />
    <glyph glyph-name="z.smcp" horiz-adv-x="476" 
d="M426 105l21 -14l-50 -93h-1q-18 1 -46 1.5t-55 0.5h-267l-2 4l226 329q15 21 28 41.5t27 43.5q-16 2 -36 3.5t-42 1.5h-55q-43 0 -65 -8t-50 -41l-21 15l45 78h2q19 -1 47 -1.5t55 -0.5h247l2 -4l-227 -329q-16 -24 -29 -44.5t-24 -39.5q21 -3 42.5 -4.5t43.5 -1.5h50
q53 0 77.5 11.5t56.5 51.5z" />
    <glyph glyph-name="uni0392" unicode="&#x392;" horiz-adv-x="607" 
d="M556 206q0 -56 -24 -100t-68 -69q-37 -20 -72 -28.5t-77 -8.5h-270v37l59 4q5 13 7.5 70.5t2.5 151.5v113q0 104 -2.5 161.5t-8.5 71.5l-58 4v37h295q98 0 141 -34t43 -113q0 -54 -26 -94t-74 -59q66 -9 99 -45.5t33 -98.5zM208 497v-143h122q49 0 74 30.5t25 90.5v7
q0 72 -34 98t-129 26h-55q-1 -15 -2 -45.5t-1 -63.5zM213 62q20 -5 60.5 -9.5t73.5 -4.5q26 0 42 3t29 10q22 13 31 38.5t9 79.5v13q0 58 -37.5 86t-116.5 28h-96v-25q0 -94 1 -147t4 -72z" />
    <glyph glyph-name="uni039A" unicode="&#x39a;" horiz-adv-x="638" 
d="M215 41l62 -4v-37h-232v37l62 4q3 8 5 60t2 143v142q0 96 -2 153t-5 70l-62 4v37h232v-37l-62 -4q-3 -9 -5 -61t-2 -142v-57h78q14 14 27 29t25 30l165 206q15 19 23.5 27t15.5 9h68v-48h-44q-6 -1 -13.5 -7.5t-20.5 -23.5l-156 -188q-5 -7 -11.5 -14.5t-20.5 -22.5
q18 -9 37 -27.5t40 -45.5l151 -205q10 -13 21.5 -17.5t34.5 -5.5v-45h-116q-9 5 -20 17.5t-56 75.5l-110 156q-23 31 -37 40t-35 9h-46v-35q0 -96 2 -152.5t5 -69.5zM589 45zM557 602z" />
    <glyph glyph-name="uni03A6" unicode="&#x3a6;" horiz-adv-x="744" 
d="M419 40l67 -3v-37h-228v37l67 3v56q-97 2 -154 16t-87 44q-26 26 -37.5 60.5t-11.5 86.5q0 63 12.5 101t43.5 69q37 37 96 57.5t138 24.5v55l-67 3v37h228v-37l-67 -3v-54q97 -2 154 -16t87 -44q26 -26 38 -61t12 -86q0 -62 -12.5 -100t-43.5 -70q-37 -37 -96.5 -57.5
t-138.5 -24.5v-57zM134 360v-39q0 -89 44.5 -131.5t146.5 -46.5v366q-120 -2 -155.5 -32.5t-35.5 -116.5zM610 292v39q0 89 -44.5 131.5t-146.5 46.5v-366q120 2 155.5 32.5t35.5 116.5z" />
    <glyph glyph-name="uni03A8" unicode="&#x3a8;" horiz-adv-x="766" 
d="M437 41l67 -4v-37h-242v37l67 4q3 8 5 52t2 121v25h-23q-55 0 -92.5 8.5t-62.5 26.5q-24 19 -39.5 49.5t-28.5 92.5l-31 151q-5 22 -11.5 28.5t-32.5 9.5v45h113q7 -7 13 -24t14 -55l37 -186q10 -54 38 -76t88 -22h18v99q0 96 -2 153t-5 70l-67 4v37h242v-37l-67 -4
q-3 -9 -5 -61t-2 -142v-119h18q60 0 88 22t39 76l37 186q7 37 13 54.5t13 24.5h113v-45q-26 -3 -32.5 -9.5t-11.5 -28.5l-31 -151q-13 -63 -28.5 -93.5t-39.5 -48.5q-25 -18 -62.5 -26.5t-92.5 -8.5h-23v-7q0 -83 2 -131.5t5 -59.5zM715 605zM50 605z" />
    <glyph glyph-name="uni03B2" unicode="&#x3b2;" horiz-adv-x="501" 
d="M458 149q0 -42 -18.5 -72.5t-55.5 -50.5q-29 -14 -56.5 -20t-59.5 -6h-227v35l47 4q3 9 4 46t1 103v81q0 75 -1.5 111t-4.5 46l-46 4v35h251q74 0 106.5 -24t32.5 -79q0 -40 -21 -68t-60 -41q55 -6 81.5 -31.5t26.5 -72.5zM183 345v-87h85q37 0 55 20t18 60v7
q0 47 -24.5 65t-88.5 18h-43q-1 -9 -1.5 -26t-0.5 -57zM186 50q19 -4 45.5 -6.5t48.5 -2.5q17 0 31.5 3t25.5 9q16 9 22.5 25.5t6.5 50.5v9q0 39 -26.5 58.5t-80.5 19.5h-76v-17q0 -65 0.5 -100.5t2.5 -48.5z" />
    <glyph glyph-name="uni03BA" unicode="&#x3ba;" horiz-adv-x="522" 
d="M187 39l47 -4v-35h-193v35l47 4q3 8 4 42t1 96v98q0 65 -1.5 103t-3.5 48l-47 4v35h193v-35l-47 -4q-2 -7 -3.5 -41.5t-1.5 -93.5v-37h58q4 4 14 14.5t25 27.5l110 134q14 18 22.5 26t13.5 9h63v-43h-39q-6 -1 -14 -8t-20 -22l-99 -118l-4 -4t-5 -6q-4 -5 -6 -7l-4 -4
q13 -6 26.5 -19t30.5 -35l108 -142q9 -12 17.5 -15.5t25.5 -4.5v-37h-104q-9 4 -20 18t-38 52l-78 108q-14 20 -24 26.5t-25 6.5h-34v-25q0 -64 1 -100.5t4 -46.5zM479 37zM440 422z" />
    <glyph glyph-name="uni03C6" unicode="&#x3c6;" horiz-adv-x="618" 
d="M353 37l51 -2v-35h-189v35l50 2v35q-82 1 -125 10.5t-65 30.5q-19 20 -27.5 44.5t-8.5 58.5q0 44 9.5 71.5t32.5 49.5q27 27 72.5 41.5t111.5 16.5v33l-50 2v35h189v-35l-51 -2v-33q80 -1 123 -10.5t67 -31.5q19 -18 27.5 -42.5t8.5 -60.5q0 -45 -9 -72t-32 -49
q-28 -27 -73.5 -41t-111.5 -16v-35zM132 255v-26q0 -61 30.5 -89.5t102.5 -31.5v250q-84 -2 -108.5 -22.5t-24.5 -80.5zM487 211v26q0 61 -31 89.5t-103 31.5v-250q84 2 109 22.5t25 80.5z" />
    <glyph glyph-name="uni03C8" unicode="&#x3c8;" horiz-adv-x="605" 
d="M351 39l51 -4v-35h-200v35l51 4q3 8 4 37t1 80v11h-20q-82 0 -118.5 25t-52.5 103l-21 99q-3 18 -9 24.5t-26 8.5v38h99q8 -5 13.5 -19t9.5 -39l27 -134q7 -37 25.5 -51.5t58.5 -14.5h14v68q0 65 -1.5 103t-3.5 48l-51 4v35h201v-35l-51 -4q-2 -7 -3.5 -41.5t-1.5 -94.5
v-83h14q40 0 58.5 14.5t25.5 51.5l26 134q5 26 11 39.5t13 18.5h98v-38q-19 -2 -24.5 -8t-9.5 -25l-21 -99q-16 -78 -52.5 -103t-118.5 -25h-20v-6q0 -48 1 -80t3 -42zM34 427zM568 427z" />
    <glyph glyph-name="zero" unicode="0" horiz-adv-x="571" 
d="M404 25q-32 -18 -62.5 -25.5t-70.5 -7.5q-55 0 -94 13.5t-68 42.5q-29 28 -42.5 69.5t-13.5 99.5q0 87 25.5 137t89.5 86q31 18 61.5 25.5t71.5 7.5q56 0 95 -13.5t67 -42.5q28 -28 41.5 -69.5t13.5 -99.5q0 -86 -25.5 -136.5t-88.5 -86.5zM184 79q20 -19 49.5 -28.5
t71.5 -9.5q24 0 41.5 4t31.5 13q27 16 36 45t9 102v33q0 69 -8 99t-29 51q-20 19 -49.5 28.5t-70.5 9.5q-24 0 -41.5 -4t-32.5 -13q-27 -16 -36 -46t-9 -102v-32q0 -69 8 -99t29 -51z" />
    <glyph glyph-name="one" unicode="1" horiz-adv-x="373" 
d="M330 35v-35h-282v35l93 6q2 43 2.5 72.5t0.5 65.5v97q0 61 -1 97.5t-4 53.5l-94 3v35l190 6l1 -1q-1 -31 -1.5 -64t-0.5 -114v-121q0 -47 0.5 -78.5t1.5 -51.5z" />
    <glyph glyph-name="two" unicode="2" horiz-adv-x="465" 
d="M455 91l-44 -90l-1 -1h-387l-3 5l20 57l1 1l181 148q45 35 59 56t14 50q0 38 -26 59t-75 21q-42 0 -73.5 -10t-59.5 -33l-18 13l54 84l4 3q21 9 51.5 14t67.5 5q81 0 122 -31.5t41 -94.5q0 -39 -20.5 -71.5t-77.5 -76.5q-86 -66 -106 -84t-37 -36h211q27 0 46 5.5
t40 20.5z" />
    <glyph glyph-name="three" unicode="3" horiz-adv-x="462" 
d="M417 42q0 -49 -26 -94t-75 -80q-64 -46 -108 -61.5t-109 -15.5q-26 0 -47 2.5t-37 7.5l-1 2l12 68l2 2q12 1 27 0.5t47 -4.5q29 -3 44 -4t28 -1q38 0 67 8.5t54 25.5q21 14 30.5 37t9.5 64v4q0 54 -37 78t-119 24q-22 0 -40.5 -2t-31.5 -5l-5 3l21 68l2 2q98 19 137.5 50
t39.5 83v7q0 42 -31.5 65t-89.5 23q-41 0 -72 -9.5t-56 -30.5l-19 12l43 79l4 4q26 9 56 14t60 5q97 0 143 -34t46 -106q0 -52 -24 -84.5t-109 -73.5q82 -7 123 -40.5t41 -92.5z" />
    <glyph glyph-name="four" unicode="4" horiz-adv-x="561" 
d="M412 -90v-19v-11q0 -16 -9 -30t-75 -82l-25 16q12 27 16 50t4 57v110h-82q-81 0 -120.5 -0.5t-73.5 -1.5l-2 2l-17 61v3l283 393l2 1l99 14l2 -2q-1 -35 -2 -76.5t-1 -81.5v-236h33q28 0 45.5 3.5t36.5 15.5l16 -17l-47 -81l-3 -1q-14 1 -31.5 2t-49.5 2v-57v-13t1 -21z
M105 80q25 -2 51.5 -2.5t83.5 -0.5h83v188q0 30 -0.5 64.5t-1.5 68.5q-97 -137 -147.5 -211t-68.5 -107z" />
    <glyph glyph-name="five" unicode="5" horiz-adv-x="446" 
d="M404 55q0 -56 -24 -97.5t-82 -85.5q-55 -42 -104 -61.5t-98 -19.5q-23 0 -43 2.5t-36 6.5l-1 3l13 67l2 2q12 1 26 1t44 -3q26 -3 39.5 -4t26.5 -1q30 0 58 9t51 26q28 21 38.5 46t10.5 72v8q0 61 -52 87.5t-227 40.5l-2 3l37 305l3 3h226q25 0 42.5 4t35.5 13l20 -18
l-50 -80l-2 -1q-23 2 -52.5 3t-69.5 1h-116l-19 -158q193 -18 249 -53t56 -121z" />
    <glyph glyph-name="six" unicode="6" horiz-adv-x="546" 
d="M494 225q0 -74 -22.5 -117t-83.5 -81q-28 -18 -58 -26.5t-70 -8.5q-98 0 -150 58t-52 167v84q0 91 17.5 145t68.5 117q40 50 87.5 72.5t111.5 22.5q26 0 53.5 -2t45.5 -6l1 -2l-11 -63l-2 -2q-4 -2 -8 -3t-10 -1q-7 0 -17 1t-33 3q-32 4 -48 5t-29 1q-43 0 -67 -10.5
t-43 -36.5q-13 -19 -18 -56t-5 -133v-9q40 35 77.5 50t81.5 15q94 0 138.5 -44.5t44.5 -139.5zM152 296v-58q0 -108 31.5 -152.5t107.5 -44.5q21 0 39 4.5t35 14.5q21 14 29 41.5t8 81.5v42q0 65 -29 94.5t-96 29.5q-43 0 -75 -13.5t-50 -39.5z" />
    <glyph glyph-name="seven" unicode="7" horiz-adv-x="471" 
d="M434 467l3 -5q-51 -147 -81 -236q-31 -89 -42 -119q-47 -132 -81 -203.5t-79 -134.5h-3l-59 56v2q78 84 137 201.5t138 356.5h-238q-25 0 -43.5 -5t-39.5 -21l-17 15l45 91l2 1q46 -1 62 -1q16 -1 33 -1h126q43 0 78 1t59 2z" />
    <glyph glyph-name="eight" unicode="8" horiz-adv-x="514" 
d="M465 190q0 -58 -23 -97.5t-77 -68.5q-32 -18 -61.5 -25t-68.5 -7q-91 0 -138 38.5t-47 112.5q0 59 20.5 93t101.5 83q-66 32 -89.5 63.5t-23.5 81.5q0 57 22.5 95.5t75.5 67.5q33 18 60 24.5t64 6.5q86 0 130.5 -37t44.5 -108q0 -58 -20 -92t-100 -82q76 -34 102.5 -65.5
t26.5 -83.5zM138 514v-5q0 -55 24 -79.5t137 -74.5q31 20 42.5 31t18.5 24q8 15 12 35t4 47v10q0 50 -36 77.5t-102 27.5q-51 0 -75.5 -23t-24.5 -70zM128 164v-12q0 -53 37.5 -80.5t110.5 -27.5q57 0 83.5 23.5t26.5 72.5v4q0 43 -12.5 63.5t-47.5 40.5q-14 7 -35 17
t-82 37q-33 -20 -44.5 -31t-19.5 -24q-9 -15 -13 -35.5t-4 -47.5z" />
    <glyph glyph-name="nine" unicode="9" horiz-adv-x="546" 
d="M398 -95q-51 -65 -117 -90q-54 -19 -127 -19q-18 0 -38 1l-1 2l3 68l1 3q13 4 31 6t58 2q73 0 105 10.5t50 33.5q19 25 25 52.5t6 93.5v48q-40 -43 -77 -59.5t-82 -16.5q-94 0 -138.5 47t-44.5 147q0 81 21.5 123t83.5 80q31 19 62 27t69 8q97 0 148.5 -55.5t51.5 -159.5
v-109q0 -78 -17.5 -125t-72.5 -118zM257 423q-23 0 -41 -4.5t-36 -14.5q-20 -13 -28 -41.5t-8 -82.5v-51q0 -66 30.5 -97.5t93.5 -31.5q52 0 89 28.5t37 65.5v51q0 98 -31 138t-106 40z" />
    <glyph glyph-name="period" unicode="." horiz-adv-x="244" 
d="M181 59q0 -31 -15 -47t-45 -16t-44.5 14t-14.5 42q0 27 16 41.5t47 14.5q28 0 42 -12.5t14 -36.5z" />
    <glyph glyph-name="comma" unicode="," horiz-adv-x="250" 
d="M129 109q31 0 47 -22t16 -65q0 -59 -28.5 -106t-83.5 -78l-17 28q35 23 54.5 53.5t19.5 62.5v12t-1 7q-7 -2 -11.5 -3t-9.5 -1q-26 0 -39.5 13.5t-13.5 41.5q0 27 18 42t49 15z" />
    <glyph glyph-name="colon" unicode=":" horiz-adv-x="254" 
d="M186 347q0 -31 -15 -47t-45 -16t-44.5 14t-14.5 42q0 27 16 41.5t47 14.5q28 0 42 -12.5t14 -36.5zM186 59q0 -31 -15 -47t-45 -16t-44.5 14t-14.5 42q0 27 16 41.5t47 14.5q28 0 42 -12.5t14 -36.5z" />
    <glyph glyph-name="semicolon" unicode=";" horiz-adv-x="260" 
d="M186 347q0 -31 -15 -47t-45 -16t-44.5 14t-14.5 42q0 27 16 41.5t47 14.5q28 0 42 -12.5t14 -36.5zM134 109q31 0 47 -22t16 -65q0 -59 -28.5 -106t-83.5 -78l-17 28q35 23 54.5 53.5t19.5 62.5v12t-1 7q-7 -2 -11.5 -3t-9.5 -1q-26 0 -39.5 13.5t-13.5 41.5q0 27 18 42
t49 15z" />
    <glyph glyph-name="ellipsis" unicode="&#x2026;" horiz-adv-x="793" 
d="M192 59q0 -31 -15.5 -47t-45.5 -16q-29 0 -43.5 14t-14.5 42q0 27 16 41.5t47 14.5q28 0 42 -12.5t14 -36.5zM456 59q0 -31 -15.5 -47t-45.5 -16q-29 0 -43.5 14t-14.5 42q0 27 16 41.5t47 14.5q28 0 42 -12.5t14 -36.5zM720 59q0 -32 -15 -47.5t-45 -15.5
q-29 0 -43.5 14t-14.5 42q0 27 16 41.5t46 14.5q28 0 42 -12.5t14 -36.5z" />
    <glyph glyph-name="quoteleft" unicode="&#x2018;" horiz-adv-x="254" 
d="M139 531q27 0 40 -13t13 -41q0 -27 -18 -42t-49 -15t-47 22.5t-16 64.5q0 59 28.5 105.5t84.5 77.5l16 -27q-35 -23 -54 -53.5t-19 -62.5v-12t1 -8q4 2 9 3t11 1z" />
    <glyph glyph-name="quoteright" unicode="&#x2019;" horiz-adv-x="254" 
d="M129 690q31 0 47 -22t16 -65q0 -59 -28.5 -105.5t-83.5 -77.5l-17 27q35 23 54.5 53.5t19.5 62.5v12t-1 8q-7 -2 -11.5 -3t-9.5 -1q-27 0 -40 13.5t-13 40.5t18 42t49 15z" />
    <glyph glyph-name="quotedblleft" unicode="&#x201c;" horiz-adv-x="426" 
d="M311 531q26 0 39 -13t13 -41q0 -27 -17.5 -42t-48.5 -15t-47 22t-16 65q0 59 28.5 105.5t83.5 77.5l17 -27q-35 -23 -54.5 -53.5t-19.5 -62.5v-12t1 -8q7 2 11.5 3t9.5 1zM139 531q27 0 40 -13t13 -41q0 -27 -18 -42t-49 -15t-47 22.5t-16 64.5q0 59 28.5 105.5
t84.5 77.5l16 -27q-35 -23 -54 -53.5t-19 -62.5v-12t1 -8q4 2 9 3t11 1z" />
    <glyph glyph-name="quotedblright" unicode="&#x201d;" horiz-adv-x="426" 
d="M129 690q31 0 47 -22t16 -65q0 -59 -28.5 -105.5t-83.5 -77.5l-17 27q35 23 54.5 53.5t19.5 62.5v12t-1 8q-7 -2 -11.5 -3t-9.5 -1q-27 0 -40 13.5t-13 40.5t18 42t49 15zM301 690q30 0 46 -22t16 -65q0 -59 -28.5 -105.5t-83.5 -77.5l-16 27q35 23 54 54t19 62v12t-1 8
q-4 -2 -9 -3t-11 -1q-27 0 -40 13t-13 41q0 27 18 42t49 15z" />
    <glyph glyph-name="quotesinglbase" unicode="&#x201a;" horiz-adv-x="250" 
d="M129 109q31 0 47 -22t16 -65q0 -59 -28.5 -106t-83.5 -78l-17 28q35 23 54.5 53.5t19.5 62.5v12t-1 7q-7 -2 -11.5 -3t-9.5 -1q-26 0 -39.5 13.5t-13.5 41.5q0 27 18 42t49 15z" />
    <glyph glyph-name="quotedblbase" unicode="&#x201e;" horiz-adv-x="426" 
d="M301 109q30 0 46 -22t16 -65q0 -60 -28.5 -106.5t-83.5 -77.5l-16 28q35 23 54 53.5t19 62.5v11t-1 8q-4 -2 -9 -3t-11 -1q-27 0 -40 13.5t-13 41.5q0 27 18 42t49 15zM129 109q31 0 47 -22t16 -65q0 -59 -28.5 -106t-83.5 -78l-17 28q35 23 54.5 53.5t19.5 62.5v12t-1 7
q-7 -2 -11.5 -3t-9.5 -1q-26 0 -39.5 13.5t-13.5 41.5q0 27 18 42t49 15z" />
    <glyph glyph-name="guilsinglleft" unicode="&#x2039;" horiz-adv-x="289" 
d="M254 50v-3l-37 -52h-3l-183 209v25l201 207h3l20 -29v-3l-140 -175z" />
    <glyph glyph-name="guilsinglright" unicode="&#x203a;" horiz-adv-x="289" 
d="M258 228v-25l-201 -208h-3l-19 29v3l140 175l-139 180v3l37 51h3z" />
    <glyph glyph-name="guillemotleft" unicode="&#xab;" horiz-adv-x="490" 
d="M254 50v-3l-37 -52h-3l-183 209v25l201 207h3l20 -29v-3l-140 -175zM455 50v-3l-37 -52h-3l-183 209v25l201 207h3l20 -29v-3l-140 -175z" />
    <glyph glyph-name="guillemotright" unicode="&#xbb;" horiz-adv-x="490" 
d="M459 228v-25l-201 -208h-3l-20 29v3l141 175l-139 180v3l37 51h3zM258 228v-25l-201 -208h-3l-19 29v3l140 175l-139 180v3l37 51h3z" />
    <glyph glyph-name="periodcentered" unicode="&#xb7;" horiz-adv-x="263" 
d="M191 262q0 -31 -15 -47t-45 -16t-44.5 14t-14.5 42q0 27 16 41.5t47 14.5q28 0 42 -12.5t14 -36.5z" />
    <glyph glyph-name="bullet" unicode="&#x2022;" horiz-adv-x="373" 
d="M179 188q-49 0 -78.5 29.5t-29.5 77.5q0 52 34 84.5t89 32.5q49 0 78.5 -29.5t29.5 -77.5q0 -51 -34.5 -84t-88.5 -33z" />
    <glyph glyph-name="exclamdown" unicode="&#xa1;" horiz-adv-x="254" 
d="M70 377q0 30 15 45.5t43 15.5q29 0 43 -12.5t14 -38.5t-16.5 -41.5t-44.5 -15.5q-26 0 -40 12t-14 35zM146 266l24 -482l-3 -2l-88 -6l-3 3l32 487h38z" />
    <glyph glyph-name="exclam" unicode="!" horiz-adv-x="254" 
d="M108 168l-24 482l3 2l88 6l3 -3l-32 -487h-38zM184 57q0 -30 -15 -45.5t-43 -15.5q-29 0 -43 12.5t-14 38.5t16.5 41.5t44.5 15.5q26 0 40 -12t14 -35z" />
    <glyph glyph-name="questiondown" unicode="&#xbf;" horiz-adv-x="379" 
d="M167 386q0 24 14 37.5t38 13.5q31 0 47 -14t16 -41q0 -25 -14.5 -39t-41.5 -14q-29 0 -44 14.5t-15 42.5zM195 -158q40 0 76 11t54 29l19 -12l-42 -87q-18 -4 -36.5 -6t-36.5 -2q-43 0 -78.5 12t-63.5 36q-27 23 -42 53t-15 60q0 50 17 81.5t71 67.5l71 48q24 15 31.5 29
t7.5 37q0 12 -1.5 27t-4.5 35l34 9q18 -43 25 -68.5t7 -46.5q0 -31 -14.5 -55t-44.5 -43l-87 -58q-30 -20 -40.5 -37t-10.5 -41q0 -39 26 -59t78 -20z" />
    <glyph glyph-name="question" unicode="?" horiz-adv-x="383" 
d="M184 591q-40 0 -76 -11t-54 -29l-19 12l42 87q18 4 36.5 6t36.5 2q43 0 78.5 -12t63.5 -36q27 -23 42 -53t15 -60q0 -50 -17 -81.5t-71 -67.5l-71 -48q-24 -15 -31.5 -29t-7.5 -37q0 -12 1.5 -27t4.5 -35l-34 -9q-18 43 -25 68.5t-7 46.5q0 31 14.5 55t44.5 43l87 58
q30 20 40.5 37t10.5 41q0 39 -26 59t-78 20zM212 47q0 -24 -14 -37.5t-38 -13.5q-31 0 -47 14t-16 41q0 25 14.5 39t41.5 14q29 0 44 -14.5t15 -42.5z" />
    <glyph glyph-name="hyphen" unicode="-" horiz-adv-x="312" 
d="M262 310l21 -11l-25 -76q-6 -3 -16.5 -4.5t-29.5 -1.5q-7 0 -16 1q-10 0 -32 1q-27 2 -40 2.5t-23 0.5q-19 0 -29.5 -4t-21.5 -16l-20 11l24 76q7 3 18.5 4.5t27.5 1.5h17q9 -1 31 -2q27 -2 40 -2.5t23 -0.5q20 0 30 4t21 16z" />
    <glyph glyph-name="endash" unicode="&#x2013;" horiz-adv-x="500" 
d="M485 232h-470v48h470v-48z" />
    <glyph glyph-name="emdash" unicode="&#x2014;" horiz-adv-x="780" 
d="M774 232h-768v48h768v-48z" />
    <glyph glyph-name="ampersand" unicode="&#x26;" horiz-adv-x="702" 
d="M687 0h-120q-12 8 -26 21.5t-72 83.5q-41 -61 -94 -87t-138 -26q-96 0 -145 39.5t-49 117.5q0 64 25.5 100.5t117.5 84.5q-49 30 -68 58.5t-19 73.5q0 60 19.5 97t66.5 63q33 19 58 25.5t61 6.5q79 0 116.5 -32.5t37.5 -102.5q0 -57 -23.5 -91.5t-106.5 -75.5
q49 -32 88.5 -65t80.5 -76l31 49q15 24 28 51.5t16 42.5l-62 10v34h167v-34l-32 -12l-118 -174q25 -28 33 -37q8 -10 15 -18q42 -50 62.5 -66t49.5 -18v-43zM183 509v-12q0 -26 7.5 -41.5t27.5 -31.5q8 -6 19.5 -13t53.5 -32q50 25 67.5 51.5t17.5 81.5q0 50 -26 73.5
t-82 23.5q-17 0 -30 -3t-25 -10q-18 -10 -24 -27.5t-6 -59.5zM136 181v-10q0 -57 37.5 -86.5t110.5 -29.5q54 0 90 19.5t66 64.5q-54 59 -104.5 99.5t-110.5 73.5q-50 -26 -69.5 -55.5t-19.5 -75.5z" />
    <glyph glyph-name="bar" unicode="|" horiz-adv-x="252" 
d="M98 690h56v-869h-56v869z" />
    <glyph glyph-name="brokenbar" unicode="&#xa6;" horiz-adv-x="252" 
d="M98 690h56v-399h-56v399zM154 220v-399h-56v399h56z" />
    <glyph glyph-name="slash" unicode="/" horiz-adv-x="369" 
d="M319 720l40 -32l-358 -897h-3l-41 32l359 897h3z" />
    <glyph glyph-name="backslash" unicode="\" horiz-adv-x="369" 
d="M53 720l359 -897l-40 -32h-3l-359 897l41 32h2z" />
    <glyph glyph-name="parenleft" unicode="(" horiz-adv-x="346" 
d="M331 -152l-13 -32q-118 37 -183.5 145.5t-65.5 262.5v62q0 154 65 263t184 146l13 -33q-102 -45 -140.5 -127t-38.5 -245v-70q0 -163 38 -244.5t141 -127.5z" />
    <glyph glyph-name="parenright" unicode=")" horiz-adv-x="346" 
d="M28 -184l-13 32q103 46 141 127.5t38 244.5v70q0 163 -38.5 245t-140.5 127l13 33q119 -37 184 -146t65 -263v-62q0 -154 -65.5 -262.5t-183.5 -145.5z" />
    <glyph glyph-name="bracketleft" unicode="[" horiz-adv-x="324" 
d="M304 654h-138q-2 -35 -3 -91t-1 -149v-317q0 -93 1 -149t3 -91h138v-36h-223l-1 1q1 48 1.5 100t0.5 178v311q0 126 -0.5 178t-1.5 100l1 1h223v-36z" />
    <glyph glyph-name="bracketright" unicode="]" horiz-adv-x="324" 
d="M158 654h-138v36h223l1 -1q-1 -48 -1.5 -100t-0.5 -178v-311q0 -126 0.5 -178t1.5 -100l-1 -1h-223v36h138q2 39 2.5 97t0.5 143v317q0 85 -0.5 143t-2.5 97z" />
    <glyph glyph-name="braceleft" unicode="{" horiz-adv-x="350" 
d="M183 -77q0 -32 30 -46.5t112 -25.5l-5 -35q-124 14 -170.5 41t-46.5 81q0 16 6.5 39t27.5 73q21 53 28 77t7 42q0 31 -35 46.5t-117 19.5v41q83 4 117.5 19t34.5 47q0 18 -7 42t-28 77q-21 50 -27.5 73t-6.5 39q0 54 46.5 81t170.5 41l5 -35q-81 -11 -111.5 -26
t-30.5 -47q0 -11 5.5 -28.5t22.5 -62.5q23 -58 30.5 -85t7.5 -46q0 -47 -28 -70.5t-107 -38.5q80 -16 107.5 -40t27.5 -70q0 -19 -7.5 -46t-30.5 -84q-17 -46 -22.5 -64t-5.5 -29z" />
    <glyph glyph-name="braceright" unicode="}" horiz-adv-x="350" 
d="M214 50q21 -50 27.5 -73t6.5 -39q0 -54 -46.5 -81t-170.5 -41l-6 35q83 11 113 26t30 46q0 11 -5.5 29t-23.5 64q-23 57 -30.5 84t-7.5 46q0 47 28 70.5t107 38.5q-80 16 -107.5 40t-27.5 70q0 19 7.5 46t30.5 85q18 45 23.5 62.5t5.5 28.5q0 32 -30.5 47t-112.5 26l6 35
q124 -14 170.5 -41t46.5 -81q0 -16 -6.5 -39t-27.5 -73q-22 -53 -29 -77t-7 -42q0 -31 34.5 -46t117.5 -20v-41q-82 -4 -117 -19.5t-35 -46.5q0 -18 7 -42t29 -77z" />
    <glyph glyph-name="asterisk" unicode="*" horiz-adv-x="364" 
d="M246 387l-1 -4l-72 -12l-2 4l-3 134l-110 -78h-5l-33 64l4 4l125 44l-107 80l-2 4l51 51l4 -2l82 -105l42 126l4 4l64 -34l-1 -4l-75 -110l134 -2l4 -2l-12 -72h-4l-128 38z" />
    <glyph glyph-name="dagger" unicode="&#x2020;" horiz-adv-x="317" 
d="M30 586l106 -14l-18 118h80l-18 -118l107 14v-69l-107 14l16 -65l-17 -295h-42l-16 295l15 65l-106 -14v69z" />
    <glyph glyph-name="daggerdbl" unicode="&#x2021;" horiz-adv-x="327" 
d="M35 592l106 -14l-18 112h80l-18 -112l107 14v-68l-105 14l10 -47l-12 -121h-43l-12 121l9 47l-104 -14v68zM185 112l18 -112h-80l18 112l-106 -14v69l104 -15l-9 47l12 121h43l12 -121l-10 -47l105 15v-69z" />
    <glyph glyph-name="trademark" unicode="&#x2122;" horiz-adv-x="740" 
d="M135 525v55v29t-1 34v11v5h-26q-28 0 -43 -3.5t-35 -15.5l-10 12l32 40h1q11 -2 26 -2.5t41 -0.5h117q24 0 37 3t28 13l10 -10l-30 -38h-1q-17 1 -31 1.5t-30 0.5h-19q-1 -11 -1.5 -29.5t-0.5 -44.5v-55q0 -28 1 -49.5t2 -32.5l29 -2v-24h-127v24l28 2q2 6 2.5 24.5
t0.5 52.5zM398 449l32 -3v-24h-98v24l27 3q2 14 3.5 36t2.5 50l3 126l-32 5v24h112l1 -1q2 -10 8.5 -26.5t15.5 -38.5l45 -105q3 5 6 12t10 22q4 9 6.5 14l4.5 9l49 113l1 1h101v-24l-28 -2q-1 -7 -1 -25q0 -28 2 -82q3 -90 6 -109l25 -2v-24h-122v24l28 2q1 6 1 23t-1 54
l-3 110l-89 -202l-1 -1l-20 -9h-1l-92 210l-3 -100q-1 -35 -0.5 -54.5t1.5 -29.5z" />
    <glyph glyph-name="uni2120" unicode="&#x2120;" horiz-adv-x="712" 
d="M219 437q-19 -11 -37.5 -15.5t-44.5 -4.5q-22 0 -42 3t-38 9v60h27l4 -25q14 -6 34 -10.5t38 -4.5q12 0 19 1.5t12 5.5q7 4 9.5 11t2.5 22q0 20 -8.5 28t-36.5 11l-25 3q-52 7 -67.5 21.5t-15.5 46.5q0 28 9.5 44.5t34.5 31.5q20 11 38 15.5t42 4.5q19 0 38 -2.5t35 -6.5
v-59h-27l-3 24q-12 5 -29.5 8.5t-34.5 3.5q-9 0 -16.5 -1.5t-13.5 -4.5q-8 -6 -10.5 -13.5t-2.5 -20.5q0 -19 8.5 -27t36.5 -11l26 -3q50 -6 66.5 -21t16.5 -48q0 -27 -9.5 -43.5t-35.5 -32.5zM370 449l32 -3v-24h-98v24l27 3q2 14 3.5 36t2.5 50l3 126l-32 5v24h112l1 -1
q2 -9 7.5 -25t15.5 -40l46 -105q6 12 13 26.5t14 30.5l49 113l1 1h101v-24l-28 -2q-1 -7 -1 -25q0 -28 2 -82q3 -90 6 -109l25 -2v-24h-122v24l28 2q1 6 1 23t-1 54l-3 110l-89 -202l-1 -1l-21 -9h-1l-91 208l-3 -98q-1 -35 -0.5 -54.5t1.5 -29.5z" />
    <glyph glyph-name="registered" unicode="&#xae;" horiz-adv-x="447" 
d="M413 511q0 -80 -54.5 -134.5t-134.5 -54.5q-81 0 -135.5 54t-54.5 135t54.5 135.5t135.5 54.5t135 -54.5t54 -135.5zM384 511q0 71 -45.5 117.5t-114.5 46.5q-70 0 -115 -46t-45 -118q0 -71 45.5 -117.5t114.5 -46.5q70 0 115 46.5t45 117.5zM201 437l20 -2v-19h-91v19
l20 2q1 6 1.5 20t0.5 36v40q0 23 -0.5 38.5t-1.5 22.5l-20 2v18h120q32 0 48 -12t16 -37q0 -23 -11 -36.5t-36 -18.5q11 -3 19 -11t17 -27l12 -23q4 -8 8 -11t13 -3v-19h-52q-4 1 -7 4.5t-10 16.5l-15 30q-10 19 -17 25.5t-19 6.5h-5t-8 -1h-3h-1v-5q0 -21 0.5 -35.5
t1.5 -20.5zM199 539v-18q12 -1 19 -1.5t9 -0.5q19 0 27.5 8t8.5 27v3q0 21 -11 28.5t-40 7.5h-11q-1 -5 -1.5 -19t-0.5 -35z" />
    <glyph glyph-name="registered.big" horiz-adv-x="785" 
d="M736 325q0 -145 -99 -244t-244 -99q-146 0 -244.5 98.5t-98.5 244.5q0 145 99 244t244 99q146 0 244.5 -98.5t98.5 -244.5zM695 325q0 133 -86 220.5t-216 87.5q-131 0 -217 -87.5t-86 -220.5t86 -220.5t217 -87.5t216.5 87.5t85.5 220.5zM346 183l37 -3v-30h-160v30
l37 3q2 9 3 37t1 72v79q0 47 -1 78t-3 41l-37 2v31h213q59 0 88.5 -24t29.5 -71q0 -42 -21.5 -67t-66.5 -35q22 -5 38 -22.5t35 -56.5l20 -39q9 -16 15 -20.5t23 -6.5v-31h-90q-6 2 -12 10.5t-15 27.5l-26 51q-19 40 -34.5 55t-40.5 15q-11 0 -22.5 -0.5t-14.5 -1.5v-10
q0 -45 1 -75t3 -39zM342 383v-39q16 -1 31 -2q14 -1 25 -1q39 0 56.5 16t17.5 53v5q0 43 -23 59t-84 16h-19q-2 -8 -3 -36t-1 -71z" />
    <glyph glyph-name="copyright" unicode="&#xa9;" horiz-adv-x="785" 
d="M736 325q0 -145 -99 -244t-244 -99q-146 0 -244.5 98.5t-98.5 244.5q0 145 99 244t244 99q146 0 244.5 -98.5t98.5 -244.5zM695 325q0 133 -86 220.5t-216 87.5q-131 0 -217 -87.5t-86 -220.5t86 -220.5t217 -87.5t216.5 87.5t85.5 220.5zM395 136q-87 0 -132.5 44.5
t-45.5 130.5q0 72 21 112.5t77 71.5q28 16 53.5 22t60.5 6q29 0 57 -5t52 -14v-95h-34l-8 47q-19 11 -44 17.5t-52 6.5q-22 0 -36 -2.5t-25 -8.5q-23 -14 -31 -37.5t-8 -76.5v-24q0 -74 32.5 -110t99.5 -36q32 0 59 10.5t46 30.5h3l12 -21q-27 -35 -66 -52t-91 -17z" />
    <glyph glyph-name="uni2117" unicode="&#x2117;" horiz-adv-x="785" 
d="M736 325q0 -145 -99 -244t-244 -99q-146 0 -244.5 98.5t-98.5 244.5q0 145 99 244t244 99q146 0 244.5 -98.5t98.5 -244.5zM695 325q0 133 -86 220.5t-216 87.5q-131 0 -217 -87.5t-86 -220.5t86 -220.5t217 -87.5t216.5 87.5t85.5 220.5zM367 169l45 -2v-29h-170v27
l36 3q3 8 4 38t1 82v67q0 58 -1.5 87t-4.5 38l-35 2v29h211q62 0 92 -25t30 -77q0 -42 -15.5 -66.5t-51.5 -42.5q-29 -14 -51 -19.5t-49 -5.5h-47v-6q0 -42 1.5 -67t4.5 -33zM361 393v-73q15 -3 30.5 -4.5t29.5 -1.5q15 0 28 3t21 8q14 9 18.5 22.5t4.5 42.5v10q0 42 -25 59
t-85 17h-19q-2 -8 -2.5 -28.5t-0.5 -54.5z" />
    <glyph glyph-name="paragraph" unicode="&#xb6;" horiz-adv-x="484" 
d="M432 -137v-61l-111 -3l-2 1q4 64 5.5 138.5t1.5 198.5v40q0 88 -0.5 146.5t-2.5 102.5h-60v-383q-17 -4 -32.5 -5.5t-30.5 -1.5q-86 0 -118.5 44t-32.5 150q0 118 53.5 176.5t164.5 58.5h185v-37l-62 -2q-4 -64 -5.5 -139.5t-1.5 -175.5v-40q0 -82 0.5 -128.5t2.5 -78.5z
" />
    <glyph glyph-name="section" unicode="&#xa7;" horiz-adv-x="481" 
d="M404 -52q-7 -41 -24.5 -63.5t-60.5 -47.5q-44 -27 -69.5 -36t-59.5 -9t-65 4.5t-69 15.5l-1 2l-5 81l3 1q21 -15 86.5 -29t111.5 -14q35 0 48 16.5t21 64.5q2 12 2 22q0 19 -7 31q-11 20 -51 40l-156 77q-39 19 -56 43t-17 67t29.5 80t86.5 65q-54 30 -68 59q-9 18 -9 45
q0 17 3 37q6 41 23.5 63.5t60.5 49.5q39 24 62 33.5t49 9.5q7 0 20.5 -0.5t47.5 -2.5q27 -1 40 -1q12 -1 20 -1l2 -2l-21 -50q-4 -10 -10 -14.5t-16 -4.5q-4 0 -12 1q-9 1 -32 3q-41 5 -61.5 6.5t-35.5 1.5q-24 0 -34 -13.5t-20 -64.5q-3 -13 -3 -23q0 -18 8 -30
q11 -20 52 -39l156 -78q39 -19 56 -43t17 -66t-29.5 -79.5t-86.5 -66.5q53 -29 68 -57.5t6 -83.5zM107 246q0 -26 10 -40.5t46 -32.5l129 -65q45 21 63 43t18 51q0 27 -10 41t-46 32l-128 65q-45 -20 -63.5 -42t-18.5 -52z" />
    <glyph glyph-name="at" unicode="@" horiz-adv-x="863" 
d="M618 -110l22 -36q-48 -32 -108.5 -48t-133.5 -16q-205 0 -288 106q-62 79 -62 224q0 49 7 106q27 221 132 326.5t300 105.5q194 0 271 -90q57 -68 57 -199q0 -45 -7 -97q-17 -138 -64 -201t-134 -63q-48 0 -78 20t-38 56q-26 -34 -57.5 -50.5t-69.5 -16.5q-70 0 -102 40
q-25 30 -25 80q0 16 2 33l10 77q7 45 31 79.5t69 62.5q34 21 69 31.5t75 10.5q14 0 30 -2t30 -5l58 39l10 -6l-51 -301q-3 -17 -3 -31q0 -26 10 -41q15 -24 53 -24q54 0 82.5 49t41.5 167q6 46 6 86q0 115 -48 173q-65 78 -231 78q-172 0 -263 -94t-115 -297q-6 -50 -6 -94
q0 -129 53 -199q71 -94 248 -94q64 0 117.5 13.5t99.5 41.5zM341 282l-14 -95q-3 -20 -3 -36q0 -34 12 -51q17 -25 68 -25q38 0 59.5 21.5t28.5 66.5l32 197q-19 7 -40 10.5t-43 3.5q-47 0 -70 -21.5t-30 -70.5z" />
    <glyph glyph-name="dollar" unicode="$" horiz-adv-x="435" 
d="M402 189q-3 -62 -23.5 -97.5t-73.5 -64.5q-32 -17 -54.5 -24t-47.5 -10l-16 -130l-37 4l15 125q-28 1 -58.5 6t-60.5 14l-7 73l5 1q10 -9 26 -16t46 -15q17 -4 30.5 -6.5t24.5 -4.5l26 215q-99 36 -129 63t-26 79q2 59 25.5 98t73.5 65q40 21 57.5 26t38.5 7l12 97l37 -4
l-11 -92q27 -1 52.5 -5.5t57.5 -14.5l1 -1l-13 -74h-4q-5 7 -19 15.5t-34 16.5q-9 3 -21 6t-26 6l-26 -212q106 -38 134 -63.5t25 -82.5zM168 537q-17 -11 -26 -37t-11 -69q-2 -33 13.5 -50t62.5 -34l25 203q-23 0 -36.5 -2.5t-27.5 -10.5zM275 53q17 11 26.5 38t10.5 70
q3 34 -13 51t-66 35l-25 -206h7q22 0 36 3t24 9z" />
    <glyph glyph-name="cent" unicode="&#xa2;" horiz-adv-x="410" 
d="M377 101v-13q-33 -45 -73.5 -68.5t-86.5 -26.5l-22 -127l-37 3l22 124q-79 5 -111 45q-24 30 -24 83q0 17 2 36l12 87q7 51 33.5 91t72.5 67q23 14 46 22.5t46 12.5l21 119l37 -3l-20 -114q26 -1 50 -5.5t42 -12.5l2 -4l-28 -74h-4q-11 9 -31 16.5t-43 11.5l-55 -318h5
q38 0 70.5 11t72.5 37h1zM149 289l-16 -113q-2 -17 -2 -32q0 -29 9 -48q14 -29 51 -38l56 318q-4 1 -9 1h-15q-36 0 -51.5 -18.5t-22.5 -69.5z" />
    <glyph glyph-name="sterling" unicode="&#xa3;" horiz-adv-x="561" 
d="M442 -8q-38 0 -80.5 10t-152.5 55q-24 -36 -54 -55t-64 -19q-33 0 -52 17t-19 45q0 40 35 62t100 23h11t8 -1q1 16 1.5 24.5t0.5 15.5q0 22 -1.5 48.5t-3.5 55.5h-99l8 41h88q-1 20 -2 39q-1 18 -1 34q0 55 16 98.5t54 88.5q35 43 76.5 63.5t94.5 20.5q25 0 47.5 -2
t35.5 -5l2 -2l-11 -63l-2 -1q-3 -2 -8.5 -2.5t-18.5 -0.5q-7 0 -16 0.5t-30 2.5l-39 3t-23 1q-49 0 -68 -26t-19 -102q0 -22 1 -55.5t3 -91.5h162v-41h-161q1 -7 1 -15v-24q0 -29 -5.5 -59t-16.5 -58q15 -4 50 -13q34 -9 52 -14q35 -8 60 -12t44 -4q26 0 46 9.5t36 28.5
l13 -9l-50 -103q-8 -4 -21 -6t-28 -2zM118 82q-22 0 -35.5 -9t-13.5 -24q0 -12 7.5 -18t22.5 -6q22 0 37.5 12.5t25.5 36.5q-13 4 -24 6t-20 2z" />
    <glyph glyph-name="yen" unicode="&#xa5;" horiz-adv-x="545" 
d="M319 39l60 -4v-35h-212v35l61 4v83h-141l6 40h135v67h-141l6 40h127l-180 282l-30 4v35h208v-35l-61 -4q10 -25 28 -58t41 -68l72 -113l69 111q22 36 39 69.5t23 56.5l-63 6v35h169v-35l-34 -6l-181 -280h140l-6 -40h-135v-67h141l-6 -40h-135v-83zM505 555zM437 555z
M148 555zM37 555z" />
    <glyph glyph-name="uni0192" unicode="&#x192;" horiz-adv-x="363" 
d="M144 -143l31 -40l-38 -34l-88 67l54 500h-88l6 43h86l4 35q6 56 18 83t59 78q36 40 57 50.5t58 10.5h69l1 -1l-13 -42q-6 -18 -11 -24t-13 -6h-5q-4 0 -13 1q-18 2 -31 2.5t-26 0.5q-25 0 -35.5 -8t-14.5 -31q-1 -11 -3 -36q-3 -25 -4 -37l-8 -76h131v-43h-135l-31 -297
q-2 -22 -6 -71q-5 -49 -11 -125zM215 581z" />
    <glyph glyph-name="Euro" unicode="&#x20ac;" horiz-adv-x="549" 
d="M521 112v-17q-45 -55 -95 -79t-115 -24q-111 0 -166 54.5t-54 162.5h-85l9 41h78q3 25 5 43q2 17 5 31h-85l9 41h85q13 53 36.5 90t76.5 79q46 35 86.5 49.5t89.5 14.5q40 0 78.5 -11t61.5 -28l1 -4l-29 -66h-5q-20 19 -68.5 33.5t-93.5 14.5q-72 0 -105 -39t-46 -133
h258v-3l-17 -38h-245l-7 -74h231v-3l-18 -38h-215q1 -75 44.5 -115t125.5 -40q46 0 89 15t77 43h3zM103 324z" />
    <glyph glyph-name="currency" unicode="&#xa4;" horiz-adv-x="628" 
d="M491 118l98 -98l-33 -33l-98 98q-30 -25 -67 -38t-77 -13t-77 13t-67 38l-98 -98l-33 33l98 98q-25 30 -38 67t-13 77t13.5 77t38.5 67l-99 99l33 33l99 -99q30 25 67 38t76 13t76 -13t67 -38l99 99l33 -33l-99 -99q25 -30 38.5 -67t13.5 -77t-13 -77t-38 -67zM137 262
q0 -75 51.5 -128t125.5 -53t125.5 53t51.5 128t-51.5 128t-125.5 53t-125.5 -53t-51.5 -128z" />
    <glyph glyph-name="ordfeminine" unicode="&#xaa;" horiz-adv-x="341" 
d="M311 427v-24l-72 -9h-3q-8 4 -14.5 14.5t-9.5 23.5q-22 -20 -40 -26.5t-44 -6.5q-45 0 -67 17.5t-22 54.5q0 26 10 42t34 29q23 13 53.5 21t69.5 10v26q0 30 -12.5 42.5t-43.5 12.5q-22 0 -42 -6t-44 -21h-1v39q24 13 55.5 21t59.5 8q56 0 78.5 -20t22.5 -71v-19
q0 -13 -1 -43q-1 -32 -1 -45v-23q0 -24 7.5 -34.5t26.5 -12.5zM111 488v-5q0 -22 13 -32.5t39 -10.5q20 0 30.5 9t10.5 27l2 53q-10 3 -20.5 4.5t-21.5 1.5q-30 0 -41.5 -10t-11.5 -37z" />
    <glyph glyph-name="ordmasculine" unicode="&#xba;" horiz-adv-x="380" 
d="M263 418q-21 -12 -39.5 -16.5t-43.5 -4.5q-37 0 -62.5 9t-44.5 28q-17 17 -25.5 42.5t-8.5 60.5q0 51 17 82t61 56q21 11 40 16t42 5q38 0 63.5 -9t44.5 -28q17 -17 25.5 -43t8.5 -60q0 -52 -17 -83t-61 -55zM136 456q11 -10 28 -15.5t39 -5.5q12 0 21 2t18 6
q14 9 18.5 27t4.5 61v16q0 42 -4.5 60t-16.5 29q-10 11 -27 16.5t-40 5.5q-15 0 -23.5 -2t-15.5 -7q-14 -9 -19 -27t-5 -61v-15q0 -38 5 -57.5t17 -32.5z" />
    <glyph glyph-name="degree" unicode="&#xb0;" horiz-adv-x="404" 
d="M360 545q0 -69 -47 -114t-119 -45q-66 0 -108 40.5t-42 104.5q0 70 46 114.5t118 44.5q67 0 109.5 -40.5t42.5 -104.5zM105 537q0 -46 25.5 -73.5t69.5 -27.5q43 0 69 27.5t26 74.5q0 46 -26.5 73.5t-70.5 27.5q-43 0 -68 -27t-25 -75z" />
    <glyph glyph-name="percent" unicode="%" horiz-adv-x="639" 
d="M508 682l29 -30l-405 -684h-2l-29 30l404 684h3zM135 345q-60 0 -85 29q-20 21 -20 61q0 12 2 26l8 53q5 36 23.5 62.5t51.5 46.5q24 15 47 22.5t43 7.5q61 0 87 -28q19 -22 19 -61q0 -13 -2 -27l-8 -54q-5 -35 -23.5 -61.5t-51.5 -46.5q-32 -17 -52.5 -23.5t-38.5 -6.5z
M117 550l-12 -81q-2 -12 -2 -23q0 -25 11 -39q14 -19 55 -19q25 0 38 14t17 46l11 80q2 13 2 24q0 25 -10 38q-15 19 -55 19q-26 0 -38.5 -13.5t-16.5 -45.5zM503 305q61 0 87 -28q19 -22 19 -61q0 -13 -2 -27l-7 -53q-6 -36 -24.5 -62.5t-51.5 -46.5q-30 -16 -51 -23
t-40 -7q-60 0 -85 29q-20 22 -20 61q0 12 2 26l8 54q5 35 23 61.5t52 46.5q29 16 50.5 23t39.5 7zM522 100l12 81q2 12 2 22q0 26 -11 40q-15 19 -55 19q-26 0 -38.5 -14t-16.5 -46l-11 -80q-2 -12 -2 -22q0 -25 11 -39q14 -20 54 -20q26 0 39 14t16 45z" />
    <glyph glyph-name="perthousand" unicode="&#x2030;" horiz-adv-x="955" 
d="M508 682l29 -30l-405 -684h-2l-29 30l404 684h3zM135 345q-60 0 -85 29q-20 21 -20 61q0 12 2 26l8 53q5 36 23.5 62.5t51.5 46.5q24 15 47 22.5t43 7.5q61 0 87 -28q19 -22 19 -61q0 -13 -2 -27l-8 -54q-5 -35 -23.5 -61.5t-51.5 -46.5q-32 -17 -52.5 -23.5t-38.5 -6.5z
M117 550l-12 -81q-2 -12 -2 -23q0 -25 11 -39q14 -19 55 -19q25 0 38 14t17 46l11 80q2 13 2 24q0 25 -10 38q-15 19 -55 19q-26 0 -38.5 -13.5t-16.5 -45.5zM819 305q61 0 87 -28q19 -22 19 -61q0 -13 -2 -27l-8 -53q-5 -36 -23.5 -62.5t-51.5 -46.5q-27 -15 -49 -22.5
t-41 -7.5q-61 0 -86 29q-20 21 -20 61q0 12 2 26l8 54q5 35 23 61.5t52 46.5q27 15 49 22.5t41 7.5zM503 305q61 0 87 -28q19 -22 19 -61q0 -13 -2 -27l-7 -53q-6 -36 -24.5 -62.5t-51.5 -46.5q-30 -16 -51 -23t-40 -7q-60 0 -85 29q-20 22 -20 61q0 12 2 26l8 54
q5 35 23 61.5t52 46.5q29 16 50.5 23t39.5 7zM838 100l11 81q2 13 2 23q0 25 -10 39q-15 19 -55 19q-25 0 -38 -14t-17 -46l-11 -80q-2 -12 -2 -23q0 -25 11 -39q14 -19 54 -19q26 0 38.5 14t16.5 45zM522 100l12 81q2 12 2 22q0 26 -11 40q-15 19 -55 19q-26 0 -38.5 -14
t-16.5 -46l-11 -80q-2 -12 -2 -22q0 -25 11 -39q14 -20 54 -20q26 0 39 14t16 45z" />
    <glyph glyph-name="numbersign" unicode="#" horiz-adv-x="572" 
d="M337 0h-45l34 183h-132l-34 -183h-45l34 183h-125l12 69h126l26 146h-138l12 69h139l34 183h45l-34 -183h132l34 183h45l-34 -183h125l-11 -69h-127l-26 -146h138l-11 -69h-140zM233 398l-26 -146h132l26 146h-132z" />
    <glyph glyph-name="plus" unicode="+" horiz-adv-x="520" 
d="M491 261v-56h-201v-205h-59v205h-201v56h201v204h59v-204h201z" />
    <glyph glyph-name="minus" unicode="&#x2212;" horiz-adv-x="520" 
d="M490 261v-56h-460v56h460z" />
    <glyph glyph-name="multiply" unicode="&#xd7;" horiz-adv-x="520" 
d="M300 229l172 -172l-40 -41l-172 172l-172 -172l-40 41l172 172l-172 172l40 40l172 -171l172 171l40 -40z" />
    <glyph glyph-name="divide" unicode="&#xf7;" horiz-adv-x="520" 
d="M260 356q-22 0 -37.5 15.5t-15.5 37.5t15.5 38t37.5 16q23 0 38.5 -15.5t15.5 -38.5q0 -22 -16 -37.5t-38 -15.5zM490 261v-56h-460v56h460zM260 3q-22 0 -37.5 16t-15.5 38t15.5 37.5t37.5 15.5t38 -15.5t16 -37.5t-15.5 -38t-38.5 -16z" />
    <glyph glyph-name="less" unicode="&#x3c;" horiz-adv-x="520" 
d="M474 409l-340 -176l340 -176l-26 -51l-399 207v40l399 207z" />
    <glyph glyph-name="greater" unicode="&#x3e;" horiz-adv-x="520" 
d="M49 57l340 176l-340 176l26 51l399 -207v-40l-399 -207z" />
    <glyph glyph-name="equal" unicode="=" horiz-adv-x="520" 
d="M491 365v-56h-461v56h461zM491 157v-55h-461v55h461z" />
    <glyph glyph-name="quotesingle" unicode="'" horiz-adv-x="240" 
d="M144 408h-48l-15 282h78z" />
    <glyph glyph-name="quotedbl" unicode="&#x22;" horiz-adv-x="405" 
d="M144 408h-48l-15 282h78zM309 408h-49l-15 282h79z" />
    <glyph glyph-name="uni2032" unicode="&#x2032;" horiz-adv-x="241" 
d="M137 368h-55l16 282h65z" />
    <glyph glyph-name="uni2033" unicode="&#x2033;" horiz-adv-x="405" 
d="M302 368h-55l16 282h65zM137 368h-55l16 282h65z" />
    <glyph glyph-name="fraction" unicode="&#x2044;" horiz-adv-x="158" 
d="M261 684l28 -31l-389 -687h-3l-27 32l388 686h3z" />
    <glyph glyph-name="asciicircum" unicode="^" horiz-adv-x="495" 
d="M271 690l176 -311l-54 -23l-146 260l-147 -260l-52 23l176 311h47z" />
    <glyph glyph-name="asciitilde" unicode="~" horiz-adv-x="520" 
d="M452 313l33 -4v-4q-31 -86 -52.5 -111.5t-58.5 -25.5q-13 0 -25 2t-26 7l-125 39q-20 7 -33.5 10t-24.5 3q-21 0 -32 -10t-40 -64l-33 4v4q31 86 52.5 111.5t58.5 25.5q13 0 25 -2t26 -7l125 -39q20 -7 33.5 -10t24.5 -3q22 0 33 10.5t39 63.5z" />
    <glyph glyph-name="underscore" unicode="_" horiz-adv-x="465" 
d="M470 -255h-475v47h475v-47z" />
    <glyph glyph-name="zero.tnum" 
d="M385 25q-31 -18 -61 -25.5t-69 -7.5q-53 0 -90 13t-66 42t-42.5 69.5t-13.5 97.5v4q0 86 25 135t88 87q31 18 61 25.5t69 7.5q54 0 91.5 -13t65.5 -42q28 -28 41 -68.5t13 -98.5v-4q0 -87 -24.5 -135.5t-87.5 -86.5zM173 79q19 -20 47 -29t69 -9q21 0 38 4t33 13
q25 16 34 45.5t9 101.5v34q0 72 -8 100.5t-28 48.5q-19 20 -46.5 29t-68.5 9q-21 0 -38.5 -4t-33.5 -13q-25 -16 -34 -45.5t-9 -102.5v-33q0 -72 8 -100.5t28 -48.5z" />
    <glyph glyph-name="one.tnum" 
d="M451 35v-35h-356v35l130 13q2 18 2.5 50t0.5 88v86q0 50 -1 86.5t-4 64.5l-128 7v35l224 14l1 -1q-1 -32 -1.5 -65t-0.5 -114v-121q0 -55 0.5 -84.5t2.5 -45.5z" />
    <glyph glyph-name="two.tnum" 
d="M505 91l-47 -90l-2 -1h-406l-4 5l23 57l1 1l190 148q48 36 62.5 57t14.5 49q0 38 -27 59t-79 21q-45 0 -79 -10t-62 -33l-18 13l56 84l4 3q22 9 54 14t72 5q85 0 128 -31.5t43 -94.5q0 -39 -21.5 -71.5t-83.5 -77.5q-87 -63 -108.5 -81.5t-40.5 -37.5h222q28 0 48 5.5
t42 20.5z" />
    <glyph glyph-name="three.tnum" 
d="M467 42q0 -50 -27 -94.5t-79 -79.5q-67 -46 -114 -61.5t-115 -15.5q-28 0 -50.5 2.5t-39.5 7.5l-1 2l13 68l2 2q13 1 28.5 0.5t50.5 -4.5q30 -3 46 -4t30 -1q39 0 70 8t58 26q22 14 32 36.5t10 64.5v4q0 54 -39 78t-126 24q-24 0 -44 -2t-33 -5l-5 3l22 68l1 2
q107 20 148 51t41 82v7q0 42 -33.5 65t-93.5 23q-44 0 -77.5 -9.5t-58.5 -30.5l-20 12l45 79l4 4q26 9 58 14t65 5q102 0 151 -34t49 -106q0 -51 -25 -83.5t-115 -74.5q86 -7 129 -40.5t43 -92.5z" />
    <glyph glyph-name="four.tnum" horiz-adv-x="541" 
d="M406 -90v-19v-11q0 -15 -7.5 -27.5t-76.5 -84.5l-24 16q11 26 15 49t4 58v110h-82q-81 0 -120.5 -0.5t-72.5 -1.5l-3 2l-16 61v3l283 393l2 1l98 14l2 -2q-1 -35 -2 -76.5t-1 -81.5v-236h24q28 0 45 3.5t37 15.5l16 -17l-46 -81l-2 -1q-13 1 -28.5 2t-45.5 2v-57v-13
t1 -21zM100 80q25 -2 51 -2.5t83 -0.5h83v188q0 30 -0.5 64.5t-1.5 67.5q-92 -129 -143.5 -205t-71.5 -112z" />
    <glyph glyph-name="five.tnum" 
d="M463 55q0 -56 -25 -97.5t-87 -85.5q-58 -41 -111 -61t-105 -20q-26 0 -48 2.5t-39 6.5l-1 3l15 67l3 2q12 1 27 1t48 -3q27 -3 42 -4t28 -1q32 0 62 9t54 26q31 21 42.5 46t11.5 72v8q0 61 -56 87.5t-244 40.5l-2 3l40 305l3 3h242q27 0 46 4t37 13l22 -18l-53 -80l-2 -1
q-25 2 -57 3t-73 1h-127l-20 -158q207 -18 267 -53t60 -121z" />
    <glyph glyph-name="six.tnum" 
d="M490 225q0 -74 -22.5 -117t-82.5 -81q-28 -18 -58 -26.5t-69 -8.5q-99 0 -150 57.5t-51 167.5v84q0 92 17.5 146t67.5 116q40 50 87 72.5t111 22.5q26 0 53.5 -2t45.5 -6l1 -2l-12 -63l-2 -2q-3 -2 -7 -3t-10 -1q-7 0 -17 1t-33 3q-31 4 -47 5t-29 1q-43 0 -67 -10
t-43 -37q-13 -19 -18 -56t-5 -133v-8q41 35 78 49.5t80 14.5q93 0 137.5 -45t44.5 -139zM150 297v-59q0 -109 31 -153t107 -44q21 0 39 4.5t35 14.5q21 14 29 41.5t8 81.5v42q0 65 -29 94.5t-95 29.5q-42 0 -74.5 -13.5t-50.5 -38.5z" />
    <glyph glyph-name="seven.tnum" 
d="M479 467l3 -5q-52 -146 -84.5 -235t-44.5 -121q-49 -131 -85 -202.5t-84 -134.5h-2l-63 56v2q81 83 142.5 198.5t146.5 359.5h-249q-28 0 -47.5 -5.5t-40.5 -20.5l-18 15l48 91l2 1q47 -1 64 -1q17 -1 35 -1h132q46 0 83 1t62 2z" />
    <glyph glyph-name="eight.tnum" 
d="M484 190q0 -57 -24 -96.5t-79 -69.5q-34 -18 -64 -25t-70 -7q-94 0 -142.5 38.5t-48.5 112.5q0 37 7.5 62t23.5 45q12 14 31 28t62 40q-65 30 -90 62t-25 84q0 56 23.5 94.5t77.5 67.5q35 19 62.5 25.5t65.5 6.5q88 0 134 -37t46 -108q0 -59 -20.5 -92.5t-102.5 -81.5
q76 -31 104.5 -63.5t28.5 -85.5zM145 514v-5q0 -43 11.5 -64t42.5 -39q16 -9 41 -20.5t72 -30.5q32 19 44 30t20 24q9 15 13 35.5t4 47.5v10q0 50 -37.5 77.5t-105.5 27.5q-53 0 -79 -23t-26 -70zM136 164v-12q0 -53 38.5 -80.5t113.5 -27.5q60 0 88 23.5t28 72.5v4
q0 54 -26 78.5t-159 79.5q-33 -20 -45 -30.5t-20 -23.5q-9 -15 -13.5 -35.5t-4.5 -48.5z" />
    <glyph glyph-name="nine.tnum" 
d="M394 -95q-51 -65 -116 -90q-52 -19 -125 -19q-18 0 -38 1l-1 2l2 68l1 3q13 4 31 6t58 2q73 0 104.5 10.5t49.5 33.5q19 25 25 52.5t6 93.5v48q-38 -42 -75 -59t-83 -17q-94 0 -138 47t-44 147q0 82 21.5 123.5t82.5 79.5q31 19 61.5 27t68.5 8q97 0 148 -55.5t51 -159.5
v-109q0 -78 -17.5 -125t-72.5 -118zM254 423q-23 0 -40.5 -4.5t-35.5 -14.5q-20 -13 -28 -41.5t-8 -82.5v-51q0 -66 30.5 -97.5t93.5 -31.5q52 0 88.5 28.5t36.5 65.5v51q0 98 -31 138t-106 40z" />
    <glyph glyph-name="period.tnum" horiz-adv-x="270" 
d="M195 59q0 -31 -15.5 -47t-45.5 -16q-29 0 -43.5 14t-14.5 42q0 27 16 41.5t47 14.5q28 0 42 -12.5t14 -36.5z" />
    <glyph glyph-name="comma.tnum" horiz-adv-x="270" 
d="M139 109q31 0 47 -22t16 -65q0 -59 -28.5 -106t-83.5 -78l-17 28q35 23 54.5 53.5t19.5 62.5v12t-1 7q-7 -2 -11.5 -3t-9.5 -1q-26 0 -39 13.5t-13 41.5q0 27 17.5 42t48.5 15z" />
    <glyph glyph-name="colon.tnum" horiz-adv-x="270" 
d="M195 347q0 -31 -15.5 -47t-45.5 -16q-29 0 -43.5 14t-14.5 42q0 27 16 41.5t47 14.5q28 0 42 -12.5t14 -36.5zM195 59q0 -31 -15.5 -47t-45.5 -16q-29 0 -43.5 14t-14.5 42q0 27 16 41.5t47 14.5q28 0 42 -12.5t14 -36.5z" />
    <glyph glyph-name="semicolon.tnum" horiz-adv-x="270" 
d="M191 347q0 -31 -15 -47t-45 -16q-29 0 -43.5 14t-14.5 42q0 27 16 41.5t46 14.5q28 0 42 -12.5t14 -36.5zM139 109q31 0 47 -22t16 -65q0 -59 -28.5 -106t-83.5 -78l-17 28q35 23 54.5 53.5t19.5 62.5v12t-1 7q-7 -2 -11.5 -3t-9.5 -1q-26 0 -39 13.5t-13 41.5
q0 27 17.5 42t48.5 15z" />
    <glyph glyph-name="zero.lnum" horiz-adv-x="625" 
d="M438 35q-36 -24 -69 -33.5t-77 -9.5q-55 0 -94 13.5t-67 41.5q-38 38 -53 93.5t-15 158.5v7q0 129 26 196t98 113q34 23 68 33t78 10q55 0 94 -13.5t67 -41.5q38 -38 53 -93t15 -159v-7q0 -129 -26 -196t-98 -113zM210 87q21 -21 50 -31t71 -10q25 0 45.5 5.5t36.5 16.5
q34 24 45 63t11 132v80q0 92 -12 141t-42 79q-21 21 -50 31t-71 10q-25 0 -45.5 -5.5t-36.5 -16.5q-34 -24 -45 -63t-11 -132v-80q0 -92 12 -141t42 -79z" />
    <glyph glyph-name="one.lnum" horiz-adv-x="413" 
d="M364 35v-35h-310v35l107 6q2 43 2.5 72.5t0.5 65.5v282q0 61 -1 97.5t-4 53.5l-105 3v35l201 8l1 -1q-1 -31 -1.5 -64t-0.5 -114v-308q0 -47 0.5 -78.5t1.5 -51.5z" />
    <glyph glyph-name="two.lnum" horiz-adv-x="516" 
d="M489 103l-47 -102l-2 -1h-408l-3 6l20 76l226 225q50 50 66.5 81.5t16.5 78.5q0 54 -37 85.5t-103 31.5q-44 0 -82 -15.5t-66 -43.5l-21 12l44 85l4 4q35 17 69.5 24.5t77.5 7.5q94 0 143 -40.5t49 -117.5q0 -64 -22 -104t-123 -138q-66 -65 -98 -102.5t-57 -76.5h231
q38 0 59 8t42 31z" />
    <glyph glyph-name="three.lnum" horiz-adv-x="503" 
d="M452 235q0 -57 -27 -98t-94 -85q-43 -29 -91.5 -44.5t-95.5 -15.5q-31 0 -60 6.5t-55 18.5v3l19 64l2 2q7 -1 17 -2.5t34 -7.5q43 -10 65.5 -13.5t40.5 -3.5q33 0 59 6t45 17q30 18 42 41.5t12 65.5v3q0 55 -37.5 81.5t-117.5 26.5q-22 0 -41.5 -2t-33.5 -6l-5 4l21 67
l1 1q101 22 139 50.5t38 80.5v3q0 41 -34 63.5t-95 22.5q-43 0 -79 -16.5t-58 -45.5l-23 13l40 87l6 7q35 17 64.5 23t74.5 6q89 0 140 -35.5t51 -100.5q0 -55 -25 -87t-109 -67q85 -10 127.5 -43.5t42.5 -89.5z" />
    <glyph glyph-name="four.lnum" horiz-adv-x="576" 
d="M422 66v-20v-12q0 -17 -13.5 -30.5t-82.5 -58.5l-22 22q17 24 22 43.5t5 54.5v118h-84q-83 0 -123.5 -0.5t-75.5 -1.5l-2 2l-17 67l1 3l287 390l1 1l104 14l2 -2q-1 -35 -2 -76.5t-1 -81.5v-239h34q29 0 47.5 4t37.5 15l17 -17l-50 -81l-2 -1q-15 1 -32.5 2t-51.5 2v-83
v-13t1 -21zM102 262q27 -2 54.5 -2.5t87.5 -0.5h87v191q0 32 -0.5 68.5t-1.5 69.5q-95 -131 -150 -209.5t-77 -116.5z" />
    <glyph glyph-name="five.lnum" horiz-adv-x="480" 
d="M437 235q0 -61 -22.5 -102.5t-78.5 -78.5q-46 -32 -89 -47t-87 -15q-33 0 -65 5t-55 14l-1 3l15 64l2 2q8 0 20.5 -2t42.5 -7q46 -7 68 -9.5t37 -2.5q25 0 48 6.5t42 18.5q25 15 34.5 40t9.5 74v10q0 60 -67.5 87t-233.5 29l-3 3l38 320l3 3h236q27 0 44.5 4t35.5 13
l21 -18l-50 -80l-2 -1q-23 2 -53.5 3t-71.5 1h-124l-20 -171q191 -9 258.5 -44t67.5 -122z" />
    <glyph glyph-name="six.lnum" horiz-adv-x="562" 
d="M509 217q0 -69 -22.5 -109.5t-87.5 -80.5q-30 -18 -60.5 -26.5t-67.5 -8.5q-101 0 -154 57.5t-53 167.5v84q0 93 18 148t71 120q38 47 83 68t103 21q31 0 61 -4t49 -10l1 -2l-11 -62l-2 -2q-4 -2 -8 -2.5t-10 -0.5q-8 0 -18.5 1t-33.5 6q-31 5 -48.5 7t-33.5 2
q-38 0 -60.5 -9.5t-40.5 -33.5q-15 -22 -20.5 -62.5t-5.5 -132.5v-15q39 35 78 50.5t86 15.5q95 0 141 -46t46 -141zM158 290v-52q0 -109 32.5 -153t111.5 -44q23 0 41 4.5t33 14.5q24 15 32.5 42t8.5 81v37q0 66 -30 95t-99 29q-45 0 -78 -14t-52 -40z" />
    <glyph glyph-name="seven.lnum" horiz-adv-x="496" 
d="M465 653l3 -5q-141 -387 -187 -489.5t-103 -180.5h-3l-74 37v4q86 86 148.5 201.5t146.5 350.5h-267q-25 0 -43.5 -5t-39.5 -21l-17 14l45 92l2 1q46 -1 62 -1q16 -1 33 -1h146q46 0 84 1t64 2z" />
    <glyph glyph-name="eight.lnum" horiz-adv-x="542" 
d="M484 190q0 -57 -24 -96t-78 -69q-34 -19 -63.5 -26t-70.5 -7q-93 0 -142 39t-49 112q0 58 20.5 91.5t102.5 82.5q-63 29 -88.5 62t-25.5 85q0 56 23 94t78 68q33 18 61 25t66 7q89 0 135 -37t46 -108q0 -59 -21 -92.5t-100 -79.5q73 -30 101.5 -63.5t28.5 -87.5zM145 514
v-5q0 -44 11.5 -64.5t43.5 -38.5q16 -9 42 -20.5t73 -29.5q32 19 44 30t19 24q9 15 13 35t4 47v10q0 50 -37.5 77.5t-106.5 27.5q-54 0 -80 -23t-26 -70zM135 164v-12q0 -53 39.5 -80.5t114.5 -27.5q60 0 88.5 23.5t28.5 72.5v4q0 44 -13.5 65t-50.5 40q-17 9 -43 20t-80 32
q-35 -21 -46.5 -31t-19.5 -23q-9 -15 -13.5 -35t-4.5 -48z" />
    <glyph glyph-name="nine.lnum" horiz-adv-x="562" 
d="M411 80q-37 -45 -82.5 -66.5t-103.5 -21.5q-43 0 -75.5 6t-51.5 17l-1 3l19 59l2 3q4 1 9 1q6 0 12 -1q12 -2 42 -9q39 -8 60 -10.5t39 -2.5q38 0 60.5 9.5t40.5 33.5q13 19 18 51t5 125v24q-40 -36 -79 -51t-84 -15q-94 0 -141 46t-47 137q0 75 24 120.5t86 84.5
q31 19 61 27t67 8q101 0 154 -57.5t53 -166.5v-93q0 -91 -18 -146t-69 -115zM274 295q58 0 94 23.5t36 61.5v33q0 108 -32.5 152t-110.5 44q-23 0 -41 -4.5t-34 -14.5q-24 -16 -32.5 -44t-8.5 -82v-39q0 -66 31.5 -98t97.5 -32z" />
    <glyph glyph-name="zero.lnum_tnum" 
d="M385 38q-48 -29 -75 -37.5t-60 -8.5q-49 0 -83 12t-61 39q-32 33 -44.5 79.5t-12.5 140.5v74q0 119 23 178.5t83 96.5q48 29 75 37.5t60 8.5q49 0 83 -12t61 -39q32 -33 44.5 -79.5t12.5 -140.5v-74q0 -118 -23 -177.5t-83 -97.5zM180 90q19 -20 44.5 -29.5t61.5 -9.5
q24 0 41.5 4.5t30.5 13.5q25 16 33.5 47t8.5 124v129q0 85 -9 125.5t-31 65.5q-19 20 -44.5 29.5t-61.5 9.5q-24 0 -42 -4.5t-30 -13.5q-25 -16 -33.5 -47t-8.5 -124v-129q0 -85 9 -125.5t31 -65.5z" />
    <glyph glyph-name="one.lnum_tnum" 
d="M476 35v-35h-406v35l155 10q2 19 2.5 50.5t0.5 88.5v275q0 61 -1 97.5t-4 53.5l-153 5v35l249 11l1 -1q-1 -31 -1.5 -65.5t-0.5 -117.5v-301q0 -55 0.5 -85t2.5 -46z" />
    <glyph glyph-name="two.lnum_tnum" 
d="M503 103l-47 -102l-2 -1h-413l-3 6l20 76l1 1l228 224q51 50 68 82t17 78q0 54 -38 85.5t-104 31.5q-45 0 -83 -15t-67 -44l-21 12l44 85l4 4q34 17 69.5 24.5t78.5 7.5q95 0 145 -40.5t50 -117.5q0 -63 -22 -102.5t-124 -139.5q-62 -59 -96 -98t-61 -81h234q38 0 59 8
t43 31z" />
    <glyph glyph-name="three.lnum_tnum" 
d="M478 235q0 -59 -30 -101.5t-98 -81.5q-51 -30 -99.5 -45t-91.5 -15q-30 0 -61 6.5t-59 18.5v3l19 63l2 2q7 0 18.5 -2t39.5 -8q44 -10 66.5 -13t40.5 -3q29 0 56 6.5t50 18.5q34 17 45.5 38.5t11.5 74.5v4q0 50 -40 74.5t-122 24.5q-22 0 -41.5 -2t-36.5 -6l-5 4l23 67
l1 1q106 22 145 50.5t39 82.5v3q0 39 -35.5 61.5t-97.5 22.5q-44 0 -81.5 -16.5t-62.5 -45.5l-23 13l41 87l7 7q35 17 66.5 23t78.5 6q92 0 144.5 -35.5t52.5 -100.5q0 -54 -26 -86.5t-113 -67.5q88 -10 132 -43.5t44 -89.5z" />
    <glyph glyph-name="four.lnum_tnum" 
d="M414 66v-20v-12q0 -18 -14 -32t-81 -57l-21 22q16 23 21 42t5 56v119h-82q-83 0 -123.5 -0.5t-75.5 -1.5l-2 2l-17 68l1 3l285 388l1 1l103 14l2 -2q-1 -35 -2 -76.5t-1 -81.5v-238h12q32 0 49.5 3.5t34.5 15.5l17 -16l-40 -82l-2 -1q-12 1 -27 2t-44 2v-84v-13t1 -21z
M96 263q27 -2 54.5 -2.5t86.5 -0.5h87v190q0 32 -0.5 68.5t-1.5 69.5q-95 -131 -149.5 -209.5t-76.5 -115.5z" />
    <glyph glyph-name="five.lnum_tnum" 
d="M476 235q0 -62 -23 -103.5t-79 -77.5q-48 -32 -94 -47t-95 -15q-35 0 -68 5t-56 14l-1 3l14 64l2 2q9 0 22 -2t44 -7q47 -7 69.5 -9.5t38.5 -2.5q31 0 55.5 6t45.5 19q25 15 34.5 39t9.5 75v10q0 60 -72 87t-246 29l-2 3l39 320l3 3h251q27 0 45.5 4t37.5 13l21 -18
l-52 -80l-2 -1q-24 2 -55.5 3t-72.5 1h-136l-21 -171q200 -9 271.5 -44.5t71.5 -121.5z" />
    <glyph glyph-name="six.lnum_tnum" 
d="M497 217q0 -69 -22.5 -109.5t-86.5 -80.5q-31 -19 -61 -27t-67 -8q-100 0 -152.5 57.5t-52.5 167.5v84q0 94 17.5 149t70.5 119q39 47 83 68t102 21q30 0 60 -4t49 -10l1 -2l-11 -62l-2 -2q-3 -1 -7.5 -2t-9.5 -1q-8 0 -18.5 1t-33.5 6q-31 5 -48.5 7t-32.5 2
q-38 0 -60.5 -9.5t-40.5 -33.5q-15 -22 -20.5 -62.5t-5.5 -132.5v-14q39 35 78 50t85 15q94 0 140 -46t46 -141zM148 291v-53q0 -109 32 -153t111 -44q23 0 41 4.5t33 14.5q24 15 32.5 42t8.5 81v37q0 66 -29.5 95t-98.5 29q-45 0 -78.5 -13.5t-51.5 -39.5z" />
    <glyph glyph-name="seven.lnum_tnum" 
d="M495 653l3 -5q-144 -383 -192.5 -486.5t-108.5 -183.5h-3l-77 37v4q90 88 156 204.5t150 347.5h-277q-27 0 -46.5 -5.5t-40.5 -20.5l-17 14l46 92l2 1q48 -1 64 -1q16 -1 34 -1h154q48 0 87.5 1t65.5 2z" />
    <glyph glyph-name="eight.lnum_tnum" 
d="M484 190q0 -57 -24 -96.5t-79 -69.5q-34 -18 -64 -25t-70 -7q-94 0 -142.5 38.5t-48.5 112.5q0 37 7.5 62t23.5 45q12 14 31 28t62 40q-65 30 -90 62t-25 84q0 56 23.5 94.5t77.5 67.5q35 19 62.5 25.5t65.5 6.5q88 0 134 -37t46 -108q0 -59 -20.5 -92.5t-102.5 -81.5
q76 -31 104.5 -63.5t28.5 -85.5zM145 514v-5q0 -43 11.5 -64t42.5 -39q16 -9 41 -20.5t72 -30.5q32 19 44 30t20 24q9 15 13 35.5t4 47.5v10q0 50 -37.5 77.5t-105.5 27.5q-53 0 -79 -23t-26 -70zM136 164v-12q0 -53 38.5 -80.5t113.5 -27.5q60 0 88 23.5t28 72.5v4
q0 54 -26 78.5t-159 79.5q-33 -20 -45 -30.5t-20 -23.5q-9 -15 -13.5 -35.5t-4.5 -48.5z" />
    <glyph glyph-name="nine.lnum_tnum" 
d="M400 80q-37 -45 -82 -66.5t-103 -21.5q-43 0 -75.5 6t-51.5 17l-1 3l19 59l2 3q4 1 9 1q6 0 12 -1q12 -2 42 -9q38 -8 59 -10.5t39 -2.5q37 0 59.5 9.5t40.5 33.5q14 19 19 53t5 123v25q-40 -36 -78.5 -51.5t-84.5 -15.5q-93 0 -139.5 46t-46.5 137q0 76 24 121.5
t85 83.5q30 19 60 27t68 8q100 0 152.5 -57.5t52.5 -166.5v-93q0 -91 -18 -146t-68 -115zM263 295q58 0 94 23.5t36 61.5v33q0 108 -32.5 152t-110.5 44q-23 0 -41 -4.5t-33 -14.5q-24 -15 -32.5 -43t-8.5 -83v-39q0 -66 31.5 -98t96.5 -32z" />
    <glyph glyph-name="onehalf" unicode="&#xbd;" horiz-adv-x="736" 
d="M523 684l28 -31l-389 -687h-3l-27 32l388 686h3zM719 74l-28 -73l-1 -1h-252l-2 3l15 57l1 1l122 110q29 27 39 44.5t10 41.5q0 30 -19 46t-55 16q-26 0 -47.5 -8t-40.5 -25l-13 9l32 61l3 2q18 9 39 13t46 4q59 0 90.5 -23.5t31.5 -68.5q0 -36 -13.5 -58.5t-76.5 -76.5
q-31 -26 -49.5 -45.5t-34.5 -41.5h127q22 0 35.5 4t27.5 17zM232 306v-26h-199v26l59 4q2 10 2.5 27t0.5 48v158q0 23 -0.5 41.5t-2.5 37.5l-59 2v26l138 5l1 -1q-1 -17 -1 -37v-73v-159v-57q0 -12 1 -18z" />
    <glyph glyph-name="onethird" unicode="&#x2153;" horiz-adv-x="725" 
d="M523 684l28 -31l-389 -687h-3l-27 32l388 686h3zM697 139q0 -34 -16.5 -57t-65.5 -53q-27 -17 -55 -25.5t-56 -8.5q-18 0 -34.5 3t-30.5 9l-1 2l14 46l1 2q4 0 10 -1t21 -4q25 -5 39 -7t25 -2q16 0 28 2.5t22 8.5q13 8 18.5 19t5.5 31v3q0 30 -19.5 44t-60.5 14
q-14 0 -24 -1.5t-20 -4.5l-6 3l16 48l1 1q51 10 72.5 25t21.5 40v3q0 20 -17 31t-49 11q-23 0 -43.5 -8t-37.5 -24l-13 9l29 57l2 4q24 10 42 13t44 3q56 0 86.5 -19.5t30.5 -55.5q0 -28 -15 -46t-66 -39q50 -6 75.5 -25.5t25.5 -50.5zM232 306v-26h-199v26l59 4
q2 10 2.5 27t0.5 48v158q0 23 -0.5 41.5t-2.5 37.5l-59 2v26l138 5l1 -1q-1 -17 -1 -37v-73v-159v-57q0 -12 1 -18z" />
    <glyph glyph-name="twothirds" unicode="&#x2154;" horiz-adv-x="779" 
d="M577 684l28 -31l-389 -687h-3l-27 32l388 686h3zM751 139q0 -34 -16.5 -57t-65.5 -53q-27 -17 -55 -25.5t-56 -8.5q-18 0 -34.5 3t-30.5 9l-1 2l14 46l1 2q4 0 10 -1t21 -4q25 -5 39 -7t25 -2q16 0 28 2.5t22 8.5q13 8 18.5 19t5.5 31v3q0 30 -19.5 44t-60.5 14
q-14 0 -24 -1.5t-20 -4.5l-6 3l16 48l1 1q51 10 72.5 25t21.5 40v3q0 20 -17 31t-49 11q-23 0 -43.5 -8t-37.5 -24l-13 9l29 57l2 4q24 10 42 13t44 3q56 0 86.5 -19.5t30.5 -55.5q0 -28 -15 -46t-66 -39q50 -6 75.5 -25.5t25.5 -50.5zM299 354l-28 -73l-1 -1h-252l-2 3
l15 57l1 1l122 110q29 27 39 44.5t10 41.5q0 30 -19 46t-55 16q-26 0 -47.5 -8t-40.5 -25l-13 9l32 61l3 2q18 9 39 13t46 4q59 0 90.5 -23.5t31.5 -68.5q0 -36 -13.5 -58.5t-76.5 -76.5q-31 -26 -49.5 -45.5t-34.5 -41.5h127q22 0 35.5 4t27.5 17z" />
    <glyph glyph-name="onequarter" unicode="&#xbc;" horiz-adv-x="743" 
d="M523 684l28 -31l-389 -687h-3l-27 32l388 686h3zM649 38v-10v-5q0 -8 -6.5 -14.5t-27.5 -16.5q-4 -3 -19 -10t-25 -12l-13 15q10 11 13 21.5t3 29.5v62h-54q-23 0 -46.5 -0.5t-61.5 -1.5l-1 1l-14 49v1l163 218l1 1l87 9l2 -1q-1 -29 -1.5 -49.5t-0.5 -37.5v-133h22
q17 0 26.5 2t21.5 9l11 -10l-31 -61h-1q-3 0 -7.5 0.5t-12.5 1.5l-18 1.5t-11 0.5v-42v-7t1 -11zM455 156q12 -1 27 -1.5t45 -0.5h47v100q0 15 -0.5 32.5t-1.5 37.5q-46 -63 -74.5 -103.5t-42.5 -64.5zM232 306v-26h-199v26l59 4q2 10 2.5 27t0.5 48v158q0 23 -0.5 41.5
t-2.5 37.5l-59 2v26l138 5l1 -1q-1 -17 -1 -37v-73v-159v-57q0 -12 1 -18z" />
    <glyph glyph-name="threequarters" unicode="&#xbe;" horiz-adv-x="785" 
d="M566 684l28 -31l-389 -687h-3l-27 32l388 686h3zM692 38v-10v-5q0 -8 -6.5 -14.5t-27.5 -16.5q-4 -3 -19 -10t-25 -12l-13 15q10 11 13 21.5t3 29.5v62h-54q-23 0 -46.5 -0.5t-61.5 -1.5l-1 1l-14 49v1l163 218l1 1l87 9l2 -1q-1 -29 -1.5 -49.5t-0.5 -37.5v-133h22
q17 0 26.5 2t21.5 9l11 -10l-31 -61h-1q-3 0 -7.5 0.5t-12.5 1.5l-18 1.5t-11 0.5v-42v-7t1 -11zM498 156q12 -1 27 -1.5t45 -0.5h47v100q0 15 -0.5 32.5t-1.5 37.5q-46 -63 -74.5 -103.5t-42.5 -64.5zM277 419q0 -34 -16.5 -57t-65.5 -53q-27 -17 -55 -25.5t-56 -8.5
q-18 0 -34.5 3t-30.5 9l-1 2l14 46l1 2q4 0 10 -1t21 -4q25 -5 39 -7t25 -2q16 0 28 2.5t22 8.5q13 8 18.5 19t5.5 31v3q0 30 -19.5 44t-60.5 14q-14 0 -24 -1.5t-20 -4.5l-6 3l16 48l1 1q51 10 72.5 25t21.5 40v3q0 20 -17 31t-49 11q-23 0 -43.5 -8t-37.5 -24l-13 9l29 57
l2 4q24 10 42 13t44 3q56 0 86.5 -19.5t30.5 -55.5q0 -28 -15 -46t-66 -39q50 -6 75.5 -25.5t25.5 -50.5z" />
    <glyph glyph-name="oneeighth" unicode="&#x215b;" horiz-adv-x="749" 
d="M523 684l28 -31l-389 -687h-3l-27 32l388 686h3zM719 110q0 -33 -15 -55.5t-52 -40.5q-19 -9 -39.5 -14t-42.5 -5q-60 0 -91 22t-31 65q0 30 12 48t61 46q-37 16 -52 35.5t-15 51.5q0 33 15.5 55t51.5 38q19 10 38 14.5t41 4.5q56 0 84.5 -21.5t28.5 -64.5
q0 -30 -11.5 -48t-54.5 -42q41 -17 56.5 -36.5t15.5 -52.5zM524 293v-3q0 -29 15 -42t79 -38q19 14 25 28t6 38v5q0 26 -20 40.5t-56 14.5q-25 0 -37 -10.5t-12 -32.5zM513 95v-4q0 -27 21.5 -42t61.5 -15q28 0 41 10.5t13 33.5v4q0 30 -15 43t-85 40q-24 -18 -30.5 -32
t-6.5 -38zM232 306v-26h-199v26l59 4q2 10 2.5 27t0.5 48v158q0 23 -0.5 41.5t-2.5 37.5l-59 2v26l138 5l1 -1q-1 -17 -1 -37v-73v-159v-57q0 -12 1 -18z" />
    <glyph glyph-name="threeeighths" unicode="&#x215c;" horiz-adv-x="792" 
d="M566 684l28 -31l-389 -687h-3l-27 32l388 686h3zM762 110q0 -33 -15 -55.5t-52 -40.5q-19 -9 -39.5 -14t-42.5 -5q-60 0 -91 22t-31 65q0 30 12 48t61 46q-37 16 -52 35.5t-15 51.5q0 33 15.5 55t51.5 38q19 10 38 14.5t41 4.5q56 0 84.5 -21.5t28.5 -64.5
q0 -30 -11.5 -48t-54.5 -42q41 -17 56.5 -36.5t15.5 -52.5zM567 293v-3q0 -29 15 -42t79 -38q19 14 25 28t6 38v5q0 26 -20 40.5t-56 14.5q-25 0 -37 -10.5t-12 -32.5zM556 95v-4q0 -27 21.5 -42t61.5 -15q28 0 41 10.5t13 33.5v4q0 30 -15 43t-85 40q-24 -18 -30.5 -32
t-6.5 -38zM277 419q0 -34 -16.5 -57t-65.5 -53q-27 -17 -55 -25.5t-56 -8.5q-18 0 -34.5 3t-30.5 9l-1 2l14 46l1 2q4 0 10 -1t21 -4q25 -5 39 -7t25 -2q16 0 28 2.5t22 8.5q13 8 18.5 19t5.5 31v3q0 30 -19.5 44t-60.5 14q-14 0 -24 -1.5t-20 -4.5l-6 3l16 48l1 1
q51 10 72.5 25t21.5 40v3q0 20 -17 31t-49 11q-23 0 -43.5 -8t-37.5 -24l-13 9l29 57l2 4q24 10 42 13t44 3q56 0 86.5 -19.5t30.5 -55.5q0 -28 -15 -46t-66 -39q50 -6 75.5 -25.5t25.5 -50.5z" />
    <glyph glyph-name="fiveeighths" unicode="&#x215d;" horiz-adv-x="782" 
d="M556 684l28 -31l-389 -687h-3l-27 32l388 686h3zM752 110q0 -33 -15 -55.5t-52 -40.5q-19 -9 -39.5 -14t-42.5 -5q-60 0 -91 22t-31 65q0 30 12 48t61 46q-37 16 -52 35.5t-15 51.5q0 33 15.5 55t51.5 38q19 10 38 14.5t41 4.5q56 0 84.5 -21.5t28.5 -64.5
q0 -30 -11.5 -48t-54.5 -42q41 -17 56.5 -36.5t15.5 -52.5zM557 293v-3q0 -29 15 -42t79 -38q19 14 25 28t6 38v5q0 26 -20 40.5t-56 14.5q-25 0 -37 -10.5t-12 -32.5zM546 95v-4q0 -27 21.5 -42t61.5 -15q28 0 41 10.5t13 33.5v4q0 30 -15 43t-85 40q-24 -18 -30.5 -32
t-6.5 -38zM271 418q0 -34 -15 -58t-56 -50q-29 -18 -56 -26.5t-55 -8.5q-19 0 -37 3t-31 8l-1 1l10 47l1 1q6 0 14.5 -1t28.5 -4q25 -4 38 -5.5t24 -1.5q14 0 25 2.5t21 8.5q12 7 16.5 18.5t4.5 36.5v6q0 32 -35.5 45.5t-136.5 15.5l-2 4l25 188l2 2h151q16 0 26 2.5t20 8.5
l14 -10l-31 -61l-1 -1q-27 1 -41 1.5t-29 0.5h-78l-10 -75q113 -6 153.5 -26.5t40.5 -71.5z" />
    <glyph glyph-name="seveneighths" unicode="&#x215e;" horiz-adv-x="754" 
d="M528 684l28 -31l-389 -687h-3l-27 32l388 686h3zM724 110q0 -33 -15 -55.5t-52 -40.5q-19 -9 -39.5 -14t-42.5 -5q-60 0 -91 22t-31 65q0 30 12 48t61 46q-37 16 -52 35.5t-15 51.5q0 33 15.5 55t51.5 38q19 10 38 14.5t41 4.5q56 0 84.5 -21.5t28.5 -64.5
q0 -30 -11.5 -48t-54.5 -42q41 -17 56.5 -36.5t15.5 -52.5zM529 293v-3q0 -29 15 -42t79 -38q19 14 25 28t6 38v5q0 26 -20 40.5t-56 14.5q-25 0 -37 -10.5t-12 -32.5zM518 95v-4q0 -27 21.5 -42t61.5 -15q28 0 41 10.5t13 33.5v4q0 30 -15 43t-85 40q-24 -18 -30.5 -32
t-6.5 -38zM289 651l3 -4q-15 -37 -41 -103q-26 -67 -38 -95q-30 -75 -51.5 -114.5t-46.5 -71.5h-2l-55 30v2q53 50 90.5 112.5t84.5 182.5h-156q-14 0 -24 -3t-22 -12l-13 9l32 67h1q2 0 25 -1q22 -1 36 -1h95q20 0 42 0.5t40 1.5z" />
    <glyph glyph-name="zero.numr" horiz-adv-x="384" 
d="M269 302q-24 -16 -44 -21.5t-48 -5.5q-36 0 -60.5 7.5t-41.5 24.5q-21 20 -30 50t-9 82v15q0 72 16 108t64 66q23 16 43.5 21.5t48.5 5.5q36 0 60 -7.5t41 -24.5q21 -21 30.5 -51t9.5 -81v-15q0 -72 -16 -108t-64 -66zM142 339q12 -12 26.5 -17t34.5 -5q14 0 24 2.5
t18 8.5q17 11 22 30t5 67v54q0 46 -7 72t-23 40q-11 12 -25.5 17t-35.5 5q-13 0 -23 -2.5t-19 -8.5q-16 -11 -21 -29.5t-5 -67.5v-54q0 -48 6.5 -73t22.5 -39z" />
    <glyph glyph-name="one.numr" horiz-adv-x="262" 
d="M232 306v-26h-199v26l59 4q2 10 2.5 27t0.5 48v158q0 23 -0.5 41.5t-2.5 37.5l-59 2v26l138 5l1 -1q-1 -17 -1 -37v-73v-159v-57q0 -12 1 -18z" />
    <glyph glyph-name="two.numr" horiz-adv-x="316" 
d="M299 354l-28 -73l-1 -1h-252l-2 3l15 57l1 1l122 110q29 27 39 44.5t10 41.5q0 30 -19 46t-55 16q-26 0 -47.5 -8t-40.5 -25l-13 9l32 61l3 2q18 9 39 13t46 4q59 0 90.5 -23.5t31.5 -68.5q0 -36 -13.5 -58.5t-76.5 -76.5q-31 -26 -49.5 -45.5t-34.5 -41.5h127
q22 0 35.5 4t27.5 17z" />
    <glyph glyph-name="three.numr" horiz-adv-x="305" 
d="M277 419q0 -34 -16.5 -57t-65.5 -53q-27 -17 -55 -25.5t-56 -8.5q-18 0 -34.5 3t-30.5 9l-1 2l14 46l1 2q4 0 10 -1t21 -4q25 -5 39 -7t25 -2q16 0 28 2.5t22 8.5q13 8 18.5 19t5.5 31v3q0 30 -19.5 44t-60.5 14q-14 0 -24 -1.5t-20 -4.5l-6 3l16 48l1 1q51 10 72.5 25
t21.5 40v3q0 20 -17 31t-49 11q-23 0 -43.5 -8t-37.5 -24l-13 9l29 57l2 4q24 10 42 13t44 3q56 0 86.5 -19.5t30.5 -55.5q0 -28 -15 -46t-66 -39q50 -6 75.5 -25.5t25.5 -50.5z" />
    <glyph glyph-name="four.numr" horiz-adv-x="364" 
d="M270 318v-10v-5q0 -8 -6.5 -14.5t-27.5 -16.5q-4 -3 -19 -10t-25 -12l-13 15q10 11 13 21.5t3 29.5v62h-54q-23 0 -46.5 -0.5t-61.5 -1.5l-1 1l-14 49v1l163 218l1 1l87 9l2 -1q-1 -29 -1.5 -49.5t-0.5 -37.5v-133h22q17 0 26.5 2t21.5 9l11 -10l-31 -61h-1
q-3 0 -7.5 0.5t-12.5 1.5l-18 1.5t-11 0.5v-42v-7t1 -11zM76 436q12 -1 27 -1.5t45 -0.5h47v100q0 15 -0.5 32.5t-1.5 37.5q-46 -63 -74.5 -103.5t-42.5 -64.5z" />
    <glyph glyph-name="five.numr" horiz-adv-x="295" 
d="M271 418q0 -34 -15 -58t-56 -50q-29 -18 -56 -26.5t-55 -8.5q-19 0 -37 3t-31 8l-1 1l10 47l1 1q6 0 14.5 -1t28.5 -4q25 -4 38 -5.5t24 -1.5q14 0 25 2.5t21 8.5q12 7 16.5 18.5t4.5 36.5v6q0 32 -35.5 45.5t-136.5 15.5l-2 4l25 188l2 2h151q16 0 26 2.5t20 8.5l14 -10
l-31 -61l-1 -1q-27 1 -41 1.5t-29 0.5h-78l-10 -75q113 -6 153.5 -26.5t40.5 -71.5z" />
    <glyph glyph-name="six.numr" horiz-adv-x="346" 
d="M316 404q0 -42 -14 -64.5t-58 -45.5q-16 -9 -36.5 -14t-42.5 -5q-66 0 -98 32.5t-32 99.5v38q0 57 12 87.5t51 71.5q27 29 51.5 40t62.5 11q18 0 36 -2t30 -5v-2l-8 -45l-1 -2q-4 -1 -7.5 -1.5t-7.5 -0.5q-5 0 -11 0.5t-19 2.5q-19 3 -29.5 4t-20.5 1q-19 0 -31 -4.5
t-20 -14.5q-6 -7 -8 -20.5t-2 -78.5v-12q26 21 47 29t46 8q58 0 84 -25.5t26 -82.5zM113 444v-35q0 -54 15.5 -75.5t54.5 -21.5q12 0 19.5 1.5t14.5 5.5q12 8 16.5 22t4.5 39v27q0 32 -14.5 46t-49.5 14q-20 0 -35 -6t-26 -17z" />
    <glyph glyph-name="seven.numr" horiz-adv-x="307" 
d="M289 651l3 -4q-15 -37 -41 -103q-26 -67 -38 -95q-30 -75 -51.5 -114.5t-46.5 -71.5h-2l-55 30v2q53 50 90.5 112.5t84.5 182.5h-156q-14 0 -24 -3t-22 -12l-13 9l32 67h1q2 0 25 -1q22 -1 36 -1h95q20 0 42 0.5t40 1.5z" />
    <glyph glyph-name="eight.numr" horiz-adv-x="329" 
d="M299 390q0 -33 -15 -55.5t-52 -40.5q-19 -9 -39.5 -14t-42.5 -5q-60 0 -91 22t-31 65q0 30 12 48t61 46q-37 16 -52 35.5t-15 51.5q0 33 15.5 55t51.5 38q19 10 38 14.5t41 4.5q56 0 84.5 -21.5t28.5 -64.5q0 -30 -11.5 -48t-54.5 -42q41 -17 56.5 -36.5t15.5 -52.5z
M104 573v-3q0 -29 15 -42t79 -38q19 14 25 28t6 38v5q0 26 -20 40.5t-56 14.5q-25 0 -37 -10.5t-12 -32.5zM93 375v-4q0 -27 21.5 -42t61.5 -15q28 0 41 10.5t13 33.5v4q0 30 -15 43t-85 40q-24 -18 -30.5 -32t-6.5 -38z" />
    <glyph glyph-name="nine.numr" horiz-adv-x="346" 
d="M245 321q-22 -24 -49.5 -35t-63.5 -11q-22 0 -41.5 3.5t-32.5 9.5l-1 2l14 45l2 2q6 0 14 -0.5t26 -5.5q23 -5 36 -6.5t25 -1.5q18 0 29 4.5t20 14.5q5 6 7.5 17t2.5 73v14q-21 -20 -43 -28.5t-49 -8.5q-55 0 -83 27t-28 81q0 47 15 72t56 47q17 9 37.5 14t42.5 5
q65 0 97.5 -32t32.5 -97v-39q0 -57 -13 -91t-53 -75zM172 453q28 0 44.5 11.5t16.5 30.5v29q0 52 -16 73t-54 21q-12 0 -20.5 -1.5t-13.5 -5.5q-12 -8 -16.5 -20.5t-4.5 -36.5v-36q0 -33 16 -49t48 -16z" />
    <glyph glyph-name="zero.dnom" horiz-adv-x="384" 
d="M269 22q-24 -16 -44 -21.5t-48 -5.5q-36 0 -60.5 7.5t-41.5 24.5q-21 20 -30 50t-9 82v15q0 72 16 108t64 66q23 16 43.5 21.5t48.5 5.5q36 0 60 -7.5t41 -24.5q21 -21 30.5 -51t9.5 -81v-15q0 -72 -16 -108t-64 -66zM142 59q12 -12 26.5 -17t34.5 -5q14 0 24 2.5t18 8.5
q17 11 22 30t5 67v54q0 46 -7 72t-23 40q-11 12 -25.5 17t-35.5 5q-13 0 -23 -2.5t-19 -8.5q-16 -11 -21 -29.5t-5 -67.5v-54q0 -48 6.5 -73t22.5 -39z" />
    <glyph glyph-name="one.dnom" horiz-adv-x="262" 
d="M232 26v-26h-199v26l59 4q2 10 2.5 27t0.5 48v158q0 23 -0.5 41.5t-2.5 37.5l-59 2v26l138 5l1 -1q-1 -17 -1 -37v-73v-159v-57q0 -12 1 -18z" />
    <glyph glyph-name="two.dnom" horiz-adv-x="316" 
d="M299 74l-28 -73l-1 -1h-252l-2 3l15 57l1 1l122 110q29 27 39 44.5t10 41.5q0 30 -19 46t-55 16q-26 0 -47.5 -8t-40.5 -25l-13 9l32 61l3 2q18 9 39 13t46 4q59 0 90.5 -23.5t31.5 -68.5q0 -36 -13.5 -58.5t-76.5 -76.5q-31 -26 -49.5 -45.5t-34.5 -41.5h127
q22 0 35.5 4t27.5 17z" />
    <glyph glyph-name="three.dnom" horiz-adv-x="305" 
d="M277 139q0 -34 -16.5 -57t-65.5 -53q-27 -17 -55 -25.5t-56 -8.5q-18 0 -34.5 3t-30.5 9l-1 2l14 46l1 2q4 0 10 -1t21 -4q25 -5 39 -7t25 -2q16 0 28 2.5t22 8.5q13 8 18.5 19t5.5 31v3q0 30 -19.5 44t-60.5 14q-14 0 -24 -1.5t-20 -4.5l-6 3l16 48l1 1q51 10 72.5 25
t21.5 40v3q0 20 -17 31t-49 11q-23 0 -43.5 -8t-37.5 -24l-13 9l29 57l2 4q24 10 42 13t44 3q56 0 86.5 -19.5t30.5 -55.5q0 -28 -15 -46t-66 -39q50 -6 75.5 -25.5t25.5 -50.5z" />
    <glyph glyph-name="four.dnom" horiz-adv-x="364" 
d="M270 38v-10v-5q0 -8 -6.5 -14.5t-27.5 -16.5q-4 -3 -19 -10t-25 -12l-13 15q10 11 13 21.5t3 29.5v62h-54q-23 0 -46.5 -0.5t-61.5 -1.5l-1 1l-14 49v1l163 218l1 1l87 9l2 -1q-1 -29 -1.5 -49.5t-0.5 -37.5v-133h22q17 0 26.5 2t21.5 9l11 -10l-31 -61h-1q-3 0 -7.5 0.5
t-12.5 1.5l-18 1.5t-11 0.5v-42v-7t1 -11zM76 156q12 -1 27 -1.5t45 -0.5h47v100q0 15 -0.5 32.5t-1.5 37.5q-46 -63 -74.5 -103.5t-42.5 -64.5z" />
    <glyph glyph-name="five.dnom" horiz-adv-x="295" 
d="M271 138q0 -34 -15 -58t-56 -50q-29 -18 -56 -26.5t-55 -8.5q-19 0 -37 3t-31 8l-1 1l10 47l1 1q6 0 14.5 -1t28.5 -4q25 -4 38 -5.5t24 -1.5q14 0 25 2.5t21 8.5q12 7 16.5 18.5t4.5 36.5v6q0 32 -35.5 45.5t-136.5 15.5l-2 4l25 188l2 2h151q16 0 26 2.5t20 8.5l14 -10
l-31 -61l-1 -1q-27 1 -41 1.5t-29 0.5h-78l-10 -75q113 -6 153.5 -26.5t40.5 -71.5z" />
    <glyph glyph-name="six.dnom" horiz-adv-x="346" 
d="M316 124q0 -42 -14 -64.5t-58 -45.5q-16 -9 -36.5 -14t-42.5 -5q-66 0 -98 32.5t-32 99.5v38q0 57 12 87.5t51 71.5q27 29 51.5 40t62.5 11q18 0 36 -2t30 -5v-2l-8 -45l-1 -2q-4 -1 -7.5 -1.5t-7.5 -0.5q-5 0 -11 0.5t-19 2.5q-19 3 -29.5 4t-20.5 1q-19 0 -31 -4.5
t-20 -14.5q-6 -7 -8 -20.5t-2 -78.5v-12q26 21 47 29t46 8q58 0 84 -25.5t26 -82.5zM113 164v-35q0 -54 15.5 -75.5t54.5 -21.5q12 0 19.5 1.5t14.5 5.5q12 8 16.5 22t4.5 39v27q0 32 -14.5 46t-49.5 14q-20 0 -35 -6t-26 -17z" />
    <glyph glyph-name="seven.dnom" horiz-adv-x="307" 
d="M289 371l3 -4q-15 -37 -41 -103q-26 -67 -38 -95q-30 -75 -51.5 -114.5t-46.5 -71.5h-2l-55 30v2q53 50 90.5 112.5t84.5 182.5h-156q-14 0 -24 -3t-22 -12l-13 9l32 67h1q2 0 25 -1q22 -1 36 -1h95q20 0 42 0.5t40 1.5z" />
    <glyph glyph-name="eight.dnom" horiz-adv-x="329" 
d="M299 110q0 -33 -15 -55.5t-52 -40.5q-19 -9 -39.5 -14t-42.5 -5q-60 0 -91 22t-31 65q0 30 12 48t61 46q-37 16 -52 35.5t-15 51.5q0 33 15.5 55t51.5 38q19 10 38 14.5t41 4.5q56 0 84.5 -21.5t28.5 -64.5q0 -30 -11.5 -48t-54.5 -42q41 -17 56.5 -36.5t15.5 -52.5z
M104 293v-3q0 -29 15 -42t79 -38q19 14 25 28t6 38v5q0 26 -20 40.5t-56 14.5q-25 0 -37 -10.5t-12 -32.5zM93 95v-4q0 -27 21.5 -42t61.5 -15q28 0 41 10.5t13 33.5v4q0 30 -15 43t-85 40q-24 -18 -30.5 -32t-6.5 -38z" />
    <glyph glyph-name="nine.dnom" horiz-adv-x="346" 
d="M245 41q-22 -24 -49.5 -35t-63.5 -11q-22 0 -41.5 3.5t-32.5 9.5l-1 2l14 45l2 2q6 0 14 -0.5t26 -5.5q23 -5 36 -6.5t25 -1.5q18 0 29 4.5t20 14.5q5 6 7.5 17t2.5 73v14q-21 -20 -43 -28.5t-49 -8.5q-55 0 -83 27t-28 81q0 47 15 72t56 47q17 9 37.5 14t42.5 5
q65 0 97.5 -32t32.5 -97v-39q0 -57 -13 -91t-53 -75zM172 173q28 0 44.5 11.5t16.5 30.5v29q0 52 -16 73t-54 21q-12 0 -20.5 -1.5t-13.5 -5.5q-12 -8 -16.5 -20.5t-4.5 -36.5v-36q0 -33 16 -49t48 -16z" />
    <glyph glyph-name="uni2070" unicode="&#x2070;" horiz-adv-x="384" 
d="M269 357q-24 -16 -44 -21.5t-48 -5.5q-36 0 -60.5 7.5t-41.5 24.5q-21 20 -30 50t-9 82v15q0 72 16 108t64 66q23 16 43.5 21.5t48.5 5.5q36 0 60 -7.5t41 -24.5q21 -21 30.5 -51t9.5 -81v-15q0 -72 -16 -108t-64 -66zM142 394q12 -12 26.5 -17t34.5 -5q14 0 24 2.5
t18 8.5q17 11 22 30t5 67v54q0 46 -7 72t-23 40q-11 12 -25.5 17t-35.5 5q-13 0 -23 -2.5t-19 -8.5q-16 -11 -21 -29.5t-5 -67.5v-54q0 -48 6.5 -73t22.5 -39z" />
    <glyph glyph-name="uni00B9" unicode="&#xb9;" horiz-adv-x="262" 
d="M232 361v-26h-199v26l59 4q2 10 2.5 27t0.5 48v158q0 23 -0.5 41.5t-2.5 37.5l-59 2v26l138 5l1 -1q-1 -17 -1 -37v-73v-159v-57q0 -12 1 -18z" />
    <glyph glyph-name="uni00B2" unicode="&#xb2;" horiz-adv-x="316" 
d="M299 409l-28 -73l-1 -1h-252l-2 3l15 57l1 1l122 110q29 27 39 44.5t10 41.5q0 30 -19 46t-55 16q-26 0 -47.5 -8t-40.5 -25l-13 9l32 61l3 2q18 9 39 13t46 4q59 0 90.5 -23.5t31.5 -68.5q0 -36 -13.5 -58.5t-76.5 -76.5q-31 -26 -49.5 -45.5t-34.5 -41.5h127
q22 0 35.5 4t27.5 17z" />
    <glyph glyph-name="uni00B3" unicode="&#xb3;" horiz-adv-x="305" 
d="M277 474q0 -34 -16.5 -57t-65.5 -53q-27 -17 -55 -25.5t-56 -8.5q-18 0 -34.5 3t-30.5 9l-1 2l14 46l1 2q4 0 10 -1t21 -4q25 -5 39 -7t25 -2q16 0 28 2.5t22 8.5q13 8 18.5 19t5.5 31v3q0 30 -19.5 44t-60.5 14q-14 0 -24 -1.5t-20 -4.5l-6 3l16 48l1 1q51 10 72.5 25
t21.5 40v3q0 20 -17 31t-49 11q-23 0 -43.5 -8t-37.5 -24l-13 9l29 57l2 4q24 10 42 13t44 3q56 0 86.5 -19.5t30.5 -55.5q0 -28 -15 -46t-66 -39q50 -6 75.5 -25.5t25.5 -50.5z" />
    <glyph glyph-name="uni2074" unicode="&#x2074;" horiz-adv-x="364" 
d="M270 373v-10v-5q0 -8 -6.5 -14.5t-27.5 -16.5q-4 -3 -19 -10t-25 -12l-13 15q10 11 13 21.5t3 29.5v62h-54q-23 0 -46.5 -0.5t-61.5 -1.5l-1 1l-14 49v1l163 218l1 1l87 9l2 -1q-1 -29 -1.5 -49.5t-0.5 -37.5v-133h22q17 0 26.5 2t21.5 9l11 -10l-31 -61h-1
q-3 0 -7.5 0.5t-12.5 1.5l-18 1.5t-11 0.5v-42v-7t1 -11zM76 491q12 -1 27 -1.5t45 -0.5h47v100q0 15 -0.5 32.5t-1.5 37.5q-46 -63 -74.5 -103.5t-42.5 -64.5z" />
    <glyph glyph-name="uni2075" unicode="&#x2075;" horiz-adv-x="295" 
d="M271 473q0 -34 -15 -58t-56 -50q-29 -18 -56 -26.5t-55 -8.5q-19 0 -37 3t-31 8l-1 1l10 47l1 1q6 0 14.5 -1t28.5 -4q25 -4 38 -5.5t24 -1.5q14 0 25 2.5t21 8.5q12 7 16.5 18.5t4.5 36.5v6q0 32 -35.5 45.5t-136.5 15.5l-2 4l25 188l2 2h151q16 0 26 2.5t20 8.5l14 -10
l-31 -61l-1 -1q-27 1 -41 1.5t-29 0.5h-78l-10 -75q113 -6 153.5 -26.5t40.5 -71.5z" />
    <glyph glyph-name="uni2076" unicode="&#x2076;" horiz-adv-x="346" 
d="M316 459q0 -42 -14 -64.5t-58 -45.5q-16 -9 -36.5 -14t-42.5 -5q-66 0 -98 32.5t-32 99.5v38q0 57 12 87.5t51 71.5q27 29 51.5 40t62.5 11q18 0 36 -2t30 -5v-2l-8 -45l-1 -2q-4 -1 -7.5 -1.5t-7.5 -0.5q-5 0 -11 0.5t-19 2.5q-19 3 -29.5 4t-20.5 1q-19 0 -31 -4.5
t-20 -14.5q-6 -7 -8 -20.5t-2 -78.5v-12q26 21 47 29t46 8q58 0 84 -25.5t26 -82.5zM113 499v-35q0 -54 15.5 -75.5t54.5 -21.5q12 0 19.5 1.5t14.5 5.5q12 8 16.5 22t4.5 39v27q0 32 -14.5 46t-49.5 14q-20 0 -35 -6t-26 -17z" />
    <glyph glyph-name="uni2077" unicode="&#x2077;" horiz-adv-x="307" 
d="M289 706l3 -4q-15 -37 -41 -103q-26 -67 -38 -95q-30 -75 -51.5 -114.5t-46.5 -71.5h-2l-55 30v2q53 50 90.5 112.5t84.5 182.5h-156q-14 0 -24 -3t-22 -12l-13 9l32 67h1q2 0 25 -1q22 -1 36 -1h95q20 0 42 0.5t40 1.5z" />
    <glyph glyph-name="uni2078" unicode="&#x2078;" horiz-adv-x="329" 
d="M299 445q0 -33 -15 -55.5t-52 -40.5q-19 -9 -39.5 -14t-42.5 -5q-60 0 -91 22t-31 65q0 30 12 48t61 46q-37 16 -52 35.5t-15 51.5q0 33 15.5 55t51.5 38q19 10 38 14.5t41 4.5q56 0 84.5 -21.5t28.5 -64.5q0 -30 -11.5 -48t-54.5 -42q41 -17 56.5 -36.5t15.5 -52.5z
M104 628v-3q0 -29 15 -42t79 -38q19 14 25 28t6 38v5q0 26 -20 40.5t-56 14.5q-25 0 -37 -10.5t-12 -32.5zM93 430v-4q0 -27 21.5 -42t61.5 -15q28 0 41 10.5t13 33.5v4q0 30 -15 43t-85 40q-24 -18 -30.5 -32t-6.5 -38z" />
    <glyph glyph-name="uni2079" unicode="&#x2079;" horiz-adv-x="346" 
d="M245 376q-22 -24 -49.5 -35t-63.5 -11q-22 0 -41.5 3.5t-32.5 9.5l-1 2l14 45l2 2q6 0 14 -0.5t26 -5.5q23 -5 36 -6.5t25 -1.5q18 0 29 4.5t20 14.5q5 6 7.5 17t2.5 73v14q-21 -20 -43 -28.5t-49 -8.5q-55 0 -83 27t-28 81q0 47 15 72t56 47q17 9 37.5 14t42.5 5
q65 0 97.5 -32t32.5 -97v-39q0 -57 -13 -91t-53 -75zM172 508q28 0 44.5 11.5t16.5 30.5v29q0 52 -16 73t-54 21q-12 0 -20.5 -1.5t-13.5 -5.5q-12 -8 -16.5 -20.5t-4.5 -36.5v-36q0 -33 16 -49t48 -16z" />
    <glyph glyph-name="uni2080" unicode="&#x2080;" horiz-adv-x="384" 
d="M269 -128q-24 -16 -44 -21.5t-48 -5.5q-36 0 -60.5 7.5t-41.5 24.5q-21 20 -30 50t-9 82v15q0 72 16 108t64 66q23 16 43.5 21.5t48.5 5.5q36 0 60 -7.5t41 -24.5q21 -21 30.5 -51t9.5 -81v-15q0 -72 -16 -108t-64 -66zM142 -91q12 -12 26.5 -17t34.5 -5q14 0 24 2.5
t18 8.5q17 11 22 30t5 67v54q0 46 -7 72t-23 40q-11 12 -25.5 17t-35.5 5q-13 0 -23 -2.5t-19 -8.5q-16 -11 -21 -29.5t-5 -67.5v-54q0 -48 6.5 -73t22.5 -39z" />
    <glyph glyph-name="uni2081" unicode="&#x2081;" horiz-adv-x="262" 
d="M232 -124v-26h-199v26l59 4q2 10 2.5 27t0.5 48v158q0 23 -0.5 41.5t-2.5 37.5l-59 2v26l138 5l1 -1q-1 -17 -1 -37v-73v-159v-57q0 -12 1 -18z" />
    <glyph glyph-name="uni2082" unicode="&#x2082;" horiz-adv-x="316" 
d="M299 -76l-28 -73l-1 -1h-252l-2 3l15 57l1 1l122 110q29 27 39 44.5t10 41.5q0 30 -19 46t-55 16q-26 0 -47.5 -8t-40.5 -25l-13 9l32 61l3 2q18 9 39 13t46 4q59 0 90.5 -23.5t31.5 -68.5q0 -36 -13.5 -58.5t-76.5 -76.5q-31 -26 -49.5 -45.5t-34.5 -41.5h127
q22 0 35.5 4t27.5 17z" />
    <glyph glyph-name="uni2083" unicode="&#x2083;" horiz-adv-x="305" 
d="M277 -11q0 -34 -16.5 -57t-65.5 -53q-27 -17 -55 -25.5t-56 -8.5q-18 0 -34.5 3t-30.5 9l-1 2l14 46l1 2q4 0 10 -1t21 -4q25 -5 39 -7t25 -2q16 0 28 2.5t22 8.5q13 8 18.5 19t5.5 31v3q0 30 -19.5 44t-60.5 14q-14 0 -24 -1.5t-20 -4.5l-6 3l16 48l1 1q51 10 72.5 25
t21.5 40v3q0 20 -17 31t-49 11q-23 0 -43.5 -8t-37.5 -24l-13 9l29 57l2 4q24 10 42 13t44 3q56 0 86.5 -19.5t30.5 -55.5q0 -28 -15 -46t-66 -39q50 -6 75.5 -25.5t25.5 -50.5z" />
    <glyph glyph-name="uni2084" unicode="&#x2084;" horiz-adv-x="364" 
d="M270 -112v-10v-5q0 -8 -6.5 -14.5t-27.5 -16.5q-4 -3 -19 -10t-25 -12l-13 15q10 11 13 21.5t3 29.5v62h-54q-23 0 -46.5 -0.5t-61.5 -1.5l-1 1l-14 49v1l163 218l1 1l87 9l2 -1q-1 -29 -1.5 -49.5t-0.5 -37.5v-133h22q17 0 26.5 2t21.5 9l11 -10l-31 -61h-1
q-3 0 -7.5 0.5t-12.5 1.5l-18 1.5t-11 0.5v-42v-7t1 -11zM76 6q12 -1 27 -1.5t45 -0.5h47v100q0 15 -0.5 32.5t-1.5 37.5q-46 -63 -74.5 -103.5t-42.5 -64.5z" />
    <glyph glyph-name="uni2085" unicode="&#x2085;" horiz-adv-x="295" 
d="M271 -12q0 -34 -15 -58t-56 -50q-29 -18 -56 -26.5t-55 -8.5q-19 0 -37 3t-31 8l-1 1l10 47l1 1q6 0 14.5 -1t28.5 -4q25 -4 38 -5.5t24 -1.5q14 0 25 2.5t21 8.5q12 7 16.5 18.5t4.5 36.5v6q0 32 -35.5 45.5t-136.5 15.5l-2 4l25 188l2 2h151q16 0 26 2.5t20 8.5l14 -10
l-31 -61l-1 -1q-27 1 -41 1.5t-29 0.5h-78l-10 -75q113 -6 153.5 -26.5t40.5 -71.5z" />
    <glyph glyph-name="uni2086" unicode="&#x2086;" horiz-adv-x="346" 
d="M316 -26q0 -42 -14 -64.5t-58 -45.5q-16 -9 -36.5 -14t-42.5 -5q-66 0 -98 32.5t-32 99.5v38q0 57 12 87.5t51 71.5q27 29 51.5 40t62.5 11q18 0 36 -2t30 -5v-2l-8 -45l-1 -2q-4 -1 -7.5 -1.5t-7.5 -0.5q-5 0 -11 0.5t-19 2.5q-19 3 -29.5 4t-20.5 1q-19 0 -31 -4.5
t-20 -14.5q-6 -7 -8 -20.5t-2 -78.5v-12q26 21 47 29t46 8q58 0 84 -25.5t26 -82.5zM113 14v-35q0 -54 15.5 -75.5t54.5 -21.5q12 0 19.5 1.5t14.5 5.5q12 8 16.5 22t4.5 39v27q0 32 -14.5 46t-49.5 14q-20 0 -35 -6t-26 -17z" />
    <glyph glyph-name="uni2087" unicode="&#x2087;" horiz-adv-x="307" 
d="M289 221l3 -4q-15 -37 -41 -103q-26 -67 -38 -95q-30 -75 -51.5 -114.5t-46.5 -71.5h-2l-55 30v2q53 50 90.5 112.5t84.5 182.5h-156q-14 0 -24 -3t-22 -12l-13 9l32 67h1q2 0 25 -1q22 -1 36 -1h95q20 0 42 0.5t40 1.5z" />
    <glyph glyph-name="uni2088" unicode="&#x2088;" horiz-adv-x="329" 
d="M299 -40q0 -33 -15 -55.5t-52 -40.5q-19 -9 -39.5 -14t-42.5 -5q-60 0 -91 22t-31 65q0 30 12 48t61 46q-37 16 -52 35.5t-15 51.5q0 33 15.5 55t51.5 38q19 10 38 14.5t41 4.5q56 0 84.5 -21.5t28.5 -64.5q0 -30 -11.5 -48t-54.5 -42q41 -17 56.5 -36.5t15.5 -52.5z
M104 143v-3q0 -29 15 -42t79 -38q19 14 25 28t6 38v5q0 26 -20 40.5t-56 14.5q-25 0 -37 -10.5t-12 -32.5zM93 -55v-4q0 -27 21.5 -42t61.5 -15q28 0 41 10.5t13 33.5v4q0 30 -15 43t-85 40q-24 -18 -30.5 -32t-6.5 -38z" />
    <glyph glyph-name="uni2089" unicode="&#x2089;" horiz-adv-x="346" 
d="M245 -109q-22 -24 -49.5 -35t-63.5 -11q-22 0 -41.5 3.5t-32.5 9.5l-1 2l14 45l2 2q6 0 14 -0.5t26 -5.5q23 -5 36 -6.5t25 -1.5q18 0 29 4.5t20 14.5q5 6 7.5 17t2.5 73v14q-21 -20 -43 -28.5t-49 -8.5q-55 0 -83 27t-28 81q0 47 15 72t56 47q17 9 37.5 14t42.5 5
q65 0 97.5 -32t32.5 -97v-39q0 -57 -13 -91t-53 -75zM172 23q28 0 44.5 11.5t16.5 30.5v29q0 52 -16 73t-54 21q-12 0 -20.5 -1.5t-13.5 -5.5q-12 -8 -16.5 -20.5t-4.5 -36.5v-36q0 -33 16 -49t48 -16z" />
    <glyph glyph-name="exclamdown.case" horiz-adv-x="249" 
d="M65 596q0 30 15 45.5t43 15.5q29 0 43 -12.5t14 -38.5t-16.5 -41.5t-44.5 -15.5q-26 0 -40 12t-14 35zM141 485l24 -482l-3 -2l-88 -6l-3 3l32 487h38z" />
    <glyph glyph-name="questiondown.case" horiz-adv-x="383" 
d="M171 606q0 24 14 37.5t38 13.5q31 0 47 -14t16 -41q0 -25 -14.5 -39t-41.5 -14q-29 0 -44 14.5t-15 42.5zM199 62q40 0 76 11t54 29l19 -12l-42 -87q-18 -4 -36.5 -6t-36.5 -2q-43 0 -78.5 12t-63.5 36q-27 23 -42 53t-15 60q0 50 17 81.5t71 67.5l71 48q24 15 31.5 29
t7.5 37q0 12 -1.5 27t-4.5 35l34 9q18 -43 25 -68.5t7 -46.5q0 -31 -14.5 -55t-44.5 -43l-87 -58q-30 -20 -40.5 -37t-10.5 -41q0 -39 26 -59t78 -20z" />
    <glyph glyph-name="hyphen.case" horiz-adv-x="312" 
d="M262 375l21 -11l-25 -76q-6 -3 -16.5 -4.5t-29.5 -1.5q-7 0 -16 1q-10 0 -32 1q-27 2 -40 2.5t-23 0.5q-19 0 -29.5 -4t-21.5 -16l-20 11l24 76q7 3 18.5 4.5t27.5 1.5h17q9 -1 31 -2q27 -2 40 -2.5t23 -0.5q20 0 30 4t21 16z" />
    <glyph glyph-name="endash.case" horiz-adv-x="500" 
d="M485 297h-470v48h470v-48z" />
    <glyph glyph-name="emdash.case" horiz-adv-x="780" 
d="M774 297h-768v48h768v-48z" />
    <glyph glyph-name="parenleft.case" horiz-adv-x="346" 
d="M331 -61l-13 -33q-119 36 -184 138.5t-65 248.5v14q0 147 65 250t184 138l13 -33q-102 -43 -140.5 -120t-38.5 -231v-21q0 -154 38.5 -231t140.5 -120z" />
    <glyph glyph-name="parenright.case" horiz-adv-x="346" 
d="M15 662l13 33q119 -36 184 -138.5t65 -248.5v-14q0 -147 -65 -250t-184 -138l-13 33q102 42 140.5 119t38.5 232v21q0 153 -38.5 230t-140.5 121z" />
    <glyph glyph-name="bracketleft.case" horiz-adv-x="324" 
d="M304 654h-138q-2 -35 -3 -91t-1 -149v-227q0 -93 1 -149t3 -91h138v-36h-223l-1 1q1 48 1.5 100t0.5 178v221q0 126 -0.5 178t-1.5 100l1 1h223v-36z" />
    <glyph glyph-name="bracketright.case" horiz-adv-x="324" 
d="M158 654h-138v36h223l1 -1q-1 -48 -1.5 -100t-0.5 -178v-221q0 -126 0.5 -178t1.5 -100l-1 -1h-223v36h138q2 39 2.5 97t0.5 143v227q0 85 -0.5 143t-2.5 97z" />
    <glyph glyph-name="braceleft.case" horiz-adv-x="350" 
d="M192 2q0 -26 28.5 -38.5t104.5 -22.5l-5 -35q-118 11 -163 36t-45 74q0 14 4.5 34.5t20.5 65.5q16 47 21 69t5 38q0 27 -33 40t-110 17v40q79 5 111 18t32 40q0 16 -5 38t-21 69q-16 45 -20.5 65.5t-4.5 34.5q0 49 45 73.5t163 36.5l5 -36q-76 -9 -104.5 -21.5
t-28.5 -39.5q0 -10 4 -26t17 -57q16 -52 21.5 -76t5.5 -41q0 -41 -25.5 -63t-90.5 -35q67 -14 91.5 -35.5t24.5 -62.5q0 -17 -5.5 -41t-21.5 -76q-13 -41 -17 -57t-4 -26z" />
    <glyph glyph-name="braceright.case" horiz-adv-x="350" 
d="M214 116q15 -45 19.5 -65.5t4.5 -34.5q0 -49 -45.5 -74t-161.5 -36l-6 36q76 9 105 21.5t29 38.5q0 10 -4 26t-17 56q-16 53 -21.5 77.5t-5.5 41.5q0 41 24.5 62.5t91.5 35.5q-65 13 -90.5 35t-25.5 63q0 16 5.5 40.5t21.5 76.5q13 40 17 56.5t4 25.5q0 27 -28.5 39.5
t-105.5 22.5l6 35q119 -12 163 -36.5t44 -73.5q0 -14 -4.5 -34.5t-19.5 -65.5q-16 -47 -21 -69t-5 -38q0 -28 32 -40.5t110 -16.5v-40q-77 -4 -109.5 -17.5t-32.5 -40.5q0 -16 5 -38t21 -69z" />
    <glyph glyph-name="guilsinglleft.case" horiz-adv-x="289" 
d="M254 154v-3l-37 -52h-3l-183 209v25l201 207h3l20 -29v-3l-140 -175z" />
    <glyph glyph-name="guilsinglright.case" horiz-adv-x="289" 
d="M258 332v-25l-201 -208h-3l-19 29v3l140 175l-139 180v3l37 51h3z" />
    <glyph glyph-name="guillemotleft.case" horiz-adv-x="490" 
d="M254 154v-3l-37 -52h-3l-183 209v25l201 207h3l20 -29v-3l-140 -175zM455 154v-3l-37 -52h-3l-183 209v25l201 207h3l20 -29v-3l-140 -175z" />
    <glyph glyph-name="guillemotright.case" horiz-adv-x="490" 
d="M459 332v-25l-201 -208h-3l-20 29v3l141 175l-139 180v3l37 51h3zM258 332v-25l-201 -208h-3l-19 29v3l140 175l-139 180v3l37 51h3z" />
    <glyph glyph-name="at.case" horiz-adv-x="759" 
d="M539 34l20 -32q-40 -27 -91 -40.5t-114 -13.5q-178 0 -250 90q-56 68 -56 194q0 39 6 85q22 187 112.5 276.5t259.5 89.5t236 -76q50 -58 50 -170q0 -37 -6 -81q-14 -117 -55 -171t-118 -54q-41 0 -67.5 16.5t-34.5 46.5q-22 -28 -49.5 -42t-61.5 -14q-61 0 -89 35
q-21 26 -21 69q0 13 2 29l8 60q6 42 26 70.5t61 53.5q31 19 62 28t66 9q14 0 29 -2t27 -5l52 32l8 -5l-43 -256q-3 -14 -3 -26q0 -20 8 -31q12 -19 43 -19q44 0 67.5 41t34.5 139q4 38 4 70q0 99 -41 148q-55 64 -197 64q-148 0 -225 -79t-98 -250q-5 -41 -5 -76
q0 -110 47 -170q61 -79 213 -79q52 0 97.5 11.5t85.5 34.5zM307 365l-11 -81q-2 -17 -2 -30q0 -27 9 -40q13 -21 55 -21q30 0 46.5 16.5t22.5 52.5l28 165q-17 7 -34.5 10.5t-35.5 3.5q-37 0 -54.5 -17.5t-23.5 -58.5z" />
    <glyph glyph-name="acute" unicode="&#xb4;" horiz-adv-x="500" 
d="M303 630l52 -41v-5l-169 -89h-1l-40 13v2l156 120h2z" />
    <glyph glyph-name="grave" unicode="`" horiz-adv-x="500" 
d="M145 584v5l52 41h2l156 -120v-2l-40 -13h-1z" />
    <glyph glyph-name="tilde" unicode="&#x2dc;" horiz-adv-x="500" 
d="M180 623q8 0 17.5 -1.5t18.5 -4.5l77 -23q13 -4 20.5 -5.5t12.5 -1.5q12 0 19 6.5t23 37.5l31 -5v-4q-25 -68 -39 -85.5t-39 -17.5q-7 0 -16 2t-20 5l-77 22q-13 4 -20.5 5.5t-12.5 1.5q-12 0 -19 -6.5t-23 -36.5l-31 4v4q24 67 38.5 85t39.5 18z" />
    <glyph glyph-name="macron" unicode="&#xaf;" horiz-adv-x="500" 
d="M374 589v-48h-248v48h248z" />
    <glyph glyph-name="breve" unicode="&#x2d8;" horiz-adv-x="500" 
d="M354 632l28 -5l2 -6q-23 -63 -57 -92.5t-83 -29.5q-50 0 -84 30t-45 84l3 4l54 14h6q16 -42 37 -60.5t52 -18.5q26 0 45.5 18.5t40.5 61.5h1z" />
    <glyph glyph-name="dotaccent" unicode="&#x2d9;" horiz-adv-x="500" 
d="M306 571q0 -19 -19.5 -32.5t-43.5 -13.5q-20 0 -35 16t-15 33q0 16 26 32t49 16q17 0 27.5 -15.5t10.5 -35.5z" />
    <glyph glyph-name="dieresis" unicode="&#xa8;" horiz-adv-x="500" 
d="M222 581q0 -26 -14.5 -41t-40.5 -15q-23 0 -35.5 11.5t-12.5 33.5q0 27 13 39t42 12q23 0 35.5 -10.5t12.5 -29.5zM381 580q0 -25 -13.5 -40t-37.5 -15q-26 0 -39 13.5t-13 39.5q0 21 12.5 32t36.5 11q29 0 41.5 -10t12.5 -31z" />
    <glyph glyph-name="ring" unicode="&#x2da;" horiz-adv-x="500" 
d="M145 568q0 45 32 73t84 28q45 0 69.5 -21t24.5 -58q0 -45 -32 -73t-84 -28q-44 0 -69 21t-25 58zM301 578q0 26 -14.5 39.5t-42.5 13.5q-26 0 -38.5 -13t-12.5 -41q0 -27 14.5 -40.5t42.5 -13.5q27 0 39 13t12 42z" />
    <glyph glyph-name="circumflex" unicode="&#x2c6;" horiz-adv-x="500" 
d="M387 519v-5l-49 -21h-5l-96 87l-86 -84l-2 -1l-36 2v5l130 144h23z" />
    <glyph glyph-name="caron" unicode="&#x2c7;" horiz-adv-x="500" 
d="M389 633l-1 -4l-145 -136h-23l-109 128l1 5l55 22l6 -1l81 -93l100 83h1z" />
    <glyph glyph-name="hungarumlaut" unicode="&#x2dd;" horiz-adv-x="500" 
d="M98 498v2l107 163h2l51 -17l1 -5l-123 -152h-1zM232 498v2l116 163h2l51 -17l1 -5l-131 -152h-1z" />
    <glyph glyph-name="cedilla" unicode="&#xb8;" horiz-adv-x="500" 
d="M362 -143q0 -44 -50 -79t-105 -35q-16 0 -29.5 2t-24.5 7l-15 65l3 2q24 -11 58.5 -18.5t57.5 -7.5q22 0 32.5 9t10.5 29q0 31 -29 43q-18 8 -48 8q-18 0 -39 -3l-3 10l65 111h41l-35 -63q57 -1 83.5 -20t26.5 -60z" />
    <glyph glyph-name="ogonek" unicode="&#x2db;" horiz-adv-x="500" 
d="M242 -229q-46 0 -71 22.5t-25 64.5q0 48 40 87t126 74l14 -17v-2q-66 -33 -88.5 -57.5t-22.5 -54.5q0 -33 15 -49.5t45 -16.5q18 0 32.5 5.5t27.5 17.5l19 -16q-19 -28 -48 -43t-64 -15z" />
    <glyph glyph-name="uni00200326" horiz-adv-x="0" 
d="M2 -71q24 0 37 -17.5t13 -51.5q0 -43 -19 -73.5t-59 -52.5l-16 25q25 16 37.5 33t12.5 36v8t-1 6q-4 -2 -7.5 -3t-9.5 -1q-21 0 -31.5 11t-10.5 34q0 22 14.5 34t39.5 12z" />
    <glyph glyph-name="IJ" unicode="&#x132;" horiz-adv-x="670" 
d="M117 609l-67 4v37h242v-37l-67 -4q-3 -9 -5 -61t-2 -142v-142q0 -97 2 -153.5t5 -69.5l67 -4v-37h-242v37l67 4q3 8 5 60t2 143v142q0 96 -2 153t-5 70zM506 -161q-33 -52 -63 -70t-75 -18q-6 0 -11.5 1t-19.5 4l-1 2v71l2 3q5 1 14 0q9 0 30 -1q14 -1 20 -1h11
q23 0 35.5 4.5t18.5 16.5q6 10 8.5 21.5t2.5 27.5q0 5 -0.5 12t-2.5 25q-5 46 -6.5 81t-1.5 74v294q0 96 -2 153t-5 70l-77 3v38h179l1 -1q-1 -36 -1.5 -73.5t-0.5 -130.5v-413q0 -56 -12.5 -100.5t-42.5 -92.5z" />
    <glyph glyph-name="AE" unicode="&#xc6;" horiz-adv-x="947" 
d="M924 92l-95 -94l-2 -1q-49 2 -74.5 2.5t-45.5 0.5h-315v37l60 4q5 13 7.5 68.5t2.5 143.5h-231l-20 -33q-32 -52 -51.5 -95t-28.5 -82l64 -6v-37h-190v37l38 7l353 566l-79 3v37h392q56 0 80.5 5.5t54.5 25.5l18 -20l-67 -70l-3 -1q-42 6 -86.5 8t-105.5 2h-40
q-2 -12 -3 -45t-1 -98v-94h151q56 0 83.5 5.5t59.5 23.5l16 -23l-84 -66l-3 -1q-30 2 -65 4t-59 2h-99v-28q0 -94 1 -146.5t4 -71.5q20 -5 67 -9t87 -4q58 0 102.5 14.5t88.5 48.5zM39 37zM116 37zM398 613zM455 602h-11l-182 -299h200v66q0 99 -1.5 155t-5.5 78z" />
    <glyph glyph-name="Eth" unicode="&#xd0;" horiz-adv-x="724" 
d="M660 353q0 -125 -31.5 -188.5t-120.5 -112.5q-54 -29 -104 -40.5t-127 -11.5h-232v37l59 4q5 13 7.5 70.5t2.5 151.5v53h-79v39h79v21q0 104 -2.5 161.5t-8.5 71.5l-58 4v37h327q157 0 222.5 -69t65.5 -228zM213 71q25 -6 59.5 -9t79.5 -3q43 0 74.5 6.5t54.5 19.5
q45 26 63 80.5t18 163.5v14q0 73 -14.5 121t-45.5 78q-33 33 -95.5 47t-195.5 16q-1 -10 -2 -31t-1 -47v-172h177v-39h-177v-6q0 -103 1 -160.5t4 -78.5z" />
    <glyph glyph-name="Dcroat" unicode="&#x110;" horiz-adv-x="724" 
d="M660 353q0 -125 -31.5 -188.5t-120.5 -112.5q-54 -29 -104 -40.5t-127 -11.5h-232v37l59 4q5 13 7.5 70.5t2.5 151.5v53h-79v39h79v21q0 104 -2.5 161.5t-8.5 71.5l-58 4v37h327q157 0 222.5 -69t65.5 -228zM213 71q25 -6 59.5 -9t79.5 -3q43 0 74.5 6.5t54.5 19.5
q45 26 63 80.5t18 163.5v14q0 73 -14.5 121t-45.5 78q-33 33 -95.5 47t-195.5 16q-1 -10 -2 -31t-1 -47v-172h177v-39h-177v-6q0 -103 1 -160.5t4 -78.5z" />
    <glyph glyph-name="Oslash" unicode="&#xd8;" horiz-adv-x="724" 
d="M519 36q-42 -24 -83.5 -34t-99.5 -10q-51 0 -89.5 8.5t-69.5 26.5l-75 -106h-2l-27 35l69 97l-8 8q-38 38 -54.5 93t-16.5 148q0 128 31.5 197t110.5 115q41 24 82.5 34t99.5 10q51 0 89.5 -8.5t69.5 -26.5l67 94h2l27 -35l-60 -85l8 -8q38 -39 54.5 -94.5t16.5 -146.5
q0 -127 -31.5 -196t-110.5 -116zM162 356v-34q0 -77 7.5 -120t26.5 -72l302 425q-27 25 -65.5 36.5t-94.5 11.5q-31 0 -57 -6t-47 -18q-44 -26 -58 -68t-14 -155zM561 294v34q0 80 -7.5 121.5t-26.5 70.5l-302 -425q27 -25 66 -36.5t95 -11.5q31 0 56.5 6t46.5 18
q45 26 58.5 67t13.5 156z" />
    <glyph glyph-name="Thorn" unicode="&#xde;" horiz-adv-x="577" 
d="M215 41l62 -4v-37h-232v37l62 4q3 8 5 60t2 143v142q0 96 -2 153t-5 70l-62 4v37h232v-37l-62 -4q-3 -6 -4.5 -31.5t-2.5 -67.5h133q96 0 147 -42.5t51 -121.5q0 -57 -26.5 -100.5t-76.5 -69.5q-40 -21 -68.5 -27.5t-74.5 -6.5h-85q1 -39 3 -65.5t4 -35.5zM243 466h-35
v-262q45 -7 71.5 -9.5t46.5 -2.5q27 0 45.5 4t31.5 12q22 14 30 38t8 75v10q0 75 -45.5 105t-152.5 30z" />
    <glyph glyph-name="Hbar" unicode="&#x126;" horiz-adv-x="776" 
d="M215 41l62 -4v-37h-232v37l62 4q3 8 5 60t2 143v220h-79v39h78q-1 46 -2.5 72t-3.5 34l-62 4v37h232v-37l-62 -4q-2 -6 -3.5 -32t-2.5 -74h358q-1 46 -2.5 72t-3.5 34l-62 4v37h232v-37l-62 -4q-2 -5 -3.5 -31t-2.5 -75h78v-39h-79v-200q0 -96 2 -153t5 -70l62 -4v-37
h-232v37l62 4q3 9 5 61t2 142v110l-59 -49q-30 2 -64.5 2.5t-83.5 0.5h-153v-44q0 -97 2 -153.5t5 -69.5zM208 464v-102h232q54 0 81 3t47 11v88h-360z" />
    <glyph glyph-name="Lslash" unicode="&#x141;" horiz-adv-x="590" 
d="M576 93l-85 -95l-2 -1q-49 2 -74.5 2.5t-45.5 0.5h-324v37l59 4q5 13 7.5 67t2.5 141l-77 -40h-2v44l79 41v82q0 104 -2.5 161.5t-8.5 71.5l-58 4v37h249v-39l-77 -3q-5 -14 -7 -68.5t-2 -152.5v-44l166 86h2v-43l-168 -88v-18q0 -94 1 -146.5t4 -71.5q21 -5 68 -9t87 -4
q57 0 101 14.5t88 49.5z" />
    <glyph glyph-name="Ldot" unicode="&#x13f;" horiz-adv-x="600" 
d="M576 93l-85 -95l-2 -1q-49 2 -74.5 2.5t-45.5 0.5h-324v37l59 4q5 13 7.5 70.5t2.5 151.5v113q0 104 -2.5 161.5t-8.5 71.5l-58 4v37h249v-39l-77 -3q-5 -14 -7 -68.5t-2 -152.5v-107q0 -94 1 -146.5t4 -71.5q21 -5 68 -9t87 -4q57 0 101 14.5t88 49.5zM517 351
q0 -30 -14 -44.5t-43 -14.5q-27 0 -40.5 13t-13.5 39q0 25 15 38.5t44 13.5q25 0 38.5 -11.5t13.5 -33.5z" />
    <glyph glyph-name="OE" unicode="&#x152;" horiz-adv-x="1001" 
d="M761 0h-305q-24 -4 -50.5 -6t-55.5 -2q-75 0 -125 16.5t-86 52.5q-41 41 -58.5 96.5t-17.5 144.5q0 126 32 194.5t114 117.5q43 25 87 34.5t106 9.5q31 0 55.5 -2t44.5 -6h261q56 0 80.5 5.5t54.5 25.5l18 -20l-67 -70l-2 -1q-43 6 -87 8t-105 2h-41q-2 -12 -3 -45
t-1 -98v-94h152q56 0 83 5.5t59 23.5l16 -23l-84 -66l-3 -1q-27 2 -63 4t-61 2h-99v-28q0 -94 1 -146.5t4 -71.5q20 -5 67.5 -9t87.5 -4q58 0 102 14.5t88 48.5l18 -20l-95 -94l-2 -1q-49 2 -74.5 2.5t-45.5 0.5zM226 99q28 -28 69.5 -40t109.5 -12q30 0 56.5 4.5t48.5 12.5
q3 30 4.5 81t1.5 118v113q0 82 -1.5 131.5t-4.5 74.5q-30 11 -68.5 16t-87.5 5q-38 0 -65.5 -5.5t-49.5 -18.5q-48 -28 -62.5 -70.5t-14.5 -152.5v-34q0 -91 13.5 -138t50.5 -85z" />
    <glyph glyph-name="Tbar" unicode="&#x166;" horiz-adv-x="641" 
d="M381 41l67 -4v-37h-246v37l68 4q4 10 6 61.5t2 141.5v58h-142v39h142v42q0 64 -0.5 117t-2.5 95h-53q-101 0 -133 -6.5t-71 -30.5l-17 21l66 72l3 1q23 -3 53 -4t109 -1h257q57 0 81 6t53 28l19 -20l-68 -71l-2 -1q-38 3 -76.5 4.5t-92.5 1.5h-28q-2 -19 -2.5 -66
t-0.5 -126v-62h143v-39h-143v-38q0 -99 2 -154t7 -69z" />
    <glyph glyph-name="Aacute" unicode="&#xc1;" horiz-adv-x="671" 
d="M131 43l73 -6v-37h-193v37l49 6l225 601l3 2l97 9l3 -1l230 -613l42 -4v-37h-228v37l67 4q-3 29 -18 83t-35 110l-18 50l-47 -40q-33 1 -57.5 1.5t-46.5 0.5h-89l-10 -27q-18 -50 -31 -99.5t-16 -76.5zM58 37zM127 37zM503 37zM620 37zM206 297h146q27 0 42 1t27 3
l-107 292zM405 840l52 -41v-5l-169 -89h-1l-40 13v2l156 120h2z" />
    <glyph glyph-name="Abreve" unicode="&#x102;" horiz-adv-x="671" 
d="M131 43l73 -6v-37h-193v37l49 6l225 601l3 2l97 9l3 -1l230 -613l42 -4v-37h-228v37l67 4q-3 29 -18 83t-35 110l-18 50l-47 -40q-33 1 -57.5 1.5t-46.5 0.5h-89l-10 -27q-18 -50 -31 -99.5t-16 -76.5zM58 37zM127 37zM503 37zM620 37zM206 297h146q27 0 42 1t27 3
l-107 292zM444 842l28 -5l2 -6q-23 -63 -57 -92.5t-83 -29.5q-50 0 -84 30t-45 84l3 4l54 14h6q16 -42 37 -60.5t52 -18.5q26 0 45.5 18.5t40.5 61.5h1z" />
    <glyph glyph-name="Acircumflex" unicode="&#xc2;" horiz-adv-x="671" 
d="M131 43l73 -6v-37h-193v37l49 6l225 601l3 2l97 9l3 -1l230 -613l42 -4v-37h-228v37l67 4q-3 29 -18 83t-35 110l-18 50l-47 -40q-33 1 -57.5 1.5t-46.5 0.5h-89l-10 -27q-18 -50 -31 -99.5t-16 -76.5zM58 37zM127 37zM503 37zM620 37zM206 297h146q27 0 42 1t27 3
l-107 292zM469 729v-5l-49 -21h-5l-96 87l-86 -84l-2 -1l-36 2v5l130 144h23z" />
    <glyph glyph-name="Adieresis" unicode="&#xc4;" horiz-adv-x="671" 
d="M131 43l73 -6v-37h-193v37l49 6l225 601l3 2l97 9l3 -1l230 -613l42 -4v-37h-228v37l67 4q-3 29 -18 83t-35 110l-18 50l-47 -40q-33 1 -57.5 1.5t-46.5 0.5h-89l-10 -27q-18 -50 -31 -99.5t-16 -76.5zM58 37zM127 37zM503 37zM620 37zM206 297h146q27 0 42 1t27 3
l-107 292zM304 791q0 -26 -14.5 -41t-40.5 -15q-23 0 -35.5 11.5t-12.5 33.5q0 27 13 39t42 12q23 0 35.5 -10.5t12.5 -29.5zM463 790q0 -25 -13.5 -40t-37.5 -15q-26 0 -39 13.5t-13 39.5q0 21 12.5 32t36.5 11q29 0 41.5 -10t12.5 -31z" />
    <glyph glyph-name="Agrave" unicode="&#xc0;" horiz-adv-x="671" 
d="M131 43l73 -6v-37h-193v37l49 6l225 601l3 2l97 9l3 -1l230 -613l42 -4v-37h-228v37l67 4q-3 29 -18 83t-35 110l-18 50l-47 -40q-33 1 -57.5 1.5t-46.5 0.5h-89l-10 -27q-18 -50 -31 -99.5t-16 -76.5zM58 37zM127 37zM503 37zM620 37zM206 297h146q27 0 42 1t27 3
l-107 292zM207 794v5l52 41h2l156 -120v-2l-40 -13h-1z" />
    <glyph glyph-name="Amacron" unicode="&#x100;" horiz-adv-x="671" 
d="M131 43l73 -6v-37h-193v37l49 6l225 601l3 2l97 9l3 -1l230 -613l42 -4v-37h-228v37l67 4q-3 29 -18 83t-35 110l-18 50l-47 -40q-33 1 -57.5 1.5t-46.5 0.5h-89l-10 -27q-18 -50 -31 -99.5t-16 -76.5zM58 37zM127 37zM503 37zM620 37zM206 297h146q27 0 42 1t27 3
l-107 292zM456 799v-48h-248v48h248z" />
    <glyph glyph-name="Aogonek" unicode="&#x104;" horiz-adv-x="671" 
d="M645 -155l19 -16q-19 -28 -47.5 -43t-63.5 -15q-47 0 -71.5 22t-24.5 65q0 41 33 78.5t91 63.5h-149v37l67 4q-3 29 -18 83t-35 110l-18 50l-47 -40q-33 1 -57.5 1.5t-46.5 0.5h-89l-10 -27q-18 -50 -31 -99.5t-16 -76.5l73 -6v-37h-193v37l49 6l225 601l3 2l97 9l3 -1
l230 -613l42 -4v-37q-60 -13 -97 -43.5t-37 -68.5q0 -34 14.5 -50t44.5 -16q19 0 33 5.5t27 17.5zM58 37zM127 37zM503 37zM206 297h146q27 0 42 1t27 3l-107 292z" />
    <glyph glyph-name="Aring" unicode="&#xc5;" horiz-adv-x="671" 
d="M131 43l73 -6v-37h-193v37l49 6l216 578q-23 9 -35 27t-12 43q0 45 32.5 73t84.5 28q44 0 69 -21t25 -58q0 -26 -11.5 -47t-32.5 -34l222 -591l42 -4v-37h-228v37l67 4q-3 29 -18 83t-35 110l-18 50l-47 -40q-33 1 -57.5 1.5t-46.5 0.5h-89l-10 -27q-18 -50 -31 -99.5
t-16 -76.5zM58 37zM127 37zM503 37zM620 37zM386 701q0 26 -14.5 39.5t-42.5 13.5q-27 0 -39 -13t-12 -41q0 -27 14 -40.5t43 -13.5q26 0 38.5 13.5t12.5 41.5zM206 297h146q27 0 42 1t27 3l-107 292z" />
    <glyph glyph-name="Atilde" unicode="&#xc3;" horiz-adv-x="671" 
d="M131 43l73 -6v-37h-193v37l49 6l225 601l3 2l97 9l3 -1l230 -613l42 -4v-37h-228v37l67 4q-3 29 -18 83t-35 110l-18 50l-47 -40q-33 1 -57.5 1.5t-46.5 0.5h-89l-10 -27q-18 -50 -31 -99.5t-16 -76.5zM58 37zM127 37zM503 37zM620 37zM206 297h146q27 0 42 1t27 3
l-107 292zM266 833q8 0 17.5 -1.5t18.5 -4.5l77 -23q13 -4 20.5 -5.5t12.5 -1.5q12 0 19 6.5t23 37.5l31 -5v-4q-25 -68 -39 -85.5t-39 -17.5q-7 0 -16 2t-20 5l-77 22q-13 4 -20.5 5.5t-12.5 1.5q-12 0 -19 -6.5t-23 -36.5l-31 4v4q24 67 38.5 85t39.5 18z" />
    <glyph glyph-name="AEacute" unicode="&#x1fc;" horiz-adv-x="947" 
d="M924 92l-95 -94l-2 -1q-49 2 -74.5 2.5t-45.5 0.5h-315v37l60 4q5 13 7.5 68.5t2.5 143.5h-231l-20 -33q-32 -52 -51.5 -95t-28.5 -82l64 -6v-37h-190v37l38 7l353 566l-79 3v37h392q56 0 80.5 5.5t54.5 25.5l18 -20l-67 -70l-3 -1q-42 6 -86.5 8t-105.5 2h-40
q-2 -12 -3 -45t-1 -98v-94h151q56 0 83.5 5.5t59.5 23.5l16 -23l-84 -66l-3 -1q-30 2 -65 4t-59 2h-99v-28q0 -94 1 -146.5t4 -71.5q20 -5 67 -9t87 -4q58 0 102.5 14.5t88.5 48.5zM39 37zM116 37zM398 613zM455 602h-11l-182 -299h200v66q0 99 -1.5 155t-5.5 78zM699 840
l52 -41v-5l-169 -89h-1l-40 13v2l156 120h2z" />
    <glyph glyph-name="Cacute" unicode="&#x106;" horiz-adv-x="628" 
d="M344 -8q-137 0 -209 78.5t-72 227.5q0 124 33.5 195.5t117.5 120.5q42 24 83.5 34t98.5 10q50 0 96.5 -9.5t83.5 -26.5v-140h-40l-12 73q-29 22 -73.5 34.5t-95.5 12.5q-38 0 -64.5 -5.5t-47.5 -17.5q-47 -29 -64 -76t-17 -147v-32q0 -134 59.5 -200t180.5 -66
q51 0 95 19t77 55h3l18 -25q-44 -58 -106 -86.5t-145 -28.5zM421 840l52 -41v-5l-169 -89h-1l-40 13v2l156 120h2z" />
    <glyph glyph-name="Ccaron" unicode="&#x10c;" horiz-adv-x="628" 
d="M344 -8q-137 0 -209 78.5t-72 227.5q0 124 33.5 195.5t117.5 120.5q42 24 83.5 34t98.5 10q50 0 96.5 -9.5t83.5 -26.5v-140h-40l-12 73q-29 22 -73.5 34.5t-95.5 12.5q-38 0 -64.5 -5.5t-47.5 -17.5q-47 -29 -64 -76t-17 -147v-32q0 -134 59.5 -200t180.5 -66
q51 0 95 19t77 55h3l18 -25q-44 -58 -106 -86.5t-145 -28.5zM507 843l-1 -4l-145 -136h-23l-109 128l1 5l55 22l6 -1l81 -93l100 83h1z" />
    <glyph glyph-name="Ccedilla" unicode="&#xc7;" horiz-adv-x="628" 
d="M456 -143q0 -44 -50 -79t-105 -35q-16 0 -29.5 2t-24.5 7l-15 65l3 2q24 -11 58.5 -18.5t57.5 -7.5q22 0 32.5 9t10.5 29q0 31 -29 43q-18 8 -48 8q-18 0 -39 -3l-3 10l60 103q-132 2 -202 80.5t-70 225.5q0 124 33.5 195.5t117.5 120.5q42 24 83.5 34t98.5 10
q50 0 96.5 -9.5t83.5 -26.5v-140h-40l-12 73q-29 22 -73.5 34.5t-95.5 12.5q-38 0 -64.5 -5.5t-47.5 -17.5q-47 -29 -64 -76t-17 -147v-32q0 -134 59.5 -200t180.5 -66q51 0 95 19t77 55h3l18 -25q-38 -52 -92.5 -80t-125.5 -34l-31 -56q57 -1 83.5 -20t26.5 -60z" />
    <glyph glyph-name="Ccircumflex" unicode="&#x108;" horiz-adv-x="628" 
d="M344 -8q-137 0 -209 78.5t-72 227.5q0 124 33.5 195.5t117.5 120.5q42 24 83.5 34t98.5 10q50 0 96.5 -9.5t83.5 -26.5v-140h-40l-12 73q-29 22 -73.5 34.5t-95.5 12.5q-38 0 -64.5 -5.5t-47.5 -17.5q-47 -29 -64 -76t-17 -147v-32q0 -134 59.5 -200t180.5 -66
q51 0 95 19t77 55h3l18 -25q-44 -58 -106 -86.5t-145 -28.5zM485 729v-5l-49 -21h-5l-96 87l-86 -84l-2 -1l-36 2v5l130 144h23z" />
    <glyph glyph-name="Cdotaccent" unicode="&#x10a;" horiz-adv-x="628" 
d="M344 -8q-137 0 -209 78.5t-72 227.5q0 124 33.5 195.5t117.5 120.5q42 24 83.5 34t98.5 10q50 0 96.5 -9.5t83.5 -26.5v-140h-40l-12 73q-29 22 -73.5 34.5t-95.5 12.5q-38 0 -64.5 -5.5t-47.5 -17.5q-47 -29 -64 -76t-17 -147v-32q0 -134 59.5 -200t180.5 -66
q51 0 95 19t77 55h3l18 -25q-44 -58 -106 -86.5t-145 -28.5zM404 781q0 -19 -19.5 -32.5t-43.5 -13.5q-20 0 -35 16t-15 33q0 16 26 32t49 16q17 0 27.5 -15.5t10.5 -35.5z" />
    <glyph glyph-name="Dcaron" unicode="&#x10e;" horiz-adv-x="724" 
d="M103 609l-58 4v37h327q157 0 222.5 -69t65.5 -228q0 -125 -31.5 -188.5t-120.5 -112.5q-54 -29 -104 -40.5t-127 -11.5h-232v37l59 4q5 13 7.5 70.5t2.5 151.5v113q0 104 -2.5 161.5t-8.5 71.5zM481 85q45 26 63 80.5t18 163.5v14q0 73 -14.5 121t-45.5 78
q-33 33 -95.5 47t-195.5 16q-1 -10 -2 -31t-1 -47v-217q0 -103 1 -160.5t4 -78.5q25 -6 59.5 -9t79.5 -3q43 0 74.5 6.5t54.5 19.5zM499 843l-1 -4l-145 -136h-23l-109 128l1 5l55 22l6 -1l81 -93l100 83h1z" />
    <glyph glyph-name="Eacute" unicode="&#xc9;" horiz-adv-x="599" 
d="M359 0h-314v37l59 4q5 13 7.5 70.5t2.5 151.5v113q0 104 -2.5 161.5t-8.5 71.5l-58 4v37h316q56 0 80.5 5.5t54.5 25.5l18 -20l-67 -70l-2 -1q-43 6 -87 8t-105 2h-41q-2 -12 -3 -45t-1 -98v-94h152q56 0 83 5.5t59 23.5l16 -23l-84 -66l-3 -1q-27 2 -63 4t-61 2h-99v-28
q0 -94 1 -146.5t4 -71.5q20 -5 67.5 -9t87.5 -4q58 0 102 14.5t88 48.5l18 -20l-95 -94l-2 -1q-49 2 -74.5 2.5t-45.5 0.5zM369 840l52 -41v-5l-169 -89h-1l-40 13v2l156 120h2z" />
    <glyph glyph-name="Ebreve" unicode="&#x114;" horiz-adv-x="599" 
d="M359 0h-314v37l59 4q5 13 7.5 70.5t2.5 151.5v113q0 104 -2.5 161.5t-8.5 71.5l-58 4v37h316q56 0 80.5 5.5t54.5 25.5l18 -20l-67 -70l-2 -1q-43 6 -87 8t-105 2h-41q-2 -12 -3 -45t-1 -98v-94h152q56 0 83 5.5t59 23.5l16 -23l-84 -66l-3 -1q-27 2 -63 4t-61 2h-99v-28
q0 -94 1 -146.5t4 -71.5q20 -5 67.5 -9t87.5 -4q58 0 102 14.5t88 48.5l18 -20l-95 -94l-2 -1q-49 2 -74.5 2.5t-45.5 0.5zM407 842l28 -5l2 -6q-23 -63 -57 -92.5t-83 -29.5q-50 0 -84 30t-45 84l3 4l54 14h6q16 -42 37 -60.5t52 -18.5q26 0 45.5 18.5t40.5 61.5h1z" />
    <glyph glyph-name="Ecaron" unicode="&#x11a;" horiz-adv-x="599" 
d="M359 0h-314v37l59 4q5 13 7.5 70.5t2.5 151.5v113q0 104 -2.5 161.5t-8.5 71.5l-58 4v37h316q56 0 80.5 5.5t54.5 25.5l18 -20l-67 -70l-2 -1q-43 6 -87 8t-105 2h-41q-2 -12 -3 -45t-1 -98v-94h152q56 0 83 5.5t59 23.5l16 -23l-84 -66l-3 -1q-27 2 -63 4t-61 2h-99v-28
q0 -94 1 -146.5t4 -71.5q20 -5 67.5 -9t87.5 -4q58 0 102 14.5t88 48.5l18 -20l-95 -94l-2 -1q-49 2 -74.5 2.5t-45.5 0.5zM454 843l-1 -4l-145 -136h-23l-109 128l1 5l55 22l6 -1l81 -93l100 83h1z" />
    <glyph glyph-name="Ecircumflex" unicode="&#xca;" horiz-adv-x="599" 
d="M359 0h-314v37l59 4q5 13 7.5 70.5t2.5 151.5v113q0 104 -2.5 161.5t-8.5 71.5l-58 4v37h316q56 0 80.5 5.5t54.5 25.5l18 -20l-67 -70l-2 -1q-43 6 -87 8t-105 2h-41q-2 -12 -3 -45t-1 -98v-94h152q56 0 83 5.5t59 23.5l16 -23l-84 -66l-3 -1q-27 2 -63 4t-61 2h-99v-28
q0 -94 1 -146.5t4 -71.5q20 -5 67.5 -9t87.5 -4q58 0 102 14.5t88 48.5l18 -20l-95 -94l-2 -1q-49 2 -74.5 2.5t-45.5 0.5zM432 729v-5l-49 -21h-5l-96 87l-86 -84l-2 -1l-36 2v5l130 144h23z" />
    <glyph glyph-name="Edieresis" unicode="&#xcb;" horiz-adv-x="599" 
d="M359 0h-314v37l59 4q5 13 7.5 70.5t2.5 151.5v113q0 104 -2.5 161.5t-8.5 71.5l-58 4v37h316q56 0 80.5 5.5t54.5 25.5l18 -20l-67 -70l-2 -1q-43 6 -87 8t-105 2h-41q-2 -12 -3 -45t-1 -98v-94h152q56 0 83 5.5t59 23.5l16 -23l-84 -66l-3 -1q-27 2 -63 4t-61 2h-99v-28
q0 -94 1 -146.5t4 -71.5q20 -5 67.5 -9t87.5 -4q58 0 102 14.5t88 48.5l18 -20l-95 -94l-2 -1q-49 2 -74.5 2.5t-45.5 0.5zM267 791q0 -26 -14.5 -41t-40.5 -15q-23 0 -35.5 11.5t-12.5 33.5q0 27 13 39t42 12q23 0 35.5 -10.5t12.5 -29.5zM426 790q0 -25 -13.5 -40
t-37.5 -15q-26 0 -39 13.5t-13 39.5q0 21 12.5 32t36.5 11q29 0 41.5 -10t12.5 -31z" />
    <glyph glyph-name="Edotaccent" unicode="&#x116;" horiz-adv-x="599" 
d="M359 0h-314v37l59 4q5 13 7.5 70.5t2.5 151.5v113q0 104 -2.5 161.5t-8.5 71.5l-58 4v37h316q56 0 80.5 5.5t54.5 25.5l18 -20l-67 -70l-2 -1q-43 6 -87 8t-105 2h-41q-2 -12 -3 -45t-1 -98v-94h152q56 0 83 5.5t59 23.5l16 -23l-84 -66l-3 -1q-27 2 -63 4t-61 2h-99v-28
q0 -94 1 -146.5t4 -71.5q20 -5 67.5 -9t87.5 -4q58 0 102 14.5t88 48.5l18 -20l-95 -94l-2 -1q-49 2 -74.5 2.5t-45.5 0.5zM352 781q0 -19 -19.5 -32.5t-43.5 -13.5q-20 0 -35 16t-15 33q0 16 26 32t49 16q17 0 27.5 -15.5t10.5 -35.5z" />
    <glyph glyph-name="Egrave" unicode="&#xc8;" horiz-adv-x="599" 
d="M359 0h-314v37l59 4q5 13 7.5 70.5t2.5 151.5v113q0 104 -2.5 161.5t-8.5 71.5l-58 4v37h316q56 0 80.5 5.5t54.5 25.5l18 -20l-67 -70l-2 -1q-43 6 -87 8t-105 2h-41q-2 -12 -3 -45t-1 -98v-94h152q56 0 83 5.5t59 23.5l16 -23l-84 -66l-3 -1q-27 2 -63 4t-61 2h-99v-28
q0 -94 1 -146.5t4 -71.5q20 -5 67.5 -9t87.5 -4q58 0 102 14.5t88 48.5l18 -20l-95 -94l-2 -1q-49 2 -74.5 2.5t-45.5 0.5zM170 794v5l52 41h2l156 -120v-2l-40 -13h-1z" />
    <glyph glyph-name="Emacron" unicode="&#x112;" horiz-adv-x="599" 
d="M359 0h-314v37l59 4q5 13 7.5 70.5t2.5 151.5v113q0 104 -2.5 161.5t-8.5 71.5l-58 4v37h316q56 0 80.5 5.5t54.5 25.5l18 -20l-67 -70l-2 -1q-43 6 -87 8t-105 2h-41q-2 -12 -3 -45t-1 -98v-94h152q56 0 83 5.5t59 23.5l16 -23l-84 -66l-3 -1q-27 2 -63 4t-61 2h-99v-28
q0 -94 1 -146.5t4 -71.5q20 -5 67.5 -9t87.5 -4q58 0 102 14.5t88 48.5l18 -20l-95 -94l-2 -1q-49 2 -74.5 2.5t-45.5 0.5zM419 799v-48h-248v48h248z" />
    <glyph glyph-name="Eogonek" unicode="&#x118;" horiz-adv-x="599" 
d="M531 -155l18 -16q-20 -29 -48 -43.5t-63 -14.5q-47 0 -71.5 21.5t-24.5 62.5q0 37 20.5 70t72.5 75h-390v37l59 4q5 13 7.5 70.5t2.5 151.5v113q0 104 -2.5 161.5t-8.5 71.5l-58 4v37h316q56 0 80.5 5.5t54.5 25.5l18 -20l-67 -70l-2 -1q-43 6 -87 8t-105 2h-41
q-2 -12 -3 -45t-1 -98v-94h152q56 0 83 5.5t59 23.5l16 -23l-84 -66l-3 -1q-27 2 -63 4t-61 2h-99v-28q0 -94 1 -146.5t4 -71.5q20 -5 67.5 -9t87.5 -4q57 0 101 14t89 48l18 -20l-82 -77q-52 -48 -67.5 -75t-15.5 -57q0 -28 15.5 -44t44.5 -16q18 0 32.5 5.5t27.5 17.5z
" />
    <glyph glyph-name="uni1EBC" unicode="&#x1ebc;" horiz-adv-x="599" 
d="M359 0h-314v37l59 4q5 13 7.5 70.5t2.5 151.5v113q0 104 -2.5 161.5t-8.5 71.5l-58 4v37h316q56 0 80.5 5.5t54.5 25.5l18 -20l-67 -70l-2 -1q-43 6 -87 8t-105 2h-41q-2 -12 -3 -45t-1 -98v-94h152q56 0 83 5.5t59 23.5l16 -23l-84 -66l-3 -1q-27 2 -63 4t-61 2h-99v-28
q0 -94 1 -146.5t4 -71.5q20 -5 67.5 -9t87.5 -4q58 0 102 14.5t88 48.5l18 -20l-95 -94l-2 -1q-49 2 -74.5 2.5t-45.5 0.5zM229 833q8 0 17.5 -1.5t18.5 -4.5l77 -23q13 -4 20.5 -5.5t12.5 -1.5q12 0 19 6.5t23 37.5l31 -5v-4q-25 -68 -39 -85.5t-39 -17.5q-7 0 -16 2t-20 5
l-77 22q-13 4 -20.5 5.5t-12.5 1.5q-12 0 -19 -6.5t-23 -36.5l-31 4v4q24 67 38.5 85t39.5 18z" />
    <glyph glyph-name="Gbreve" unicode="&#x11e;" horiz-adv-x="696" 
d="M607 76l-1 -2q-66 -44 -128.5 -63t-134.5 -19q-142 0 -211 75.5t-69 230.5q0 124 33.5 195.5t117.5 120.5q42 24 83.5 34t98.5 10q53 0 104 -9.5t90 -26.5v-135h-41l-11 68q-29 22 -76.5 34.5t-106.5 12.5q-38 0 -64.5 -5.5t-47.5 -17.5q-48 -28 -64.5 -77t-16.5 -155
v-37q0 -129 56 -196.5t161 -67.5q38 0 71 7.5t64 22.5v155l-61 1v40h209v-2l-3 -35l-52 -5v-154zM460 842l28 -5l2 -6q-23 -63 -57 -92.5t-83 -29.5q-50 0 -84 30t-45 84l3 4l54 14h6q16 -42 37 -60.5t52 -18.5q26 0 45.5 18.5t40.5 61.5h1z" />
    <glyph glyph-name="Gcircumflex" unicode="&#x11c;" horiz-adv-x="696" 
d="M607 76l-1 -2q-66 -44 -128.5 -63t-134.5 -19q-142 0 -211 75.5t-69 230.5q0 124 33.5 195.5t117.5 120.5q42 24 83.5 34t98.5 10q53 0 104 -9.5t90 -26.5v-135h-41l-11 68q-29 22 -76.5 34.5t-106.5 12.5q-38 0 -64.5 -5.5t-47.5 -17.5q-48 -28 -64.5 -77t-16.5 -155
v-37q0 -129 56 -196.5t161 -67.5q38 0 71 7.5t64 22.5v155l-61 1v40h209v-2l-3 -35l-52 -5v-154zM485 729v-5l-49 -21h-5l-96 87l-86 -84l-2 -1l-36 2v5l130 144h23z" />
    <glyph glyph-name="uni0122" unicode="&#x122;" horiz-adv-x="696" 
d="M607 76l-1 -2q-66 -44 -128.5 -63t-134.5 -19q-142 0 -211 75.5t-69 230.5q0 124 33.5 195.5t117.5 120.5q42 24 83.5 34t98.5 10q53 0 104 -9.5t90 -26.5v-135h-41l-11 68q-29 22 -76.5 34.5t-106.5 12.5q-38 0 -64.5 -5.5t-47.5 -17.5q-48 -28 -64.5 -77t-16.5 -155
v-37q0 -129 56 -196.5t161 -67.5q38 0 71 7.5t64 22.5v155l-61 1v40h209v-2l-3 -35l-52 -5v-154zM364 -71q24 0 37 -17.5t13 -51.5q0 -43 -19 -73.5t-59 -52.5l-16 25q25 16 37.5 33t12.5 36v8t-1 6q-4 -2 -7.5 -3t-9.5 -1q-21 0 -31.5 11t-10.5 34q0 22 14.5 34t39.5 12z
" />
    <glyph glyph-name="Gdotaccent" unicode="&#x120;" horiz-adv-x="696" 
d="M607 76l-1 -2q-66 -44 -128.5 -63t-134.5 -19q-142 0 -211 75.5t-69 230.5q0 124 33.5 195.5t117.5 120.5q42 24 83.5 34t98.5 10q53 0 104 -9.5t90 -26.5v-135h-41l-11 68q-29 22 -76.5 34.5t-106.5 12.5q-38 0 -64.5 -5.5t-47.5 -17.5q-48 -28 -64.5 -77t-16.5 -155
v-37q0 -129 56 -196.5t161 -67.5q38 0 71 7.5t64 22.5v155l-61 1v40h209v-2l-3 -35l-52 -5v-154zM404 781q0 -19 -19.5 -32.5t-43.5 -13.5q-20 0 -35 16t-15 33q0 16 26 32t49 16q17 0 27.5 -15.5t10.5 -35.5z" />
    <glyph glyph-name="Hcircumflex" unicode="&#x124;" horiz-adv-x="776" 
d="M215 41l62 -4v-37h-232v37l62 4q3 8 5 60t2 143v142q0 96 -2 153t-5 70l-62 4v37h232v-37l-62 -4q-3 -9 -5 -61t-2 -142v-44h232q54 0 81 3t47 11v11q0 96 -2 152.5t-5 69.5l-62 4v37h232v-37l-62 -4q-3 -8 -5 -60t-2 -143v-142q0 -96 2 -153t5 -70l62 -4v-37h-232v37
l62 4q3 9 5 61t2 142v110l-59 -49q-30 2 -64.5 2.5t-83.5 0.5h-153v-44q0 -97 2 -153.5t5 -69.5zM525 729v-5l-49 -21h-5l-96 87l-86 -84l-2 -1l-36 2v5l130 144h23z" />
    <glyph glyph-name="Iacute" unicode="&#xcd;" horiz-adv-x="341" 
d="M117 609l-67 4v37h242v-37l-67 -4q-3 -9 -5 -61t-2 -142v-142q0 -97 2 -153.5t5 -69.5l67 -4v-37h-242v37l67 4q3 8 5 60t2 143v142q0 96 -2 153t-5 70zM244 840l52 -41v-5l-169 -89h-1l-40 13v2l156 120h2z" />
    <glyph glyph-name="Ibreve" unicode="&#x12c;" horiz-adv-x="341" 
d="M117 609l-67 4v37h242v-37l-67 -4q-3 -9 -5 -61t-2 -142v-142q0 -97 2 -153.5t5 -69.5l67 -4v-37h-242v37l67 4q3 8 5 60t2 143v142q0 96 -2 153t-5 70zM283 842l28 -5l2 -6q-23 -63 -57 -92.5t-83 -29.5q-50 0 -84 30t-45 84l3 4l54 14h6q16 -42 37 -60.5t52 -18.5
q26 0 45.5 18.5t40.5 61.5h1z" />
    <glyph glyph-name="Icircumflex" unicode="&#xce;" horiz-adv-x="341" 
d="M117 609l-67 4v37h242v-37l-67 -4q-3 -9 -5 -61t-2 -142v-142q0 -97 2 -153.5t5 -69.5l67 -4v-37h-242v37l67 4q3 8 5 60t2 143v142q0 96 -2 153t-5 70zM308 729v-5l-49 -21h-5l-96 87l-86 -84l-2 -1l-36 2v5l130 144h23z" />
    <glyph glyph-name="Idieresis" unicode="&#xcf;" horiz-adv-x="341" 
d="M117 609l-67 4v37h242v-37l-67 -4q-3 -9 -5 -61t-2 -142v-142q0 -97 2 -153.5t5 -69.5l67 -4v-37h-242v37l67 4q3 8 5 60t2 143v142q0 96 -2 153t-5 70zM143 791q0 -26 -14.5 -41t-40.5 -15q-23 0 -35.5 11.5t-12.5 33.5q0 27 13 39t42 12q23 0 35.5 -10.5t12.5 -29.5z
M302 790q0 -25 -13.5 -40t-37.5 -15q-26 0 -39 13.5t-13 39.5q0 21 12.5 32t36.5 11q29 0 41.5 -10t12.5 -31z" />
    <glyph glyph-name="Idotaccent" unicode="&#x130;" horiz-adv-x="341" 
d="M117 609l-67 4v37h242v-37l-67 -4q-3 -9 -5 -61t-2 -142v-142q0 -97 2 -153.5t5 -69.5l67 -4v-37h-242v37l67 4q3 8 5 60t2 143v142q0 96 -2 153t-5 70zM228 781q0 -19 -19.5 -32.5t-43.5 -13.5q-20 0 -35 16t-15 33q0 16 26 32t49 16q17 0 27.5 -15.5t10.5 -35.5z" />
    <glyph glyph-name="Igrave" unicode="&#xcc;" horiz-adv-x="341" 
d="M117 609l-67 4v37h242v-37l-67 -4q-3 -9 -5 -61t-2 -142v-142q0 -97 2 -153.5t5 -69.5l67 -4v-37h-242v37l67 4q3 8 5 60t2 143v142q0 96 -2 153t-5 70zM46 794v5l52 41h2l156 -120v-2l-40 -13h-1z" />
    <glyph glyph-name="Imacron" unicode="&#x12a;" horiz-adv-x="341" 
d="M117 609l-67 4v37h242v-37l-67 -4q-3 -9 -5 -61t-2 -142v-142q0 -97 2 -153.5t5 -69.5l67 -4v-37h-242v37l67 4q3 8 5 60t2 143v142q0 96 -2 153t-5 70zM295 799v-48h-248v48h248z" />
    <glyph glyph-name="Iogonek" unicode="&#x12e;" horiz-adv-x="341" 
d="M265 -155l19 -16q-20 -29 -48 -43.5t-63 -14.5q-47 0 -71.5 22t-24.5 65t33.5 80t93.5 62h-154v37l67 4q3 8 5 60t2 143v142q0 96 -2 153t-5 70l-67 4v37h242v-37l-67 -4q-3 -9 -5 -61t-2 -142v-142q0 -97 2 -153.5t5 -69.5l67 -4v-37q-68 -11 -107 -41.5t-39 -70.5
q0 -33 15 -49.5t45 -16.5q18 0 32.5 5.5t26.5 17.5z" />
    <glyph glyph-name="Itilde" unicode="&#x128;" horiz-adv-x="341" 
d="M117 609l-67 4v37h242v-37l-67 -4q-3 -9 -5 -61t-2 -142v-142q0 -97 2 -153.5t5 -69.5l67 -4v-37h-242v37l67 4q3 8 5 60t2 143v142q0 96 -2 153t-5 70zM105 833q8 0 17.5 -1.5t18.5 -4.5l77 -23q13 -4 20.5 -5.5t12.5 -1.5q12 0 19 6.5t23 37.5l31 -5v-4
q-25 -68 -39 -85.5t-39 -17.5q-7 0 -16 2t-20 5l-77 22q-13 4 -20.5 5.5t-12.5 1.5q-12 0 -19 -6.5t-23 -36.5l-31 4v4q24 67 38.5 85t39.5 18z" />
    <glyph glyph-name="Jacute" horiz-adv-x="327" 
d="M163 -161q-33 -52 -63 -70t-75 -18q-6 0 -11.5 1t-19.5 4l-1 2v71l2 3q5 1 14 0q9 0 30 -1q14 -1 20 -1h11q23 0 35.5 4.5t18.5 16.5q6 10 8.5 21.5t2.5 27.5q0 5 -0.5 12t-2.5 25q-5 46 -6.5 81t-1.5 74v294q0 96 -2 153t-5 70l-77 3v38h179l1 -1q-1 -36 -1.5 -73.5
t-0.5 -130.5v-413q0 -56 -12.5 -100.5t-42.5 -92.5zM228 840l52 -41v-5l-169 -89h-1l-40 13v2l156 120h2z" />
    <glyph glyph-name="Jcircumflex" unicode="&#x134;" horiz-adv-x="327" 
d="M163 -161q-33 -52 -63 -70t-75 -18q-6 0 -11.5 1t-19.5 4l-1 2v71l2 3q5 1 14 0q9 0 30 -1q14 -1 20 -1h11q23 0 35.5 4.5t18.5 16.5q6 10 8.5 21.5t2.5 27.5q0 5 -0.5 12t-2.5 25q-5 46 -6.5 81t-1.5 74v294q0 96 -2 153t-5 70l-77 3v38h179l1 -1q-1 -36 -1.5 -73.5
t-0.5 -130.5v-413q0 -56 -12.5 -100.5t-42.5 -92.5zM292 729v-5l-49 -21h-5l-96 87l-86 -84l-2 -1l-36 2v5l130 144h23z" />
    <glyph glyph-name="uni0136" unicode="&#x136;" horiz-adv-x="638" 
d="M215 41l62 -4v-37h-232v37l62 4q3 8 5 60t2 143v142q0 96 -2 153t-5 70l-62 4v37h232v-37l-62 -4q-3 -9 -5 -61t-2 -142v-57h78q14 14 27 29t25 30l165 206q15 19 23.5 27t15.5 9h68v-48h-44q-6 -1 -13.5 -7.5t-20.5 -23.5l-156 -188q-5 -7 -11.5 -14.5t-20.5 -22.5
q18 -9 37 -27.5t40 -45.5l151 -205q10 -13 21.5 -17.5t34.5 -5.5v-45h-116q-9 5 -20 17.5t-56 75.5l-110 156q-23 31 -37 40t-35 9h-46v-35q0 -96 2 -152.5t5 -69.5zM589 45zM557 602zM351 -71q24 0 37 -17.5t13 -51.5q0 -43 -19 -73.5t-59 -52.5l-16 25q25 16 37.5 33
t12.5 36v8t-1 6q-4 -2 -7.5 -3t-9.5 -1q-21 0 -31.5 11t-10.5 34q0 22 14.5 34t39.5 12z" />
    <glyph glyph-name="Lacute" unicode="&#x139;" horiz-adv-x="590" 
d="M576 93l-85 -95l-2 -1q-49 2 -74.5 2.5t-45.5 0.5h-324v37l59 4q5 13 7.5 70.5t2.5 151.5v113q0 104 -2.5 161.5t-8.5 71.5l-58 4v37h249v-39l-77 -3q-5 -14 -7 -68.5t-2 -152.5v-107q0 -94 1 -146.5t4 -71.5q21 -5 68 -9t87 -4q57 0 101 14.5t88 49.5zM236 840l52 -41
v-5l-169 -89h-1l-40 13v2l156 120h2z" />
    <glyph glyph-name="Lcaron" unicode="&#x13d;" horiz-adv-x="600" 
d="M532 614q0 -41 -17 -93t-54 -122l-28 11q13 41 19.5 79t6.5 72q0 20 -5 38t-16 36l1 4l82 17l3 -1q4 -7 6 -17.5t2 -23.5zM576 93l-85 -95l-2 -1q-49 2 -74.5 2.5t-45.5 0.5h-324v37l59 4q5 13 7.5 70.5t2.5 151.5v113q0 104 -2.5 161.5t-8.5 71.5l-58 4v37h249v-39
l-77 -3q-5 -14 -7 -68.5t-2 -152.5v-107q0 -94 1 -146.5t4 -71.5q21 -5 68 -9t87 -4q57 0 101 14.5t88 49.5z" />
    <glyph glyph-name="uni013B" unicode="&#x13b;" horiz-adv-x="590" 
d="M576 93l-85 -95l-2 -1q-49 2 -74.5 2.5t-45.5 0.5h-324v37l59 4q5 13 7.5 70.5t2.5 151.5v113q0 104 -2.5 161.5t-8.5 71.5l-58 4v37h249v-39l-77 -3q-5 -14 -7 -68.5t-2 -152.5v-107q0 -94 1 -146.5t4 -71.5q21 -5 68 -9t87 -4q57 0 101 14.5t88 49.5zM324 -71
q24 0 37 -17.5t13 -51.5q0 -43 -19 -73.5t-59 -52.5l-16 25q25 16 37.5 33t12.5 36v8t-1 6q-4 -2 -7.5 -3t-9.5 -1q-21 0 -31.5 11t-10.5 34q0 22 14.5 34t39.5 12z" />
    <glyph glyph-name="Nacute" unicode="&#x143;" horiz-adv-x="754" 
d="M642 26l-1 -2l-49 -32h-2l-422 574v-187q0 -164 1.5 -232t5.5 -102l64 -6v-39h-198v37l66 7q6 50 8.5 127.5t2.5 206.5v226l-66 9v37h166l4 -2l364 -499q3 49 5 108.5t2 125.5v18q0 72 -2 122.5t-7 81.5l-72 7v38h199v-37l-62 -8q-3 -33 -5 -89.5t-2 -136.5v-353z
M449 840l52 -41v-5l-169 -89h-1l-40 13v2l156 120h2z" />
    <glyph glyph-name="Ncaron" unicode="&#x147;" horiz-adv-x="754" 
d="M642 26l-1 -2l-49 -32h-2l-422 574v-187q0 -164 1.5 -232t5.5 -102l64 -6v-39h-198v37l66 7q6 50 8.5 127.5t2.5 206.5v226l-66 9v37h166l4 -2l364 -499q3 49 5 108.5t2 125.5v18q0 72 -2 122.5t-7 81.5l-72 7v38h199v-37l-62 -8q-3 -33 -5 -89.5t-2 -136.5v-353z
M535 843l-1 -4l-145 -136h-23l-109 128l1 5l55 22l6 -1l81 -93l100 83h1z" />
    <glyph glyph-name="uni0145" unicode="&#x145;" horiz-adv-x="754" 
d="M642 26l-1 -2l-49 -32h-2l-422 574v-187q0 -164 1.5 -232t5.5 -102l64 -6v-39h-198v37l66 7q6 50 8.5 127.5t2.5 206.5v226l-66 9v37h166l4 -2l364 -499q3 49 5 108.5t2 125.5v18q0 72 -2 122.5t-7 81.5l-72 7v38h199v-37l-62 -8q-3 -33 -5 -89.5t-2 -136.5v-353z
M378 -71q24 0 37 -17.5t13 -51.5q0 -43 -19 -73.5t-59 -52.5l-16 25q25 16 37.5 33t12.5 36v8t-1 6q-4 -2 -7.5 -3t-9.5 -1q-21 0 -31.5 11t-10.5 34q0 22 14.5 34t39.5 12z" />
    <glyph glyph-name="Ntilde" unicode="&#xd1;" horiz-adv-x="754" 
d="M642 26l-1 -2l-49 -32h-2l-422 574v-187q0 -164 1.5 -232t5.5 -102l64 -6v-39h-198v37l66 7q6 50 8.5 127.5t2.5 206.5v226l-66 9v37h166l4 -2l364 -499q3 49 5 108.5t2 125.5v18q0 72 -2 122.5t-7 81.5l-72 7v38h199v-37l-62 -8q-3 -33 -5 -89.5t-2 -136.5v-353z
M310 833q8 0 17.5 -1.5t18.5 -4.5l77 -23q13 -4 20.5 -5.5t12.5 -1.5q12 0 19 6.5t23 37.5l31 -5v-4q-25 -68 -39 -85.5t-39 -17.5q-7 0 -16 2t-20 5l-77 22q-13 4 -20.5 5.5t-12.5 1.5q-12 0 -19 -6.5t-23 -36.5l-31 4v4q24 67 38.5 85t39.5 18z" />
    <glyph glyph-name="Oacute" unicode="&#xd3;" horiz-adv-x="724" 
d="M519 36q-42 -24 -83.5 -34t-99.5 -10q-69 0 -117.5 16.5t-84.5 52.5q-38 38 -54.5 93t-16.5 148q0 128 31.5 197t110.5 115q41 24 82.5 34t99.5 10q70 0 118.5 -16.5t84.5 -52.5q38 -39 54.5 -94.5t16.5 -146.5q0 -127 -31.5 -196t-110.5 -116zM221 99q27 -27 66.5 -39.5
t98.5 -12.5q31 0 56.5 6t46.5 18q45 26 58.5 67t13.5 156v34q0 98 -12.5 143.5t-46.5 79.5q-27 27 -66 39.5t-98 12.5q-31 0 -57 -6t-47 -18q-44 -26 -58 -68t-14 -155v-34q0 -96 12.5 -142t46.5 -81zM435 840l52 -41v-5l-169 -89h-1l-40 13v2l156 120h2z" />
    <glyph glyph-name="Obreve" unicode="&#x14e;" horiz-adv-x="724" 
d="M519 36q-42 -24 -83.5 -34t-99.5 -10q-69 0 -117.5 16.5t-84.5 52.5q-38 38 -54.5 93t-16.5 148q0 128 31.5 197t110.5 115q41 24 82.5 34t99.5 10q70 0 118.5 -16.5t84.5 -52.5q38 -39 54.5 -94.5t16.5 -146.5q0 -127 -31.5 -196t-110.5 -116zM221 99q27 -27 66.5 -39.5
t98.5 -12.5q31 0 56.5 6t46.5 18q45 26 58.5 67t13.5 156v34q0 98 -12.5 143.5t-46.5 79.5q-27 27 -66 39.5t-98 12.5q-31 0 -57 -6t-47 -18q-44 -26 -58 -68t-14 -155v-34q0 -96 12.5 -142t46.5 -81zM474 842l28 -5l2 -6q-23 -63 -57 -92.5t-83 -29.5q-50 0 -84 30t-45 84
l3 4l54 14h6q16 -42 37 -60.5t52 -18.5q26 0 45.5 18.5t40.5 61.5h1z" />
    <glyph glyph-name="Ocircumflex" unicode="&#xd4;" horiz-adv-x="724" 
d="M519 36q-42 -24 -83.5 -34t-99.5 -10q-69 0 -117.5 16.5t-84.5 52.5q-38 38 -54.5 93t-16.5 148q0 128 31.5 197t110.5 115q41 24 82.5 34t99.5 10q70 0 118.5 -16.5t84.5 -52.5q38 -39 54.5 -94.5t16.5 -146.5q0 -127 -31.5 -196t-110.5 -116zM221 99q27 -27 66.5 -39.5
t98.5 -12.5q31 0 56.5 6t46.5 18q45 26 58.5 67t13.5 156v34q0 98 -12.5 143.5t-46.5 79.5q-27 27 -66 39.5t-98 12.5q-31 0 -57 -6t-47 -18q-44 -26 -58 -68t-14 -155v-34q0 -96 12.5 -142t46.5 -81zM498 729v-5l-49 -21h-5l-96 87l-86 -84l-2 -1l-36 2v5l130 144h23z" />
    <glyph glyph-name="Odieresis" unicode="&#xd6;" horiz-adv-x="724" 
d="M519 36q-42 -24 -83.5 -34t-99.5 -10q-69 0 -117.5 16.5t-84.5 52.5q-38 38 -54.5 93t-16.5 148q0 128 31.5 197t110.5 115q41 24 82.5 34t99.5 10q70 0 118.5 -16.5t84.5 -52.5q38 -39 54.5 -94.5t16.5 -146.5q0 -127 -31.5 -196t-110.5 -116zM221 99q27 -27 66.5 -39.5
t98.5 -12.5q31 0 56.5 6t46.5 18q45 26 58.5 67t13.5 156v34q0 98 -12.5 143.5t-46.5 79.5q-27 27 -66 39.5t-98 12.5q-31 0 -57 -6t-47 -18q-44 -26 -58 -68t-14 -155v-34q0 -96 12.5 -142t46.5 -81zM333 791q0 -26 -14.5 -41t-40.5 -15q-23 0 -35.5 11.5t-12.5 33.5
q0 27 13 39t42 12q23 0 35.5 -10.5t12.5 -29.5zM492 790q0 -25 -13.5 -40t-37.5 -15q-26 0 -39 13.5t-13 39.5q0 21 12.5 32t36.5 11q29 0 41.5 -10t12.5 -31z" />
    <glyph glyph-name="Ograve" unicode="&#xd2;" horiz-adv-x="724" 
d="M519 36q-42 -24 -83.5 -34t-99.5 -10q-69 0 -117.5 16.5t-84.5 52.5q-38 38 -54.5 93t-16.5 148q0 128 31.5 197t110.5 115q41 24 82.5 34t99.5 10q70 0 118.5 -16.5t84.5 -52.5q38 -39 54.5 -94.5t16.5 -146.5q0 -127 -31.5 -196t-110.5 -116zM221 99q27 -27 66.5 -39.5
t98.5 -12.5q31 0 56.5 6t46.5 18q45 26 58.5 67t13.5 156v34q0 98 -12.5 143.5t-46.5 79.5q-27 27 -66 39.5t-98 12.5q-31 0 -57 -6t-47 -18q-44 -26 -58 -68t-14 -155v-34q0 -96 12.5 -142t46.5 -81zM236 794v5l52 41h2l156 -120v-2l-40 -13h-1z" />
    <glyph glyph-name="Ohungarumlaut" unicode="&#x150;" horiz-adv-x="724" 
d="M519 36q-42 -24 -83.5 -34t-99.5 -10q-69 0 -117.5 16.5t-84.5 52.5q-38 38 -54.5 93t-16.5 148q0 128 31.5 197t110.5 115q41 24 82.5 34t99.5 10q70 0 118.5 -16.5t84.5 -52.5q38 -39 54.5 -94.5t16.5 -146.5q0 -127 -31.5 -196t-110.5 -116zM221 99q27 -27 66.5 -39.5
t98.5 -12.5q31 0 56.5 6t46.5 18q45 26 58.5 67t13.5 156v34q0 98 -12.5 143.5t-46.5 79.5q-27 27 -66 39.5t-98 12.5q-31 0 -57 -6t-47 -18q-44 -26 -58 -68t-14 -155v-34q0 -96 12.5 -142t46.5 -81zM254 708v2l107 163h2l51 -17l1 -5l-123 -152h-1zM388 708v2l116 163h2
l51 -17l1 -5l-131 -152h-1z" />
    <glyph glyph-name="Omacron" unicode="&#x14c;" horiz-adv-x="724" 
d="M519 36q-42 -24 -83.5 -34t-99.5 -10q-69 0 -117.5 16.5t-84.5 52.5q-38 38 -54.5 93t-16.5 148q0 128 31.5 197t110.5 115q41 24 82.5 34t99.5 10q70 0 118.5 -16.5t84.5 -52.5q38 -39 54.5 -94.5t16.5 -146.5q0 -127 -31.5 -196t-110.5 -116zM221 99q27 -27 66.5 -39.5
t98.5 -12.5q31 0 56.5 6t46.5 18q45 26 58.5 67t13.5 156v34q0 98 -12.5 143.5t-46.5 79.5q-27 27 -66 39.5t-98 12.5q-31 0 -57 -6t-47 -18q-44 -26 -58 -68t-14 -155v-34q0 -96 12.5 -142t46.5 -81zM485 799v-48h-248v48h248z" />
    <glyph glyph-name="Otilde" unicode="&#xd5;" horiz-adv-x="724" 
d="M519 36q-42 -24 -83.5 -34t-99.5 -10q-69 0 -117.5 16.5t-84.5 52.5q-38 38 -54.5 93t-16.5 148q0 128 31.5 197t110.5 115q41 24 82.5 34t99.5 10q70 0 118.5 -16.5t84.5 -52.5q38 -39 54.5 -94.5t16.5 -146.5q0 -127 -31.5 -196t-110.5 -116zM221 99q27 -27 66.5 -39.5
t98.5 -12.5q31 0 56.5 6t46.5 18q45 26 58.5 67t13.5 156v34q0 98 -12.5 143.5t-46.5 79.5q-27 27 -66 39.5t-98 12.5q-31 0 -57 -6t-47 -18q-44 -26 -58 -68t-14 -155v-34q0 -96 12.5 -142t46.5 -81zM295 833q8 0 17.5 -1.5t18.5 -4.5l77 -23q13 -4 20.5 -5.5t12.5 -1.5
q12 0 19 6.5t23 37.5l31 -5v-4q-25 -68 -39 -85.5t-39 -17.5q-7 0 -16 2t-20 5l-77 22q-13 4 -20.5 5.5t-12.5 1.5q-12 0 -19 -6.5t-23 -36.5l-31 4v4q24 67 38.5 85t39.5 18z" />
    <glyph glyph-name="Racute" unicode="&#x154;" horiz-adv-x="626" 
d="M215 41l68 -4v-37h-238v37l62 4q3 8 5 60t2 143v142q0 96 -2 153t-5 70l-62 4v37h304q96 0 144 -42t48 -126q0 -71 -36 -114.5t-106 -56.5q36 -11 63.5 -47t60.5 -114l26 -62q13 -29 22 -35.5t39 -7.5v-45h-123q-7 5 -14 18t-21 45l-29 74q-34 83 -65.5 116.5t-81.5 33.5
q-21 0 -40.5 -0.5t-27.5 -1.5v-35q0 -92 2 -145t5 -64zM569 45zM208 434v-99q27 -2 51.5 -3t46.5 -1q73 0 105 30t32 97v5q0 84 -42 113.5t-161 29.5h-27q-2 -17 -3.5 -62.5t-1.5 -109.5zM371 840l52 -41v-5l-169 -89h-1l-40 13v2l156 120h2z" />
    <glyph glyph-name="Rcaron" unicode="&#x158;" horiz-adv-x="626" 
d="M215 41l68 -4v-37h-238v37l62 4q3 8 5 60t2 143v142q0 96 -2 153t-5 70l-62 4v37h304q96 0 144 -42t48 -126q0 -71 -36 -114.5t-106 -56.5q36 -11 63.5 -47t60.5 -114l26 -62q13 -29 22 -35.5t39 -7.5v-45h-123q-7 5 -14 18t-21 45l-29 74q-34 83 -65.5 116.5t-81.5 33.5
q-21 0 -40.5 -0.5t-27.5 -1.5v-35q0 -92 2 -145t5 -64zM569 45zM208 434v-99q27 -2 51.5 -3t46.5 -1q73 0 105 30t32 97v5q0 84 -42 113.5t-161 29.5h-27q-2 -17 -3.5 -62.5t-1.5 -109.5zM457 843l-1 -4l-145 -136h-23l-109 128l1 5l55 22l6 -1l81 -93l100 83h1z" />
    <glyph glyph-name="uni0156" unicode="&#x156;" horiz-adv-x="626" 
d="M215 41l68 -4v-37h-238v37l62 4q3 8 5 60t2 143v142q0 96 -2 153t-5 70l-62 4v37h304q96 0 144 -42t48 -126q0 -71 -36 -114.5t-106 -56.5q36 -11 63.5 -47t60.5 -114l26 -62q13 -29 22 -35.5t39 -7.5v-45h-123q-7 5 -14 18t-21 45l-29 74q-34 83 -65.5 116.5t-81.5 33.5
q-21 0 -40.5 -0.5t-27.5 -1.5v-35q0 -92 2 -145t5 -64zM569 45zM208 434v-99q27 -2 51.5 -3t46.5 -1q73 0 105 30t32 97v5q0 84 -42 113.5t-161 29.5h-27q-2 -17 -3.5 -62.5t-1.5 -109.5zM353 -71q24 0 37 -17.5t13 -51.5q0 -43 -19 -73.5t-59 -52.5l-16 25q25 16 37.5 33
t12.5 36v8t-1 6q-4 -2 -7.5 -3t-9.5 -1q-21 0 -31.5 11t-10.5 34q0 22 14.5 34t39.5 12z" />
    <glyph glyph-name="Sacute" unicode="&#x15a;" horiz-adv-x="531" 
d="M392 34q-39 -22 -76 -32t-83 -10q-51 0 -98 8t-74 21v112h40l8 -49q24 -17 73 -29.5t97 -12.5q22 0 41.5 5t34.5 15q23 14 32 37t9 67q0 56 -23 80t-97 34l-42 5q-56 8 -84.5 16t-47.5 21q-27 17 -39.5 46.5t-12.5 74.5q0 61 22.5 103.5t70.5 69.5q38 22 75 32t83 10
q43 0 83.5 -6.5t70.5 -18.5v-104h-39l-6 43q-28 16 -71 26t-83 10q-23 0 -42 -5t-35 -15q-23 -14 -32 -37t-9 -67q0 -56 23 -80t97 -34l43 -5q56 -8 84.5 -16t47.5 -21q26 -18 38.5 -47.5t12.5 -73.5q0 -61 -22.5 -103.5t-69.5 -69.5zM357 840l52 -41v-5l-169 -89h-1l-40 13
v2l156 120h2z" />
    <glyph glyph-name="Scaron" unicode="&#x160;" horiz-adv-x="531" 
d="M392 34q-39 -22 -76 -32t-83 -10q-51 0 -98 8t-74 21v112h40l8 -49q24 -17 73 -29.5t97 -12.5q22 0 41.5 5t34.5 15q23 14 32 37t9 67q0 56 -23 80t-97 34l-42 5q-56 8 -84.5 16t-47.5 21q-27 17 -39.5 46.5t-12.5 74.5q0 61 22.5 103.5t70.5 69.5q38 22 75 32t83 10
q43 0 83.5 -6.5t70.5 -18.5v-104h-39l-6 43q-28 16 -71 26t-83 10q-23 0 -42 -5t-35 -15q-23 -14 -32 -37t-9 -67q0 -56 23 -80t97 -34l43 -5q56 -8 84.5 -16t47.5 -21q26 -18 38.5 -47.5t12.5 -73.5q0 -61 -22.5 -103.5t-69.5 -69.5zM442 843l-1 -4l-145 -136h-23l-109 128
l1 5l55 22l6 -1l81 -93l100 83h1z" />
    <glyph glyph-name="uni015E" unicode="&#x15e;" horiz-adv-x="531" 
d="M366 -143q0 -44 -50 -79t-105 -35q-16 0 -29.5 2t-24.5 7l-15 65l3 2q24 -11 58.5 -18.5t57.5 -7.5q22 0 32.5 9t10.5 29q0 31 -29 43q-18 8 -48 8q-18 0 -39 -3l-3 10l60 103h-12q-51 0 -98 8t-74 21v112h40l8 -49q24 -17 73 -29.5t97 -12.5q22 0 41.5 5t34.5 15
q23 14 32 37t9 67q0 56 -23 80t-97 34l-42 5q-56 8 -84.5 16t-47.5 21q-27 17 -39.5 46.5t-12.5 74.5q0 61 22.5 103.5t70.5 69.5q38 22 75 32t83 10q43 0 83.5 -6.5t70.5 -18.5v-104h-39l-6 43q-28 16 -71 26t-83 10q-23 0 -42 -5t-35 -15q-23 -14 -32 -37t-9 -67
q0 -56 23 -80t97 -34l43 -5q56 -8 84.5 -16t47.5 -21q26 -18 38.5 -47.5t12.5 -73.5q0 -61 -22.5 -103.5t-69.5 -69.5q-27 -15 -51.5 -24.5t-51.5 -13.5l-33 -59q57 -1 83.5 -20t26.5 -60z" />
    <glyph glyph-name="Scircumflex" unicode="&#x15c;" horiz-adv-x="531" 
d="M392 34q-39 -22 -76 -32t-83 -10q-51 0 -98 8t-74 21v112h40l8 -49q24 -17 73 -29.5t97 -12.5q22 0 41.5 5t34.5 15q23 14 32 37t9 67q0 56 -23 80t-97 34l-42 5q-56 8 -84.5 16t-47.5 21q-27 17 -39.5 46.5t-12.5 74.5q0 61 22.5 103.5t70.5 69.5q38 22 75 32t83 10
q43 0 83.5 -6.5t70.5 -18.5v-104h-39l-6 43q-28 16 -71 26t-83 10q-23 0 -42 -5t-35 -15q-23 -14 -32 -37t-9 -67q0 -56 23 -80t97 -34l43 -5q56 -8 84.5 -16t47.5 -21q26 -18 38.5 -47.5t12.5 -73.5q0 -61 -22.5 -103.5t-69.5 -69.5zM421 729v-5l-49 -21h-5l-96 87l-86 -84
l-2 -1l-36 2v5l130 144h23z" />
    <glyph glyph-name="uni0218" unicode="&#x218;" horiz-adv-x="531" 
d="M392 34q-39 -22 -76 -32t-83 -10q-51 0 -98 8t-74 21v112h40l8 -49q24 -17 73 -29.5t97 -12.5q22 0 41.5 5t34.5 15q23 14 32 37t9 67q0 56 -23 80t-97 34l-42 5q-56 8 -84.5 16t-47.5 21q-27 17 -39.5 46.5t-12.5 74.5q0 61 22.5 103.5t70.5 69.5q38 22 75 32t83 10
q43 0 83.5 -6.5t70.5 -18.5v-104h-39l-6 43q-28 16 -71 26t-83 10q-23 0 -42 -5t-35 -15q-23 -14 -32 -37t-9 -67q0 -56 23 -80t97 -34l43 -5q56 -8 84.5 -16t47.5 -21q26 -18 38.5 -47.5t12.5 -73.5q0 -61 -22.5 -103.5t-69.5 -69.5zM258 -71q24 0 37 -17.5t13 -51.5
q0 -43 -19 -73.5t-59 -52.5l-16 25q25 16 37.5 33t12.5 36v8t-1 6q-4 -2 -7.5 -3t-9.5 -1q-21 0 -31.5 11t-10.5 34q0 22 14.5 34t39.5 12z" />
    <glyph glyph-name="Tcaron" unicode="&#x164;" horiz-adv-x="641" 
d="M381 41l67 -4v-37h-246v37l68 4q4 10 6 61.5t2 141.5v139q0 64 -0.5 117t-2.5 95h-53q-101 0 -133 -6.5t-71 -30.5l-17 21l66 72l3 1q23 -3 53 -4t109 -1h257q57 0 81 6t53 28l19 -20l-68 -71l-2 -1q-38 3 -76.5 4.5t-92.5 1.5h-28q-2 -19 -2.5 -66t-0.5 -126v-139
q0 -99 2 -154t7 -69zM484 843l-1 -4l-145 -136h-23l-109 128l1 5l55 22l6 -1l81 -93l100 83h1z" />
    <glyph glyph-name="uni0162" unicode="&#x162;" horiz-adv-x="641" 
d="M372 -169q0 31 -29 43q-18 8 -48 8q-18 0 -39 -3l-3 10l65 111h-116v37l68 4q4 10 6 61.5t2 141.5v139q0 64 -0.5 117t-2.5 95h-53q-101 0 -133 -6.5t-71 -30.5l-17 21l66 72l3 1q23 -3 53 -4t109 -1h257q57 0 81 6t53 28l19 -20l-68 -71l-2 -1q-38 3 -76.5 4.5
t-92.5 1.5h-28q-2 -19 -2.5 -66t-0.5 -126v-139q0 -99 2 -154t7 -69l67 -4v-37h-89l-35 -63q57 -1 83.5 -20t26.5 -60q0 -44 -50 -79t-105 -35q-16 0 -29.5 2t-24.5 7l-15 65l3 2q24 -11 58.5 -18.5t57.5 -7.5q22 0 32.5 9t10.5 29z" />
    <glyph glyph-name="uni021A" unicode="&#x21a;" horiz-adv-x="641" 
d="M381 41l67 -4v-37h-246v37l68 4q4 10 6 61.5t2 141.5v139q0 64 -0.5 117t-2.5 95h-53q-101 0 -133 -6.5t-71 -30.5l-17 21l66 72l3 1q23 -3 53 -4t109 -1h257q57 0 81 6t53 28l19 -20l-68 -71l-2 -1q-38 3 -76.5 4.5t-92.5 1.5h-28q-2 -19 -2.5 -66t-0.5 -126v-139
q0 -99 2 -154t7 -69zM327 -71q24 0 37 -17.5t13 -51.5q0 -43 -19 -73.5t-59 -52.5l-16 25q25 16 37.5 33t12.5 36v8t-1 6q-4 -2 -7.5 -3t-9.5 -1q-21 0 -31.5 11t-10.5 34q0 22 14.5 34t39.5 12z" />
    <glyph glyph-name="Uacute" unicode="&#xda;" horiz-adv-x="747" 
d="M565 59q-37 -38 -77.5 -52.5t-107.5 -14.5q-142 0 -206.5 52t-64.5 167v229q0 67 -2 109.5t-6 59.5l-57 4v37h228v-37l-65 -4q-2 -20 -3 -57t-1 -83v-229q0 -101 49 -141.5t168 -40.5q44 0 72 8.5t48 28.5q24 24 33 60t9 124v104q0 80 -1.5 134.5t-5.5 87.5l-73 7v38h201
v-37l-63 -8q-3 -33 -5 -89.5t-2 -136.5v-103q0 -95 -14.5 -136.5t-53.5 -80.5zM457 840l52 -41v-5l-169 -89h-1l-40 13v2l156 120h2z" />
    <glyph glyph-name="Ubreve" unicode="&#x16c;" horiz-adv-x="747" 
d="M565 59q-37 -38 -77.5 -52.5t-107.5 -14.5q-142 0 -206.5 52t-64.5 167v229q0 67 -2 109.5t-6 59.5l-57 4v37h228v-37l-65 -4q-2 -20 -3 -57t-1 -83v-229q0 -101 49 -141.5t168 -40.5q44 0 72 8.5t48 28.5q24 24 33 60t9 124v104q0 80 -1.5 134.5t-5.5 87.5l-73 7v38h201
v-37l-63 -8q-3 -33 -5 -89.5t-2 -136.5v-103q0 -95 -14.5 -136.5t-53.5 -80.5zM496 842l28 -5l2 -6q-23 -63 -57 -92.5t-83 -29.5q-50 0 -84 30t-45 84l3 4l54 14h6q16 -42 37 -60.5t52 -18.5q26 0 45.5 18.5t40.5 61.5h1z" />
    <glyph glyph-name="Ucircumflex" unicode="&#xdb;" horiz-adv-x="747" 
d="M565 59q-37 -38 -77.5 -52.5t-107.5 -14.5q-142 0 -206.5 52t-64.5 167v229q0 67 -2 109.5t-6 59.5l-57 4v37h228v-37l-65 -4q-2 -20 -3 -57t-1 -83v-229q0 -101 49 -141.5t168 -40.5q44 0 72 8.5t48 28.5q24 24 33 60t9 124v104q0 80 -1.5 134.5t-5.5 87.5l-73 7v38h201
v-37l-63 -8q-3 -33 -5 -89.5t-2 -136.5v-103q0 -95 -14.5 -136.5t-53.5 -80.5zM521 729v-5l-49 -21h-5l-96 87l-86 -84l-2 -1l-36 2v5l130 144h23z" />
    <glyph glyph-name="Udieresis" unicode="&#xdc;" horiz-adv-x="747" 
d="M565 59q-37 -38 -77.5 -52.5t-107.5 -14.5q-142 0 -206.5 52t-64.5 167v229q0 67 -2 109.5t-6 59.5l-57 4v37h228v-37l-65 -4q-2 -20 -3 -57t-1 -83v-229q0 -101 49 -141.5t168 -40.5q44 0 72 8.5t48 28.5q24 24 33 60t9 124v104q0 80 -1.5 134.5t-5.5 87.5l-73 7v38h201
v-37l-63 -8q-3 -33 -5 -89.5t-2 -136.5v-103q0 -95 -14.5 -136.5t-53.5 -80.5zM356 791q0 -26 -14.5 -41t-40.5 -15q-23 0 -35.5 11.5t-12.5 33.5q0 27 13 39t42 12q23 0 35.5 -10.5t12.5 -29.5zM515 790q0 -25 -13.5 -40t-37.5 -15q-26 0 -39 13.5t-13 39.5q0 21 12.5 32
t36.5 11q29 0 41.5 -10t12.5 -31z" />
    <glyph glyph-name="Ugrave" unicode="&#xd9;" horiz-adv-x="747" 
d="M565 59q-37 -38 -77.5 -52.5t-107.5 -14.5q-142 0 -206.5 52t-64.5 167v229q0 67 -2 109.5t-6 59.5l-57 4v37h228v-37l-65 -4q-2 -20 -3 -57t-1 -83v-229q0 -101 49 -141.5t168 -40.5q44 0 72 8.5t48 28.5q24 24 33 60t9 124v104q0 80 -1.5 134.5t-5.5 87.5l-73 7v38h201
v-37l-63 -8q-3 -33 -5 -89.5t-2 -136.5v-103q0 -95 -14.5 -136.5t-53.5 -80.5zM259 794v5l52 41h2l156 -120v-2l-40 -13h-1z" />
    <glyph glyph-name="Uhungarumlaut" unicode="&#x170;" horiz-adv-x="747" 
d="M565 59q-37 -38 -77.5 -52.5t-107.5 -14.5q-142 0 -206.5 52t-64.5 167v229q0 67 -2 109.5t-6 59.5l-57 4v37h228v-37l-65 -4q-2 -20 -3 -57t-1 -83v-229q0 -101 49 -141.5t168 -40.5q44 0 72 8.5t48 28.5q24 24 33 60t9 124v104q0 80 -1.5 134.5t-5.5 87.5l-73 7v38h201
v-37l-63 -8q-3 -33 -5 -89.5t-2 -136.5v-103q0 -95 -14.5 -136.5t-53.5 -80.5zM276 708v2l107 163h2l51 -17l1 -5l-123 -152h-1zM410 708v2l116 163h2l51 -17l1 -5l-131 -152h-1z" />
    <glyph glyph-name="Umacron" unicode="&#x16a;" horiz-adv-x="747" 
d="M565 59q-37 -38 -77.5 -52.5t-107.5 -14.5q-142 0 -206.5 52t-64.5 167v229q0 67 -2 109.5t-6 59.5l-57 4v37h228v-37l-65 -4q-2 -20 -3 -57t-1 -83v-229q0 -101 49 -141.5t168 -40.5q44 0 72 8.5t48 28.5q24 24 33 60t9 124v104q0 80 -1.5 134.5t-5.5 87.5l-73 7v38h201
v-37l-63 -8q-3 -33 -5 -89.5t-2 -136.5v-103q0 -95 -14.5 -136.5t-53.5 -80.5zM508 799v-48h-248v48h248z" />
    <glyph glyph-name="Uogonek" unicode="&#x172;" horiz-adv-x="747" 
d="M488 -155l18 -16q-20 -29 -48 -43.5t-63 -14.5q-47 0 -71.5 22.5t-24.5 64.5q0 38 26.5 71.5t79.5 62.5h-25q-142 0 -206.5 52t-64.5 167v229q0 67 -2 109.5t-6 59.5l-57 4v37h228v-37l-65 -4q-2 -20 -3 -57t-1 -83v-229q0 -101 49 -141.5t168 -40.5q44 0 72 8.5t48 28.5
q24 24 33 60t9 124v104q0 80 -1.5 134.5t-5.5 87.5l-73 7v38h201v-37l-63 -8q-3 -33 -5 -89.5t-2 -136.5v-103q0 -95 -14.5 -136.5t-53.5 -80.5q-15 -15 -34.5 -28.5t-62.5 -36.5q-63 -34 -81.5 -56t-18.5 -50q0 -33 15 -49.5t45 -16.5q18 0 32 5.5t28 17.5z" />
    <glyph glyph-name="Uring" unicode="&#x16e;" horiz-adv-x="747" 
d="M565 59q-37 -38 -77.5 -52.5t-107.5 -14.5q-142 0 -206.5 52t-64.5 167v229q0 67 -2 109.5t-6 59.5l-57 4v37h228v-37l-65 -4q-2 -20 -3 -57t-1 -83v-229q0 -101 49 -141.5t168 -40.5q44 0 72 8.5t48 28.5q24 24 33 60t9 124v104q0 80 -1.5 134.5t-5.5 87.5l-73 7v38h201
v-37l-63 -8q-3 -33 -5 -89.5t-2 -136.5v-103q0 -95 -14.5 -136.5t-53.5 -80.5zM279 778q0 45 32 73t84 28q45 0 69.5 -21t24.5 -58q0 -45 -32 -73t-84 -28q-44 0 -69 21t-25 58zM435 788q0 26 -14.5 39.5t-42.5 13.5q-26 0 -38.5 -13t-12.5 -41q0 -27 14.5 -40.5t42.5 -13.5
q27 0 39 13t12 42z" />
    <glyph glyph-name="Utilde" unicode="&#x168;" horiz-adv-x="747" 
d="M565 59q-37 -38 -77.5 -52.5t-107.5 -14.5q-142 0 -206.5 52t-64.5 167v229q0 67 -2 109.5t-6 59.5l-57 4v37h228v-37l-65 -4q-2 -20 -3 -57t-1 -83v-229q0 -101 49 -141.5t168 -40.5q44 0 72 8.5t48 28.5q24 24 33 60t9 124v104q0 80 -1.5 134.5t-5.5 87.5l-73 7v38h201
v-37l-63 -8q-3 -33 -5 -89.5t-2 -136.5v-103q0 -95 -14.5 -136.5t-53.5 -80.5zM318 833q8 0 17.5 -1.5t18.5 -4.5l77 -23q13 -4 20.5 -5.5t12.5 -1.5q12 0 19 6.5t23 37.5l31 -5v-4q-25 -68 -39 -85.5t-39 -17.5q-7 0 -16 2t-20 5l-77 22q-13 4 -20.5 5.5t-12.5 1.5
q-12 0 -19 -6.5t-23 -36.5l-31 4v4q24 67 38.5 85t39.5 18z" />
    <glyph glyph-name="Wacute" unicode="&#x1e82;" horiz-adv-x="997" 
d="M725 12l-3 -2l-74 -18l-3 1l-148 423l-146 -404l-3 -2l-74 -18l-3 1l-212 616l-44 4v37h224v-37l-65 -4q3 -31 17 -85.5t33 -111.5l108 -316l139 393l-42 120l-53 4v37h229v-37l-63 -4q4 -30 19 -84.5t35 -112.5l110 -314l110 329q17 52 29.5 102.5t13.5 77.5l-71 6v37
h194v-37l-51 -6zM535 613zM428 613zM162 613zM58 613zM567 840l52 -41v-5l-169 -89h-1l-40 13v2l156 120h2z" />
    <glyph glyph-name="Wcircumflex" unicode="&#x174;" horiz-adv-x="997" 
d="M725 12l-3 -2l-74 -18l-3 1l-148 423l-146 -404l-3 -2l-74 -18l-3 1l-212 616l-44 4v37h224v-37l-65 -4q3 -31 17 -85.5t33 -111.5l108 -316l139 393l-42 120l-53 4v37h229v-37l-63 -4q4 -30 19 -84.5t35 -112.5l110 -314l110 329q17 52 29.5 102.5t13.5 77.5l-71 6v37
h194v-37l-51 -6zM535 613zM428 613zM162 613zM58 613zM630 729v-5l-49 -21h-5l-96 87l-86 -84l-2 -1l-36 2v5l130 144h23z" />
    <glyph glyph-name="Wdieresis" unicode="&#x1e84;" horiz-adv-x="997" 
d="M725 12l-3 -2l-74 -18l-3 1l-148 423l-146 -404l-3 -2l-74 -18l-3 1l-212 616l-44 4v37h224v-37l-65 -4q3 -31 17 -85.5t33 -111.5l108 -316l139 393l-42 120l-53 4v37h229v-37l-63 -4q4 -30 19 -84.5t35 -112.5l110 -314l110 329q17 52 29.5 102.5t13.5 77.5l-71 6v37
h194v-37l-51 -6zM535 613zM428 613zM162 613zM58 613zM465 791q0 -26 -14.5 -41t-40.5 -15q-23 0 -35.5 11.5t-12.5 33.5q0 27 13 39t42 12q23 0 35.5 -10.5t12.5 -29.5zM624 790q0 -25 -13.5 -40t-37.5 -15q-26 0 -39 13.5t-13 39.5q0 21 12.5 32t36.5 11q29 0 41.5 -10
t12.5 -31z" />
    <glyph glyph-name="Wgrave" unicode="&#x1e80;" horiz-adv-x="997" 
d="M725 12l-3 -2l-74 -18l-3 1l-148 423l-146 -404l-3 -2l-74 -18l-3 1l-212 616l-44 4v37h224v-37l-65 -4q3 -31 17 -85.5t33 -111.5l108 -316l139 393l-42 120l-53 4v37h229v-37l-63 -4q4 -30 19 -84.5t35 -112.5l110 -314l110 329q17 52 29.5 102.5t13.5 77.5l-71 6v37
h194v-37l-51 -6zM535 613zM428 613zM162 613zM58 613zM368 794v5l52 41h2l156 -120v-2l-40 -13h-1z" />
    <glyph glyph-name="Yacute" unicode="&#xdd;" horiz-adv-x="598" 
d="M351 41l67 -4v-37h-238v37l67 4q3 19 4 52.5t1 85.5v75q0 19 -2 28t-10 21l-196 306l-33 4v37h219v-37l-69 -4q8 -19 21.5 -44t33.5 -57l107 -169l80 128q24 38 43 76t27 64l-70 6v37h184v-37l-38 -6l-192 -298q-7 -11 -9 -20.5t-2 -30.5v-73q0 -54 1 -89t4 -55zM155 613
zM41 613zM553 613zM482 613zM383 840l52 -41v-5l-169 -89h-1l-40 13v2l156 120h2z" />
    <glyph glyph-name="Ycircumflex" unicode="&#x176;" horiz-adv-x="598" 
d="M351 41l67 -4v-37h-238v37l67 4q3 19 4 52.5t1 85.5v75q0 19 -2 28t-10 21l-196 306l-33 4v37h219v-37l-69 -4q8 -19 21.5 -44t33.5 -57l107 -169l80 128q24 38 43 76t27 64l-70 6v37h184v-37l-38 -6l-192 -298q-7 -11 -9 -20.5t-2 -30.5v-73q0 -54 1 -89t4 -55zM155 613
zM41 613zM553 613zM482 613zM447 729v-5l-49 -21h-5l-96 87l-86 -84l-2 -1l-36 2v5l130 144h23z" />
    <glyph glyph-name="Ydieresis" unicode="&#x178;" horiz-adv-x="598" 
d="M351 41l67 -4v-37h-238v37l67 4q3 19 4 52.5t1 85.5v75q0 19 -2 28t-10 21l-196 306l-33 4v37h219v-37l-69 -4q8 -19 21.5 -44t33.5 -57l107 -169l80 128q24 38 43 76t27 64l-70 6v37h184v-37l-38 -6l-192 -298q-7 -11 -9 -20.5t-2 -30.5v-73q0 -54 1 -89t4 -55zM155 613
zM41 613zM553 613zM482 613zM282 791q0 -26 -14.5 -41t-40.5 -15q-23 0 -35.5 11.5t-12.5 33.5q0 27 13 39t42 12q23 0 35.5 -10.5t12.5 -29.5zM441 790q0 -25 -13.5 -40t-37.5 -15q-26 0 -39 13.5t-13 39.5q0 21 12.5 32t36.5 11q29 0 41.5 -10t12.5 -31z" />
    <glyph glyph-name="Ygrave" unicode="&#x1ef2;" horiz-adv-x="598" 
d="M351 41l67 -4v-37h-238v37l67 4q3 19 4 52.5t1 85.5v75q0 19 -2 28t-10 21l-196 306l-33 4v37h219v-37l-69 -4q8 -19 21.5 -44t33.5 -57l107 -169l80 128q24 38 43 76t27 64l-70 6v37h184v-37l-38 -6l-192 -298q-7 -11 -9 -20.5t-2 -30.5v-73q0 -54 1 -89t4 -55zM155 613
zM41 613zM553 613zM482 613zM185 794v5l52 41h2l156 -120v-2l-40 -13h-1z" />
    <glyph glyph-name="uni1EF8" unicode="&#x1ef8;" horiz-adv-x="598" 
d="M351 41l67 -4v-37h-238v37l67 4q3 19 4 52.5t1 85.5v75q0 19 -2 28t-10 21l-196 306l-33 4v37h219v-37l-69 -4q8 -19 21.5 -44t33.5 -57l107 -169l80 128q24 38 43 76t27 64l-70 6v37h184v-37l-38 -6l-192 -298q-7 -11 -9 -20.5t-2 -30.5v-73q0 -54 1 -89t4 -55zM155 613
zM41 613zM553 613zM482 613zM244 833q8 0 17.5 -1.5t18.5 -4.5l77 -23q13 -4 20.5 -5.5t12.5 -1.5q12 0 19 6.5t23 37.5l31 -5v-4q-25 -68 -39 -85.5t-39 -17.5q-7 0 -16 2t-20 5l-77 22q-13 4 -20.5 5.5t-12.5 1.5q-12 0 -19 -6.5t-23 -36.5l-31 4v4q24 67 38.5 85t39.5 18
z" />
    <glyph glyph-name="Zacute" unicode="&#x179;" horiz-adv-x="589" 
d="M565 120l-62 -122l-2 -1q-47 2 -72.5 2.5t-45.5 0.5h-362l-2 5l311 465q37 55 51.5 79t24.5 43q-22 4 -51.5 6t-64.5 2h-87q-61 0 -87 -11t-55 -54l-26 15l55 102l2 1q47 -2 72.5 -2.5t46.5 -0.5h337l2 -5l-311 -465q-33 -50 -49 -75.5t-27 -46.5q23 -4 53.5 -6t66.5 -2
h83q77 0 106.5 15t65.5 69zM361 840l52 -41v-5l-169 -89h-1l-40 13v2l156 120h2z" />
    <glyph glyph-name="Zcaron" unicode="&#x17d;" horiz-adv-x="589" 
d="M565 120l-62 -122l-2 -1q-47 2 -72.5 2.5t-45.5 0.5h-362l-2 5l311 465q37 55 51.5 79t24.5 43q-22 4 -51.5 6t-64.5 2h-87q-61 0 -87 -11t-55 -54l-26 15l55 102l2 1q47 -2 72.5 -2.5t46.5 -0.5h337l2 -5l-311 -465q-33 -50 -49 -75.5t-27 -46.5q23 -4 53.5 -6t66.5 -2
h83q77 0 106.5 15t65.5 69zM446 843l-1 -4l-145 -136h-23l-109 128l1 5l55 22l6 -1l81 -93l100 83h1z" />
    <glyph glyph-name="Zdotaccent" unicode="&#x17b;" horiz-adv-x="589" 
d="M565 120l-62 -122l-2 -1q-47 2 -72.5 2.5t-45.5 0.5h-362l-2 5l311 465q37 55 51.5 79t24.5 43q-22 4 -51.5 6t-64.5 2h-87q-61 0 -87 -11t-55 -54l-26 15l55 102l2 1q47 -2 72.5 -2.5t46.5 -0.5h337l2 -5l-311 -465q-33 -50 -49 -75.5t-27 -46.5q23 -4 53.5 -6t66.5 -2
h83q77 0 106.5 15t65.5 69zM344 781q0 -19 -19.5 -32.5t-43.5 -13.5q-20 0 -35 16t-15 33q0 16 26 32t49 16q17 0 27.5 -15.5t10.5 -35.5z" />
    <glyph glyph-name="ij" unicode="&#x133;" horiz-adv-x="545" 
d="M190 589q0 -18 -20 -32t-44 -14q-20 0 -35 16t-15 33q0 16 26.5 32.5t49.5 16.5q17 0 27.5 -16t10.5 -36zM244 34v-34h-201v34l54 5q1 24 1.5 57t0.5 81v65q0 61 -1 98t-4 55l-54 2v34l149 6l1 -1q-1 -32 -1.5 -64t-0.5 -113v-90q0 -48 0.5 -79.5t1.5 -50.5zM458 589
q0 -18 -20 -32t-44 -14q-20 0 -35 16t-15 33q0 16 26 32.5t50 16.5q16 0 27 -16t11 -36zM379 14v228q0 61 -1 98t-4 55l-57 2v34l151 6l1 -1q-1 -37 -1.5 -74.5t-0.5 -129.5v-228q0 -47 -13 -90.5t-41 -88.5q-29 -48 -55 -64.5t-63 -16.5q-6 0 -11 0.5t-12 1.5l-1 2v68l1 1
h8h16q14 -1 21 -1h11q21 0 32 4t16 13q5 7 7 17t2 24v11q-1 7 -2 24q-2 37 -3 60t-1 45z" />
    <glyph glyph-name="ae" unicode="&#xe6;" horiz-adv-x="709" 
d="M653 74l-12 -31q-21 -20 -65 -35.5t-85 -15.5q-64 0 -107.5 19.5t-67.5 58.5q-44 -47 -74.5 -60t-75.5 -13q-66 0 -97 26t-31 80q0 37 16 61.5t58 47.5q37 20 80 30.5t94 12.5v45q0 47 -20 67t-67 20q-33 0 -63.5 -10t-65.5 -33l-2 1v49q32 20 77.5 32.5t87.5 12.5
q53 0 82.5 -12.5t43.5 -40.5q11 9 23 16t25 13q28 14 51.5 19.5t53.5 5.5q76 0 115 -34.5t39 -102.5q0 -12 -1 -26.5t-3 -31.5l-70 -53l-219 5q0 -75 41.5 -109.5t133.5 -34.5q27 0 51.5 5.5t51.5 17.5zM583 300q0 50 -22.5 71t-74.5 21q-65 0 -87.5 -33t-25.5 -118l207 3
q1 11 2 26t1 30zM124 124v-7q0 -35 21 -52t65 -17q38 0 57 20.5t19 60.5v62q-15 6 -32.5 8.5t-38.5 2.5q-51 0 -71 -17t-20 -61z" />
    <glyph glyph-name="eth" unicode="&#xf0;" horiz-adv-x="527" 
d="M370 22q-29 -16 -55.5 -23t-60.5 -7q-52 0 -88.5 13t-64.5 41q-25 25 -38.5 63.5t-13.5 86.5q0 65 19.5 105t75.5 80q43 30 74.5 40.5t73.5 10.5q11 0 26.5 -1.5t34.5 -3.5q-15 37 -37 70.5t-52 63.5l-135 -76h-3v43l108 61q-30 24 -61.5 43t-64.5 33v9l55 25h5
q36 -16 68.5 -34.5t62.5 -39.5l93 53h2v-43l-63 -35q73 -62 108.5 -144.5t35.5 -188.5v-44q0 -78 -24 -123.5t-81 -77.5zM176 75q17 -17 45 -26t64 -9q21 0 35.5 3.5t26.5 10.5q22 14 29.5 41.5t7.5 94.5v63q0 28 -2.5 53.5t-7.5 47.5q-39 12 -68.5 17.5t-59.5 5.5
q-22 0 -39.5 -5t-29.5 -15q-20 -15 -28.5 -46t-8.5 -86v-7q0 -61 8 -92t28 -51z" />
    <glyph glyph-name="dcroat" unicode="&#x111;" horiz-adv-x="548" 
d="M515 32v-32l-101 -20h-1q-13 11 -22.5 33.5t-11.5 50.5q-47 -42 -76 -53t-76 -11q-91 0 -134.5 47t-43.5 145q0 68 19 108.5t76 80.5q41 30 73 40.5t75 10.5q19 0 39 -1t38 -3v100h-136v39h135q0 30 -1 52.5t-3 34.5l-52 2v34l147 5l1 -1q-1 -65 -1 -86q-1 -21 -1 -41h63
v-39h-63v-352q0 -92 9 -116t48 -28zM138 221v-17q0 -74 31.5 -108t102.5 -34q28 0 54 9.5t43 26.5v264q-39 8 -67.5 11.5t-55.5 3.5q-23 0 -40 -4.5t-29 -14.5q-21 -16 -30 -48t-9 -89z" />
    <glyph glyph-name="oslash" unicode="&#xf8;" horiz-adv-x="534" 
d="M376 23q-29 -17 -56.5 -24t-63.5 -7q-33 0 -58.5 4.5t-46.5 14.5l-60 -84h-2l-26 33l52 73q-3 2 -5.5 4.5l-8.5 8.5q-26 26 -39 65t-13 90q0 79 24.5 126.5t84.5 81.5q29 17 56.5 24t63.5 7q35 0 61.5 -5.5t48.5 -16.5l56 79h2l26 -33l-49 -69l10 -10q26 -26 39 -65
t13 -89q0 -80 -24.5 -127t-84.5 -81zM141 232v-9q0 -51 4.5 -79.5t14.5 -47.5l189 268q-17 14 -43.5 21t-59.5 7q-21 0 -37 -3.5t-29 -11.5q-23 -15 -31 -45.5t-8 -99.5zM393 199v10q0 49 -3.5 76t-12.5 45l-188 -265q18 -12 42.5 -18.5t56.5 -6.5q23 0 38.5 3.5t27.5 11.5
q23 14 31 43.5t8 100.5z" />
    <glyph glyph-name="thorn" unicode="&#xfe;" 
d="M230 -239v-2l-17 -31l-134 20q2 42 2.5 92.5t0.5 179.5v463q0 59 -1.5 103t-3.5 68l-52 2v34l147 5l1 -1q-2 -56 -2.5 -100.5t-0.5 -103.5v-110q38 29 69.5 40.5t69.5 11.5q94 0 138 -47t44 -147q0 -75 -15 -111.5t-63 -70.5q-48 -33 -81 -44.5t-81 -11.5q-19 0 -40.5 1
t-40.5 3v-22q0 -53 2 -115.5t4 -83.5zM276 370q-33 0 -57.5 -7t-48.5 -24v-271q34 -7 64 -10.5t65 -3.5q22 0 40 5t30 15q18 16 25.5 46.5t7.5 95.5v7q0 77 -29.5 112t-96.5 35z" />
    <glyph glyph-name="hbar" unicode="&#x127;" horiz-adv-x="580" 
d="M178 39l50 -5v-34h-191v34l48 5q1 26 1.5 61t0.5 86v342h-63v39h62q-1 24 -1 45q-1 21 -3 42l-52 2v34l147 5l1 -1l-3 -127h136v-39h-136v-158q43 36 81 51t87 15q84 0 120 -39.5t36 -130.5v-167q0 -17 0.5 -33.5t1.5 -24.5l41 -7v-34h-197v34l56 6q4 12 6.5 47t2.5 84
v86q0 63 -27.5 88t-97.5 25q-31 0 -58 -10.5t-52 -31.5v-178q0 -32 0.5 -57t2.5 -54z" />
    <glyph glyph-name="lslash" unicode="&#x142;" horiz-adv-x="300" 
d="M197 39l54 -5v-34h-201v34l54 5q1 26 1.5 61t0.5 86v95l-74 -38h-2v44l76 39v157q0 59 -1.5 103t-3.5 68l-59 2v34l154 5l1 -1q-2 -56 -2.5 -100.5t-0.5 -103.5v-119l67 35h2v-43l-69 -36v-176q0 -32 0.5 -57.5t2.5 -54.5z" />
    <glyph glyph-name="ldot" unicode="&#x140;" horiz-adv-x="384" 
d="M241 34v-34h-201v34l54 5q1 26 1.5 61t0.5 86v297q0 59 -1.5 103t-3.5 68l-58 2v34l153 5l1 -1q-1 -36 -1.5 -73.5t-0.5 -130.5v-339q0 -41 0.5 -68t1.5 -44zM380 321q0 -28 -13.5 -42t-40.5 -14q-26 0 -39 12t-13 36q0 25 14.5 38t42.5 13q24 0 36.5 -11t12.5 -32z" />
    <glyph glyph-name="oe" unicode="&#x153;" horiz-adv-x="821" 
d="M765 74l-12 -31q-21 -20 -65 -35.5t-85 -15.5q-51 0 -88.5 12.5t-64.5 38.5q-5 5 -9.5 10.5t-8.5 10.5q-10 -10 -23.5 -20t-32.5 -21q-29 -17 -56.5 -24t-63.5 -7q-53 0 -90 13t-65 41q-26 26 -39 65t-13 90q0 79 24.5 126.5t84.5 81.5q29 17 56.5 24t63.5 7q52 0 89 -13
t66 -42q4 -4 8 -9l8 -10q14 15 31.5 27t38.5 22q28 14 51.5 19.5t53.5 5.5q76 0 115 -34.5t39 -102.5q0 -17 -1 -32t-3 -26l-70 -53l-219 5q0 -75 41.5 -109.5t133.5 -34.5q27 0 51.5 5.5t51.5 17.5zM176 75q17 -17 45.5 -26t66.5 -9q23 0 38.5 3.5t27.5 11.5q23 14 31 43.5
t8 100.5v10q0 66 -7.5 96.5t-27.5 50.5q-18 18 -46.5 27t-65.5 9q-21 0 -37 -3.5t-29 -11.5q-23 -15 -31 -45.5t-8 -99.5v-9q0 -66 7.5 -97t27.5 -51zM695 300q0 50 -22.5 71t-74.5 21q-65 0 -87.5 -33t-25.5 -118l208 3q1 16 1.5 30t0.5 26z" />
    <glyph glyph-name="tbar" unicode="&#x167;" horiz-adv-x="334" 
d="M316 82l14 -14q-31 -44 -59.5 -60t-68.5 -16q-27 0 -50.5 8.5t-37.5 23.5q-14 13 -19 30.5t-5 49.5v106h-63v39h63v127h-68v43h68v116l88 4v-120h134l1 -2l-11 -44l-124 3v-127h100v-39h-100v-93q0 -14 4 -24.5t12 -18.5q9 -9 23.5 -14t32.5 -5q16 0 31.5 6.5t34.5 20.5z
" />
    <glyph glyph-name="germandbls" unicode="&#xdf;" horiz-adv-x="568" 
d="M402 182l-66 33q-34 17 -47.5 37.5t-13.5 56.5q0 33 13 56.5t55 65.5q28 26 36 49.5t8 69.5q0 54 -25 78.5t-81 24.5q-46 0 -71.5 -28t-25.5 -79v-394q0 -41 0.5 -68t1.5 -44l60 -6v-34h-207v34l51 5q3 14 4 51t1 97v189h-53v43h53v56q0 64 19 103t75 79q32 23 62 33.5
t64 10.5q78 0 116.5 -32t38.5 -98q0 -40 -15 -69t-68 -77q-22 -20 -31 -37t-9 -42q0 -27 6.5 -40t35.5 -28l65 -31q44 -21 60 -43t16 -64q0 -41 -14 -64.5t-58 -50.5q-26 -16 -51.5 -22.5t-57.5 -6.5q-13 0 -28 1t-24 3l-2 1l-10 64l2 1q26 -11 52 -17t52 -6q35 0 47 12.5
t12 47.5q0 33 -8.5 48.5t-39.5 30.5z" />
    <glyph glyph-name="dotlessi" unicode="&#x131;" horiz-adv-x="282" 
d="M244 34v-34h-201v34l54 5q1 24 1.5 57t0.5 81v65q0 61 -1 98t-4 55l-54 2v34l149 6l1 -1q-1 -32 -1.5 -64t-0.5 -113v-90q0 -48 0.5 -79.5t1.5 -50.5z" />
    <glyph glyph-name="uni0237" unicode="&#x237;" horiz-adv-x="261" 
d="M95 61v181q0 61 -1 98t-4 55l-55 2v34l149 6l1 -1q-1 -37 -1.5 -74.5t-0.5 -129.5v-222q0 -45 -11 -83.5t-39 -85.5q-28 -46 -55.5 -63.5t-68.5 -17.5q-5 0 -10 0.5t-10 1.5l-1 2v65l2 2h12h24q10 -1 15 -1h8q20 0 30.5 4t15.5 14q5 9 7.5 19t2.5 24q0 4 -0.5 10.5
t-2.5 21.5q-4 41 -5.5 72.5t-1.5 65.5z" />
    <glyph glyph-name="aacute" unicode="&#xe1;" horiz-adv-x="459" 
d="M424 32v-32l-93 -11h-3q-13 6 -23 20t-15 35q-33 -29 -59.5 -38t-64.5 -9q-66 0 -97 26t-31 80q0 37 16 61.5t58 47.5q37 20 80 30.5t94 12.5v45q0 47 -20 67t-67 20q-33 0 -63.5 -10t-65.5 -33l-2 1v49q32 20 77.5 32.5t87.5 12.5q79 0 110.5 -30t31.5 -105v-29
q-1 -19 -2 -65q-2 -52 -2.5 -75t-0.5 -36q0 -33 12 -48.5t42 -18.5zM124 124v-7q0 -35 21 -52t65 -17q33 0 52 15.5t20 43.5l2 84q-15 6 -32 8.5t-37 2.5q-51 0 -71 -17t-20 -61zM300 630l52 -41v-5l-169 -89h-1l-40 13v2l156 120h2z" />
    <glyph glyph-name="abreve" unicode="&#x103;" horiz-adv-x="459" 
d="M424 32v-32l-93 -11h-3q-13 6 -23 20t-15 35q-33 -29 -59.5 -38t-64.5 -9q-66 0 -97 26t-31 80q0 37 16 61.5t58 47.5q37 20 80 30.5t94 12.5v45q0 47 -20 67t-67 20q-33 0 -63.5 -10t-65.5 -33l-2 1v49q32 20 77.5 32.5t87.5 12.5q79 0 110.5 -30t31.5 -105v-29
q-1 -19 -2 -65q-2 -52 -2.5 -75t-0.5 -36q0 -33 12 -48.5t42 -18.5zM124 124v-7q0 -35 21 -52t65 -17q33 0 52 15.5t20 43.5l2 84q-15 6 -32 8.5t-37 2.5q-51 0 -71 -17t-20 -61zM339 632l28 -5l2 -6q-23 -63 -57 -92.5t-83 -29.5q-50 0 -84 30t-45 84l3 4l54 14h6
q16 -42 37 -60.5t52 -18.5q26 0 45.5 18.5t40.5 61.5h1z" />
    <glyph glyph-name="acircumflex" unicode="&#xe2;" horiz-adv-x="459" 
d="M424 32v-32l-93 -11h-3q-13 6 -23 20t-15 35q-33 -29 -59.5 -38t-64.5 -9q-66 0 -97 26t-31 80q0 37 16 61.5t58 47.5q37 20 80 30.5t94 12.5v45q0 47 -20 67t-67 20q-33 0 -63.5 -10t-65.5 -33l-2 1v49q32 20 77.5 32.5t87.5 12.5q79 0 110.5 -30t31.5 -105v-29
q-1 -19 -2 -65q-2 -52 -2.5 -75t-0.5 -36q0 -33 12 -48.5t42 -18.5zM124 124v-7q0 -35 21 -52t65 -17q33 0 52 15.5t20 43.5l2 84q-15 6 -32 8.5t-37 2.5q-51 0 -71 -17t-20 -61zM364 519v-5l-49 -21h-5l-96 87l-86 -84l-2 -1l-36 2v5l130 144h23z" />
    <glyph glyph-name="adieresis" unicode="&#xe4;" horiz-adv-x="459" 
d="M424 32v-32l-93 -11h-3q-13 6 -23 20t-15 35q-33 -29 -59.5 -38t-64.5 -9q-66 0 -97 26t-31 80q0 37 16 61.5t58 47.5q37 20 80 30.5t94 12.5v45q0 47 -20 67t-67 20q-33 0 -63.5 -10t-65.5 -33l-2 1v49q32 20 77.5 32.5t87.5 12.5q79 0 110.5 -30t31.5 -105v-29
q-1 -19 -2 -65q-2 -52 -2.5 -75t-0.5 -36q0 -33 12 -48.5t42 -18.5zM124 124v-7q0 -35 21 -52t65 -17q33 0 52 15.5t20 43.5l2 84q-15 6 -32 8.5t-37 2.5q-51 0 -71 -17t-20 -61zM199 581q0 -26 -14.5 -41t-40.5 -15q-23 0 -35.5 11.5t-12.5 33.5q0 27 13 39t42 12
q23 0 35.5 -10.5t12.5 -29.5zM358 580q0 -25 -13.5 -40t-37.5 -15q-26 0 -39 13.5t-13 39.5q0 21 12.5 32t36.5 11q29 0 41.5 -10t12.5 -31z" />
    <glyph glyph-name="agrave" unicode="&#xe0;" horiz-adv-x="459" 
d="M424 32v-32l-93 -11h-3q-13 6 -23 20t-15 35q-33 -29 -59.5 -38t-64.5 -9q-66 0 -97 26t-31 80q0 37 16 61.5t58 47.5q37 20 80 30.5t94 12.5v45q0 47 -20 67t-67 20q-33 0 -63.5 -10t-65.5 -33l-2 1v49q32 20 77.5 32.5t87.5 12.5q79 0 110.5 -30t31.5 -105v-29
q-1 -19 -2 -65q-2 -52 -2.5 -75t-0.5 -36q0 -33 12 -48.5t42 -18.5zM124 124v-7q0 -35 21 -52t65 -17q33 0 52 15.5t20 43.5l2 84q-15 6 -32 8.5t-37 2.5q-51 0 -71 -17t-20 -61zM102 584v5l52 41h2l156 -120v-2l-40 -13h-1z" />
    <glyph glyph-name="amacron" unicode="&#x101;" horiz-adv-x="459" 
d="M424 32v-32l-93 -11h-3q-13 6 -23 20t-15 35q-33 -29 -59.5 -38t-64.5 -9q-66 0 -97 26t-31 80q0 37 16 61.5t58 47.5q37 20 80 30.5t94 12.5v45q0 47 -20 67t-67 20q-33 0 -63.5 -10t-65.5 -33l-2 1v49q32 20 77.5 32.5t87.5 12.5q79 0 110.5 -30t31.5 -105v-29
q-1 -19 -2 -65q-2 -52 -2.5 -75t-0.5 -36q0 -33 12 -48.5t42 -18.5zM124 124v-7q0 -35 21 -52t65 -17q33 0 52 15.5t20 43.5l2 84q-15 6 -32 8.5t-37 2.5q-51 0 -71 -17t-20 -61zM351 589v-48h-248v48h248z" />
    <glyph glyph-name="aogonek" unicode="&#x105;" horiz-adv-x="459" 
d="M406 -155l18 -16q-20 -29 -48 -43.5t-63 -14.5q-47 0 -71.5 22.5t-24.5 64.5q0 40 27.5 74t80.5 58q-13 8 -22 21.5t-13 32.5q-33 -29 -59.5 -38t-64.5 -9q-66 0 -97 26t-31 80q0 37 16 61.5t58 47.5q37 20 80 30.5t94 12.5v45q0 47 -20 67t-67 20q-33 0 -63.5 -10
t-65.5 -33l-2 1v49q32 20 77.5 32.5t87.5 12.5q79 0 110.5 -30t31.5 -105v-29q-1 -19 -2 -65q-2 -52 -2.5 -75t-0.5 -36q0 -33 12 -48.5t42 -18.5v-32q-69 -19 -103.5 -47t-34.5 -65q0 -33 15 -49.5t45 -16.5q18 0 32.5 5.5t27.5 17.5zM124 124v-7q0 -35 21 -52t65 -17
q33 0 52 15.5t20 43.5l2 84q-15 6 -32 8.5t-37 2.5q-51 0 -71 -17t-20 -61z" />
    <glyph glyph-name="aring" unicode="&#xe5;" horiz-adv-x="459" 
d="M424 32v-32l-93 -11h-3q-13 6 -23 20t-15 35q-33 -29 -59.5 -38t-64.5 -9q-66 0 -97 26t-31 80q0 37 16 61.5t58 47.5q37 20 80 30.5t94 12.5v45q0 47 -20 67t-67 20q-33 0 -63.5 -10t-65.5 -33l-2 1v49q32 20 77.5 32.5t87.5 12.5q79 0 110.5 -30t31.5 -105v-29
q-1 -19 -2 -65q-2 -52 -2.5 -75t-0.5 -36q0 -33 12 -48.5t42 -18.5zM124 124v-7q0 -35 21 -52t65 -17q33 0 52 15.5t20 43.5l2 84q-15 6 -32 8.5t-37 2.5q-51 0 -71 -17t-20 -61zM122 568q0 45 32 73t84 28q45 0 69.5 -21t24.5 -58q0 -45 -32 -73t-84 -28q-44 0 -69 21
t-25 58zM278 578q0 26 -14.5 39.5t-42.5 13.5q-26 0 -38.5 -13t-12.5 -41q0 -27 14.5 -40.5t42.5 -13.5q27 0 39 13t12 42z" />
    <glyph glyph-name="atilde" unicode="&#xe3;" horiz-adv-x="459" 
d="M424 32v-32l-93 -11h-3q-13 6 -23 20t-15 35q-33 -29 -59.5 -38t-64.5 -9q-66 0 -97 26t-31 80q0 37 16 61.5t58 47.5q37 20 80 30.5t94 12.5v45q0 47 -20 67t-67 20q-33 0 -63.5 -10t-65.5 -33l-2 1v49q32 20 77.5 32.5t87.5 12.5q79 0 110.5 -30t31.5 -105v-29
q-1 -19 -2 -65q-2 -52 -2.5 -75t-0.5 -36q0 -33 12 -48.5t42 -18.5zM124 124v-7q0 -35 21 -52t65 -17q33 0 52 15.5t20 43.5l2 84q-15 6 -32 8.5t-37 2.5q-51 0 -71 -17t-20 -61zM161 623q8 0 17.5 -1.5t18.5 -4.5l77 -23q13 -4 20.5 -5.5t12.5 -1.5q12 0 19 6.5t23 37.5
l31 -5v-4q-25 -68 -39 -85.5t-39 -17.5q-7 0 -16 2t-20 5l-77 22q-13 4 -20.5 5.5t-12.5 1.5q-12 0 -19 -6.5t-23 -36.5l-31 4v4q24 67 38.5 85t39.5 18z" />
    <glyph glyph-name="aeacute" unicode="&#x1fd;" horiz-adv-x="709" 
d="M653 74l-12 -31q-21 -20 -65 -35.5t-85 -15.5q-64 0 -107.5 19.5t-67.5 58.5q-44 -47 -74.5 -60t-75.5 -13q-66 0 -97 26t-31 80q0 37 16 61.5t58 47.5q37 20 80 30.5t94 12.5v45q0 47 -20 67t-67 20q-33 0 -63.5 -10t-65.5 -33l-2 1v49q32 20 77.5 32.5t87.5 12.5
q53 0 82.5 -12.5t43.5 -40.5q11 9 23 16t25 13q28 14 51.5 19.5t53.5 5.5q76 0 115 -34.5t39 -102.5q0 -12 -1 -26.5t-3 -31.5l-70 -53l-219 5q0 -75 41.5 -109.5t133.5 -34.5q27 0 51.5 5.5t51.5 17.5zM583 300q0 50 -22.5 71t-74.5 21q-65 0 -87.5 -33t-25.5 -118l207 3
q1 11 2 26t1 30zM124 124v-7q0 -35 21 -52t65 -17q38 0 57 20.5t19 60.5v62q-15 6 -32.5 8.5t-38.5 2.5q-51 0 -71 -17t-20 -61zM437 630l52 -41v-5l-169 -89h-1l-40 13v2l156 120h2z" />
    <glyph glyph-name="cacute" unicode="&#x107;" horiz-adv-x="433" 
d="M396 80h2l17 -22q-28 -31 -70 -48.5t-86 -17.5q-52 0 -92 14.5t-70 44.5q-24 24 -36 60t-12 83q0 79 25 127.5t88 87.5q29 17 56.5 24t62.5 7q32 0 65 -7t56 -19v-2l-17 -66h-2q-45 23 -81 34t-67 11q-51 0 -74 -40.5t-23 -128.5v-6q0 -81 42.5 -124.5t120.5 -43.5
q26 0 50.5 8.5t44.5 23.5zM332 630l52 -41v-5l-169 -89h-1l-40 13v2l156 120h2z" />
    <glyph glyph-name="ccaron" unicode="&#x10d;" horiz-adv-x="433" 
d="M396 80h2l17 -22q-28 -31 -70 -48.5t-86 -17.5q-52 0 -92 14.5t-70 44.5q-24 24 -36 60t-12 83q0 79 25 127.5t88 87.5q29 17 56.5 24t62.5 7q32 0 65 -7t56 -19v-2l-17 -66h-2q-45 23 -81 34t-67 11q-51 0 -74 -40.5t-23 -128.5v-6q0 -81 42.5 -124.5t120.5 -43.5
q26 0 50.5 8.5t44.5 23.5zM418 633l-1 -4l-145 -136h-23l-109 128l1 5l55 22l6 -1l81 -93l100 83h1z" />
    <glyph glyph-name="ccedilla" unicode="&#xe7;" horiz-adv-x="433" 
d="M368 -143q0 -44 -50 -79t-105 -35q-16 0 -29.5 2t-24.5 7l-15 65l3 2q24 -11 58.5 -18.5t57.5 -7.5q22 0 32.5 9t10.5 29q0 31 -29 43q-18 8 -48 8q-18 0 -39 -3l-3 10l60 103q-47 1 -84.5 16t-65.5 43q-24 24 -36 60t-12 83q0 79 25 127.5t88 87.5q29 17 56.5 24t62.5 7
q32 0 65 -7t56 -19v-2l-17 -66h-2q-45 23 -81 34t-67 11q-51 0 -74 -40.5t-23 -128.5v-6q0 -81 42.5 -124.5t120.5 -43.5q26 0 50.5 8.5t44.5 23.5h2l17 -22q-23 -25 -56 -42t-69 -22l-32 -57q57 -1 83.5 -20t26.5 -60zM293 -1z" />
    <glyph glyph-name="ccircumflex" unicode="&#x109;" horiz-adv-x="433" 
d="M396 80h2l17 -22q-28 -31 -70 -48.5t-86 -17.5q-52 0 -92 14.5t-70 44.5q-24 24 -36 60t-12 83q0 79 25 127.5t88 87.5q29 17 56.5 24t62.5 7q32 0 65 -7t56 -19v-2l-17 -66h-2q-45 23 -81 34t-67 11q-51 0 -74 -40.5t-23 -128.5v-6q0 -81 42.5 -124.5t120.5 -43.5
q26 0 50.5 8.5t44.5 23.5zM396 519v-5l-49 -21h-5l-96 87l-86 -84l-2 -1l-36 2v5l130 144h23z" />
    <glyph glyph-name="cdotaccent" unicode="&#x10b;" horiz-adv-x="433" 
d="M396 80h2l17 -22q-28 -31 -70 -48.5t-86 -17.5q-52 0 -92 14.5t-70 44.5q-24 24 -36 60t-12 83q0 79 25 127.5t88 87.5q29 17 56.5 24t62.5 7q32 0 65 -7t56 -19v-2l-17 -66h-2q-45 23 -81 34t-67 11q-51 0 -74 -40.5t-23 -128.5v-6q0 -81 42.5 -124.5t120.5 -43.5
q26 0 50.5 8.5t44.5 23.5zM315 571q0 -19 -19.5 -32.5t-43.5 -13.5q-20 0 -35 16t-15 33q0 16 26 32t49 16q17 0 27.5 -15.5t10.5 -35.5z" />
    <glyph glyph-name="dcaron" unicode="&#x10f;" horiz-adv-x="646" 
d="M626 654q0 -42 -17.5 -95t-53.5 -120l-28 11q13 41 19.5 79t6.5 72q0 19 -5 37t-15 37l1 4l81 17l4 -1q3 -7 5 -18t2 -23zM515 32v-32l-101 -20h-1q-13 11 -22.5 33.5t-11.5 50.5q-47 -42 -76 -53t-76 -11q-91 0 -134.5 47t-43.5 145q0 68 19 108.5t76 80.5
q41 30 73 40.5t75 10.5q19 0 39 -1t38 -3v55q0 70 -1 112t-4 59l-52 2v34l147 5l1 -1q-1 -36 -1.5 -73.5t-0.5 -130.5v-314q0 -92 9 -116t48 -28zM138 221v-17q0 -74 31.5 -108t102.5 -34q28 0 54 9.5t43 26.5v264q-39 8 -67.5 11.5t-55.5 3.5q-23 0 -40 -4.5t-29 -14.5
q-21 -16 -30 -48t-9 -89z" />
    <glyph glyph-name="eacute" unicode="&#xe9;" horiz-adv-x="472" 
d="M416 74l-12 -31q-21 -20 -65 -35.5t-85 -15.5q-51 0 -88.5 12.5t-64.5 38.5q-28 27 -40 64.5t-12 97.5q0 80 27.5 129t93.5 81q28 14 51.5 19.5t53.5 5.5q76 0 115 -34.5t39 -102.5q0 -17 -1 -32t-3 -26l-70 -53l-219 5q0 -75 41.5 -109.5t133.5 -34.5q27 0 51.5 5.5
t51.5 17.5zM346 300q0 50 -22.5 71t-74.5 21q-65 0 -87.5 -33t-25.5 -118l208 3q1 16 1.5 30t0.5 26zM322 630l52 -41v-5l-169 -89h-1l-40 13v2l156 120h2z" />
    <glyph glyph-name="ebreve" unicode="&#x115;" horiz-adv-x="472" 
d="M416 74l-12 -31q-21 -20 -65 -35.5t-85 -15.5q-51 0 -88.5 12.5t-64.5 38.5q-28 27 -40 64.5t-12 97.5q0 80 27.5 129t93.5 81q28 14 51.5 19.5t53.5 5.5q76 0 115 -34.5t39 -102.5q0 -17 -1 -32t-3 -26l-70 -53l-219 5q0 -75 41.5 -109.5t133.5 -34.5q27 0 51.5 5.5
t51.5 17.5zM346 300q0 50 -22.5 71t-74.5 21q-65 0 -87.5 -33t-25.5 -118l208 3q1 16 1.5 30t0.5 26zM361 632l28 -5l2 -6q-23 -63 -57 -92.5t-83 -29.5q-50 0 -84 30t-45 84l3 4l54 14h6q16 -42 37 -60.5t52 -18.5q26 0 45.5 18.5t40.5 61.5h1z" />
    <glyph glyph-name="ecaron" unicode="&#x11b;" horiz-adv-x="472" 
d="M416 74l-12 -31q-21 -20 -65 -35.5t-85 -15.5q-51 0 -88.5 12.5t-64.5 38.5q-28 27 -40 64.5t-12 97.5q0 80 27.5 129t93.5 81q28 14 51.5 19.5t53.5 5.5q76 0 115 -34.5t39 -102.5q0 -17 -1 -32t-3 -26l-70 -53l-219 5q0 -75 41.5 -109.5t133.5 -34.5q27 0 51.5 5.5
t51.5 17.5zM346 300q0 50 -22.5 71t-74.5 21q-65 0 -87.5 -33t-25.5 -118l208 3q1 16 1.5 30t0.5 26zM408 633l-1 -4l-145 -136h-23l-109 128l1 5l55 22l6 -1l81 -93l100 83h1z" />
    <glyph glyph-name="ecircumflex" unicode="&#xea;" horiz-adv-x="472" 
d="M416 74l-12 -31q-21 -20 -65 -35.5t-85 -15.5q-51 0 -88.5 12.5t-64.5 38.5q-28 27 -40 64.5t-12 97.5q0 80 27.5 129t93.5 81q28 14 51.5 19.5t53.5 5.5q76 0 115 -34.5t39 -102.5q0 -17 -1 -32t-3 -26l-70 -53l-219 5q0 -75 41.5 -109.5t133.5 -34.5q27 0 51.5 5.5
t51.5 17.5zM346 300q0 50 -22.5 71t-74.5 21q-65 0 -87.5 -33t-25.5 -118l208 3q1 16 1.5 30t0.5 26zM386 519v-5l-49 -21h-5l-96 87l-86 -84l-2 -1l-36 2v5l130 144h23z" />
    <glyph glyph-name="edieresis" unicode="&#xeb;" horiz-adv-x="472" 
d="M416 74l-12 -31q-21 -20 -65 -35.5t-85 -15.5q-51 0 -88.5 12.5t-64.5 38.5q-28 27 -40 64.5t-12 97.5q0 80 27.5 129t93.5 81q28 14 51.5 19.5t53.5 5.5q76 0 115 -34.5t39 -102.5q0 -17 -1 -32t-3 -26l-70 -53l-219 5q0 -75 41.5 -109.5t133.5 -34.5q27 0 51.5 5.5
t51.5 17.5zM346 300q0 50 -22.5 71t-74.5 21q-65 0 -87.5 -33t-25.5 -118l208 3q1 16 1.5 30t0.5 26zM221 581q0 -26 -14.5 -41t-40.5 -15q-23 0 -35.5 11.5t-12.5 33.5q0 27 13 39t42 12q23 0 35.5 -10.5t12.5 -29.5zM380 580q0 -25 -13.5 -40t-37.5 -15q-26 0 -39 13.5
t-13 39.5q0 21 12.5 32t36.5 11q29 0 41.5 -10t12.5 -31z" />
    <glyph glyph-name="edotaccent" unicode="&#x117;" horiz-adv-x="472" 
d="M416 74l-12 -31q-21 -20 -65 -35.5t-85 -15.5q-51 0 -88.5 12.5t-64.5 38.5q-28 27 -40 64.5t-12 97.5q0 80 27.5 129t93.5 81q28 14 51.5 19.5t53.5 5.5q76 0 115 -34.5t39 -102.5q0 -17 -1 -32t-3 -26l-70 -53l-219 5q0 -75 41.5 -109.5t133.5 -34.5q27 0 51.5 5.5
t51.5 17.5zM346 300q0 50 -22.5 71t-74.5 21q-65 0 -87.5 -33t-25.5 -118l208 3q1 16 1.5 30t0.5 26zM305 571q0 -19 -19.5 -32.5t-43.5 -13.5q-20 0 -35 16t-15 33q0 16 26 32t49 16q17 0 27.5 -15.5t10.5 -35.5z" />
    <glyph glyph-name="egrave" unicode="&#xe8;" horiz-adv-x="472" 
d="M416 74l-12 -31q-21 -20 -65 -35.5t-85 -15.5q-51 0 -88.5 12.5t-64.5 38.5q-28 27 -40 64.5t-12 97.5q0 80 27.5 129t93.5 81q28 14 51.5 19.5t53.5 5.5q76 0 115 -34.5t39 -102.5q0 -17 -1 -32t-3 -26l-70 -53l-219 5q0 -75 41.5 -109.5t133.5 -34.5q27 0 51.5 5.5
t51.5 17.5zM346 300q0 50 -22.5 71t-74.5 21q-65 0 -87.5 -33t-25.5 -118l208 3q1 16 1.5 30t0.5 26zM124 584v5l52 41h2l156 -120v-2l-40 -13h-1z" />
    <glyph glyph-name="emacron" unicode="&#x113;" horiz-adv-x="472" 
d="M416 74l-12 -31q-21 -20 -65 -35.5t-85 -15.5q-51 0 -88.5 12.5t-64.5 38.5q-28 27 -40 64.5t-12 97.5q0 80 27.5 129t93.5 81q28 14 51.5 19.5t53.5 5.5q76 0 115 -34.5t39 -102.5q0 -17 -1 -32t-3 -26l-70 -53l-219 5q0 -75 41.5 -109.5t133.5 -34.5q27 0 51.5 5.5
t51.5 17.5zM346 300q0 50 -22.5 71t-74.5 21q-65 0 -87.5 -33t-25.5 -118l208 3q1 16 1.5 30t0.5 26zM373 589v-48h-248v48h248z" />
    <glyph glyph-name="eogonek" unicode="&#x119;" horiz-adv-x="472" 
d="M383 -155l19 -16q-19 -28 -48 -43t-64 -15q-46 0 -71 22.5t-25 63.5q0 37 23.5 71t73.5 67q-10 -2 -19 -2.5t-18 -0.5q-51 0 -88.5 12.5t-64.5 38.5q-28 27 -40 64.5t-12 97.5q0 80 27.5 129t93.5 81q28 14 51.5 19.5t53.5 5.5q76 0 115 -34.5t39 -102.5q0 -17 -1 -32
t-3 -26l-70 -53l-219 5q0 -75 41.5 -109.5t133.5 -34.5q27 0 51.5 5.5t51.5 17.5l2 -2l-12 -31q-16 -13 -45 -34q-30 -22 -42 -31q-29 -24 -41 -45t-12 -45q0 -34 14.5 -50t44.5 -16q18 0 32.5 5.5t27.5 17.5zM346 300q0 50 -22.5 71t-74.5 21q-65 0 -87.5 -33t-25.5 -118
l208 3q1 16 1.5 30t0.5 26z" />
    <glyph glyph-name="uni1EBD" unicode="&#x1ebd;" horiz-adv-x="472" 
d="M416 74l-12 -31q-21 -20 -65 -35.5t-85 -15.5q-51 0 -88.5 12.5t-64.5 38.5q-28 27 -40 64.5t-12 97.5q0 80 27.5 129t93.5 81q28 14 51.5 19.5t53.5 5.5q76 0 115 -34.5t39 -102.5q0 -17 -1 -32t-3 -26l-70 -53l-219 5q0 -75 41.5 -109.5t133.5 -34.5q27 0 51.5 5.5
t51.5 17.5zM346 300q0 50 -22.5 71t-74.5 21q-65 0 -87.5 -33t-25.5 -118l208 3q1 16 1.5 30t0.5 26zM183 623q8 0 17.5 -1.5t18.5 -4.5l77 -23q13 -4 20.5 -5.5t12.5 -1.5q12 0 19 6.5t23 37.5l31 -5v-4q-25 -68 -39 -85.5t-39 -17.5q-7 0 -16 2t-20 5l-77 22
q-13 4 -20.5 5.5t-12.5 1.5q-12 0 -19 -6.5t-23 -36.5l-31 4v4q24 67 38.5 85t39.5 18z" />
    <glyph glyph-name="gbreve" unicode="&#x11f;" horiz-adv-x="500" 
d="M482 -109q0 -40 -15 -66.5t-52 -53.5q-40 -29 -92.5 -42.5t-127.5 -13.5q-82 0 -124.5 22.5t-42.5 64.5q0 38 24.5 68t83.5 66q-4 6 -6 17t-2 25q0 33 12 50t51 41q-84 17 -118.5 56t-34.5 117q0 71 27 112.5t90 65.5q25 10 48.5 15t46.5 5q46 0 80.5 -12.5t56.5 -36.5
h103l2 -1l-6 -58h-70q2 -12 3.5 -23.5t1.5 -23.5q0 -72 -17.5 -108.5t-76.5 -67.5q-29 -13 -51.5 -22t-37.5 -14q-20 -12 -30 -25t-10 -26q0 -10 8 -12.5t40 -3.5l101 -3q67 -1 101 -29.5t34 -82.5zM233 400q-13 0 -26.5 -2.5t-26.5 -6.5q-33 -14 -44.5 -43t-11.5 -102v-5
q0 -38 12.5 -57.5t48.5 -36.5q21 -9 40 -14t35 -5q14 0 25 3t19 9q20 15 27.5 43t7.5 88v7q0 60 -27 91t-79 31zM166 -81q-32 -22 -46 -39.5t-14 -35.5q0 -34 46 -53t131 -19q36 0 62.5 6.5t43.5 20.5q14 11 19.5 23t5.5 29q0 40 -36 56t-122 16q-33 0 -54.5 -1t-35.5 -3z
M355 632l28 -5l2 -6q-23 -63 -57 -92.5t-83 -29.5q-50 0 -84 30t-45 84l3 4l54 14h6q16 -42 37 -60.5t52 -18.5q26 0 45.5 18.5t40.5 61.5h1z" />
    <glyph glyph-name="gcircumflex" unicode="&#x11d;" horiz-adv-x="500" 
d="M482 -109q0 -40 -15 -66.5t-52 -53.5q-40 -29 -92.5 -42.5t-127.5 -13.5q-82 0 -124.5 22.5t-42.5 64.5q0 38 24.5 68t83.5 66q-4 6 -6 17t-2 25q0 33 12 50t51 41q-84 17 -118.5 56t-34.5 117q0 71 27 112.5t90 65.5q25 10 48.5 15t46.5 5q46 0 80.5 -12.5t56.5 -36.5
h103l2 -1l-6 -58h-70q2 -12 3.5 -23.5t1.5 -23.5q0 -72 -17.5 -108.5t-76.5 -67.5q-29 -13 -51.5 -22t-37.5 -14q-20 -12 -30 -25t-10 -26q0 -10 8 -12.5t40 -3.5l101 -3q67 -1 101 -29.5t34 -82.5zM233 400q-13 0 -26.5 -2.5t-26.5 -6.5q-33 -14 -44.5 -43t-11.5 -102v-5
q0 -38 12.5 -57.5t48.5 -36.5q21 -9 40 -14t35 -5q14 0 25 3t19 9q20 15 27.5 43t7.5 88v7q0 60 -27 91t-79 31zM166 -81q-32 -22 -46 -39.5t-14 -35.5q0 -34 46 -53t131 -19q36 0 62.5 6.5t43.5 20.5q14 11 19.5 23t5.5 29q0 40 -36 56t-122 16q-33 0 -54.5 -1t-35.5 -3z
M380 519v-5l-49 -21h-5l-96 87l-86 -84l-2 -1l-36 2v5l130 144h23z" />
    <glyph glyph-name="uni0123" unicode="&#x123;" horiz-adv-x="500" 
d="M249 589q21 0 31 -11t10 -34q0 -21 -14.5 -33t-38.5 -12q-25 0 -38 17.5t-13 50.5q0 43 19 73.5t60 52.5l15 -24q-24 -15 -36.5 -33t-12.5 -37v-8t1 -5q4 2 8 2.5t9 0.5zM482 -109q0 -40 -15 -66.5t-52 -53.5q-40 -29 -92.5 -42.5t-127.5 -13.5q-82 0 -124.5 22.5
t-42.5 64.5q0 38 24.5 68t83.5 66q-4 6 -6 17t-2 25q0 33 12 50t51 41q-84 17 -118.5 56t-34.5 117q0 71 27 112.5t90 65.5q25 10 48.5 15t46.5 5q46 0 80.5 -12.5t56.5 -36.5h103l2 -1l-6 -58h-70q2 -12 3.5 -23.5t1.5 -23.5q0 -72 -17.5 -108.5t-76.5 -67.5
q-29 -13 -51.5 -22t-37.5 -14q-20 -12 -30 -25t-10 -26q0 -10 8 -12.5t40 -3.5l101 -3q67 -1 101 -29.5t34 -82.5zM233 400q-13 0 -26.5 -2.5t-26.5 -6.5q-33 -14 -44.5 -43t-11.5 -102v-5q0 -38 12.5 -57.5t48.5 -36.5q21 -9 40 -14t35 -5q14 0 25 3t19 9q20 15 27.5 43
t7.5 88v7q0 60 -27 91t-79 31zM166 -81q-32 -22 -46 -39.5t-14 -35.5q0 -34 46 -53t131 -19q36 0 62.5 6.5t43.5 20.5q14 11 19.5 23t5.5 29q0 40 -36 56t-122 16q-33 0 -54.5 -1t-35.5 -3z" />
    <glyph glyph-name="gdotaccent" unicode="&#x121;" horiz-adv-x="500" 
d="M482 -109q0 -40 -15 -66.5t-52 -53.5q-40 -29 -92.5 -42.5t-127.5 -13.5q-82 0 -124.5 22.5t-42.5 64.5q0 38 24.5 68t83.5 66q-4 6 -6 17t-2 25q0 33 12 50t51 41q-84 17 -118.5 56t-34.5 117q0 71 27 112.5t90 65.5q25 10 48.5 15t46.5 5q46 0 80.5 -12.5t56.5 -36.5
h103l2 -1l-6 -58h-70q2 -12 3.5 -23.5t1.5 -23.5q0 -72 -17.5 -108.5t-76.5 -67.5q-29 -13 -51.5 -22t-37.5 -14q-20 -12 -30 -25t-10 -26q0 -10 8 -12.5t40 -3.5l101 -3q67 -1 101 -29.5t34 -82.5zM233 400q-13 0 -26.5 -2.5t-26.5 -6.5q-33 -14 -44.5 -43t-11.5 -102v-5
q0 -38 12.5 -57.5t48.5 -36.5q21 -9 40 -14t35 -5q14 0 25 3t19 9q20 15 27.5 43t7.5 88v7q0 60 -27 91t-79 31zM166 -81q-32 -22 -46 -39.5t-14 -35.5q0 -34 46 -53t131 -19q36 0 62.5 6.5t43.5 20.5q14 11 19.5 23t5.5 29q0 40 -36 56t-122 16q-33 0 -54.5 -1t-35.5 -3z
M299 571q0 -19 -19.5 -32.5t-43.5 -13.5q-20 0 -35 16t-15 33q0 16 26 32t49 16q17 0 27.5 -15.5t10.5 -35.5z" />
    <glyph glyph-name="hcircumflex" unicode="&#x125;" horiz-adv-x="580" 
d="M178 39l50 -5v-34h-191v34l48 5q1 26 1.5 61t0.5 86v297q0 59 -1.5 103t-3.5 68l-52 2v34l147 5l1 -1q-2 -56 -2.5 -100.5t-0.5 -103.5v-120q43 36 81 51t87 15q84 0 120 -39.5t36 -130.5v-167q0 -17 0.5 -33.5t1.5 -24.5l41 -7v-34h-197v34l56 6q4 12 6.5 47t2.5 84v86
q0 63 -27.5 88t-97.5 25q-31 0 -58 -10.5t-52 -31.5v-178q0 -32 0.5 -57t2.5 -54zM266 778v-5l-49 -21h-5l-96 87l-86 -84l-2 -1l-36 2v5l130 144h23z" />
    <glyph glyph-name="i.dot" horiz-adv-x="282" 
d="M190 589q0 -18 -20 -32t-44 -14q-20 0 -35 16t-15 33q0 16 26.5 32.5t49.5 16.5q17 0 27.5 -16t10.5 -36zM244 34v-34h-201v34l54 5q1 24 1.5 57t0.5 81v65q0 61 -1 98t-4 55l-54 2v34l149 6l1 -1q-1 -32 -1.5 -64t-0.5 -113v-90q0 -48 0.5 -79.5t1.5 -50.5z" />
    <glyph glyph-name="iacute" unicode="&#xed;" horiz-adv-x="282" 
d="M244 34v-34h-201v34l54 5q1 24 1.5 57t0.5 81v65q0 61 -1 98t-4 55l-54 2v34l149 6l1 -1q-1 -32 -1.5 -64t-0.5 -113v-90q0 -48 0.5 -79.5t1.5 -50.5zM210 630l52 -41v-5l-169 -89h-1l-40 13v2l156 120h2z" />
    <glyph glyph-name="ibreve" unicode="&#x12d;" horiz-adv-x="282" 
d="M244 34v-34h-201v34l54 5q1 24 1.5 57t0.5 81v65q0 61 -1 98t-4 55l-54 2v34l149 6l1 -1q-1 -32 -1.5 -64t-0.5 -113v-90q0 -48 0.5 -79.5t1.5 -50.5zM248 632l28 -5l2 -6q-23 -63 -57 -92.5t-83 -29.5q-50 0 -84 30t-45 84l3 4l54 14h6q16 -42 37 -60.5t52 -18.5
q26 0 45.5 18.5t40.5 61.5h1z" />
    <glyph glyph-name="icircumflex" unicode="&#xee;" horiz-adv-x="282" 
d="M244 34v-34h-201v34l54 5q1 24 1.5 57t0.5 81v65q0 61 -1 98t-4 55l-54 2v34l149 6l1 -1q-1 -32 -1.5 -64t-0.5 -113v-90q0 -48 0.5 -79.5t1.5 -50.5zM273 519v-5l-49 -21h-5l-96 87l-86 -84l-2 -1l-36 2v5l130 144h23z" />
    <glyph glyph-name="idieresis" unicode="&#xef;" horiz-adv-x="282" 
d="M244 34v-34h-201v34l54 5q1 24 1.5 57t0.5 81v65q0 61 -1 98t-4 55l-54 2v34l149 6l1 -1q-1 -32 -1.5 -64t-0.5 -113v-90q0 -48 0.5 -79.5t1.5 -50.5zM108 581q0 -26 -14.5 -41t-40.5 -15q-23 0 -35.5 11.5t-12.5 33.5q0 27 13 39t42 12q23 0 35.5 -10.5t12.5 -29.5z
M267 580q0 -25 -13.5 -40t-37.5 -15q-26 0 -39 13.5t-13 39.5q0 21 12.5 32t36.5 11q29 0 41.5 -10t12.5 -31z" />
    <glyph glyph-name="igrave" unicode="&#xec;" horiz-adv-x="282" 
d="M244 34v-34h-201v34l54 5q1 24 1.5 57t0.5 81v65q0 61 -1 98t-4 55l-54 2v34l149 6l1 -1q-1 -32 -1.5 -64t-0.5 -113v-90q0 -48 0.5 -79.5t1.5 -50.5zM11 584v5l52 41h2l156 -120v-2l-40 -13h-1z" />
    <glyph glyph-name="imacron" unicode="&#x12b;" horiz-adv-x="282" 
d="M244 34v-34h-201v34l54 5q1 24 1.5 57t0.5 81v65q0 61 -1 98t-4 55l-54 2v34l149 6l1 -1q-1 -32 -1.5 -64t-0.5 -113v-90q0 -48 0.5 -79.5t1.5 -50.5zM260 589v-48h-248v48h248z" />
    <glyph glyph-name="iogonek" unicode="&#x12f;" horiz-adv-x="282" 
d="M190 589q0 -18 -20 -32t-44 -14q-20 0 -35 16t-15 33q0 16 26.5 32.5t49.5 16.5q17 0 27.5 -16t10.5 -36zM229 -155l19 -16q-20 -29 -48 -43.5t-63 -14.5q-47 0 -71.5 22t-24.5 65q0 41 33 78.5t91 63.5h-122v34l54 5q1 24 1.5 57t0.5 81v65q0 61 -1 98t-4 55l-54 2v34
l149 6l1 -1q-1 -32 -1.5 -64t-0.5 -113v-90q0 -48 0.5 -79.5t1.5 -50.5l54 -5v-34q-60 -13 -97 -43.5t-37 -68.5q0 -33 15 -49.5t45 -16.5q18 0 32.5 5.5t26.5 17.5z" />
    <glyph glyph-name="itilde" unicode="&#x129;" horiz-adv-x="282" 
d="M244 34v-34h-201v34l54 5q1 24 1.5 57t0.5 81v65q0 61 -1 98t-4 55l-54 2v34l149 6l1 -1q-1 -32 -1.5 -64t-0.5 -113v-90q0 -48 0.5 -79.5t1.5 -50.5zM70 623q8 0 17.5 -1.5t18.5 -4.5l77 -23q13 -4 20.5 -5.5t12.5 -1.5q12 0 19 6.5t23 37.5l31 -5v-4q-25 -68 -39 -85.5
t-39 -17.5q-7 0 -16 2t-20 5l-77 22q-13 4 -20.5 5.5t-12.5 1.5q-12 0 -19 -6.5t-23 -36.5l-31 4v4q24 67 38.5 85t39.5 18z" />
    <glyph glyph-name="jacute" horiz-adv-x="261" 
d="M95 61v181q0 61 -1 98t-4 55l-55 2v34l149 6l1 -1q-1 -37 -1.5 -74.5t-0.5 -129.5v-222q0 -45 -11 -83.5t-39 -85.5q-28 -46 -55.5 -63.5t-68.5 -17.5q-5 0 -10 0.5t-10 1.5l-1 2v65l2 2h12h24q10 -1 15 -1h8q20 0 30.5 4t15.5 14q5 9 7.5 19t2.5 24q0 4 -0.5 10.5
t-2.5 21.5q-4 41 -5.5 72.5t-1.5 65.5zM208 630l52 -41v-5l-169 -89h-1l-40 13v2l156 120h2z" />
    <glyph glyph-name="jcircumflex" unicode="&#x135;" horiz-adv-x="261" 
d="M95 61v181q0 61 -1 98t-4 55l-55 2v34l149 6l1 -1q-1 -37 -1.5 -74.5t-0.5 -129.5v-222q0 -45 -11 -83.5t-39 -85.5q-28 -46 -55.5 -63.5t-68.5 -17.5q-5 0 -10 0.5t-10 1.5l-1 2v65l2 2h12h24q10 -1 15 -1h8q20 0 30.5 4t15.5 14q5 9 7.5 19t2.5 24q0 4 -0.5 10.5
t-2.5 21.5q-4 41 -5.5 72.5t-1.5 65.5zM272 519v-5l-49 -21h-5l-96 87l-86 -84l-2 -1l-36 2v5l130 144h23z" />
    <glyph glyph-name="uni0137" unicode="&#x137;" horiz-adv-x="520" 
d="M178 39l50 -5v-34h-191v34l48 5q1 26 1.5 61t0.5 86v297q0 59 -1.5 103t-3.5 68l-52 2v34l147 5l1 -1q-2 -56 -2.5 -100.5t-0.5 -103.5v-231h47q13 0 24 8t33 34l83 96q19 22 35 30t41 8q10 0 21 -1t14 -3l1 -1v-47l-1 -1q-7 -2 -24 -1h-17q-15 0 -24 -4t-26 -22
l-87 -100q8 -3 15.5 -9t19.5 -20l128 -156q15 -20 25.5 -26.5t29.5 -8.5v-35h-112l-3 1l-140 180q-16 20 -25.5 26.5t-21.5 6.5h-36v-67q0 -45 0.5 -70t2.5 -38zM487 35zM292 -71q24 0 37 -17.5t13 -51.5q0 -43 -19 -73.5t-59 -52.5l-16 25q25 16 37.5 33t12.5 36v8t-1 6
q-4 -2 -7.5 -3t-9.5 -1q-21 0 -31.5 11t-10.5 34q0 22 14.5 34t39.5 12z" />
    <glyph glyph-name="lacute" unicode="&#x13a;" horiz-adv-x="281" 
d="M241 34v-34h-201v34l54 5q1 26 1.5 61t0.5 86v297q0 59 -1.5 103t-3.5 68l-58 2v34l153 5l1 -1q-1 -36 -1.5 -73.5t-0.5 -130.5v-339q0 -41 0.5 -68t1.5 -44zM210 889l52 -41v-5l-169 -89h-1l-40 13v2l156 120h2z" />
    <glyph glyph-name="lcaron" unicode="&#x13e;" horiz-adv-x="373" 
d="M353 654q0 -42 -17.5 -95t-53.5 -120l-28 11q13 41 19.5 79t6.5 72q0 20 -5 38t-16 36l1 4l82 17l3 -1q4 -6 6 -17t2 -24zM241 34v-34h-201v34l54 5q1 26 1.5 61t0.5 86v297q0 59 -1.5 103t-3.5 68l-58 2v34l153 5l1 -1q-1 -36 -1.5 -73.5t-0.5 -130.5v-339
q0 -41 0.5 -68t1.5 -44z" />
    <glyph glyph-name="uni013C" unicode="&#x13c;" horiz-adv-x="281" 
d="M241 34v-34h-201v34l54 5q1 26 1.5 61t0.5 86v297q0 59 -1.5 103t-3.5 68l-58 2v34l153 5l1 -1q-1 -36 -1.5 -73.5t-0.5 -130.5v-339q0 -41 0.5 -68t1.5 -44zM139 -71q24 0 37 -17.5t13 -51.5q0 -43 -19 -73.5t-59 -52.5l-16 25q25 16 37.5 33t12.5 36v8t-1 6
q-4 -2 -7.5 -3t-9.5 -1q-21 0 -31.5 11t-10.5 34q0 22 14.5 34t39.5 12z" />
    </font>
</defs>
</svg>
